<svg width="73" height="57" viewBox="0 0 73 57" fill="none" xmlns="http://www.w3.org/2000/svg">
<path d="M67.7112 49.8959C67.7112 50.5167 67.2026 51.0245 66.5814 51.0245H5.48081C4.85927 51.0245 4.35102 50.5167 4.35102 49.8959L3.84277 14.7831C3.84277 14.1624 4.57411 12.9503 5.91496 13.0415L65.6293 11.4966C66.4092 11.4764 67.163 11.7767 67.7151 12.3268C68.2672 12.8774 68.5694 13.6297 68.5508 14.4087L67.7116 49.8963L67.7112 49.8959Z" fill="#333435"/>
<path d="M66.5955 48.8123C66.5955 49.4001 66.1144 49.8812 65.5266 49.8812H6.95408C6.36629 49.8812 5.8852 49.4001 5.8852 48.8123L5.40527 16.9365C5.46192 15.0183 7.14341 14.3289 8.16302 14.3696L65.3955 12.834C65.9433 12.8192 66.4729 13.0303 66.8609 13.4175C67.2488 13.8047 67.4607 14.3339 67.4467 14.8817L66.5955 48.8119V48.8123Z" fill="#E8E8EF"/>
<path d="M6.51781 33.6132C6.46272 33.6132 6.41771 33.5689 6.41694 33.5138L6.37892 30.9287C6.37814 30.8729 6.42276 30.8271 6.47824 30.8263C6.53217 30.8232 6.57989 30.8702 6.58066 30.9256L6.61869 33.5107C6.61946 33.5666 6.57485 33.6124 6.51936 33.6132H6.51781Z" fill="#EFEFF4"/>
<path d="M6.42508 27.2786C6.36998 27.2786 6.32498 27.2343 6.3242 27.1792L6.17871 17.2784C6.18181 16.6127 6.38705 16.0811 6.78861 15.6963C7.5184 14.9967 8.65983 15.032 8.70793 15.034L26.9832 14.5436C27.0383 14.5385 27.0853 14.5859 27.0868 14.6417C27.0884 14.6976 27.0445 14.7438 26.9886 14.7453L8.70755 15.2357C8.65556 15.2338 7.59716 15.2012 6.92828 15.8421C6.56746 16.1878 6.38317 16.6709 6.38046 17.2777L6.52595 27.1765C6.52673 27.2324 6.48211 27.2782 6.42663 27.279H6.42508V27.2786Z" fill="#EFEFF4"/>
<path d="M10.0364 42.5996C10.0884 40.366 10.069 20.5869 9.94095 18.8787C9.81292 17.1704 12.4733 16.8499 16.5579 16.6579C20.6425 16.4658 55.1058 15.7046 55.9931 15.6325C57.9877 15.4707 58.4005 18.4519 58.2011 24.9241C58.0513 29.7867 57.8026 37.7965 57.6881 41.4803C57.654 42.5771 56.7578 43.4474 55.6602 43.4505C47.3668 43.4734 15.5814 43.5645 13.4653 43.6274C11.0304 43.6999 10.0158 43.4854 10.0364 42.5996Z" fill="#C6C9D3"/>
<path d="M71.1251 53.9392H2.17492C1.32642 53.9392 0.632324 53.2451 0.632324 52.3966C0.632324 51.5481 1.32642 50.854 2.17492 50.854H71.1251C71.9736 50.854 72.6677 51.5481 72.6677 52.3966C72.6677 53.2451 71.9736 53.9392 71.1251 53.9392Z" fill="#333435"/>
<path d="M64.3526 21.1784H40.1769C39.1969 21.1784 38.3779 20.4327 38.2855 19.4569L36.7619 3.29182C36.6584 2.19151 37.5119 1.23554 38.6169 1.2142L64.3161 0.724959C65.3791 0.704784 66.2517 1.56105 66.2517 2.62411V19.2784C66.2517 20.3275 65.4013 21.178 64.3522 21.178L64.3526 21.1784Z" fill="#333435"/>
<path d="M38.3073 4.73258L39.3878 18.7106C39.4347 19.3178 39.9379 19.7884 40.5467 19.795L63.7501 20.0383C64.4038 20.0453 64.9373 19.5173 64.9373 18.8635V3.81462C64.9373 3.15002 64.3867 2.61771 63.7225 2.6406L39.4386 3.46816C38.7701 3.49105 38.2557 4.06603 38.3073 4.73297V4.73258Z" fill="#EFEFF4"/>
<path d="M50.6952 4.60446L63.7797 4.21299C63.914 4.20911 64.0249 4.31658 64.0249 4.45082V4.66149C64.0249 4.79147 63.9206 4.89777 63.7902 4.89933L50.7057 5.08012C50.573 5.08206 50.4644 4.97498 50.4644 4.84229C50.4644 4.71348 50.5668 4.60834 50.6952 4.60446Z" fill="#D1BF8F"/>
<path d="M63.7871 5.70142H50.7022C50.5708 5.70142 50.4644 5.8079 50.4644 5.93925V6.02926C50.4644 6.16061 50.5708 6.26709 50.7022 6.26709H63.7871C63.9185 6.26709 64.0249 6.16061 64.0249 6.02926V5.93925C64.0249 5.8079 63.9185 5.70142 63.7871 5.70142Z" fill="#D1BF8F"/>
<path d="M54.4355 7.11236V7.15194C54.4355 7.28346 54.5422 7.38977 54.6734 7.38977H63.7866C63.9181 7.38977 64.0244 7.28307 64.0244 7.15194V6.96687C64.0244 6.83379 63.9154 6.72671 63.7827 6.72904L54.6695 6.87492C54.5395 6.87686 54.4355 6.98278 54.4355 7.11275V7.11236Z" fill="#D1BF8F"/>
<path d="M60.5558 14.2952C60.5329 14.2952 60.51 14.2875 60.491 14.2723L56.5632 11.0816L52.6911 13.9177C52.6473 13.9499 52.586 13.9422 52.5515 13.9007L47.1656 7.43927C46.553 7.97624 42.5851 11.4556 42.0567 11.9177C42.014 11.9549 41.9488 11.9507 41.9116 11.908C41.8743 11.8653 41.8786 11.8001 41.9213 11.7629C42.4939 11.262 47.1093 7.21502 47.1093 7.21502C47.1303 7.19679 47.1574 7.18748 47.185 7.18981C47.2125 7.19213 47.2381 7.20532 47.256 7.22666L52.6477 13.695L56.5057 10.8694C56.5434 10.8418 56.595 10.843 56.6314 10.8725L60.5535 14.059L62.6536 12.2234C62.6963 12.1862 62.7615 12.1905 62.7987 12.2331C62.836 12.2758 62.8317 12.341 62.789 12.3782L60.6237 14.2708C60.6043 14.2879 60.5803 14.2964 60.5558 14.2964V14.2952Z" fill="#074226"/>
<path d="M47.2576 17.7695C47.2196 17.7695 47.189 17.7389 47.189 17.7009V17.4952C47.189 17.4572 47.2196 17.4266 47.2576 17.4266C47.2957 17.4266 47.3263 17.4572 47.3263 17.4952V17.7009C47.3263 17.7389 47.2957 17.7695 47.2576 17.7695ZM47.2576 17.0836C47.2196 17.0836 47.189 17.0529 47.189 17.0149V16.8093C47.189 16.7713 47.2196 16.7406 47.2576 16.7406C47.2957 16.7406 47.3263 16.7713 47.3263 16.8093V17.0149C47.3263 17.0529 47.2957 17.0836 47.2576 17.0836ZM47.2576 16.3976C47.2196 16.3976 47.189 16.367 47.189 16.329V16.1233C47.189 16.0853 47.2196 16.0547 47.2576 16.0547C47.2957 16.0547 47.3263 16.0853 47.3263 16.1233V16.329C47.3263 16.367 47.2957 16.3976 47.2576 16.3976ZM47.2576 15.7117C47.2196 15.7117 47.189 15.681 47.189 15.643V15.4374C47.189 15.3994 47.2196 15.3687 47.2576 15.3687C47.2957 15.3687 47.3263 15.3994 47.3263 15.4374V15.643C47.3263 15.681 47.2957 15.7117 47.2576 15.7117ZM47.2576 15.0258C47.2196 15.0258 47.189 14.9951 47.189 14.9571V14.7515C47.189 14.7134 47.2196 14.6828 47.2576 14.6828C47.2957 14.6828 47.3263 14.7134 47.3263 14.7515V14.9571C47.3263 14.9951 47.2957 15.0258 47.2576 15.0258ZM47.2576 14.3398C47.2196 14.3398 47.189 14.3092 47.189 14.2711V14.0655C47.189 14.0275 47.2196 13.9968 47.2576 13.9968C47.2957 13.9968 47.3263 14.0275 47.3263 14.0655V14.2711C47.3263 14.3092 47.2957 14.3398 47.2576 14.3398ZM47.2576 13.6539C47.2196 13.6539 47.189 13.6232 47.189 13.5852V13.3796C47.189 13.3415 47.2196 13.3109 47.2576 13.3109C47.2957 13.3109 47.3263 13.3415 47.3263 13.3796V13.5852C47.3263 13.6232 47.2957 13.6539 47.2576 13.6539ZM47.2576 12.9679C47.2196 12.9679 47.189 12.9373 47.189 12.8992V12.6936C47.189 12.6556 47.2196 12.6249 47.2576 12.6249C47.2957 12.6249 47.3263 12.6556 47.3263 12.6936V12.8992C47.3263 12.9373 47.2957 12.9679 47.2576 12.9679ZM47.2576 12.282C47.2196 12.282 47.189 12.2513 47.189 12.2133V12.0077C47.189 11.9697 47.2196 11.939 47.2576 11.939C47.2957 11.939 47.3263 11.9697 47.3263 12.0077V12.2133C47.3263 12.2513 47.2957 12.282 47.2576 12.282ZM47.2576 11.596C47.2196 11.596 47.189 11.5654 47.189 11.5274V11.3217C47.189 11.2837 47.2196 11.2531 47.2576 11.2531C47.2957 11.2531 47.3263 11.2837 47.3263 11.3217V11.5274C47.3263 11.5654 47.2957 11.596 47.2576 11.596ZM47.2576 10.9101C47.2196 10.9101 47.189 10.8794 47.189 10.8414V10.6358C47.189 10.5978 47.2196 10.5671 47.2576 10.5671C47.2957 10.5671 47.3263 10.5978 47.3263 10.6358V10.8414C47.3263 10.8794 47.2957 10.9101 47.2576 10.9101ZM47.2576 10.2241C47.2196 10.2241 47.189 10.1935 47.189 10.1555V9.94984C47.189 9.91182 47.2196 9.88117 47.2576 9.88117C47.2957 9.88117 47.3263 9.91182 47.3263 9.94984V10.1555C47.3263 10.1935 47.2957 10.2241 47.2576 10.2241ZM47.2576 9.5382C47.2196 9.5382 47.189 9.50754 47.189 9.46952V9.26389C47.189 9.22587 47.2196 9.19522 47.2576 9.19522C47.2957 9.19522 47.3263 9.22587 47.3263 9.26389V9.46952C47.3263 9.50754 47.2957 9.5382 47.2576 9.5382ZM47.2576 8.85225C47.2196 8.85225 47.189 8.8216 47.189 8.78358V8.57795C47.189 8.53993 47.2196 8.50928 47.2576 8.50928C47.2957 8.50928 47.3263 8.53993 47.3263 8.57795V8.78358C47.3263 8.8216 47.2957 8.85225 47.2576 8.85225Z" fill="#D1BF8F"/>
<path d="M52.6302 17.8955C52.5922 17.8955 52.5615 17.8648 52.5615 17.8268V17.6212C52.5615 17.5832 52.5922 17.5525 52.6302 17.5525C52.6682 17.5525 52.6989 17.5832 52.6989 17.6212V17.8268C52.6989 17.8648 52.6682 17.8955 52.6302 17.8955ZM52.6302 17.2096C52.5922 17.2096 52.5615 17.1789 52.5615 17.1409V16.9353C52.5615 16.8972 52.5922 16.8666 52.6302 16.8666C52.6682 16.8666 52.6989 16.8972 52.6989 16.9353V17.1409C52.6989 17.1789 52.6682 17.2096 52.6302 17.2096ZM52.6302 16.5236C52.5922 16.5236 52.5615 16.493 52.5615 16.4549V16.2493C52.5615 16.2113 52.5922 16.1806 52.6302 16.1806C52.6682 16.1806 52.6989 16.2113 52.6989 16.2493V16.4549C52.6989 16.493 52.6682 16.5236 52.6302 16.5236ZM52.6302 15.8377C52.5922 15.8377 52.5615 15.807 52.5615 15.769V15.5634C52.5615 15.5253 52.5922 15.4947 52.6302 15.4947C52.6682 15.4947 52.6989 15.5253 52.6989 15.5634V15.769C52.6989 15.807 52.6682 15.8377 52.6302 15.8377ZM52.6302 15.1517C52.5922 15.1517 52.5615 15.1211 52.5615 15.083V14.8774C52.5615 14.8394 52.5922 14.8087 52.6302 14.8087C52.6682 14.8087 52.6989 14.8394 52.6989 14.8774V15.083C52.6989 15.1211 52.6682 15.1517 52.6302 15.1517ZM52.6302 14.4658C52.5922 14.4658 52.5615 14.4351 52.5615 14.3971V14.1915C52.5615 14.1535 52.5922 14.1228 52.6302 14.1228C52.6682 14.1228 52.6989 14.1535 52.6989 14.1915V14.3971C52.6989 14.4351 52.6682 14.4658 52.6302 14.4658Z" fill="#D1BF8F"/>
<path d="M56.7133 18.0272C56.6764 18.0272 56.6457 17.9977 56.6446 17.9608L56.6384 17.7552C56.6372 17.7172 56.6671 17.6857 56.7047 17.6846C56.7447 17.6815 56.7742 17.7133 56.7753 17.7509L56.7815 17.9566C56.7827 17.9946 56.7528 18.026 56.7152 18.0272C56.7144 18.0272 56.7136 18.0272 56.7129 18.0272H56.7133ZM56.6919 17.3416C56.6551 17.3416 56.6244 17.3121 56.6232 17.2753L56.617 17.0696C56.6159 17.0316 56.6457 17.0002 56.6834 16.999C56.721 16.9975 56.7528 17.0277 56.754 17.0654L56.7602 17.271C56.7614 17.309 56.7315 17.3404 56.6939 17.3416C56.6931 17.3416 56.6923 17.3416 56.6915 17.3416H56.6919ZM56.6706 16.6561C56.6337 16.6561 56.6031 16.6266 56.6019 16.5897L56.5957 16.3841C56.5945 16.3461 56.6244 16.3146 56.662 16.3135C56.6997 16.3115 56.7315 16.3422 56.7326 16.3798L56.7389 16.5854C56.74 16.6235 56.7101 16.6549 56.6725 16.6561C56.6717 16.6561 56.671 16.6561 56.6702 16.6561H56.6706ZM56.6492 15.9705C56.6124 15.9705 56.5817 15.941 56.5806 15.9041L56.5744 15.6985C56.5732 15.6605 56.6031 15.6291 56.6407 15.6279C56.6799 15.6256 56.7101 15.6566 56.7113 15.6943L56.7175 15.8999C56.7187 15.9379 56.6888 15.9693 56.6512 15.9705C56.6504 15.9705 56.6496 15.9705 56.6488 15.9705H56.6492ZM56.6279 15.2849C56.591 15.2849 56.5604 15.2555 56.5592 15.2186L56.553 15.013C56.5519 14.9749 56.5817 14.9435 56.6194 14.9424C56.6582 14.9396 56.6888 14.9711 56.69 15.0087L56.6962 15.2143C56.6973 15.2523 56.6675 15.2838 56.6298 15.2849C56.6291 15.2849 56.6283 15.2849 56.6275 15.2849H56.6279ZM56.6066 14.5994C56.5697 14.5994 56.539 14.5699 56.5379 14.533L56.5317 14.3274C56.5305 14.2894 56.5604 14.258 56.598 14.2568C56.6349 14.2537 56.6675 14.2855 56.6686 14.3231L56.6748 14.5288C56.676 14.5668 56.6461 14.5982 56.6085 14.5994C56.6077 14.5994 56.6069 14.5994 56.6062 14.5994H56.6066ZM56.5852 13.9138C56.5484 13.9138 56.5177 13.8843 56.5165 13.8475L56.5103 13.6419C56.5092 13.6038 56.539 13.5724 56.5767 13.5712C56.6132 13.5697 56.6461 13.5999 56.6473 13.6376L56.6535 13.8432C56.6547 13.8812 56.6248 13.9127 56.5872 13.9138C56.5864 13.9138 56.5856 13.9138 56.5848 13.9138H56.5852ZM56.5639 13.2283C56.527 13.2283 56.4964 13.1988 56.4952 13.1619L56.489 12.9563C56.4878 12.9183 56.5177 12.8868 56.5553 12.8857C56.5938 12.8837 56.6248 12.9144 56.626 12.952L56.6322 13.1577C56.6333 13.1957 56.6035 13.2271 56.5658 13.2283C56.565 13.2283 56.5643 13.2283 56.5635 13.2283H56.5639ZM56.5425 12.5427C56.5057 12.5427 56.475 12.5132 56.4739 12.4764L56.4677 12.2707C56.4665 12.2327 56.4964 12.2013 56.534 12.2001C56.574 12.1978 56.6035 12.2288 56.6046 12.2665L56.6108 12.4721C56.612 12.5101 56.5821 12.5415 56.5445 12.5427C56.5437 12.5427 56.5429 12.5427 56.5422 12.5427H56.5425ZM56.5212 11.8572C56.4843 11.8572 56.4537 11.8277 56.4525 11.7908L56.4463 11.5852C56.4452 11.5472 56.475 11.5157 56.5127 11.5146C56.5522 11.5119 56.5821 11.5433 56.5833 11.5809L56.5895 11.7865C56.5907 11.8246 56.5608 11.856 56.5231 11.8572C56.5224 11.8572 56.5216 11.8572 56.5208 11.8572H56.5212Z" fill="#D1BF8F"/>
<path d="M60.6072 17.4642C60.5692 17.4642 60.5386 17.4335 60.5386 17.3955V17.1899C60.5386 17.1519 60.5692 17.1212 60.6072 17.1212C60.6453 17.1212 60.6759 17.1519 60.6759 17.1899V17.3955C60.6759 17.4335 60.6453 17.4642 60.6072 17.4642ZM60.6072 16.7782C60.5692 16.7782 60.5386 16.7476 60.5386 16.7096V16.5039C60.5386 16.4659 60.5692 16.4353 60.6072 16.4353C60.6453 16.4353 60.6759 16.4659 60.6759 16.5039V16.7096C60.6759 16.7476 60.6453 16.7782 60.6072 16.7782ZM60.6072 16.0923C60.5692 16.0923 60.5386 16.0617 60.5386 16.0236V15.818C60.5386 15.78 60.5692 15.7493 60.6072 15.7493C60.6453 15.7493 60.6759 15.78 60.6759 15.818V16.0236C60.6759 16.0617 60.6453 16.0923 60.6072 16.0923ZM60.6072 15.4064C60.5692 15.4064 60.5386 15.3757 60.5386 15.3377V15.1321C60.5386 15.094 60.5692 15.0634 60.6072 15.0634C60.6453 15.0634 60.6759 15.094 60.6759 15.1321V15.3377C60.6759 15.3757 60.6453 15.4064 60.6072 15.4064ZM60.6072 14.7204C60.5692 14.7204 60.5386 14.6898 60.5386 14.6517V14.4461C60.5386 14.4081 60.5692 14.3774 60.6072 14.3774C60.6453 14.3774 60.6759 14.4081 60.6759 14.4461V14.6517C60.6759 14.6898 60.6453 14.7204 60.6072 14.7204Z" fill="#D1BF8F"/>
<path d="M41.5294 18.8891C41.4767 18.8891 41.4316 18.8488 41.427 18.7949L40.3216 5.74018C40.317 5.68353 40.3589 5.63387 40.4155 5.62883C40.4726 5.62378 40.5218 5.66607 40.5269 5.72272L41.6322 18.7774C41.6369 18.834 41.595 18.8837 41.5383 18.8887C41.5352 18.8887 41.5325 18.8887 41.5294 18.8887V18.8891Z" fill="#074226"/>
<path d="M40.1108 6.16954L40.4289 5.79242L40.806 6.11095L40.7808 5.8157L40.4041 5.49756L40.0859 5.87467L40.1108 6.16954Z" fill="#074226"/>
<path d="M63.3482 18.2801H40.6985C40.6419 18.2801 40.5957 18.2339 40.5957 18.1773C40.5957 18.1206 40.6419 18.0745 40.6985 18.0745H63.3482C63.4049 18.0745 63.4511 18.1206 63.4511 18.1773C63.4511 18.2339 63.4049 18.2801 63.3482 18.2801Z" fill="#074226"/>
<path d="M62.9385 18.5262L63.2873 18.1774L62.9385 17.8286H63.2345L63.5833 18.1774L63.2345 18.5262H62.9385Z" fill="#074226"/>
<path d="M29.559 43.5323C30.6628 40.6698 34.34 30.7667 34.2857 29.7095C34.2116 28.2693 31.6901 21.3159 31.6901 21.3159C31.6901 21.3159 25.3013 18.9217 18.5206 23.6322C18.2584 23.8145 21.692 35.6172 21.6768 43.5323H29.559Z" fill="#074226"/>
<path d="M28.5319 26.6895C32.0233 26.1071 31.6993 23.0801 31.1018 21.1383C30.3783 20.8116 29.2648 20.419 27.8642 20.3375C25.5495 20.2029 23.7803 20.9943 22.9702 21.4238C23.2406 23.1294 24.3402 27.3882 28.5319 26.6891V26.6895Z" fill="url(#paint0_linear_1323_3649)"/>
<path d="M27.2764 15.1584C27.2764 15.1584 26.2886 19.1457 25.5921 20.8834C25.3877 21.3933 25.5999 21.9783 26.0864 22.234C26.6416 22.5258 27.4944 22.7535 28.7014 22.5227C29.2089 22.4257 29.5844 21.9931 29.6193 21.4778L29.9158 17.091L27.2767 15.1584H27.2764Z" fill="url(#paint1_linear_1323_3649)"/>
<path d="M46.278 20.2476C44.2574 22.7058 42.2869 23.9396 40.4805 24.4249V29.0469C45.322 27.6106 47.6553 21.6901 47.6553 21.6901L46.2784 20.2476H46.278Z" fill="url(#paint2_linear_1323_3649)"/>
<path d="M53.5851 20.2629C53.3969 19.911 53.059 19.6638 52.6664 19.5913L48.8374 18.8817C48.8374 18.8817 48.6923 18.4382 49.4318 17.968C50.1713 17.4974 49.8027 16.6372 49.8027 16.6372C49.8027 16.6372 48.8083 17.3581 47.3647 18.4739C46.539 19.1121 46.186 20.0161 46.0347 20.6737L47.1885 21.6887C49.5036 21.904 51.7375 21.5835 53.9125 20.8739L53.5855 20.2625L53.5851 20.2629Z" fill="url(#paint3_linear_1323_3649)"/>
<path d="M26.858 33.9434C26.858 33.9434 19.3541 37.865 17.6249 36.1436C17.3405 35.8604 17.2497 35.4351 17.2959 34.923H12.918C12.9502 35.9193 13.1178 36.9591 13.4642 38.0342C16.1102 46.2457 27.582 35.9019 27.582 35.9019L26.858 33.9434Z" fill="url(#paint4_linear_1323_3649)"/>
<path d="M32.5605 10.972C32.5605 10.972 33.7299 12.6535 33.3582 15.6437C32.9865 18.6338 31.504 19.1863 30.3944 18.6897C29.2848 18.1931 27.7775 17.2095 27.109 14.7036C26.4405 12.1977 30.9915 8.86376 32.5605 10.972Z" fill="url(#paint5_linear_1323_3649)"/>
<path d="M28.9686 14.1568C28.9686 14.1568 29.8959 10.0245 32.9108 11.8736L33.3035 12.8098C33.3035 12.8098 35.5817 11.6334 34.3452 9.60313C33.1087 7.57285 29.9199 6.67002 27.6212 8.61146C25.3224 10.5529 24.7812 12.4028 25.3224 14.3687C25.8636 16.3345 27.2208 15.3506 27.2208 15.3506C27.2208 15.3506 27.2126 13.8267 27.8621 13.4243C28.5116 13.022 28.7207 14.1347 28.7207 14.1347L28.9686 14.1564V14.1568Z" fill="#074226"/>
<path d="M28.3958 14.3205C28.3958 14.3205 28.885 12.199 27.6361 12.3779C26.3872 12.5568 27.2819 14.3993 27.671 15.0588L28.3958 14.3205Z" fill="url(#paint6_linear_1323_3649)"/>
<path d="M26.8412 10.2313C27.5159 10.0074 27.6218 9.09685 27.0476 8.67744C25.1942 7.32456 21.9562 6.06208 18.4426 9.7114C14.4845 13.822 12.2862 15.7642 11.0955 15.6901C10.3133 15.6416 9.81635 16.5057 10.3048 17.1187C10.666 17.5718 11.3 17.9932 12.372 18.2776C20.6405 20.4704 22.8842 11.5442 26.842 10.2313H26.8412Z" fill="#074226"/>
<path d="M20.3935 28.7195C20.9297 27.9552 20.9227 26.9363 20.3737 26.1813L18.5204 23.6323C18.5204 23.6323 11.5344 29.2471 13.155 36.8756C14.4388 36.0057 15.7983 35.3 17.2882 35.0303C17.382 33.2674 19.2358 30.3692 20.3935 28.7199V28.7195Z" fill="#074226"/>
<path d="M31.6899 21.3157L33.3268 27.8795C36.9494 29.9373 39.8627 29.5998 42.092 28.3672C41.3638 27.1276 40.9603 25.7177 40.9098 24.2965C35.6624 26.0327 31.6903 21.3157 31.6903 21.3157H31.6899Z" fill="#074226"/>
<path d="M26.984 38.9865L28.0487 25.6622C28.0607 25.5109 28.1616 25.382 28.3059 25.3351C28.9441 25.1271 30.7944 24.5308 32.9438 23.9046C35.5323 23.1504 38.5543 22.3527 40.4131 22.1374C40.6773 22.1067 40.8899 22.35 40.8212 22.6068C40.2063 24.9192 37.6573 34.335 36.0821 37.5688C36.0297 37.6759 35.9312 37.7523 35.814 37.7748L27.4294 39.3861C27.1854 39.433 26.9639 39.2344 26.9837 38.9869L26.984 38.9865Z" fill="#D1BF8F"/>
<path d="M33.1865 22.9702L33.1865 22.9701L33.1902 22.9686C33.189 22.9692 33.1878 22.9697 33.1865 22.9702ZM33.2047 23.55L33.2231 22.9561L35.6229 22.0414L35.5383 22.7458L33.2047 23.55Z" fill="#074226" stroke="black" stroke-width="0.5"/>
<path d="M31.8361 25.3437L31.8361 25.3432L31.8252 24.1778L31.8252 24.1776C31.8251 24.1711 31.8294 24.1655 31.8353 24.1636L31.8354 24.1636L37.009 22.5617C37.0091 22.5616 37.0091 22.5616 37.0091 22.5616C37.0126 22.5605 37.0146 22.5607 37.0159 22.561C37.0177 22.5613 37.0201 22.5622 37.0224 22.564C37.0247 22.5658 37.0261 22.5678 37.0269 22.5692C37.0274 22.5703 37.028 22.572 37.0279 22.5755L37.0279 22.576L36.9743 24.0422L36.9743 24.0422C36.9741 24.0484 36.9697 24.0541 36.9632 24.0558C36.9632 24.0558 36.9631 24.0558 36.9631 24.0558L31.8543 25.3574C31.8543 25.3574 31.8542 25.3574 31.8542 25.3574C31.8446 25.3598 31.8362 25.3528 31.8361 25.3437C31.8361 25.3437 31.8361 25.3437 31.8361 25.3437Z" fill="#074226" stroke="black" stroke-width="0.5"/>
<path d="M27.2412 35.767C27.2412 35.767 26.3217 33.8023 26.3764 33.0283C26.4311 32.2543 26.6336 31.2327 27.9849 31.178C29.3363 31.1233 30.9914 31.3631 30.9914 31.3631C30.9914 31.3631 31.1062 32.3338 30.049 32.2264L30.7621 32.579C30.7621 32.579 30.828 33.3612 29.9054 33.1226L30.6069 33.6398C30.6069 33.6398 30.3725 34.3404 29.6734 34.0627C28.9739 33.7849 29.0445 35.6619 27.2408 35.767H27.2412Z" fill="url(#paint7_linear_1323_3649)"/>
<path d="M58.5492 46.0881H57.7803V54.2566H58.5492V46.0881Z" fill="#C6C9D3"/>
<path d="M54.9934 53.9224H61.336C61.4443 53.9224 61.532 54.01 61.532 54.1183V54.4143H54.7979V54.1183C54.7979 54.01 54.8855 53.9224 54.9938 53.9224H54.9934Z" fill="#C6C9D3"/>
<path d="M62.8055 45.7864C62.8055 46.2613 62.4101 46.6497 61.9267 46.6497H54.6859C54.2025 46.6497 53.8071 46.2613 53.8071 45.7864V45.0058C53.8071 44.5309 54.2025 44.1426 54.6859 44.1426H61.9267C62.4101 44.1426 62.8055 44.5309 62.8055 45.0058V45.7864Z" fill="#C6C9D3"/>
<path d="M54.6202 52.5176C54.6203 52.5176 54.6204 52.5178 54.6205 52.5179L54.6202 52.5176ZM54.6202 52.5176L54.6202 52.5175L54.6198 52.5171C54.6198 52.5171 54.6198 52.5172 54.62 52.5174C54.6201 52.5174 54.6201 52.5175 54.6202 52.5176ZM52.1538 55.2343C52.1306 55.0509 52.1849 54.8434 52.3014 54.6194C52.4457 54.3421 52.6751 54.0598 52.9219 53.8041C53.1679 53.5493 53.4263 53.3258 53.6237 53.1657C53.7223 53.0858 53.8054 53.0219 53.8636 52.9782C53.8927 52.9563 53.9156 52.9394 53.9311 52.9282L53.9451 52.9181L54.6667 52.5895C54.6857 52.6256 54.707 52.6756 54.7236 52.7404C54.7654 52.9026 54.7803 53.1659 54.643 53.5455C54.5833 53.7104 54.4041 53.9059 54.1401 54.1126C53.8813 54.3151 53.5601 54.514 53.2444 54.6899C52.9293 54.8655 52.6227 55.0165 52.3946 55.1237C52.2985 55.1689 52.2164 55.2062 52.1538 55.2343Z" fill="#074226" stroke="black" stroke-width="0.25"/>
<path d="M54.2119 51.5062L54.5708 52.5259C54.6251 52.6799 54.5708 52.8549 54.4307 52.9418C54.3605 52.9852 54.2647 53.0256 54.1335 53.0547C53.9485 53.0958 53.7576 53.012 53.6687 52.8475L53.2393 52.0529L54.2115 51.5059L54.2119 51.5062Z" fill="url(#paint8_linear_1323_3649)"/>
<path d="M57.7058 42.3296C57.7058 42.3296 53.1963 43.0974 51.2618 44.853C49.3274 46.6086 53.0372 52.2083 53.0372 52.2083C53.0372 52.2083 53.6452 52.2048 54.3816 51.5844C54.3816 51.5844 52.1817 47.3729 54.0778 46.1446C56.2089 44.7638 58.6652 44.453 58.6652 44.453L57.7492 42.465L57.7058 42.3296Z" fill="#D1BF8F"/>
<path d="M55.0591 53.9385C55.0508 53.9334 55.041 53.9275 55.0299 53.9209C54.991 53.8979 54.9373 53.8679 54.8772 53.8392C54.8167 53.8104 54.7524 53.7843 54.6922 53.7678C54.6301 53.7508 54.5828 53.7471 54.5517 53.7527C54.5518 53.7526 54.551 53.7528 54.5494 53.7532L54.5428 53.7551C54.5371 53.757 54.5297 53.7597 54.5204 53.7634C54.5016 53.771 54.4781 53.7818 54.4496 53.796C54.3926 53.8244 54.321 53.8639 54.2378 53.9121C54.0717 54.0084 53.8658 54.1356 53.65 54.2696C53.6234 54.2862 53.5965 54.3029 53.5695 54.3197C53.1658 54.5706 52.7362 54.8376 52.5009 54.9446L55.0591 53.9385ZM55.0591 53.9385C55.0633 53.9521 55.0681 53.971 55.0715 53.9951C55.0797 54.053 55.0802 54.1435 55.042 54.2633C54.7192 54.6431 54.0344 55.3284 53.1279 55.585C52.5424 55.7507 52.1203 55.6341 51.837 55.4684C52.0003 55.2651 52.2448 55.0611 52.5009 54.9446L55.0591 53.9385Z" fill="#074226" stroke="black" stroke-width="0.25"/>
<path d="M53.1619 55.7048C54.1199 55.434 54.8322 54.707 55.153 54.3252C55.0828 54.5277 54.9206 54.7884 54.5746 55.0942C53.716 55.8523 52.0756 56.1258 51.7264 56.073C51.4467 56.0307 51.4731 55.777 51.6578 55.5008C51.9646 55.718 52.4574 55.9039 53.1619 55.7048Z" fill="#333435"/>
<path d="M55.5695 53.1907C55.564 53.3215 55.2921 53.7696 55.1334 54.021C55.0577 54.1405 54.9254 54.2134 54.7823 54.2138C54.6915 54.2138 54.5871 54.2064 54.492 54.1797C54.3497 54.1397 54.2697 53.9907 54.3113 53.851L54.6216 52.8093L55.5691 53.1907H55.5695Z" fill="url(#paint9_linear_1323_3649)"/>
<path d="M62.0467 41C62.0467 41 63.0481 43.6309 62.0467 44.4309C61.0454 45.2309 58.6562 46.1318 58.1224 47.7252C57.5885 49.3186 56.683 52.4155 55.4709 53.5123C55.4709 53.5123 54.6193 53.4312 54.3008 53.0979C54.3008 53.0979 54.991 48.4748 55.4465 47.2887C55.8407 46.2614 56.4215 44.7789 57.535 43.9498C57.8535 43.7127 57.798 43.3368 57.6502 42.9717L57.3813 42.3071L62.0471 41.0004L62.0467 41Z" fill="#D1BF8F"/>
<path d="M51.6018 38.9378C53.281 39.0372 52.7576 36.402 52.7273 36.2969L55.2759 38.0653C55.2759 38.0653 55.1409 39.4748 53.0222 40.2139C52.486 40.4009 51.996 40.4091 51.563 40.3179C51.7477 39.7887 51.71 39.3138 51.6018 38.9378Z" fill="#074226"/>
<path d="M48.3547 38.1446C48.9805 37.7171 49.6893 38.1446 49.6893 38.1446C50.5258 38.6824 51.145 38.9109 51.6017 38.9376C51.7099 39.3136 51.7475 39.7885 51.5629 40.3177C50.6255 40.1198 49.9551 39.4533 49.6637 39.1115C49.559 38.9885 49.3731 38.9671 49.2447 39.0664C49.1143 39.1673 48.9879 39.3058 49.0107 39.4517C49.0561 39.7388 48.7167 39.8304 48.6911 39.726C48.6654 39.6216 48.8071 39.0044 48.8071 39.0044C48.8071 39.0044 48.1285 39.6748 47.8635 39.9324C47.5985 40.19 47.2656 39.9324 47.2656 39.9324C47.2656 39.9324 47.7289 38.5722 48.3547 38.1446Z" fill="url(#paint10_linear_1323_3649)"/>
<path d="M59.4316 32.2271C59.4316 32.2271 56.9886 31.2661 52.4422 34.9534C52.4422 34.9534 52.0624 35.7255 52.4768 36.413C52.8911 37.1005 56.8384 40.4495 57.3808 42.3068C57.3808 42.3068 59.7323 43.0575 62.1646 41.2774C62.1646 41.2774 61.95 36.1084 59.4316 32.2275V32.2271Z" fill="#074226"/>
<path d="M54.6024 31.3694L55.8051 32.8018C55.9246 32.9438 55.951 33.1417 55.8684 33.3073C55.7015 33.6418 55.3054 34.1287 54.427 34.0616C54.1659 34.0414 53.9343 33.8866 53.8202 33.655L52.9795 31.9475L54.6028 31.3698L54.6024 31.3694Z" fill="url(#paint11_linear_1323_3649)"/>
<path d="M61.3229 38.3612C61.6065 37.2264 58.7339 34.6972 58.7339 34.6972L59.4315 32.2273C59.4315 32.2273 65.6344 36.284 64.0534 39.5461C63.8269 40.0136 63.5258 40.3415 63.177 40.5603C62.6777 39.2396 61.8815 38.634 61.3229 38.3612Z" fill="#074226"/>
<path d="M61.3256 38.196C61.3562 38.196 61.3838 38.1758 61.3915 38.1451C61.6813 36.9851 58.9003 34.5199 58.782 34.4155C58.7541 34.3911 58.7114 34.393 58.6862 34.4205C58.6613 34.4481 58.6637 34.49 58.6912 34.5148C58.7195 34.5397 61.5304 37.0305 61.2596 38.1133C61.2507 38.149 61.2728 38.1851 61.3093 38.194C61.3147 38.1952 61.3201 38.196 61.3256 38.196Z" fill="#093923"/>
<path d="M56.972 38.2633C56.972 38.2633 60.3777 39.5623 61.2091 38.5854C61.2654 38.519 61.3022 38.4438 61.3228 38.3611C61.8815 38.6339 62.6776 39.2395 63.177 40.5602C61.3857 41.6845 58.3241 39.9348 57.4962 39.4187C57.36 39.3338 57.1967 39.3043 57.0388 39.3361C56.7195 39.4013 56.1678 39.4967 55.8702 39.4517C55.4349 39.3858 54.8098 40.8942 54.1045 40.4286C54.1045 40.4286 54.7086 37.8071 56.972 38.263V38.2633Z" fill="url(#paint12_linear_1323_3649)"/>
<path d="M52.3634 28.8651C52.3386 28.9059 51.7236 31.9895 51.7236 31.9895L53.5219 32.3154L54.5466 29.482C54.5466 29.482 52.7785 28.1846 52.3638 28.8651H52.3634Z" fill="url(#paint13_linear_1323_3649)"/>
<path d="M53.914 29.9441L53.4934 31.4781C53.488 31.4979 53.4802 31.5161 53.4697 31.5336C53.405 31.6403 53.1539 31.9914 52.8024 31.7132C52.4835 31.4607 52.1886 31.2349 51.9303 31.2073C51.8142 31.1949 51.7087 31.2709 51.6866 31.3835C51.6307 31.6636 51.5171 32.2975 51.5035 32.864C51.5008 32.9788 51.5888 33.077 51.7048 33.0906C52.0544 33.1325 52.7939 33.2004 53.4003 33.1177C53.4826 33.1065 53.5512 33.0529 53.5799 32.9765C53.72 32.6033 54.1495 31.4711 54.319 31.1743C54.4781 30.8958 54.9192 30.8744 55.1055 30.8783C55.1664 30.8795 55.2246 30.8566 55.2672 30.8139C55.4182 30.6634 55.6979 30.2866 55.2323 29.8882C55.135 29.8048 55.126 29.6604 55.2125 29.5677C55.3852 29.383 55.5602 29.0645 55.2211 28.706C54.8766 28.3413 54.4657 28.4302 54.2182 28.5384C54.1181 28.5823 54.0024 28.5466 53.9392 28.4573C53.9031 28.4065 53.8445 28.37 53.7487 28.3848C53.6199 28.4042 53.5023 28.3048 53.4946 28.176C53.4798 27.9289 53.3662 27.6232 52.9215 27.5184C52.1328 27.3326 51.7091 28.0981 51.7041 28.649C51.699 29.1999 52.5654 29.3536 53.0624 29.2837C53.4403 29.2306 53.7514 29.5836 53.8787 29.7559C53.919 29.8106 53.9314 29.8796 53.914 29.9444V29.9441Z" fill="#074226"/>
<path d="M54.1597 31.7313C54.1597 31.7313 54.2105 30.7722 54.6078 30.6993C55.0055 30.6264 55.421 30.9259 55.0637 31.4857C54.619 32.1821 54.1597 31.7313 54.1597 31.7313Z" fill="url(#paint14_linear_1323_3649)"/>
<path d="M55.2274 41.0453C55.2219 41.0453 55.2165 41.0457 55.2111 41.0453L48.0653 41.0375C47.8888 41.0375 47.7456 40.8967 47.7456 40.7229C47.7456 40.5494 47.8895 40.4059 48.0657 40.409L55.2115 40.4167C55.388 40.4167 55.5311 40.5576 55.5311 40.7314C55.5311 40.8994 55.3965 41.0367 55.2274 41.0449V41.0453Z" fill="#074226"/>
<path d="M41.6412 34.6714H47.5924C48.0316 34.6714 48.4308 34.9201 48.6182 35.3104L51.3693 41.0416H43.9737C43.6909 41.0416 43.4368 40.8717 43.3328 40.6133L41.1993 35.31C41.0759 35.0035 41.306 34.6714 41.6412 34.6714Z" fill="#074226"/>
<path d="M45.8336 37.6099C45.9624 38.0037 45.8673 38.3858 45.621 38.4638C45.3746 38.5418 45.07 38.2857 44.9412 37.8923C44.8124 37.4985 44.9075 37.1164 45.1538 37.0384C45.4002 36.9604 45.7048 37.2165 45.8336 37.6099Z" fill="#D1BF8F"/>
<path d="M42.6062 55.8816C42.5666 55.8816 42.5263 55.8742 42.4878 55.8583C42.3354 55.7958 42.2651 55.6278 42.3307 55.4831L48.6284 41.559C48.6939 41.4143 48.8705 41.3471 49.0229 41.4096C49.1754 41.4721 49.2456 41.6401 49.1801 41.7848L42.8824 55.7089C42.8335 55.8172 42.723 55.8816 42.6066 55.8816H42.6062Z" fill="#5C5E61"/>
<path d="M49.7006 55.8816C49.5842 55.8816 49.4736 55.8168 49.4247 55.7089L43.1271 41.7848C43.0615 41.6401 43.1318 41.4721 43.2842 41.4096C43.4363 41.3471 43.6132 41.4143 43.6788 41.559L49.9764 55.4831C50.042 55.6278 49.9718 55.7958 49.8193 55.8583C49.7805 55.8742 49.7406 55.8816 49.701 55.8816H49.7006Z" fill="#5C5E61"/>
<path d="M62.1003 55.8816C62.0607 55.8816 62.0204 55.8742 61.982 55.8583C61.8295 55.7958 61.7593 55.6278 61.8249 55.4831L68.1225 41.559C68.1881 41.4143 68.3646 41.3471 68.5171 41.4096C68.6695 41.4721 68.7398 41.6401 68.6742 41.7848L62.3766 55.7089C62.3277 55.8172 62.2171 55.8816 62.1007 55.8816H62.1003Z" fill="#5C5E61"/>
<path d="M69.1947 55.8816C69.0783 55.8816 68.9678 55.8168 68.9189 55.7089L62.6212 41.7848C62.5557 41.6401 62.6259 41.4721 62.7784 41.4096C62.9305 41.3471 63.1074 41.4143 63.1729 41.559L69.4706 55.4831C69.5362 55.6278 69.4659 55.7958 69.3135 55.8583C69.2747 55.8742 69.2347 55.8816 69.1951 55.8816H69.1947Z" fill="#5C5E61"/>
<path d="M69.9331 41.3951C69.949 41.3039 69.9272 41.2092 69.8733 41.1375C69.8194 41.0657 69.7395 41.0242 69.6549 41.0242H41.0047C40.8933 41.0242 40.7898 41.0866 40.73 41.1894C40.6703 41.2927 40.6621 41.4222 40.7087 41.5332L41.0191 42.2723C41.0901 42.4415 41.2441 42.5501 41.4136 42.5501H69.4582C69.6157 42.5501 69.7515 42.4271 69.7814 42.2568L69.9331 41.3951Z" fill="#5C5E61"/>
<defs>
<linearGradient id="paint0_linear_1323_3649" x1="25.3124" y1="26.5087" x2="31.8782" y2="14.0872" gradientUnits="userSpaceOnUse">
<stop stop-color="white"/>
<stop offset="1" stop-color="#EFEFF4"/>
</linearGradient>
<linearGradient id="paint1_linear_1323_3649" x1="24.4232" y1="26.0385" x2="30.9889" y2="13.6166" gradientUnits="userSpaceOnUse">
<stop stop-color="white"/>
<stop offset="1" stop-color="#EFEFF4"/>
</linearGradient>
<linearGradient id="paint2_linear_1323_3649" x1="51.0403" y1="15.1844" x2="37.109" y2="31.9843" gradientUnits="userSpaceOnUse">
<stop stop-color="white"/>
<stop offset="1" stop-color="#EFEFF4"/>
</linearGradient>
<linearGradient id="paint3_linear_1323_3649" x1="52.979" y1="16.7917" x2="39.0478" y2="33.592" gradientUnits="userSpaceOnUse">
<stop stop-color="white"/>
<stop offset="1" stop-color="#EFEFF4"/>
</linearGradient>
<linearGradient id="paint4_linear_1323_3649" x1="13.4759" y1="38.4639" x2="27.528" y2="35.628" gradientUnits="userSpaceOnUse">
<stop stop-color="white"/>
<stop offset="1" stop-color="#EFEFF4"/>
</linearGradient>
<linearGradient id="paint5_linear_1323_3649" x1="-201.135" y1="322.242" x2="-208.955" y2="332.624" gradientUnits="userSpaceOnUse">
<stop stop-color="white"/>
<stop offset="1" stop-color="#EFEFF4"/>
</linearGradient>
<linearGradient id="paint6_linear_1323_3649" x1="-203.474" y1="320.48" x2="-211.294" y2="330.861" gradientUnits="userSpaceOnUse">
<stop stop-color="white"/>
<stop offset="1" stop-color="#EFEFF4"/>
</linearGradient>
<linearGradient id="paint7_linear_1323_3649" x1="31.512" y1="32.684" x2="36.3176" y2="31.7142" gradientUnits="userSpaceOnUse">
<stop stop-color="white"/>
<stop offset="1" stop-color="#EFEFF4"/>
</linearGradient>
<linearGradient id="paint8_linear_1323_3649" x1="54.5914" y1="52.2857" x2="53.2393" y2="52.2857" gradientUnits="userSpaceOnUse">
<stop stop-color="white"/>
<stop offset="1" stop-color="#EFEFF4"/>
</linearGradient>
<linearGradient id="paint9_linear_1323_3649" x1="55.5695" y1="53.5116" x2="54.3008" y2="53.5116" gradientUnits="userSpaceOnUse">
<stop stop-color="white"/>
<stop offset="1" stop-color="#EFEFF4"/>
</linearGradient>
<linearGradient id="paint10_linear_1323_3649" x1="51.6921" y1="39.1363" x2="47.2652" y2="39.1363" gradientUnits="userSpaceOnUse">
<stop stop-color="white"/>
<stop offset="1" stop-color="#EFEFF4"/>
</linearGradient>
<linearGradient id="paint11_linear_1323_3649" x1="55.9161" y1="32.7184" x2="52.9791" y2="32.7184" gradientUnits="userSpaceOnUse">
<stop stop-color="white"/>
<stop offset="1" stop-color="#EFEFF4"/>
</linearGradient>
<linearGradient id="paint12_linear_1323_3649" x1="57.9261" y1="39.1848" x2="69.1049" y2="58.61" gradientUnits="userSpaceOnUse">
<stop stop-color="white"/>
<stop offset="1" stop-color="#EFEFF4"/>
</linearGradient>
<linearGradient id="paint13_linear_1323_3649" x1="52.9818" y1="29.2506" x2="53.6054" y2="35.2201" gradientUnits="userSpaceOnUse">
<stop stop-color="white"/>
<stop offset="1" stop-color="#EFEFF4"/>
</linearGradient>
<linearGradient id="paint14_linear_1323_3649" x1="55.5812" y1="35.239" x2="54.636" y2="31.1918" gradientUnits="userSpaceOnUse">
<stop stop-color="white"/>
<stop offset="1" stop-color="#EFEFF4"/>
</linearGradient>
</defs>
</svg>
