<svg width="39" height="40" viewBox="0 0 39 40" fill="none" xmlns="http://www.w3.org/2000/svg">
<g clip-path="url(#clip0_1016_841)">
<path opacity="0.41" d="M17.789 18.2596L19.5713 10.1044L19.5631 10.1025L20.9255 3.86912C21.0722 3.19789 20.643 2.52853 19.9717 2.38162L9.20721 0.0289795C8.53598 -0.11766 7.86635 0.311574 7.71971 0.982804L4.57271 15.381C4.42607 16.0522 4.88682 16.5773 5.55805 16.7242L11.0013 18.0651L16.3228 19.0769C16.743 19.1688 17.1498 19.0916 17.4316 18.8563C17.6049 18.7152 17.7329 18.5157 17.789 18.2596Z" fill="#111111"/>
<path d="M10.1588 11.87L8.72041 11.5556C8.64963 11.5401 8.60475 11.4701 8.62025 11.3996L8.89002 10.1645C8.90551 10.0937 8.97549 10.0488 9.04601 10.0643L10.4844 10.3787C10.5551 10.3942 10.6 10.4642 10.5845 10.5347L10.3145 11.7698C10.299 11.8403 10.229 11.8852 10.1585 11.87H10.1588ZM9.03613 10.1127C8.99205 10.1031 8.94825 10.1311 8.93863 10.1752L8.66859 11.4103C8.65898 11.4543 8.68702 11.4981 8.73109 11.5078L10.1694 11.8221C10.2135 11.8318 10.2573 11.8037 10.2669 11.7596L10.537 10.5246C10.5466 10.4805 10.5185 10.4369 10.4745 10.4271L9.03613 10.1127Z" fill="#231F20"/>
<path d="M12.1544 12.3182L10.716 12.0038C10.6452 11.9883 10.6004 11.9183 10.6159 11.8478L10.8859 10.6127C10.9014 10.542 10.9714 10.4971 11.0419 10.5126L12.4802 10.827C12.551 10.8425 12.5959 10.9124 12.5804 10.9829L12.3104 12.218C12.2949 12.2888 12.2249 12.3337 12.1544 12.3182ZM11.0315 10.5607C10.9874 10.551 10.9436 10.5791 10.934 10.6232L10.6639 11.8582C10.6543 11.9023 10.6824 11.9459 10.7264 11.9555L12.1648 12.2699C12.2089 12.2795 12.2527 12.2514 12.2623 12.2073L12.532 10.9723C12.5417 10.9282 12.5136 10.8844 12.4695 10.8748L11.0312 10.5604L11.0315 10.5607Z" fill="#231F20"/>
<path d="M14.1518 12.755L12.7135 12.4406C12.643 12.4251 12.5981 12.3551 12.6133 12.2846L12.8831 11.0495C12.8986 10.9787 12.9686 10.9339 13.0391 10.9493L14.4774 11.2637C14.5479 11.2792 14.5928 11.3492 14.5776 11.42L14.3078 12.6551C14.2923 12.7256 14.2223 12.7705 14.1518 12.7552V12.755ZM13.0292 10.9974C12.9851 10.9878 12.9413 11.0159 12.9317 11.0599L12.6619 12.295C12.6523 12.3391 12.6804 12.3829 12.7244 12.3925L14.1628 12.7069C14.2069 12.7165 14.2507 12.6885 14.2603 12.6444L14.5303 11.4093C14.5399 11.365 14.5119 11.3214 14.4678 11.3118L13.0295 10.9974H13.0292Z" fill="#231F20"/>
<path d="M16.2495 13.2135L14.8111 12.8991C14.7406 12.8836 14.6957 12.8136 14.711 12.7431L14.9807 11.508C14.9962 11.4372 15.0662 11.3924 15.1367 11.4078L16.5751 11.7222C16.6456 11.7377 16.6905 11.8077 16.6752 11.8782L16.4055 13.1133C16.39 13.1841 16.32 13.229 16.2495 13.2135ZM15.1266 11.4559C15.0825 11.4463 15.0387 11.4744 15.0291 11.5184L14.7591 12.7535C14.7494 12.7976 14.7775 12.8414 14.8216 12.851L16.2599 13.1654C16.304 13.175 16.3478 13.147 16.3574 13.1029L16.6274 11.8678C16.6371 11.8237 16.609 11.7799 16.5649 11.7703L15.1266 11.4559Z" fill="#231F20"/>
<path d="M18.2471 13.65L16.8088 13.3356C16.738 13.3201 16.6931 13.2501 16.7086 13.1796L16.9784 11.9445C16.9939 11.8737 17.0639 11.8289 17.1344 11.8444L18.5727 12.1587C18.6435 12.1742 18.6884 12.2442 18.6729 12.315L18.4029 13.5501C18.3874 13.6206 18.3174 13.6655 18.2469 13.6503L18.2471 13.65ZM17.1242 11.8924C17.0802 11.8828 17.0364 11.9109 17.0267 11.9549L16.757 13.19C16.7474 13.2341 16.7754 13.2779 16.8195 13.2875L18.2578 13.6019C18.3019 13.6115 18.3457 13.5835 18.3553 13.5394L18.6254 12.3046C18.635 12.2602 18.6069 12.2167 18.5629 12.2071L17.1245 11.8927L17.1242 11.8924Z" fill="#231F20"/>
<path d="M8.0571 11.4229L6.61876 11.1086C6.54824 11.0931 6.50337 11.0231 6.51859 10.9526L6.78837 9.71748C6.80386 9.6467 6.87384 9.60182 6.94462 9.61732L8.38297 9.9317C8.45375 9.94719 8.49836 10.0172 8.48313 10.0877L8.21336 11.3228C8.19787 11.3933 8.12789 11.4382 8.05737 11.4229H8.0571ZM6.9342 9.6654C6.89013 9.65578 6.84633 9.68383 6.83671 9.7279L6.56694 10.963C6.55732 11.0071 6.58537 11.0509 6.62944 11.0605L8.06779 11.3749C8.11186 11.3845 8.15567 11.3564 8.16528 11.3124L8.43506 10.0773C8.44467 10.0332 8.41663 9.98939 8.37255 9.97978L6.9342 9.6654Z" fill="#231F20"/>
<path d="M9.51997 0.424335L20.2845 2.77725C20.956 2.92388 21.3852 3.59324 21.2383 4.26474L18.0913 18.6629C17.9447 19.3342 17.3068 19.6192 16.6353 19.4725L11.3138 18.4607L5.87081 17.1199C5.19932 16.9732 4.73856 16.4481 4.8852 15.7766L8.03248 1.37816C8.17938 0.706663 8.84875 0.277429 9.51997 0.424335Z" fill="#6B7888"/>
<path d="M6.67784 7.61353L4.89546 15.7687C4.74882 16.4399 5.20957 16.9651 5.8808 17.112L11.3241 18.4528L16.6456 19.4649C17.3168 19.6115 17.9547 19.3268 18.1016 18.6553L19.8839 10.5001L6.67784 7.61379V7.61353Z" fill="#5C6873"/>
<path d="M7.20612 15.3503L5.76777 15.0359C5.71061 15.0234 5.65345 15.06 5.64116 15.1174L5.37112 16.3525C5.35857 16.4096 5.39516 16.4668 5.45259 16.4793L6.89094 16.7937C6.9481 16.8063 7.00526 16.7697 7.01781 16.7125L7.28758 15.4774C7.30014 15.4203 7.26354 15.3631 7.20638 15.3506L7.20612 15.3503Z" fill="#D64C3B"/>
<path d="M8.65084 11.8928L10.0892 12.2072C10.1463 12.2198 10.1829 12.2767 10.1704 12.3341L9.90061 13.5692C9.88806 13.6263 9.83116 13.6629 9.77374 13.6506L8.33539 13.3363C8.27823 13.3237 8.24137 13.2668 8.25392 13.2094L8.52369 11.9743C8.53625 11.9171 8.59314 11.8803 8.65057 11.8928H8.65084Z" fill="#6B7888"/>
<path d="M10.6459 12.3411L12.0843 12.6554C12.1414 12.668 12.1783 12.7249 12.1657 12.7823L11.896 14.0174C11.8834 14.0746 11.8265 14.1112 11.7691 14.0986L10.3307 13.7842C10.2736 13.7717 10.237 13.7148 10.2495 13.6576L10.5196 12.4225C10.5321 12.3654 10.589 12.3288 10.6465 12.3413L10.6459 12.3411Z" fill="#6B7888"/>
<path d="M12.6434 12.7778L14.0818 13.0921C14.1389 13.1047 14.1755 13.1616 14.1632 13.219L13.8932 14.4541C13.8807 14.5113 13.8238 14.5481 13.7663 14.5356L12.328 14.2212C12.2708 14.2086 12.2342 14.1517 12.2465 14.0943L12.5166 12.8592C12.5291 12.8021 12.586 12.7655 12.6432 12.7778H12.6434Z" fill="#6B7888"/>
<path d="M9.04146 10.0886L10.4798 10.403C10.537 10.4156 10.5736 10.4725 10.561 10.5299L10.2912 11.765C10.2787 11.8221 10.2218 11.859 10.1644 11.8464L8.72601 11.5321C8.66885 11.5195 8.63199 11.4626 8.64455 11.4052L8.91432 10.1701C8.92687 10.1129 8.98377 10.0763 9.04119 10.0889L9.04146 10.0886Z" fill="#6B7888"/>
<path d="M11.0365 10.5364L12.4749 10.8508C12.5321 10.8633 12.5689 10.9202 12.5564 10.9774L12.2866 12.2125C12.274 12.2696 12.2171 12.3065 12.1597 12.294L10.7214 11.9796C10.6642 11.967 10.6276 11.9101 10.6402 11.8527L10.9102 10.6176C10.9228 10.5605 10.9797 10.5236 11.0371 10.5361L11.0365 10.5364Z" fill="#6B7888"/>
<path d="M13.0345 10.9732L14.4729 11.2876C14.5301 11.3001 14.5666 11.357 14.5544 11.4142L14.2843 12.6493C14.2718 12.7064 14.2149 12.743 14.1574 12.7305L12.7191 12.4161C12.6619 12.4035 12.6253 12.3466 12.6376 12.2892L12.9077 11.0541C12.9202 10.997 12.9771 10.9604 13.0343 10.9729L13.0345 10.9732Z" fill="#6B7888"/>
<path d="M9.30817 15.7976L7.86982 15.4832C7.81266 15.4706 7.7555 15.5072 7.74294 15.5644L7.47317 16.7995C7.46062 16.8566 7.49721 16.9138 7.55464 16.9263L8.99299 17.2407C9.05015 17.2533 9.10731 17.2167 9.11986 17.1595L9.3899 15.9244C9.40245 15.8673 9.36586 15.8101 9.3087 15.7978L9.30817 15.7976Z" fill="#6B7888"/>
<path d="M11.3033 16.2458L9.86494 15.9314C9.80778 15.9189 9.75062 15.9555 9.73806 16.0129L9.46829 17.248C9.45573 17.3051 9.49233 17.3623 9.54949 17.3748L10.9878 17.6892C11.045 17.7018 11.1022 17.6652 11.1144 17.6078L11.3845 16.3727C11.397 16.3155 11.3604 16.2584 11.303 16.2458H11.3033Z" fill="#6B7888"/>
<path d="M13.3013 16.6826L11.863 16.3682C11.8058 16.3556 11.7487 16.3922 11.7364 16.4497L11.4663 17.6847C11.4538 17.7419 11.4904 17.7991 11.5478 17.8113L12.9862 18.1257C13.0433 18.1383 13.1005 18.1017 13.113 18.0445L13.3828 16.8094C13.3954 16.7523 13.3588 16.6951 13.3016 16.6826H13.3013Z" fill="#6B7888"/>
<path d="M7.94522 15.1219L9.38357 15.4363C9.44073 15.4488 9.49789 15.4122 9.51044 15.3548L9.78048 14.1197C9.79303 14.0626 9.75644 14.0054 9.69928 13.9931L8.26093 13.6787C8.20377 13.6662 8.14661 13.7028 8.13406 13.7599L7.86428 14.995C7.85173 15.0522 7.88832 15.1093 7.94575 15.1219H7.94522Z" fill="#6B7888"/>
<path d="M9.94016 15.5702L11.3785 15.8845C11.4357 15.8971 11.4928 15.8605 11.5051 15.8031L11.7752 14.568C11.7877 14.5108 11.7511 14.4537 11.6937 14.4411L10.2553 14.1267C10.1982 14.1142 10.141 14.1508 10.1285 14.2082L9.85843 15.4433C9.84587 15.5004 9.88246 15.5576 9.93962 15.5702H9.94016Z" fill="#6B7888"/>
<path d="M11.9382 16.0067L13.3765 16.321C13.4337 16.3336 13.4908 16.297 13.5034 16.2398L13.7732 15.0048C13.7857 14.9476 13.7491 14.8904 13.692 14.8779L12.2536 14.5635C12.1964 14.5509 12.1393 14.5875 12.127 14.645L11.857 15.8801C11.8444 15.9372 11.881 15.9944 11.9384 16.0067H11.9382Z" fill="#6B7888"/>
<path d="M11.3684 9.02713L12.8067 9.34151C12.8639 9.35406 12.9005 9.41095 12.8882 9.46838L12.7247 10.2155C12.7122 10.2726 12.6553 10.3092 12.5979 10.2967L11.1595 9.98229C11.1024 9.96973 11.0658 9.91284 11.0781 9.85541L11.2415 9.10833C11.2541 9.05117 11.311 9.01457 11.3684 9.02713Z" fill="#A5B8C8"/>
<path d="M17.4582 10.3643L18.8966 10.6787C18.9538 10.6912 18.9903 10.7481 18.9781 10.8053L18.8146 11.5524C18.802 11.6095 18.7451 11.6461 18.6877 11.6338L17.2494 11.3194C17.1922 11.3069 17.1556 11.25 17.1679 11.1926L17.3314 10.4455C17.3439 10.3883 17.4008 10.3517 17.4582 10.3643Z" fill="#A5B8C8"/>
<path d="M15.4607 9.92775L16.8991 10.2421C16.9562 10.2547 16.9931 10.3116 16.9805 10.369L16.8173 11.1161C16.8048 11.1732 16.7479 11.2098 16.6905 11.1976L15.2521 10.8832C15.195 10.8706 15.1584 10.8137 15.1709 10.7563L15.3341 10.0092C15.3467 9.95206 15.4036 9.91519 15.461 9.92775H15.4607Z" fill="#A5B8C8"/>
<path d="M13.3631 9.46924L14.8014 9.78362C14.8586 9.79618 14.8954 9.85307 14.8829 9.9105L14.7194 10.6576C14.7069 10.7147 14.65 10.7516 14.5928 10.739L13.1545 10.4247C13.0973 10.4121 13.0607 10.3552 13.0733 10.2978L13.2365 9.55071C13.249 9.49355 13.3059 9.45696 13.3633 9.46951L13.3631 9.46924Z" fill="#A5B8C8"/>
<path d="M14.7411 13.2361L16.1794 13.5505C16.2366 13.563 16.2732 13.6199 16.2609 13.6771L15.9909 14.9122C15.9783 14.9693 15.9214 15.0062 15.864 14.9936L14.4256 14.6793C14.3685 14.6667 14.3319 14.6098 14.3442 14.5524L14.6142 13.3173C14.6268 13.2601 14.6837 13.2236 14.7411 13.2361Z" fill="#A5B8C8"/>
<path d="M16.7385 13.6728L18.1769 13.9872C18.234 13.9997 18.2706 14.0566 18.2581 14.114L17.988 15.3491C17.9755 15.4063 17.9186 15.4429 17.8611 15.4306L16.4228 15.1162C16.3656 15.1037 16.3288 15.0468 16.3413 14.9893L16.6111 13.7543C16.6236 13.6971 16.6805 13.6605 16.738 13.6728H16.7385Z" fill="#A5B8C8"/>
<path d="M6.5487 11.4455L7.98705 11.7599C8.04421 11.7725 8.08081 11.8294 8.06852 11.8868L7.79848 13.1219C7.78593 13.179 7.72903 13.2156 7.67161 13.2034L6.23326 12.889C6.1761 12.8764 6.1395 12.8195 6.15179 12.7624L6.42183 11.5273C6.43438 11.4701 6.49128 11.4333 6.5487 11.4458V11.4455Z" fill="#A5B8C8"/>
<path d="M15.1319 11.4316L16.5703 11.7459C16.6274 11.7585 16.664 11.8154 16.6517 11.8728L16.3817 13.1079C16.3692 13.1651 16.3123 13.2016 16.2551 13.1894L14.8168 12.875C14.7596 12.8624 14.723 12.8055 14.7353 12.7484L15.0053 11.5133C15.0179 11.4561 15.0748 11.4195 15.1322 11.4318L15.1319 11.4316Z" fill="#A5B8C8"/>
<path d="M17.1291 11.8687L18.5675 12.183C18.6246 12.1956 18.6612 12.2525 18.6487 12.3099L18.3786 13.545C18.3661 13.6022 18.3092 13.6387 18.2518 13.6265L16.8134 13.3121C16.7563 13.2995 16.7194 13.2426 16.7319 13.1852L17.0017 11.9501C17.0143 11.893 17.0712 11.8564 17.1286 11.8689L17.1291 11.8687Z" fill="#A5B8C8"/>
<path d="M6.93933 9.64114L8.37768 9.95552C8.43484 9.96807 8.47143 10.025 8.45915 10.0824L8.1891 11.3175C8.17655 11.3746 8.11966 11.4112 8.06223 11.3987L6.62388 11.0843C6.56672 11.0717 6.53013 11.0149 6.54241 10.9574L6.81246 9.72234C6.82501 9.66518 6.8819 9.62859 6.93933 9.64114Z" fill="#A5B8C8"/>
<path d="M17.3961 17.5776L15.9577 17.2632C15.9006 17.2507 15.8434 17.2872 15.8308 17.3444L15.5611 18.5795C15.5485 18.6367 15.5851 18.6938 15.6423 18.7064L17.0806 19.0207C17.1378 19.0333 17.1949 18.9967 17.2075 18.9395L17.4773 17.7045C17.4898 17.6473 17.4532 17.5901 17.3958 17.5776H17.3961Z" fill="#A5B8C8"/>
<path d="M15.87 15.4633C15.8825 15.4061 15.8459 15.3489 15.7888 15.3364L14.3504 15.022C14.2933 15.0094 14.2361 15.046 14.2238 15.1035L13.563 18.1431C13.5505 18.2003 13.5871 18.2574 13.6445 18.27L15.0828 18.5844C15.14 18.5969 15.1972 18.5603 15.2097 18.5032L15.8705 15.4635L15.87 15.4633Z" fill="#A5B8C8"/>
<path d="M16.0327 16.9019L17.471 17.2163C17.5282 17.2289 17.5853 17.1923 17.5979 17.1348L17.8677 15.8998C17.8802 15.8426 17.8436 15.7854 17.7862 15.7731L16.3478 15.4588C16.2907 15.4462 16.2335 15.4828 16.221 15.54L15.9512 16.7751C15.9386 16.8322 15.9752 16.8894 16.0324 16.9019H16.0327Z" fill="#A5B8C8"/>
<path d="M5.84294 14.6749L7.28129 14.9893C7.33845 15.0018 7.39561 14.9652 7.40817 14.9081L7.67794 13.673C7.6905 13.6158 7.6539 13.5587 7.59674 13.5461L6.15839 13.2317C6.10123 13.2192 6.04407 13.2558 6.03179 13.3132L5.76174 14.5483C5.74919 14.6054 5.78578 14.6626 5.84321 14.6751L5.84294 14.6749Z" fill="#E2CC85"/>
<path d="M9.28073 0.96715L20.2838 3.37214C20.5936 3.43972 20.7918 3.74876 20.724 4.05887L19.6291 9.06811C19.5613 9.37795 19.2522 9.57614 18.9424 9.5083L7.93934 7.10331C7.6295 7.03573 7.43131 6.72642 7.49916 6.41685L8.59401 1.4076C8.66159 1.09776 8.97063 0.899573 9.28046 0.967417L9.28073 0.96715Z" fill="#292A2B"/>
<path d="M9.47611 2.8976L19.3031 5.04564C19.5406 5.09746 19.6925 5.33438 19.6407 5.57184L19.0819 8.12908C19.0301 8.36653 18.7825 8.56659 18.5451 8.51478L13.5067 7.56469L8.71808 6.36673C8.48035 6.31465 8.33906 6.02992 8.39114 5.7922L8.94992 3.23522C9.00174 2.9975 9.23866 2.84578 9.47638 2.8976H9.47611Z" fill="#D6D6D8"/>
<path d="M10.2147 3.38455L18.4174 5.17735C18.5728 5.21127 18.6722 5.36619 18.638 5.52164L18.2099 7.48031C18.1759 7.63576 18.021 7.73512 17.8656 7.7012L9.66283 5.90841C9.50738 5.87448 9.40828 5.71956 9.4422 5.56411L9.87037 3.60544C9.90429 3.45026 10.0592 3.3509 10.2147 3.38482V3.38455Z" fill="#98D3A9"/>
<path d="M13.6791 19.9401L12.8326 19.7967C12.7445 19.5119 12.631 19.2373 12.4926 18.9753L12.9915 18.2774C13.2031 17.9801 13.1705 17.5744 12.9109 17.3174L12.16 16.5666C12.019 16.4256 11.8326 16.3473 11.6333 16.3473C11.4773 16.3473 11.3286 16.3951 11.2025 16.4859L10.5021 16.9846C10.23 16.8409 9.9455 16.7226 9.65062 16.6344L9.50959 15.7981C9.44895 15.4378 9.13911 15.1758 8.77399 15.1758H7.71332C7.34792 15.1758 7.03808 15.4378 6.97745 15.7981L6.83135 16.6547C6.54902 16.7431 6.27444 16.8588 6.01241 16.9998L5.31954 16.5009C5.19374 16.4103 5.04229 16.3623 4.8863 16.3623C4.68704 16.3623 4.4982 16.4405 4.35958 16.5815L3.60634 17.3324C3.34939 17.5893 3.31413 17.9948 3.52568 18.2923L4.0297 19.0002C3.89108 19.2646 3.78023 19.5394 3.69449 19.8242L2.85819 19.9649C2.49787 20.0256 2.23584 20.3354 2.23584 20.7008V21.7615C2.23584 22.1266 2.49787 22.4364 2.85819 22.4971L3.71479 22.6432C3.80293 22.9252 3.91886 23.1998 4.05989 23.4618L3.56334 24.1523C3.3518 24.4496 3.38438 24.8553 3.64401 25.1123L4.39483 25.8631C4.53586 26.0041 4.7223 26.0821 4.92156 26.0821C5.07782 26.0821 5.22659 26.0343 5.3524 25.9438L6.06049 25.4397C6.31477 25.5733 6.58214 25.6817 6.85645 25.7672L6.99748 26.6137C7.05812 26.974 7.36796 27.236 7.73309 27.236H8.79642C9.16182 27.236 9.47166 26.974 9.53202 26.6137L9.67546 25.7672C9.96019 25.6788 10.2348 25.5656 10.4968 25.4272L11.1947 25.9259C11.3208 26.0167 11.472 26.0645 11.628 26.0645C11.827 26.0645 12.0134 25.9862 12.1547 25.8452L12.9055 25.0944C13.1625 24.8374 13.1977 24.4317 12.9862 24.1344L12.4872 23.4338C12.6259 23.1694 12.7418 22.8945 12.8273 22.6125L13.6737 22.4714C14.034 22.4111 14.2961 22.1012 14.2961 21.7358V20.6752C14.3011 20.3098 14.0391 19.9999 13.6788 19.9393L13.6791 19.9401ZM13.6211 21.7366C13.6211 21.7692 13.5984 21.797 13.5658 21.8021L12.5076 21.9786C12.3743 22.0013 12.2682 22.0996 12.2354 22.2281C12.1395 22.5983 11.9936 22.9536 11.7971 23.2837C11.7289 23.3996 11.734 23.543 11.812 23.6539L12.4344 24.5305C12.452 24.5556 12.4496 24.5936 12.4269 24.6163L11.6761 25.3671C11.6584 25.3847 11.6408 25.3871 11.628 25.3871C11.613 25.3871 11.6002 25.3821 11.5903 25.3746L10.7161 24.7522C10.6076 24.6742 10.4615 24.6692 10.3456 24.7373C10.0155 24.9339 9.6605 25.08 9.29003 25.1756C9.15915 25.2084 9.06085 25.3166 9.04055 25.4478L8.86159 26.506C8.85652 26.5389 8.82901 26.5613 8.79615 26.5613H7.73549C7.7029 26.5613 7.67486 26.5389 7.66978 26.506L7.49349 25.4478C7.47079 25.3145 7.3725 25.2084 7.24402 25.1756C6.88397 25.0824 6.53593 24.9389 6.21087 24.7522C6.15798 24.722 6.09761 24.7071 6.03965 24.7071C5.97154 24.7071 5.90103 24.7271 5.84306 24.7701L4.96136 25.3973C4.9488 25.405 4.93625 25.4101 4.9237 25.4101C4.91355 25.4101 4.89351 25.4074 4.87589 25.3898L4.12506 24.639C4.10262 24.6163 4.09995 24.581 4.11758 24.5532L4.73753 23.6838C4.81552 23.573 4.82059 23.4269 4.75248 23.3109C4.5559 22.9835 4.40472 22.6282 4.30909 22.2577C4.27383 22.1293 4.16806 22.031 4.03691 22.0083L2.97117 21.8269C2.93859 21.8218 2.91588 21.7941 2.91588 21.7615V20.7008C2.91588 20.668 2.93859 20.6404 2.97117 20.6351L4.02196 20.4588C4.15551 20.4361 4.26368 20.3378 4.29654 20.2069C4.38976 19.8365 4.53346 19.4788 4.72738 19.1487C4.79549 19.0327 4.78774 18.889 4.70975 18.7809L4.08232 17.8989C4.06469 17.8738 4.06736 17.8359 4.0898 17.8134L4.84063 17.0626C4.85826 17.045 4.87589 17.0426 4.88844 17.0426C4.90366 17.0426 4.91622 17.0476 4.92637 17.0551L5.79552 17.6751C5.90637 17.7531 6.05247 17.7581 6.1684 17.69C6.49586 17.4934 6.85111 17.3423 7.22158 17.2466C7.35006 17.2114 7.44835 17.1056 7.47106 16.9745L7.65242 15.9087C7.6575 15.8759 7.68501 15.8532 7.71786 15.8532H8.77853C8.81111 15.8532 8.83889 15.8756 8.84397 15.9087L9.02052 16.9595C9.04323 17.0928 9.14152 17.2012 9.2724 17.2341C9.65275 17.33 10.0155 17.4785 10.3531 17.6775C10.469 17.7456 10.6125 17.7405 10.7233 17.6625L11.5925 17.0375C11.605 17.03 11.6176 17.0249 11.6301 17.0249C11.6403 17.0249 11.6603 17.0276 11.6779 17.045L12.4288 17.7958C12.4512 17.8185 12.4539 17.8538 12.4362 17.8815L11.8139 18.7558C11.7356 18.8642 11.7308 19.0103 11.7989 19.1262C11.9955 19.4561 12.1414 19.8114 12.2372 20.1818C12.2698 20.3127 12.378 20.411 12.5092 20.431L13.5674 20.61C13.6003 20.6151 13.623 20.6428 13.623 20.6757V21.7364H13.6206L13.6211 21.7366Z" fill="white"/>
<path d="M8.26769 18.6023C6.83174 18.6023 5.66504 19.7687 5.66504 21.2049C5.66504 22.6412 6.83174 23.8076 8.26769 23.8076C9.70363 23.8076 10.8703 22.6409 10.8703 21.2049C10.8703 19.769 9.7039 18.6023 8.26769 18.6023ZM8.26769 23.127C7.20702 23.127 6.34535 22.2653 6.34535 21.2047C6.34535 20.144 7.20702 19.2823 8.26769 19.2823C9.32836 19.2823 10.19 20.144 10.19 21.2047C10.19 22.2653 9.32836 23.127 8.26769 23.127Z" fill="white"/>
<path d="M6.52301 12.4711L6.04036 12.3891C5.99014 12.2267 5.9255 12.0701 5.84644 11.9208L6.13064 11.5231C6.25137 11.3535 6.23267 11.1225 6.0847 10.9758L5.65653 10.5479C5.57613 10.4672 5.46983 10.4229 5.35631 10.4229C5.26736 10.4229 5.18242 10.4502 5.11084 10.502L4.71152 10.7864C4.55633 10.7044 4.3942 10.6369 4.22619 10.5866L4.1458 10.1099C4.11134 9.90446 3.93478 9.75488 3.72644 9.75488H3.12172C2.91338 9.75488 2.73683 9.90446 2.70211 10.1099L2.61877 10.5981C2.45797 10.6483 2.30118 10.7146 2.15187 10.795L1.75683 10.5105C1.68498 10.4587 1.5987 10.4315 1.50976 10.4315C1.39624 10.4315 1.2886 10.4761 1.20953 10.5565L0.780032 10.9844C0.633393 11.131 0.61336 11.362 0.734091 11.5317L1.02149 11.9352C0.942431 12.0862 0.879395 12.2427 0.830515 12.4051L0.353736 12.4855C0.148334 12.5199 -0.000976562 12.6965 -0.000976562 12.9048V13.5095C-0.000976562 13.7179 0.148334 13.8944 0.353736 13.9289L0.842267 14.0122C0.892483 14.173 0.958724 14.3298 1.03886 14.4791L0.755993 14.8726C0.635263 15.0422 0.65396 15.2732 0.801935 15.4199L1.22983 15.8478C1.31023 15.9284 1.41654 15.9728 1.53006 15.9728C1.619 15.9728 1.70394 15.9455 1.77553 15.8937L2.17912 15.6063C2.32415 15.6824 2.4764 15.7444 2.63293 15.793L2.71332 16.2757C2.74778 16.4811 2.92433 16.6304 3.13268 16.6304H3.73873C3.94707 16.6304 4.12389 16.4811 4.15835 16.2757L4.24008 15.793C4.40248 15.7428 4.559 15.6782 4.70832 15.5991L5.1063 15.8836C5.17815 15.9354 5.26416 15.9626 5.35337 15.9626C5.46689 15.9626 5.57319 15.918 5.65359 15.8376L6.08176 15.4095C6.2284 15.2628 6.24816 15.0318 6.1277 14.8622L5.8435 14.4628C5.92257 14.3119 5.98854 14.1554 6.03742 13.9946L6.52007 13.9142C6.72548 13.8798 6.87506 13.7032 6.87506 13.4949V12.8901C6.87799 12.6818 6.72842 12.505 6.52301 12.4708V12.4711ZM6.48989 13.4951C6.48989 13.5138 6.47707 13.5296 6.45837 13.5325L5.85499 13.6332C5.77886 13.646 5.7185 13.7021 5.6998 13.7753C5.64531 13.9863 5.56198 14.1891 5.45006 14.3771C5.41106 14.4431 5.414 14.5251 5.45861 14.5881L5.81359 15.0879C5.82374 15.1023 5.82213 15.1237 5.80931 15.1367L5.38115 15.5646C5.371 15.5748 5.36111 15.5761 5.3539 15.5761C5.34536 15.5761 5.33814 15.5732 5.33227 15.5689L4.83385 15.2142C4.77189 15.1696 4.68855 15.1669 4.62258 15.2057C4.43453 15.3178 4.2318 15.4009 4.02079 15.4554C3.946 15.4741 3.88991 15.5358 3.87869 15.6106L3.77666 16.2137C3.77372 16.2324 3.75796 16.2452 3.73927 16.2452H3.13454C3.11585 16.2452 3.10009 16.2324 3.09715 16.2137L2.99645 15.6106C2.98363 15.5345 2.92754 15.4741 2.85435 15.4554C2.64895 15.4022 2.45076 15.3205 2.26539 15.2142C2.23521 15.1971 2.20075 15.1886 2.16763 15.1886C2.1289 15.1886 2.08857 15.2 2.05545 15.2243L1.55276 15.582C1.54555 15.5863 1.53834 15.5892 1.53139 15.5892C1.52552 15.5892 1.51403 15.5876 1.50415 15.5777L1.07598 15.1496C1.06316 15.1367 1.06156 15.1164 1.07171 15.1007L1.42482 14.6052C1.46943 14.5419 1.47236 14.4586 1.43363 14.3926C1.32145 14.2059 1.23544 14.0034 1.18069 13.7921C1.16065 13.719 1.10029 13.6629 1.0255 13.65L0.418108 13.5467C0.399411 13.5437 0.38659 13.528 0.38659 13.5095V12.9048C0.38659 12.8861 0.399678 12.8704 0.418108 12.8674L1.01695 12.767C1.09308 12.7539 1.15478 12.6981 1.17348 12.6233C1.22663 12.412 1.30836 12.2082 1.41894 12.0199C1.45767 11.9539 1.4534 11.8719 1.40879 11.8102L1.05114 11.3076C1.04099 11.2931 1.04233 11.2718 1.05542 11.2587L1.48331 10.8308C1.49346 10.8206 1.50335 10.8193 1.51056 10.8193C1.51911 10.8193 1.52632 10.8222 1.53219 10.8265L2.02767 11.1796C2.09097 11.2242 2.17431 11.2272 2.24028 11.1884C2.42699 11.0765 2.62945 10.9902 2.84073 10.9357C2.91392 10.9157 2.97001 10.8553 2.98283 10.7806L3.0862 10.1729C3.08914 10.1542 3.1049 10.1411 3.12359 10.1411H3.72831C3.74701 10.1411 3.76277 10.1542 3.76571 10.1729L3.86641 10.7717C3.87923 10.8479 3.93532 10.9096 4.01011 10.9283C4.227 10.9828 4.43373 11.0677 4.62631 11.1812C4.69229 11.2199 4.77402 11.217 4.83733 11.1727L5.3328 10.8164C5.34001 10.8121 5.34723 10.8091 5.35444 10.8091C5.36005 10.8091 5.3718 10.8107 5.38168 10.8206L5.80958 11.2488C5.82267 11.2619 5.824 11.2819 5.81385 11.2977L5.45914 11.7961C5.41454 11.8581 5.4116 11.9414 5.45033 12.0074C5.56224 12.1954 5.64558 12.3981 5.70034 12.6091C5.71903 12.6839 5.78073 12.7398 5.85552 12.7512L6.45864 12.8533C6.47734 12.8562 6.49043 12.872 6.49043 12.8907V13.4954H6.48882L6.48989 13.4951Z" fill="white"/>
<path d="M3.43786 11.7083C2.61919 11.7083 1.9541 12.3733 1.9541 13.192C1.9541 14.0107 2.61919 14.6755 3.43786 14.6755C4.25653 14.6755 4.92162 14.0107 4.92162 13.192C4.92162 12.3733 4.25653 11.7083 3.43786 11.7083ZM3.43786 14.2879C2.83314 14.2879 2.34193 13.7967 2.34193 13.192C2.34193 12.5873 2.83314 12.0961 3.43786 12.0961C4.04258 12.0961 4.53378 12.5873 4.53378 13.192C4.53378 13.7967 4.04258 14.2879 3.43786 14.2879Z" fill="white"/>
<path d="M11.5762 11.1634L11.2124 11.1017C11.1745 10.9793 11.1256 10.8613 11.0661 10.7485L11.2806 10.4486C11.3714 10.3209 11.3575 10.1465 11.2458 10.0359L10.9229 9.71325C10.8623 9.65262 10.7821 9.61897 10.6967 9.61897C10.6296 9.61897 10.5655 9.63953 10.5113 9.67853L10.2103 9.89302C10.0933 9.83131 9.97095 9.7803 9.84408 9.74237L9.78345 9.38285C9.75754 9.22793 9.62425 9.11548 9.4672 9.11548H9.01125C8.85419 9.11548 8.72091 9.2282 8.695 9.38285L8.63223 9.75118C8.51097 9.78911 8.39291 9.83879 8.28019 9.89969L7.98237 9.68521C7.92815 9.64621 7.86324 9.62565 7.7962 9.62565C7.71046 9.62565 7.62926 9.6593 7.5697 9.71993L7.24597 10.0429C7.13539 10.1532 7.12016 10.3279 7.21124 10.4555L7.42786 10.7598C7.3683 10.8735 7.32076 10.9913 7.2839 11.1139L6.92438 11.1746C6.76946 11.2005 6.65674 11.3338 6.65674 11.4908V11.9468C6.65674 12.1038 6.76946 12.2368 6.92438 12.263L7.29244 12.3261C7.33037 12.4473 7.38005 12.5654 7.44095 12.6781L7.22754 12.9748C7.13646 13.1025 7.15061 13.2769 7.26199 13.3875L7.58492 13.7102C7.64555 13.7708 7.72568 13.8045 7.81116 13.8045C7.8782 13.8045 7.94231 13.7839 7.99653 13.7449L8.30076 13.5283C8.41027 13.5857 8.52486 13.6322 8.64292 13.669L8.70355 14.0328C8.72972 14.1878 8.86274 14.3005 9.0198 14.3005H9.47681C9.63387 14.3005 9.76715 14.1878 9.79306 14.0328L9.85476 13.669C9.97709 13.6311 10.0952 13.5825 10.2079 13.5227L10.5078 13.7372C10.5621 13.7762 10.627 13.7967 10.694 13.7967C10.7795 13.7967 10.8599 13.7631 10.9205 13.7024L11.2432 13.3798C11.3537 13.2692 11.3687 13.0948 11.2779 12.9671L11.0634 12.6661C11.123 12.5523 11.1729 12.4345 11.2095 12.313L11.5733 12.2521C11.7282 12.2262 11.8409 12.0929 11.8409 11.9358V11.4799C11.8431 11.3228 11.7304 11.1895 11.5754 11.1636L11.5762 11.1634ZM11.5514 11.9358C11.5514 11.9497 11.5418 11.9617 11.5276 11.9639L11.0728 12.0397C11.0153 12.0493 10.9699 12.0915 10.9558 12.1468C10.9146 12.306 10.8519 12.4588 10.7672 12.6006C10.7378 12.6506 10.7402 12.712 10.7736 12.7598L11.0412 13.1367C11.0487 13.1474 11.0476 13.1637 11.038 13.1736L10.7151 13.4962C10.7076 13.5037 10.6999 13.5048 10.6945 13.5048C10.6881 13.5048 10.6825 13.5026 10.6782 13.4994L10.3024 13.2318C10.2559 13.1981 10.1929 13.196 10.1432 13.2254C10.0014 13.3098 9.84862 13.3726 9.68942 13.414C9.63307 13.4281 9.59086 13.4746 9.58205 13.531L9.50512 13.9858C9.50299 14 9.49097 14.0096 9.47681 14.0096H9.02087C9.00671 14.0096 8.99469 14 8.99255 13.9858L8.91696 13.531C8.90708 13.4735 8.86488 13.4281 8.80985 13.414C8.65494 13.3739 8.50562 13.3122 8.36566 13.2321C8.34296 13.2192 8.31705 13.2126 8.29194 13.2126C8.26283 13.2126 8.23238 13.2214 8.20754 13.2395L7.82852 13.5093C7.82318 13.5125 7.81783 13.5149 7.81223 13.5149C7.80795 13.5149 7.79914 13.5139 7.79166 13.5061L7.469 13.1832C7.45912 13.1736 7.45805 13.1583 7.46579 13.1463L7.73209 12.7727C7.76575 12.7251 7.76789 12.6623 7.73851 12.6124C7.6541 12.4716 7.58893 12.3188 7.54779 12.1597C7.53257 12.1044 7.48716 12.0622 7.4308 12.0525L6.97272 11.9745C6.95856 11.9724 6.94895 11.9604 6.94895 11.9465V11.4906C6.94895 11.4764 6.95856 11.4644 6.97272 11.4622L7.42439 11.3864C7.48182 11.3768 7.5283 11.3343 7.54245 11.2779C7.58252 11.1188 7.64422 10.9649 7.72782 10.8231C7.75693 10.7731 7.75373 10.7114 7.72034 10.6649L7.45057 10.2859C7.44282 10.275 7.44416 10.2589 7.45377 10.2491L7.77643 9.9264C7.78391 9.91892 7.79166 9.91786 7.797 9.91786C7.80341 9.91786 7.80902 9.91999 7.81329 9.9232L8.18697 10.1898C8.23451 10.2234 8.29728 10.2256 8.34723 10.1962C8.488 10.1118 8.64078 10.0466 8.79997 10.0055C8.85526 9.99024 8.89746 9.94483 8.90708 9.88847L8.98507 9.43039C8.98721 9.41624 8.99923 9.40662 9.01312 9.40662H9.46906C9.48322 9.40662 9.49497 9.41624 9.49711 9.43039L9.57297 9.8818C9.58258 9.93922 9.62479 9.9857 9.68141 9.99986C9.84488 10.041 10.0009 10.1051 10.1462 10.1906C10.1961 10.2199 10.2578 10.2175 10.3054 10.1842L10.679 9.91545C10.6844 9.91225 10.6897 9.90984 10.6953 9.90984C10.6996 9.90984 10.7084 9.91091 10.7159 9.91866L11.0386 10.2413C11.0482 10.2512 11.0495 10.2664 11.0418 10.2782L10.7741 10.654C10.7405 10.7007 10.7383 10.7635 10.7677 10.8132C10.8521 10.955 10.9149 11.1078 10.9563 11.267C10.9702 11.3234 11.0169 11.3656 11.0733 11.3741L11.5282 11.451C11.5423 11.4532 11.5519 11.4652 11.5519 11.4791V11.935H11.5506L11.5514 11.9358Z" fill="white"/>
<path d="M9.24975 10.5884C8.63221 10.5884 8.13086 11.09 8.13086 11.7073C8.13086 12.3245 8.63248 12.8262 9.24975 12.8262C9.86703 12.8262 10.3686 12.3248 10.3686 11.7073C10.3686 11.0897 9.8673 10.5884 9.24975 10.5884ZM9.24975 12.5337C8.79381 12.5337 8.42334 12.1635 8.42334 11.7073C8.42334 11.2511 8.79381 10.8806 9.24975 10.8806C9.7057 10.8806 10.0762 11.2511 10.0762 11.7073C10.0762 12.1635 9.7057 12.5337 9.24975 12.5337Z" fill="white"/>
<path opacity="0.2" d="M33.0425 6.83594H16.0625V35.1334H37.5915V11.3935L33.0425 6.83594Z" fill="#111111"/>
<path d="M33.4937 7.17407V11.7316H38.0427V35.4715H16.5137V7.17407H33.4937Z" fill="white"/>
<path d="M33.4937 7.17407L38.0427 11.7317H33.4937V7.17407Z" fill="#E6E9EE"/>
<path d="M26.7251 8.77271H18.4604V9.7081H26.7251V8.77271Z" fill="#FF4343"/>
<path d="M29.6075 10.8047H18.4604V11.7401H29.6075V10.8047Z" fill="#E6E9EE"/>
<path d="M37.096 26.1807H23.4072V27.1158H37.096V26.1807Z" fill="#E6E9EE"/>
<path d="M32.3781 28.2043H23.4072V29.1397H32.3781V28.2043Z" fill="#E6E9EE"/>
<path d="M27.0626 30.821H18.7979V31.7564H27.0626V30.821Z" fill="#E6E9EE"/>
<path d="M24.2139 32.8447H18.7979V33.7801H24.2139V32.8447Z" fill="#E6E9EE"/>
<path d="M36.2798 30.821H28.0151V31.7564H36.2798V30.821Z" fill="#E6E9EE"/>
<path d="M33.4315 32.8447H28.0151V33.7801H33.4315V32.8447Z" fill="#E6E9EE"/>
<path d="M28.312 16.6572H26.6055V24.9513H28.312V16.6572Z" fill="#F2361D"/>
<path d="M25.655 18.5356H23.9487V24.9509H25.655V18.5356Z" fill="#69E856"/>
<path d="M22.999 21.4424H21.2925V24.951H22.999V21.4424Z" fill="#B76FDD"/>
<path d="M20.3423 17.9382H18.6357V24.951H20.3423V17.9382Z" fill="#40CAF4"/>
<path d="M22.1454 20.2805C22.1155 20.2805 22.0859 20.2666 22.0672 20.2407L19.2698 16.3755C19.2391 16.3328 19.249 16.2735 19.2922 16.243C19.3355 16.2126 19.3956 16.2224 19.4269 16.2652L22.2242 20.1304C22.2549 20.1732 22.2448 20.2325 22.2015 20.2629C22.1847 20.2749 22.1652 20.2805 22.1457 20.2805H22.1454Z" fill="#60E843"/>
<path d="M24.9428 17.1181C24.915 17.1181 24.8875 17.1064 24.8682 17.0837C24.8343 17.0431 24.8402 16.9833 24.8813 16.9499L27.3731 14.9153C27.414 14.882 27.4749 14.8876 27.5088 14.9279C27.543 14.9682 27.5371 15.0283 27.4963 15.0617L25.0045 17.096C24.9863 17.1107 24.9647 17.1179 24.943 17.1179L24.9428 17.1181Z" fill="#60E843"/>
<path d="M22.1457 20.2807C22.1232 20.2807 22.1005 20.273 22.0824 20.2575C22.0423 20.223 22.038 20.1629 22.073 20.1234L24.8704 16.9609C24.9051 16.9213 24.9663 16.9171 25.0063 16.9515C25.0464 16.986 25.0507 17.0461 25.0157 17.0856L22.2183 20.2481C22.1991 20.2697 22.1726 20.2807 22.1457 20.2807Z" fill="#60E843"/>
<path d="M24.9431 16.3206C25.3368 16.3206 25.6557 16.6352 25.6557 17.023C25.6557 17.4109 25.3368 17.7258 24.9431 17.7258C24.5494 17.7258 24.2305 17.4111 24.2305 17.023C24.2305 16.6349 24.5494 16.3206 24.9431 16.3206Z" fill="#EF73D8"/>
<path d="M22.1457 19.4829C22.5394 19.4829 22.8584 19.7976 22.8584 20.1857C22.8584 20.5738 22.5394 20.8884 22.1457 20.8884C21.752 20.8884 21.4331 20.5738 21.4331 20.1857C21.4331 19.7976 21.752 19.4829 22.1457 19.4829Z" fill="#EF73D8"/>
<path d="M19.3489 17.0676C19.7424 17.0676 20.0615 16.753 20.0615 16.3649C20.0615 15.9767 19.7424 15.6621 19.3489 15.6621C18.9553 15.6621 18.6362 15.9767 18.6362 16.3649C18.6362 16.753 18.9553 17.0676 19.3489 17.0676Z" fill="#EF73D8"/>
<path d="M30.9675 17.9382H29.2612V24.951H30.9675V17.9382Z" fill="#595959"/>
<path d="M33.6245 19.4832H31.918V24.951H33.6245V19.4832Z" fill="#B76FDD"/>
<path d="M36.2807 16.6572H34.5742V24.9513H36.2807V16.6572Z" fill="#EFB541"/>
<path d="M32.7706 18.1911C32.7516 18.1911 32.7324 18.1855 32.7156 18.174C32.672 18.1438 32.6611 18.0845 32.6918 18.0418L35.4889 14.0918C35.5196 14.0488 35.5797 14.0384 35.6232 14.0683C35.6668 14.0985 35.6777 14.1578 35.647 14.2008L32.8499 18.1507C32.8312 18.1772 32.8013 18.1913 32.7706 18.1913V18.1911Z" fill="#60E843"/>
<path d="M29.974 16.1011C29.9617 16.1011 29.9491 16.0987 29.9371 16.0939L27.4453 15.0768C27.3959 15.0568 27.3727 15.0009 27.3932 14.9526C27.4138 14.904 27.4699 14.881 27.519 14.901L30.0108 15.9182C30.0603 15.9382 30.0835 15.994 30.0632 16.0424C30.0477 16.079 30.0116 16.1011 29.974 16.1011Z" fill="#60E843"/>
<path d="M32.7706 18.1911C32.7503 18.1911 32.73 18.1847 32.7124 18.1716L29.915 16.0818C29.8728 16.05 29.8643 15.9905 29.8966 15.9485C29.9286 15.9068 29.989 15.8983 30.0315 15.9304L32.8289 18.0204C32.8713 18.0522 32.8796 18.1118 32.8475 18.1537C32.8286 18.1783 32.7997 18.1914 32.7706 18.1914V18.1911Z" fill="#60E843"/>
<path d="M29.9734 15.2109C29.5797 15.2109 29.2607 15.5256 29.2607 15.9137C29.2607 16.3018 29.5797 16.6164 29.9734 16.6164C30.3671 16.6164 30.686 16.3018 30.686 15.9137C30.686 15.5256 30.3671 15.2109 29.9734 15.2109Z" fill="#EF73D8"/>
<path d="M32.7702 17.2639C32.3765 17.2639 32.0576 17.5786 32.0576 17.9667C32.0576 18.3548 32.3765 18.6694 32.7702 18.6694C33.164 18.6694 33.4826 18.3548 33.4826 17.9667C33.4826 17.5786 33.1637 17.2639 32.7702 17.2639Z" fill="#EF73D8"/>
<path d="M35.5676 13.4434C35.1739 13.4434 34.855 13.758 34.855 14.1458C34.855 14.5337 35.1739 14.8486 35.5676 14.8486C35.9613 14.8486 36.2802 14.5339 36.2802 14.1458C36.2802 13.7577 35.9613 13.4434 35.5676 13.4434Z" fill="#EF73D8"/>
<path d="M27.4338 14.2861C27.8275 14.2861 28.1465 14.6008 28.1465 14.9889C28.1465 15.377 27.8275 15.6916 27.4338 15.6916C27.0401 15.6916 26.7212 15.377 26.7212 14.9889C26.7212 14.6008 27.0401 14.2861 27.4338 14.2861Z" fill="#EF73D8"/>
<path d="M22.593 26.271H18.7002V30.1638H22.593V26.271Z" fill="#4C4A4C"/>
<path d="M18.4749 29.8777L18.2182 29.1597C18.11 28.8565 17.8223 28.6538 17.4999 28.6538H14.0612C13.7132 28.6538 13.4312 28.9359 13.4312 29.2839V39.9998H25.8744C26.267 39.9998 26.5854 39.6817 26.5854 39.289V31.2955C26.5854 30.9028 26.267 30.5847 25.8744 30.5847H19.4781C19.028 30.5847 18.6263 30.3016 18.4749 29.8777Z" fill="#FFB92E"/>
<path d="M24.1708 27.2361H16.084V36.1106H24.1708V27.2361Z" fill="#C1BEB8"/>
<path d="M23.9601 27.0259H15.8735V35.9004H23.9601V27.0259Z" fill="#D6D3CC"/>
<path d="M23.7504 26.8159H15.6636V35.6901H23.7504V26.8159Z" fill="#E8E4D9"/>
<path d="M23.5404 26.5535H15.4536V35.4277H23.5404V26.5535Z" fill="#F5F1E2"/>
<path d="M21.7149 29.1116H15.873V29.6631H21.7149V29.1116Z" fill="#E5E3E1"/>
<path opacity="0.16" d="M18.2427 30.0798L18.0029 29.415C17.8939 29.1129 17.6161 28.9128 17.306 28.9128H13.9413C13.6016 28.9128 13.3262 29.1992 13.3262 29.5523V39.2895C13.3262 39.6239 13.5869 39.895 13.9087 39.895H25.4927C25.8642 39.895 26.1655 39.582 26.1655 39.196V31.4207C26.1655 31.0676 25.8902 30.7812 25.5504 30.7812H19.2166C18.7828 30.7812 18.395 30.5016 18.2427 30.0795V30.0798Z" fill="#232322"/>
<path d="M17.9435 30.3255L17.698 29.67C17.5866 29.3724 17.3019 29.175 16.9841 29.175H13.5368C13.1888 29.175 12.9067 29.4571 12.9067 29.8051V39.2844C12.9067 39.6794 13.227 39.9997 13.622 39.9997H25.3455C25.7405 39.9997 26.061 39.6794 26.061 39.2844V31.6471C26.061 31.299 25.779 31.017 25.4307 31.017H18.9414C18.4972 31.017 18.0995 30.7416 17.9438 30.3255H17.9435Z" fill="#FFD55B"/>
<path d="M14.611 35.623H22.0097C22.1876 35.623 22.3321 35.7673 22.3321 35.9454V38.2949C22.3321 38.473 22.1876 38.6173 22.0097 38.6173H14.611C14.4331 38.6173 14.2886 38.473 14.2886 38.2949V35.9454C14.2886 35.7673 14.4331 35.623 14.611 35.623Z" fill="#F5F1E2"/>
<path d="M14.7682 35.8198H21.8531C22.0236 35.8198 22.1619 35.9451 22.1619 36.0997V38.1407C22.1619 38.2953 22.0236 38.4209 21.8531 38.4209H14.7682C14.5978 38.4209 14.4595 38.2953 14.4595 38.1407V36.0997C14.4595 35.9451 14.5978 35.8198 14.7682 35.8198Z" fill="#F5F1E2"/>
<path d="M21.8529 38.5432H14.768C14.5303 38.5432 14.3369 38.3627 14.3369 38.1407V36.0998C14.3369 35.8781 14.5303 35.6975 14.768 35.6975H21.8529C22.0906 35.6975 22.2838 35.8781 22.2838 36.0998V38.1407C22.2838 38.3627 22.0904 38.5432 21.8529 38.5432ZM14.768 35.9422C14.6652 35.9422 14.5816 36.013 14.5816 36.1V38.141C14.5816 38.228 14.6652 38.2988 14.768 38.2988H21.8529C21.9558 38.2988 22.0394 38.228 22.0394 38.141V36.1C22.0394 36.013 21.9558 35.9422 21.8529 35.9422H14.768Z" fill="#D3D1C9"/>
<path d="M20.8876 27.2363H15.873V27.7876H20.8876V27.2363Z" fill="#C1BEB8"/>
<path d="M22.1612 28.2058H15.873V28.7571H22.1612V28.2058Z" fill="#E5E3E1"/>
<path d="M17.912 36.3206H14.8315V36.6181H17.912V36.3206Z" fill="#A3A09B"/>
<path d="M20.3974 36.8982H14.8315V37.1957H20.3974V36.8982Z" fill="#CCCAC6"/>
<path d="M20.7826 37.3618H14.8315V37.6594H20.7826V37.3618Z" fill="#CCCAC6"/>
<path d="M17.5445 37.8257H14.8315V38.1232H17.5445V37.8257Z" fill="#CCCAC6"/>
<path opacity="0.64" d="M15.6104 20.8623L16.5073 20.2769C16.7105 20.9366 17.5525 21.6316 17.5525 21.6316L17.1628 22.6888C16.218 22.2529 15.6104 20.8623 15.6104 20.8623Z" fill="white"/>
<path opacity="0.64" d="M17.5086 22.8515L17.8072 21.8096C18.9181 23.0465 20.5749 23.2388 20.5749 23.2388C18.8895 23.6726 17.5083 22.8515 17.5083 22.8515H17.5086Z" fill="white"/>
<path opacity="0.41" d="M12.8623 32.7391C12.4504 31.224 10.9186 30.3471 9.40385 30.759C7.88884 31.1709 7.01194 32.7027 7.42382 34.2175C7.83596 35.7325 9.36752 36.6094 10.8823 36.1975C12.3973 35.7856 13.2742 34.2538 12.8623 32.7391Z" fill="#111111"/>
<path d="M9.85527 30.8721C11.3569 30.4639 12.9056 31.3502 13.3137 32.8521C13.7219 34.3537 12.8356 35.9024 11.3337 36.3105C9.83203 36.7189 8.28337 35.8324 7.87524 34.3305C7.4671 32.8289 8.35335 31.2802 9.85527 30.8721Z" fill="#FAEE2A"/>
<path d="M9.85502 30.8721C8.34001 31.2839 7.46312 32.8158 7.87499 34.3305C8.28713 35.8455 9.8187 36.7224 11.3334 36.3105C12.8484 35.8987 13.7253 34.3668 13.3135 32.8521C12.9016 31.3371 11.3698 30.4602 9.85502 30.8721ZM11.1224 35.5335C10.0348 35.8292 8.94767 35.2069 8.65199 34.1192C8.35631 33.0316 8.97839 31.9445 10.066 31.6488C11.1537 31.3531 12.2408 31.9755 12.5365 33.0631C12.8322 34.1507 12.2101 35.2379 11.1222 35.5335H11.1224Z" fill="#FFFE3E"/>
<path d="M8.99806 34.3174C8.70238 33.2297 9.32446 32.1426 10.4121 31.847C10.8782 31.7203 11.3478 31.7593 11.7818 31.9752C11.2666 31.6146 10.6878 31.48 10.0662 31.649C8.97856 31.9447 8.35622 33.0318 8.65217 34.1195C8.82124 34.741 9.23044 35.1721 9.75263 35.4056C9.39631 35.1689 9.12467 34.7838 8.99806 34.3177V34.3174Z" fill="#F7DE14"/>
<path d="M10.9925 33.3283C10.8504 33.2936 10.7051 33.2773 10.5604 33.2589C10.4765 33.2482 10.3945 33.2314 10.317 33.198C10.1645 33.132 10.1442 32.9632 10.2738 32.8588C10.3104 32.8294 10.3523 32.8115 10.3958 32.7968C10.5636 32.7415 10.734 32.7287 10.9081 32.7607C10.9949 32.777 11.0171 32.7583 11.0211 32.6713C11.0254 32.5794 11.0249 32.4875 11.0273 32.3953C11.0286 32.3336 10.9976 32.3016 10.937 32.2922C10.8264 32.2757 10.7166 32.2719 10.6055 32.284C10.4607 32.3002 10.4605 32.2997 10.422 32.1603C10.3859 32.029 10.3019 31.9813 10.1701 32.0171C10.1415 32.0249 10.1127 32.0321 10.0844 32.0404C9.99276 32.0681 9.98155 32.0887 10.0042 32.1822C10.0141 32.2241 10.0267 32.2655 10.0376 32.3077C10.0705 32.4314 10.0694 32.4295 9.96285 32.5046C9.70509 32.6862 9.58143 32.9293 9.6474 33.2463C9.70563 33.5271 9.90035 33.6742 10.1642 33.7485C10.3266 33.7942 10.4949 33.8016 10.6608 33.827C10.7254 33.8366 10.7887 33.8508 10.8478 33.878C11.0219 33.9568 11.0492 34.1596 10.9004 34.2795C10.8208 34.3436 10.7281 34.3794 10.6266 34.3935C10.4701 34.416 10.3144 34.4157 10.1589 34.382C10.0676 34.362 10.0473 34.3796 10.0435 34.4734C10.0403 34.5546 10.0403 34.6355 10.0398 34.7165C10.0392 34.8254 10.0563 34.8465 10.1661 34.8676C10.3058 34.8938 10.446 34.8885 10.5863 34.8732C10.696 34.8615 10.7006 34.8652 10.7316 34.9739C10.7457 35.0231 10.7591 35.073 10.7732 35.1225C10.7909 35.1847 10.8307 35.213 10.8953 35.1967C10.9685 35.1783 11.0419 35.1582 11.1141 35.1366C11.1734 35.119 11.1953 35.0784 11.1787 35.0178C11.1603 34.9502 11.145 34.881 11.1239 34.8142C11.102 34.7461 11.1223 34.7031 11.1838 34.6668C11.3251 34.5837 11.4327 34.4665 11.4998 34.3171C11.6859 33.9037 11.4455 33.4378 10.9925 33.3275V33.3283Z" fill="#EACB00"/>
<path opacity="0.41" d="M13.3638 28.7132C12.9519 27.1982 11.4201 26.3213 9.90531 26.7331C8.39031 27.145 7.51341 28.6769 7.92528 30.1916C8.33742 31.7066 9.86899 32.5835 11.3837 32.1716C12.8987 31.7598 13.7756 30.2279 13.3638 28.7132Z" fill="#111111"/>
<path d="M10.3562 26.846C11.8579 26.4376 13.4066 27.3241 13.8147 28.8261C14.2228 30.3277 13.3366 31.8764 11.8347 32.2845C10.333 32.6929 8.78435 31.8064 8.37621 30.3045C7.96808 28.8028 8.85433 27.2542 10.3562 26.846Z" fill="#FAEE2A"/>
<path d="M10.356 26.8459C8.84099 27.2578 7.96409 28.7896 8.37597 30.3044C8.78811 31.8194 10.3197 32.6963 11.8344 32.2844C13.3494 31.8725 14.2263 30.3407 13.8144 28.826C13.4026 27.311 11.8707 26.4341 10.356 26.8459ZM11.6234 31.5077C10.5358 31.8034 9.44865 31.181 9.15297 30.0934C8.85728 29.0057 9.47937 27.9186 10.567 27.6229C11.6547 27.3273 12.7418 27.9496 13.0374 29.0372C13.3331 30.1249 12.711 31.212 11.6231 31.5077H11.6234Z" fill="#FFFE3E"/>
<path d="M9.49904 30.2913C9.20336 29.2036 9.82544 28.1165 10.9131 27.8208C11.3792 27.6942 11.8487 27.7332 12.2828 27.949C11.7675 27.5885 11.1887 27.4538 10.5672 27.6229C9.47954 27.9186 8.85719 29.0057 9.15314 30.0933C9.32222 30.7149 9.73142 31.146 10.2536 31.3794C9.89729 31.1428 9.62565 30.7576 9.49904 30.2915V30.2913Z" fill="#F7DE14"/>
<path d="M11.4937 29.3025C11.3516 29.2677 11.2063 29.2514 11.0616 29.233C10.9777 29.2223 10.8957 29.2055 10.8182 29.1721C10.6657 29.1061 10.6454 28.9373 10.775 28.8329C10.8115 28.8035 10.8535 28.7856 10.897 28.7709C11.0648 28.7156 11.2352 28.7028 11.4093 28.7349C11.4961 28.7512 11.5183 28.7325 11.5223 28.6454C11.5268 28.5535 11.526 28.4616 11.5285 28.3695C11.5298 28.3078 11.4988 28.2757 11.4382 28.2664C11.3276 28.2498 11.2178 28.2461 11.1067 28.2581C10.9619 28.2744 10.9617 28.2738 10.9232 28.1344C10.887 28.0032 10.8032 27.9554 10.6716 27.9912C10.643 27.999 10.6142 28.0062 10.5858 28.0145C10.4942 28.0423 10.483 28.0628 10.5057 28.1563C10.5156 28.1982 10.5282 28.2396 10.5391 28.2818C10.572 28.4055 10.5709 28.4036 10.4643 28.4787C10.2066 28.6603 10.0829 28.9034 10.1489 29.2204C10.2071 29.5012 10.4018 29.6483 10.6657 29.7226C10.8281 29.7683 10.9964 29.7758 11.1623 29.8011C11.2269 29.8107 11.2902 29.8249 11.3492 29.8521C11.5234 29.9309 11.5506 30.1337 11.4018 30.2536C11.3222 30.3177 11.2296 30.3535 11.1281 30.3677C10.9715 30.3901 10.8158 30.3898 10.6604 30.3562C10.569 30.3361 10.5487 30.3538 10.545 30.4475C10.5418 30.5287 10.5418 30.6097 10.5412 30.6906C10.5407 30.7996 10.5578 30.8207 10.6676 30.8418C10.8073 30.8679 10.9475 30.8626 11.0877 30.8474C11.1975 30.8356 11.2021 30.8394 11.233 30.9483C11.2472 30.9975 11.2605 31.0474 11.2747 31.0968C11.2923 31.1591 11.3321 31.1874 11.3968 31.1711C11.47 31.1527 11.5434 31.1326 11.6155 31.111C11.6748 31.0934 11.6967 31.0528 11.6802 30.9921C11.6617 30.9246 11.6465 30.8554 11.6254 30.7886C11.6035 30.7205 11.6238 30.6775 11.6852 30.6412C11.8265 30.5581 11.9342 30.4408 12.0012 30.2915C12.1874 29.8781 11.947 29.4122 11.494 29.3019L11.4937 29.3025Z" fill="#EACB00"/>
<path opacity="0.41" d="M34.2563 6.37846C33.8445 4.86345 32.3126 3.98655 30.7979 4.39843C29.2829 4.8103 28.406 6.34213 28.8179 7.85687C29.23 9.37188 30.7616 10.2488 32.2763 9.83691C33.7913 9.42504 34.6682 7.8932 34.2563 6.37846Z" fill="#111111"/>
<path d="M31.2484 4.51156C32.7501 4.10316 34.2987 4.98967 34.7069 6.49159C35.1153 7.99324 34.2288 9.54191 32.7268 9.95004C31.2252 10.3584 29.6765 9.47193 29.2684 7.97001C28.86 6.46835 29.7465 4.91969 31.2484 4.51156Z" fill="#FAEE2A"/>
<path d="M31.2486 4.51146C29.7336 4.92334 28.8567 6.45517 29.2685 7.96991C29.6807 9.48492 31.2123 10.3618 32.727 9.94995C34.242 9.53807 35.1189 8.00624 34.707 6.4915C34.2952 4.97649 32.7633 4.09959 31.2486 4.51146ZM32.516 9.17294C31.4283 9.46863 30.3412 8.84628 30.0455 7.75863C29.7499 6.67099 30.3719 5.58388 31.4596 5.2882C32.5472 4.99252 33.6343 5.61487 33.93 6.70251C34.2257 7.79015 33.6036 8.87726 32.5157 9.17294H32.516Z" fill="#FFFE3E"/>
<path d="M30.3916 7.95679C30.0959 6.86915 30.718 5.78204 31.8057 5.48636C32.2718 5.35975 32.7413 5.39875 33.1754 5.61457C32.6601 5.25398 32.0813 5.11936 31.4598 5.28843C30.3721 5.58412 29.7498 6.67123 30.0457 7.75887C30.2148 8.38042 30.624 8.81152 31.1462 9.04497C30.7899 8.80832 30.5182 8.42315 30.3916 7.95706V7.95679Z" fill="#F7DE14"/>
<path d="M32.3863 6.96773C32.2442 6.93301 32.0989 6.91672 31.9541 6.89829C31.8703 6.8876 31.7883 6.87077 31.7108 6.83739C31.5583 6.77141 31.538 6.6026 31.6675 6.49817C31.7041 6.46878 31.7461 6.45089 31.7896 6.4362C31.9573 6.38091 32.1277 6.36809 32.3019 6.40014C32.3887 6.41643 32.4109 6.39773 32.4149 6.31066C32.4192 6.21878 32.4186 6.12689 32.421 6.03474C32.4224 5.97304 32.3914 5.94099 32.3308 5.93164C32.2202 5.91508 32.1104 5.91134 31.9993 5.92336C31.8545 5.93965 31.8542 5.93912 31.8158 5.79969C31.7796 5.66845 31.6958 5.62073 31.5642 5.65652C31.5356 5.66427 31.5067 5.67148 31.4784 5.67976C31.3868 5.70754 31.3756 5.72784 31.3983 5.82159C31.4084 5.86353 31.4207 5.90493 31.4317 5.94713C31.4645 6.0708 31.4635 6.06893 31.3569 6.14399C31.0991 6.32562 30.9755 6.56868 31.0414 6.88573C31.0997 7.16646 31.2944 7.31363 31.5583 7.38789C31.7207 7.43356 31.889 7.44104 32.0548 7.46641C32.1195 7.47603 32.1828 7.49019 32.2418 7.51743C32.416 7.59623 32.4432 7.79896 32.2944 7.91889C32.2148 7.98299 32.1221 8.01878 32.0206 8.03294C31.8641 8.05538 31.7084 8.05511 31.5529 8.02145C31.4616 8.00142 31.4413 8.01905 31.4376 8.1128C31.4344 8.194 31.4344 8.27493 31.4338 8.35587C31.4333 8.46484 31.4504 8.48594 31.5602 8.50705C31.6999 8.53322 31.8401 8.52788 31.9803 8.51266C32.0901 8.5009 32.0946 8.50464 32.1256 8.61335C32.1398 8.6625 32.1531 8.71245 32.1673 8.76186C32.1849 8.8241 32.2247 8.85241 32.2893 8.83612C32.3625 8.81769 32.436 8.79765 32.5081 8.77602C32.5674 8.75839 32.5893 8.71779 32.5727 8.65716C32.5543 8.58958 32.5391 8.5204 32.518 8.45363C32.4961 8.38551 32.5164 8.34251 32.5778 8.30619C32.7191 8.22312 32.8268 8.10586 32.8938 7.95655C33.08 7.54307 32.8396 7.07724 32.3866 6.96693L32.3863 6.96773Z" fill="#EACB00"/>
<path opacity="0.41" d="M38.061 10.4768C37.6492 8.96184 36.1173 8.08494 34.6026 8.49681C33.0876 8.90869 32.2107 10.4405 32.6225 11.9553C33.0344 13.4703 34.5663 14.3472 36.081 13.9353C37.596 13.5234 38.4729 11.9916 38.061 10.4768Z" fill="#111111"/>
<path d="M35.0536 8.6097C36.5553 8.2013 38.1039 9.08782 38.5121 10.5897C38.9205 12.0914 38.0339 13.6401 36.532 14.0482C35.0304 14.4563 33.4817 13.5701 33.0736 12.0682C32.6652 10.5665 33.5517 9.01784 35.0536 8.6097Z" fill="#FAEE2A"/>
<path d="M35.0533 8.60961C33.5383 9.02148 32.6614 10.5533 33.0732 12.0681C33.4851 13.5831 35.0169 14.46 36.5317 14.0481C38.0467 13.6362 38.9236 12.1044 38.5117 10.5896C38.0998 9.07463 36.568 8.19774 35.0533 8.60961ZM36.3207 13.2714C35.233 13.567 34.1459 12.9447 33.8502 11.857C33.5545 10.7694 34.1766 9.68229 35.2643 9.38661C36.3519 9.09093 37.439 9.71328 37.7347 10.8009C38.0304 11.8886 37.4083 12.9757 36.3204 13.2714H36.3207Z" fill="#FFFE3E"/>
<path d="M34.1968 12.0549C33.9011 10.9673 34.5232 9.88018 35.6108 9.5845C36.0769 9.45789 36.5465 9.49689 36.9805 9.71271C36.4653 9.35212 35.8865 9.2175 35.2649 9.38658C34.1773 9.68226 33.5549 10.7694 33.8509 11.857C34.02 12.4786 34.4292 12.9097 34.9514 13.1431C34.595 12.9065 34.3234 12.5213 34.1968 12.0552V12.0549Z" fill="#F7DE14"/>
<path d="M36.1915 11.0661C36.0494 11.0314 35.9041 11.0151 35.7593 10.9967C35.6754 10.986 35.5934 10.9692 35.516 10.9358C35.3635 10.8698 35.3432 10.701 35.4727 10.5966C35.5093 10.5672 35.5512 10.5493 35.5948 10.5346C35.7625 10.4793 35.9329 10.4665 36.1071 10.4985C36.1939 10.5148 36.2161 10.4961 36.2201 10.409C36.2243 10.3172 36.2238 10.2253 36.2262 10.1331C36.2275 10.0714 36.1966 10.0394 36.1359 10.03C36.0253 10.0135 35.9156 10.0097 35.8045 10.0217C35.6597 10.038 35.6594 10.0375 35.621 9.89808C35.5848 9.76684 35.5009 9.71912 35.3693 9.75491C35.3408 9.76266 35.3119 9.76987 35.2836 9.77815C35.192 9.80593 35.1808 9.82623 35.2035 9.91998C35.2136 9.96192 35.2259 10.0033 35.2369 10.0455C35.2697 10.1692 35.2686 10.1673 35.1621 10.2424C34.9043 10.424 34.7806 10.6671 34.8466 10.9841C34.9048 11.2648 35.0996 11.412 35.3635 11.4863C35.5259 11.5319 35.6941 11.5394 35.86 11.5648C35.9246 11.5744 35.988 11.5886 36.047 11.6158C36.2211 11.6946 36.2484 11.8973 36.0996 12.0173C36.02 12.0814 35.9273 12.1172 35.8258 12.1313C35.6693 12.1538 35.5136 12.1535 35.3581 12.1198C35.2668 12.0998 35.2465 12.1174 35.2427 12.2112C35.2395 12.2924 35.2395 12.3733 35.239 12.4543C35.2385 12.5632 35.2556 12.5843 35.3653 12.6054C35.505 12.6316 35.6453 12.6263 35.7855 12.611C35.8953 12.5993 35.8998 12.603 35.9308 12.7117C35.9449 12.7609 35.9583 12.8108 35.9725 12.8603C35.9901 12.9225 36.0299 12.9508 36.0945 12.9345C36.1677 12.9161 36.2412 12.896 36.3133 12.8744C36.3726 12.857 36.3945 12.8162 36.3779 12.7555C36.3595 12.688 36.3443 12.6188 36.3232 12.552C36.3013 12.4839 36.3216 12.4409 36.383 12.4046C36.5243 12.3215 36.6319 12.2042 36.699 12.0549C36.8851 11.6415 36.6448 11.1756 36.1917 11.0653L36.1915 11.0661Z" fill="#EACB00"/>
<path opacity="0.41" d="M17.1866 18.7866H2.04504C1.86875 18.7866 1.72559 18.9031 1.72559 19.0465V26.1162C1.72559 26.2599 1.86875 26.3761 2.04504 26.4888H17.1866C17.3631 26.3761 17.506 26.2596 17.506 26.1162V19.0465C17.506 18.9028 17.3631 18.7866 17.1866 18.7866Z" fill="#111111"/>
<path d="M17.5249 26.7145H2.38342C2.20713 26.7145 2.06396 26.598 2.06396 26.4546V19.3849C2.06396 19.2412 2.20713 19.125 2.38342 19.125H17.5249C17.7015 19.125 17.8444 19.2415 17.8444 19.3849V26.4546C17.8444 26.5983 17.7015 26.7145 17.5249 26.7145Z" fill="#24A531"/>
<path d="M15.6925 26.1307H4.21586C4.21586 25.4886 3.57027 24.9632 2.78125 24.9632V20.8765C3.57027 20.8765 4.21586 20.3511 4.21586 19.709H15.6925C15.6925 20.3511 16.3381 20.8765 17.1271 20.8765V24.9632C16.3381 24.9632 15.6925 25.4886 15.6925 26.1307Z" fill="#6CC759"/>
<path d="M4.89908 22.2024C5.29519 22.2024 5.61625 22.5237 5.61625 22.9198C5.61625 23.3159 5.29493 23.637 4.89908 23.637C4.50323 23.637 4.18164 23.3159 4.18164 22.9198C4.18164 22.5237 4.5027 22.2024 4.89908 22.2024Z" fill="#24A531"/>
<path d="M15.0092 22.2024C15.4053 22.2024 15.7266 22.5237 15.7266 22.9198C15.7266 23.3159 15.4053 23.637 15.0092 23.637C14.613 23.637 14.292 23.3159 14.292 22.9198C14.292 22.5237 14.613 22.2024 15.0092 22.2024Z" fill="#24A531"/>
<path d="M12.8234 22.9198C12.8234 21.335 11.5389 20.0505 9.95418 20.0505C8.36946 20.0505 7.08496 21.335 7.08496 22.9198C7.08496 24.5045 8.36946 25.789 9.95418 25.789C11.5389 25.789 12.8234 24.5045 12.8234 22.9198Z" fill="#24A531"/>
<path d="M13.8824 22.8179H6.02637V23.0211H13.8824V22.8179Z" fill="#24A531"/>
<path d="M15.0098 21.5947H4.89941V21.7983H15.0098V21.5947Z" fill="#24A531"/>
<path d="M15.0098 24.0413H4.89941V24.2445H15.0098V24.0413Z" fill="#24A531"/>
<path d="M10.64 22.6942C10.4467 22.5871 10.241 22.5057 10.0372 22.4213C9.91913 22.3724 9.80614 22.3155 9.70624 22.2359C9.50966 22.0791 9.54732 21.8245 9.77756 21.7236C9.84273 21.695 9.91085 21.6859 9.98029 21.6819C10.2471 21.6675 10.5006 21.7164 10.7421 21.8326C10.8623 21.8905 10.9018 21.8721 10.9427 21.7471C10.9854 21.6146 11.0209 21.4803 11.0607 21.347C11.0872 21.2572 11.0546 21.1982 10.9702 21.1605C10.8153 21.0922 10.6563 21.0433 10.4894 21.0168C10.2714 20.9832 10.2714 20.9824 10.2704 20.7633C10.2697 20.5575 10.1661 20.4546 9.95973 20.4546C9.91485 20.4546 9.87024 20.4535 9.82537 20.4546C9.6806 20.4586 9.6563 20.484 9.65229 20.6298C9.65042 20.695 9.65229 20.7601 9.65122 20.8264C9.65015 21.0198 9.64908 21.0168 9.46371 21.0841C9.01578 21.2471 8.7388 21.5526 8.70915 22.0414C8.68271 22.4741 8.90868 22.7666 9.26419 22.9795C9.48321 23.1109 9.72548 23.1884 9.95786 23.2912C10.0484 23.331 10.1352 23.3767 10.2103 23.44C10.4333 23.6243 10.3924 23.9309 10.1277 24.0468C9.98617 24.1088 9.83659 24.1243 9.68274 24.1048C9.44555 24.0754 9.21825 24.0132 9.00456 23.9021C8.87929 23.8369 8.8427 23.8543 8.7997 23.9897C8.7631 24.1069 8.73052 24.225 8.69793 24.3431C8.65413 24.502 8.67042 24.5396 8.82213 24.6139C9.01552 24.7077 9.22225 24.7555 9.43326 24.7891C9.59833 24.8156 9.60341 24.8228 9.60528 24.9937C9.60635 25.0712 9.60635 25.1497 9.60742 25.2269C9.60848 25.3247 9.65523 25.3816 9.75619 25.3837C9.87025 25.3858 9.98537 25.3858 10.0994 25.3826C10.1929 25.3808 10.241 25.3297 10.241 25.2349C10.241 25.1289 10.2461 25.022 10.2418 24.9163C10.2367 24.8084 10.2837 24.7533 10.3876 24.7248C10.6269 24.6596 10.8305 24.5314 10.9875 24.3396C11.4234 23.8102 11.2573 23.0351 10.6403 22.694L10.64 22.6942Z" fill="#6CC759"/>
<path opacity="0.41" d="M15.8228 20.0774H0.681271C0.504716 20.0774 0.361816 20.1939 0.361816 20.3373V27.407C0.361816 27.5504 0.504716 27.6669 0.681271 27.7796H15.8228C15.9991 27.6669 16.1423 27.5504 16.1423 27.407V20.3373C16.1423 20.1936 15.9991 20.0774 15.8228 20.0774Z" fill="#111111"/>
<path d="M16.1612 28.0052H1.01965C0.843095 28.0052 0.700195 27.8888 0.700195 27.7453V20.6757C0.700195 20.532 0.843095 20.4158 1.01965 20.4158H16.1612C16.3375 20.4158 16.4806 20.5322 16.4806 20.6757V27.7453C16.4806 27.8888 16.3375 28.0052 16.1612 28.0052Z" fill="#24A531"/>
<path d="M14.3287 27.4217H2.85209C2.85209 26.7793 2.2065 26.2539 1.41748 26.2539V22.1673C2.2065 22.1673 2.85209 21.6419 2.85209 20.9998H14.3287C14.3287 21.6419 14.9743 22.1673 15.7633 22.1673V26.2539C14.9743 26.2539 14.3287 26.7793 14.3287 27.4217Z" fill="#6CC759"/>
<path d="M3.53504 23.4932C3.93142 23.4932 4.25248 23.8145 4.25248 24.2106C4.25248 24.6067 3.93142 24.9278 3.53504 24.9278C3.13866 24.9278 2.81787 24.6067 2.81787 24.2106C2.81787 23.8145 3.1392 23.4932 3.53504 23.4932Z" fill="#24A531"/>
<path d="M13.6454 23.4932C14.0415 23.4932 14.3628 23.8145 14.3628 24.2106C14.3628 24.6067 14.0415 24.9278 13.6454 24.9278C13.2493 24.9278 12.9282 24.6067 12.9282 24.2106C12.9282 23.8145 13.2493 23.4932 13.6454 23.4932Z" fill="#24A531"/>
<path d="M11.4591 24.2105C11.4591 22.6258 10.1746 21.3413 8.58992 21.3413C7.0052 21.3413 5.7207 22.6258 5.7207 24.2105C5.7207 25.7952 7.0052 27.0797 8.58992 27.0797C10.1746 27.0797 11.4591 25.7952 11.4591 24.2105Z" fill="#24A531"/>
<path d="M12.5184 24.1086H4.66211V24.3119H12.5184V24.1086Z" fill="#24A531"/>
<path d="M13.6458 22.8855H3.53516V23.089H13.6458V22.8855Z" fill="#24A531"/>
<path d="M13.6458 25.332H3.53516V25.5353H13.6458V25.332Z" fill="#24A531"/>
<path d="M9.27578 23.985C9.0824 23.8779 8.87646 23.7964 8.67266 23.712C8.5546 23.6631 8.44162 23.6063 8.34172 23.5267C8.14513 23.3699 8.18279 23.1153 8.41304 23.0144C8.47821 22.9858 8.54632 22.9767 8.61577 22.9727C8.8826 22.9583 9.13608 23.0071 9.37754 23.1233C9.49774 23.1813 9.53754 23.1629 9.57814 23.0379C9.62087 22.9054 9.65667 22.771 9.6962 22.6377C9.72264 22.548 9.69005 22.489 9.60565 22.4513C9.45073 22.3829 9.29207 22.334 9.12486 22.3076C8.90691 22.2739 8.90691 22.2731 8.90584 22.0541C8.90513 21.8483 8.80158 21.7453 8.5952 21.7453C8.55033 21.7453 8.50572 21.7443 8.46085 21.7453C8.31608 21.7494 8.29177 21.7747 8.28776 21.9206C8.28563 21.9857 8.28776 22.0509 8.2867 22.1172C8.28563 22.3105 8.28483 22.3076 8.09946 22.3749C7.65126 22.5378 7.37427 22.8434 7.34489 23.3322C7.31845 23.7649 7.54468 24.0574 7.89993 24.2703C8.11896 24.4017 8.36148 24.4791 8.59333 24.582C8.68415 24.6218 8.77042 24.6675 8.84601 24.7308C9.06904 24.9151 9.02817 25.2217 8.76347 25.3376C8.62191 25.3996 8.47233 25.4151 8.31848 25.3956C8.08103 25.3662 7.85399 25.304 7.64031 25.1928C7.51504 25.1277 7.47844 25.145 7.43571 25.2805C7.39885 25.3974 7.36626 25.5158 7.33367 25.6338C7.28987 25.7928 7.30616 25.8304 7.45788 25.9047C7.65126 25.9984 7.858 26.0462 8.06901 26.0799C8.23408 26.1063 8.23915 26.1135 8.24129 26.2845C8.24236 26.362 8.24236 26.4405 8.24316 26.5177C8.24423 26.6154 8.29097 26.6723 8.39193 26.6745C8.50599 26.6766 8.62111 26.6766 8.73516 26.6734C8.82891 26.6715 8.87673 26.6205 8.87673 26.5257C8.87673 26.4197 8.8818 26.3128 8.87779 26.207C8.87272 26.0991 8.91973 26.0441 9.02337 26.0155C9.26269 25.9503 9.46649 25.8221 9.62328 25.6304C10.0592 25.101 9.89332 24.3258 9.27605 23.9847L9.27578 23.985Z" fill="#6CC759"/>
<path opacity="0.41" d="M18.8228 18.3726H3.68127C3.50472 18.3726 3.36182 18.489 3.36182 18.6324V25.7021C3.36182 25.8456 3.50472 25.962 3.68127 26.0747H18.8228C18.9994 25.962 19.1423 25.8456 19.1423 25.7021V18.6324C19.1423 18.489 18.9994 18.3726 18.8228 18.3726Z" fill="#111111"/>
<path d="M19.1612 26.3004H4.01965C3.8431 26.3004 3.7002 26.1839 3.7002 26.0405V18.9708C3.7002 18.8274 3.8431 18.7109 4.01965 18.7109H19.1612C19.3377 18.7109 19.4806 18.8274 19.4806 18.9708V26.0405C19.4806 26.1839 19.3377 26.3004 19.1612 26.3004Z" fill="#24A531"/>
<path d="M17.3287 25.7164H5.85209C5.85209 25.0743 5.2065 24.5486 4.41748 24.5486V20.462C5.2065 20.462 5.85209 19.9366 5.85209 19.2942H17.3287C17.3287 19.9363 17.9743 20.462 18.7633 20.462V24.5486C17.9743 24.5486 17.3287 25.074 17.3287 25.7164Z" fill="#6CC759"/>
<path d="M7.25292 22.5085C7.25409 22.1124 6.93384 21.7904 6.53761 21.7892C6.14138 21.7881 5.81922 22.1082 5.81805 22.5043C5.81687 22.9003 6.13713 23.2224 6.53335 23.2236C6.92958 23.2247 7.25174 22.9046 7.25292 22.5085Z" fill="#24A531"/>
<path d="M16.6457 21.7883C17.0418 21.7883 17.3628 22.1094 17.3628 22.5055C17.3628 22.9016 17.0418 23.2227 16.6457 23.2227C16.2495 23.2227 15.9282 22.9016 15.9282 22.5055C15.9282 22.1094 16.2495 21.7883 16.6457 21.7883Z" fill="#24A531"/>
<path d="M14.4591 22.5057C14.4591 20.921 13.1746 19.6365 11.5899 19.6365C10.0052 19.6365 8.7207 20.921 8.7207 22.5057C8.7207 24.0904 10.0052 25.3749 11.5899 25.3749C13.1746 25.3749 14.4591 24.0904 14.4591 22.5057Z" fill="#24A531"/>
<path d="M15.5186 22.4038H7.6626V22.6073H15.5186V22.4038Z" fill="#24A531"/>
<path d="M16.6455 21.1807H6.53516V21.3842H16.6455V21.1807Z" fill="#24A531"/>
<path d="M16.6455 23.6272H6.53516V23.8305H16.6455V23.6272Z" fill="#24A531"/>
<path d="M12.2758 22.2799C12.0824 22.1728 11.8765 22.0914 11.6729 22.0069C11.5546 21.9581 11.4419 21.9009 11.342 21.8216C11.1454 21.6648 11.1831 21.4102 11.4133 21.3093C11.4785 21.2807 11.5466 21.2716 11.616 21.2676C11.8829 21.2532 12.1364 21.3021 12.3778 21.4183C12.498 21.4762 12.5375 21.4581 12.5784 21.3328C12.6211 21.2003 12.6569 21.0659 12.6965 20.9327C12.7229 20.8432 12.6903 20.7839 12.6059 20.7462C12.4513 20.6778 12.2923 20.629 12.1251 20.6025C11.9072 20.5689 11.9072 20.5681 11.9061 20.349C11.9054 20.1432 11.8018 20.0403 11.5955 20.0403C11.5506 20.0403 11.506 20.0392 11.4611 20.0403C11.3166 20.0443 11.292 20.0699 11.288 20.2155C11.2862 20.2807 11.288 20.3458 11.287 20.4121C11.2859 20.6055 11.2851 20.6025 11.0997 20.6698C10.6515 20.8328 10.3745 21.1383 10.3452 21.6271C10.3187 22.0598 10.545 22.3523 10.9002 22.5649C11.1192 22.6963 11.3618 22.7738 11.5939 22.8766C11.6844 22.9162 11.7712 22.9621 11.8463 23.0251C12.0693 23.2094 12.0284 23.5161 11.7637 23.632C11.6222 23.694 11.4726 23.7095 11.3187 23.69C11.0813 23.6606 10.8543 23.5983 10.6406 23.4875C10.5153 23.4223 10.4784 23.4394 10.4357 23.5751C10.3988 23.6924 10.3663 23.8104 10.3337 23.9285C10.2899 24.0874 10.3062 24.1251 10.4579 24.1993C10.6513 24.2931 10.858 24.3409 11.069 24.3745C11.2341 24.401 11.2392 24.4082 11.2413 24.5791C11.2424 24.6566 11.2424 24.7351 11.2432 24.8123C11.2442 24.9101 11.291 24.967 11.3919 24.9691C11.506 24.971 11.6211 24.971 11.7352 24.9681C11.8289 24.9659 11.8767 24.9149 11.8767 24.8203C11.8767 24.7146 11.8818 24.6075 11.8778 24.5017C11.8727 24.3938 11.9197 24.3388 12.0234 24.3102C12.2627 24.245 12.4665 24.1168 12.6233 23.9253C13.0592 23.3956 12.8931 22.6207 12.276 22.2797L12.2758 22.2799Z" fill="#6CC759"/>
<path d="M34.0481 33.127C33.4172 33.4491 32.6619 33.2704 31.7062 32.4101C31.6378 32.3484 31.5657 32.2658 31.4992 32.1753C31.4121 32.0578 31.3357 31.9277 31.2884 31.8174C31.1872 31.5812 31.0136 31.3828 30.7938 31.2508C30.6647 31.1734 30.5427 31.085 30.4305 30.9869C30.3234 30.8943 30.2251 30.7928 30.1345 30.6843L29.0293 29.3507C28.3476 28.4636 27.8433 28.0071 27.0556 27.4363C27.0129 27.4054 26.9734 27.3704 26.9379 27.3322C26.9021 27.2934 26.8705 27.2504 26.8428 27.2045C26.8046 27.1404 26.741 27.0961 26.6673 27.0806C26.6478 27.0763 26.6291 27.0701 26.6123 27.0611C26.5751 27.0429 26.5439 27.0138 26.5228 26.9785C26.5145 26.9657 26.5084 26.9518 26.5038 26.9366L26.4736 26.8463C26.4568 26.7972 26.4234 26.755 26.3785 26.7283L26.2519 26.6521C26.2348 26.6417 26.2185 26.6292 26.2055 26.6145C26.1964 26.6054 26.1884 26.5952 26.1817 26.5848L25.3008 25.2402L26.1611 24.3799L27.5057 25.2608C27.5164 25.2675 27.5263 25.2755 27.5354 25.2846C27.5503 25.2974 27.5626 25.3137 27.573 25.3308L27.6491 25.4574C27.6759 25.5023 27.7181 25.5356 27.7672 25.5525L27.8575 25.5826C27.8727 25.5875 27.8866 25.5936 27.8994 25.6019C27.9349 25.623 27.9641 25.654 27.9822 25.6914C27.9913 25.7082 27.9975 25.7266 28.0017 25.7464C28.0169 25.8201 28.0613 25.8837 28.1254 25.9219C28.1713 25.9496 28.2143 25.9812 28.2531 26.017C28.2913 26.0525 28.3263 26.092 28.3572 26.1345C28.928 26.9222 29.3845 27.4265 30.2716 28.1081L31.6052 29.2134C31.7137 29.3037 31.8149 29.4022 31.9076 29.5093C32.0056 29.6215 32.094 29.7436 32.1715 29.8726C32.3034 30.0924 32.5019 30.266 32.738 30.3673C32.8483 30.4145 32.9784 30.4912 33.0962 30.578C33.1865 30.6445 33.269 30.7166 33.331 30.785C34.1913 31.741 34.37 32.4963 34.0479 33.1272L34.0481 33.127Z" fill="#915147"/>
<path d="M23.3572 23.2639L25.2544 25.1611L26.0826 24.3329L24.1854 22.4357L23.3572 23.2639Z" fill="#635D56"/>
<path d="M25.0817 25.1756L24.9799 25.0739C24.8934 24.9873 24.8934 24.8468 24.9799 24.7603L25.6822 24.0581C25.7687 23.9715 25.9092 23.9715 25.9957 24.0581L26.0975 24.1598C26.184 24.2464 26.184 24.3866 26.0975 24.4734L25.3953 25.1756C25.3087 25.2622 25.1683 25.2622 25.0817 25.1756Z" fill="#49423F"/>
<path d="M26.5234 26.9784C26.5151 26.9655 26.5089 26.9517 26.5044 26.9364L26.4742 26.8462C26.4574 26.797 26.424 26.7548 26.3791 26.7281L26.2525 26.652C26.2354 26.6416 26.2191 26.629 26.2061 26.6143L27.5357 25.2847C27.5506 25.2975 27.5629 25.3138 27.5734 25.3309L27.6495 25.4575C27.6762 25.5024 27.7184 25.5357 27.7675 25.5526L27.8578 25.5828C27.873 25.5876 27.8869 25.5937 27.8998 25.602L26.5231 26.9786L26.5234 26.9784Z" fill="#602F29"/>
<path d="M26.9379 27.332C26.9021 27.2933 26.8706 27.2503 26.8428 27.2043C26.8046 27.1402 26.741 27.0959 26.6673 27.0804C26.6478 27.0761 26.6291 27.07 26.6123 27.0609L27.9823 25.6909C27.9914 25.7077 27.9975 25.7262 28.0018 25.7459C28.017 25.8197 28.0613 25.8832 28.1254 25.9214C28.1714 25.9492 28.2144 25.9807 28.2531 26.0165L26.9376 27.332H26.9379Z" fill="#602F29"/>
<path d="M31.4993 32.175C31.4123 32.0575 31.3359 31.9274 31.2886 31.8171C31.1874 31.581 31.0137 31.3825 30.7939 31.2506C30.6649 31.1731 30.5428 31.0847 30.4307 30.9867L31.9085 29.5088C32.0066 29.621 32.095 29.743 32.1724 29.872C32.3044 30.0919 32.5028 30.2655 32.739 30.3667C32.8493 30.414 32.9794 30.4907 33.0972 30.5775L31.4996 32.175H31.4993Z" fill="#602F29"/>
<path d="M23.8754 14.6917C21.5954 12.4117 17.8987 12.4117 15.6187 14.6917C13.3387 16.9717 13.3387 20.6684 15.6187 22.9484C17.8987 25.2284 21.5954 25.2284 23.8754 22.9484C26.1554 20.6684 26.1554 16.9717 23.8754 14.6917Z" fill="#49423F"/>
<path d="M23.4041 15.1634C21.3846 13.1438 18.1104 13.1438 16.0908 15.1634C14.0713 17.1829 14.0713 20.4571 16.0908 22.4766C18.1104 24.4962 21.3846 24.4962 23.4041 22.4766C25.4237 20.4571 25.4237 17.1829 23.4041 15.1634Z" fill="#8D8078"/>
<path d="M19.7472 23.7883C22.4911 23.7883 24.7156 21.5639 24.7156 18.8199C24.7156 16.076 22.4911 13.8516 19.7472 13.8516C17.0032 13.8516 14.7788 16.076 14.7788 18.8199C14.7788 21.5639 17.0032 23.7883 19.7472 23.7883Z" fill="#00B6E9"/>
<path d="M16.082 21.9297L17.9817 16.3467L18.3318 16.4658L16.3409 22.3164L16.082 21.9297Z" fill="white"/>
<path d="M22.5129 20.6065L17.7021 15.8625L17.962 15.5994L22.631 20.2037L22.5129 20.6065Z" fill="white"/>
<path d="M22.2146 20.7104L21.8687 20.5798L23.748 15.5994L24.0084 15.957L22.2146 20.7104Z" fill="white"/>
<path d="M21.0122 19.8185C21.0122 19.206 21.5088 18.7092 22.1215 18.7092C22.7342 18.7092 23.2308 19.2058 23.2308 19.8185C23.2308 20.4312 22.7342 20.9278 22.1215 20.9278C21.5088 20.9278 21.0122 20.4312 21.0122 19.8185Z" fill="#EFB541"/>
<path d="M17.0479 16.4062C17.0479 15.7934 17.5444 15.2969 18.1571 15.2969C18.7699 15.2969 19.2664 15.7934 19.2664 16.4062C19.2664 17.0189 18.7699 17.5154 18.1571 17.5154C17.5444 17.5154 17.0479 17.0189 17.0479 16.4062Z" fill="#EFB541"/>
<path opacity="0.64" d="M15.7603 20.7896L16.6572 20.2041C16.8605 20.8638 17.7024 21.5588 17.7024 21.5588L17.3127 22.616C16.3679 22.1801 15.7603 20.7896 15.7603 20.7896Z" fill="white"/>
<path opacity="0.64" d="M17.658 22.7788L17.9566 21.7368C19.0675 22.9738 20.7243 23.1661 20.7243 23.1661C19.0389 23.5999 17.6577 22.7788 17.6577 22.7788H17.658Z" fill="white"/>
</g>
<defs>
<clipPath id="clip0_1016_841">
<rect width="38.6137" height="40" fill="white"/>
</clipPath>
</defs>
</svg>
