<svg width="38" height="38" viewBox="0 0 38 38" fill="none" xmlns="http://www.w3.org/2000/svg">
<g clip-path="url(#clip0_1018_842)">
<path fill-rule="evenodd" clip-rule="evenodd" d="M15.4099 33.0774L26.2562 33.0886C26.4487 33.0886 26.6691 33.0561 26.8022 32.9151C26.9253 32.7852 26.9689 32.5659 26.9689 32.3823V31.3369C26.9689 31.1086 26.9219 30.9653 26.8011 30.8299C26.5952 30.5993 26.0828 30.6273 25.7449 30.6531L25.7404 31.8663C25.539 31.882 25.313 31.8708 25.1194 31.8708C24.2456 31.8708 24.5701 32.0611 24.5052 30.6452H23.3035C23.2409 32.0622 23.5609 31.8708 22.6893 31.8708C22.4957 31.8708 22.2686 31.882 22.0795 31.8663L22.0638 30.6553L20.8409 30.6575V31.5988C20.8443 31.9167 21.0099 31.8831 19.7355 31.863L19.6325 31.8596L19.6213 30.6475L18.3951 30.6441L18.3872 31.8585L17.2549 31.863C17.1308 31.863 17.1688 31.7331 17.171 31.5988V30.8657C17.1766 30.5579 17.2796 30.6374 16.0533 30.6374C15.8709 30.6374 15.9078 30.7672 15.8676 31.2015C15.8351 31.5451 15.7042 32.1573 15.5934 32.4998L15.4927 32.7852C15.458 32.8636 15.4055 32.9934 15.4099 33.0796V33.0774Z" fill="#FBD670"/>
<path fill-rule="evenodd" clip-rule="evenodd" d="M28.127 29.1925C28.0341 29.3828 28.0408 29.2731 28.043 29.404C28.4872 29.4555 34.7786 29.4175 35.8829 29.4175C36.26 29.4175 36.486 29.4488 36.6963 29.0918C36.6997 29.0862 36.7031 29.0806 36.7064 29.075C36.8138 28.8914 36.7657 28.6955 36.7657 28.146C36.7657 27.9781 36.7847 27.5953 36.7556 27.452C36.7265 27.3065 36.6158 27.0637 36.4457 27.0569C36.2835 27.0502 36.326 27.0189 36.232 26.9999L35.5764 26.9965C35.5282 27.2248 35.6401 28.0721 35.5271 28.1863C35.4701 28.2333 34.3993 28.2378 34.3266 28.1908C34.2572 28.1337 34.2874 27.7072 34.2874 27.5975C34.2874 27.4028 34.3109 27.1857 34.2751 26.9965H33.126C33.088 27.1935 33.1137 27.4207 33.1137 27.6244C33.1137 27.7296 33.1137 27.8337 33.1137 27.9389C33.1149 28.0464 33.135 28.1292 33.0746 28.1919C33.003 28.2389 31.9311 28.2344 31.874 28.1874C31.7946 28.1146 31.8393 27.1577 31.8393 26.9875L30.6701 27.001C30.6701 27.2551 30.7015 27.9994 30.6511 28.1975C30.5236 28.2333 30.1946 28.2143 30.0301 28.2143C29.2223 28.2143 29.3902 28.4639 29.3902 26.9887H28.1337C28.1505 27.1554 28.1739 27.0939 28.2008 27.2338C28.2579 27.5337 28.2098 28.869 28.2008 29.1679C28.1851 29.1813 28.127 29.1936 28.1258 29.1936L28.127 29.1925Z" fill="#FBD670"/>
<path fill-rule="evenodd" clip-rule="evenodd" d="M36.6744 36.4598C36.7728 36.2315 36.7672 36.2841 36.7661 35.9629C36.7661 35.7357 36.8042 34.8425 36.7281 34.697L36.5602 34.4497C36.5009 34.3948 36.4819 34.3847 36.4036 34.3847C36.285 34.378 36.3275 34.3534 36.219 34.3422H35.5768C35.5197 34.5717 35.626 35.4178 35.532 35.532C35.4694 35.5835 34.402 35.5868 34.3248 35.5365C34.2263 35.4133 34.3315 34.5795 34.2778 34.3411H33.1242C33.0716 34.5795 33.1768 35.4122 33.0783 35.5365C33.0011 35.5868 31.9337 35.5835 31.8711 35.532C31.7771 35.4178 31.8834 34.5717 31.8263 34.3411H30.684C30.6426 34.4385 30.6627 35.063 30.6649 35.2555C30.6683 35.6529 30.7131 35.5588 30.0048 35.5588C29.2104 35.5588 29.3917 35.7771 29.3928 34.3333H28.1318L28.1822 34.4877C28.2314 34.6019 28.2303 36.3065 28.2068 36.5069C28.1867 36.6871 28.1318 36.5539 28.143 36.7374H36.1205C36.2414 36.7251 36.1988 36.7106 36.3074 36.6848C36.567 36.6221 36.5367 36.5147 36.6744 36.4576V36.4598Z" fill="#FBD670"/>
<path fill-rule="evenodd" clip-rule="evenodd" d="M23.5967 23.3803C23.5463 23.3881 23.4904 23.4407 23.4445 23.4933C23.4423 23.4967 23.3964 23.556 23.3886 23.5672L23.346 23.6288C23.2431 23.7899 23.2912 24.025 23.2912 24.2276C23.2912 24.729 23.2107 25.1364 23.4076 25.5013C23.4624 25.6043 23.4355 25.5785 23.5519 25.6345C23.7981 25.7531 23.8148 25.7408 24.127 25.7408H35.9098C36.1973 25.7408 36.373 25.7587 36.5878 25.5595C36.6863 25.4677 36.665 25.4778 36.7086 25.3938C36.8261 25.1689 36.7657 24.5656 36.7657 24.2533C36.7657 24.0832 36.8015 23.8179 36.7344 23.6858C36.6863 23.5907 36.5509 23.4183 36.4569 23.3792C36.2197 23.3669 36.2801 23.3064 36.0407 23.3042C35.8807 23.3042 35.7184 23.3042 35.5584 23.3042C35.5573 23.4922 35.5943 24.4212 35.5316 24.5007C35.4689 24.5533 34.4004 24.5566 34.3232 24.5051C34.255 24.4134 34.2964 23.5023 34.2941 23.3042H33.107C33.1059 23.5023 33.1462 24.4134 33.0779 24.5051C33.0018 24.5555 31.9322 24.5533 31.8695 24.5007C31.808 24.4212 31.8449 23.4922 31.8427 23.3042L30.6601 23.3131C30.6578 23.5213 30.6601 23.7295 30.6601 23.9377C30.6601 24.6719 30.7731 24.5298 30.0033 24.5298C29.2335 24.5298 29.4069 24.7771 29.3913 23.3042H28.2109C28.1974 24.7838 28.3843 24.5298 27.5731 24.5298C26.7619 24.5298 26.9544 24.7894 26.9421 23.3053H25.7594C25.7583 23.4922 25.7952 24.4212 25.7326 24.5007C25.6699 24.5533 24.6014 24.5566 24.5242 24.5051C24.456 24.4134 24.4974 23.5023 24.4951 23.3053C24.3362 23.3042 24.1774 23.3031 24.0185 23.3042C23.7734 23.3042 23.7757 23.3657 23.5933 23.3792L23.5967 23.3803Z" fill="#FEC629"/>
<path fill-rule="evenodd" clip-rule="evenodd" d="M14.1671 35.1447C14.0843 35.2812 13.7654 35.6159 13.6445 35.72C13.4778 35.8621 13.4857 35.861 13.4946 36.1453C13.5047 36.4934 13.79 36.7363 14.0194 36.762C14.1782 36.7799 14.4233 36.7654 14.5911 36.7654H26.0863C26.3627 36.7654 26.7442 36.7833 26.8975 36.4352C27.015 36.1699 26.9691 35.7133 26.9691 35.3596C26.9691 35.2219 26.9848 34.9096 26.9602 34.7932C26.9434 34.7126 26.8192 34.4922 26.7431 34.4709C26.2676 34.2851 26.6032 34.3299 25.7596 34.3299C25.7596 34.5291 25.8144 35.4346 25.7316 35.5286C25.6757 35.5778 24.5971 35.5812 24.53 35.5319C24.4416 35.4279 24.53 34.5638 24.4875 34.3377L23.3216 34.3411C23.278 34.5638 23.3664 35.4279 23.278 35.5331C23.2108 35.5823 22.1323 35.579 22.0763 35.5297C21.9935 35.4368 22.0786 34.556 22.0349 34.3388L20.8847 34.3422C20.8064 34.4933 20.8914 35.2835 20.85 35.5375C20.7549 35.5711 19.7625 35.5778 19.6853 35.551C19.6059 35.523 19.6652 35.5823 19.6193 35.5084L19.6215 34.3276C19.4929 34.2996 18.5172 34.2996 18.393 34.3276L18.3897 35.5051C18.3382 35.5655 18.4031 35.5196 18.3248 35.5487C18.2666 35.5711 17.2574 35.5666 17.1611 35.5342C17.122 35.2768 17.2025 34.4955 17.1287 34.3343L15.974 34.3399C15.936 34.5369 15.9606 34.7641 15.9606 34.9667C15.9606 35.6998 16.087 35.5543 15.3206 35.5543C14.4803 35.5543 14.7422 35.7603 14.6985 34.4832L14.1659 35.1436L14.1671 35.1447Z" fill="#FEC629"/>
<path fill-rule="evenodd" clip-rule="evenodd" d="M26.612 29.3359C26.772 29.3113 26.895 29.1367 26.9488 28.9609C26.9834 28.8468 26.9801 27.6995 26.9678 27.5216C26.9465 27.2261 26.791 27.1981 26.7395 27.0459L26.6109 27.0392C26.4441 27.0336 26.6086 27.0448 26.4956 27.0179C26.3983 26.9944 26.4979 27.0101 26.4173 27L25.7773 26.9978C25.7337 27.2227 25.8388 28.0779 25.7303 28.1864C25.6755 28.2334 24.6003 28.2368 24.532 28.1909C24.4716 28.1293 24.4928 28.0208 24.494 27.9133C24.4962 27.6939 24.5107 27.1545 24.4817 26.9978H23.3281C23.271 27.3022 23.3706 28.1125 23.2778 28.1909C23.2095 28.2368 22.1343 28.2334 22.0795 28.1864C22.0011 28.1137 22.0459 27.1556 22.0459 26.9866L20.8722 26.9989C20.8722 27.2574 20.9035 27.9917 20.8543 28.1954C20.7234 28.2345 20.4023 28.2133 20.2344 28.2133C19.4378 28.2133 19.5911 28.4718 19.5956 26.9877H18.4174C18.4174 27.1735 18.4655 28.1092 18.3872 28.1831C18.31 28.2603 17.209 28.211 17.1587 28.1954C17.0904 27.9156 17.1967 27.2037 17.1385 26.9989H15.2969C15.2947 27.0895 15.4681 27.375 15.5039 27.5205C15.5251 27.6055 15.5721 27.7432 15.6012 27.8182L15.778 28.4226C15.825 28.5345 15.7948 28.6319 15.8418 28.755C15.919 28.9565 15.8552 29.1781 15.9671 29.3773C16.3688 29.4098 16.8935 29.3818 17.3086 29.3818H23.9972C24.6193 29.3818 25.7493 29.4042 26.349 29.3818C26.5359 29.374 26.4453 29.3415 26.6131 29.337L26.612 29.3359Z" fill="#FEC629"/>
<path fill-rule="evenodd" clip-rule="evenodd" d="M28.1864 31.3359C28.1864 31.7243 28.2233 32.4608 28.136 32.8044C28.0958 32.9622 28.0365 33.0887 28.2289 33.0887H36.0665C36.5298 33.0887 36.767 32.8447 36.767 32.3813V31.3359C36.767 30.6028 36.184 30.6028 35.544 30.6521L35.5396 31.8653C35.3382 31.881 35.1122 31.8698 34.9186 31.8698C34.7776 31.8698 34.4185 31.9213 34.3334 31.8418C34.2484 31.7433 34.3144 30.8513 34.3043 30.6431H33.1027C33.0937 30.8502 33.1586 31.7422 33.0747 31.8418C32.9897 31.9213 32.6305 31.8698 32.4895 31.8698C32.296 31.8698 32.0688 31.881 31.8798 31.8653L31.8652 30.6543L30.6423 30.6565V31.5978C30.6456 31.9157 30.8112 31.8821 29.538 31.862L29.4328 31.8586L29.4216 30.6465C29.1609 30.6185 28.5299 30.6353 28.2311 30.6364C27.9559 30.6364 28.1886 30.8781 28.1886 31.337L28.1864 31.3359Z" fill="#FEC629"/>
<path fill-rule="evenodd" clip-rule="evenodd" d="M19.6226 25.7262L19.7378 25.733L21.9587 25.7318L22.065 25.7229L22.0662 14.734L19.6226 14.7217V25.7262Z" fill="#FD816D"/>
<path fill-rule="evenodd" clip-rule="evenodd" d="M31.8998 22.0415L34.2796 22.0437C34.3311 21.8982 34.2998 13.5318 34.2998 12.4405C34.2998 12.0196 34.3311 11.4578 34.293 11.0537H31.8875C31.8539 11.4063 31.8808 16.0512 31.8808 16.5437C31.8808 17.1179 31.8539 21.9094 31.8998 22.0415Z" fill="#FD816D"/>
<path fill-rule="evenodd" clip-rule="evenodd" d="M25.7728 22.0316L28.1695 22.0439C28.1695 21.4775 28.212 17.3575 28.1527 17.1964C28.0206 17.1706 26.2472 17.184 25.9004 17.1852C25.7024 17.1852 25.7673 17.2646 25.7684 17.4851L25.774 22.0327L25.7728 22.0316Z" fill="#FD816D"/>
<path fill-rule="evenodd" clip-rule="evenodd" d="M14.1673 35.1448C14.1908 35.0004 14.3351 34.8862 14.428 34.7553C14.5186 34.6288 14.5913 34.4654 14.6943 34.396C14.7994 34.5919 14.7245 35.2265 14.7435 35.5186L15.9194 35.5141C15.934 35.288 15.8724 34.4385 15.953 34.3188C16.0604 34.2583 16.4218 34.2952 16.5762 34.2952C16.6724 34.2952 17.1032 34.2572 17.167 34.3288C17.2352 34.4251 17.1804 35.3127 17.1949 35.5197L18.3899 35.5074L18.3932 34.3299C18.5174 34.302 19.4931 34.302 19.6217 34.3299L19.6195 35.5108L20.8167 35.522C20.829 35.3216 20.7786 34.4195 20.8447 34.3311C20.9398 34.2426 21.309 34.2986 21.46 34.2986C21.6234 34.2986 21.9333 34.2505 22.0564 34.3221C22.1336 34.4329 22.0765 35.2992 22.0888 35.522H23.2681C23.2804 35.3082 23.2245 34.4329 23.2972 34.3266C23.3688 34.2729 24.4373 34.2729 24.5089 34.3266C24.5817 34.4329 24.5257 35.3082 24.538 35.522L25.7173 35.5175C25.7296 35.2992 25.6726 34.4318 25.7498 34.321C25.8203 34.2561 26.5173 34.2941 26.5833 34.321C26.7109 34.3702 26.7332 34.4083 26.7411 34.4732C26.8172 34.4945 26.9414 34.715 26.9581 34.7956C26.9828 34.9131 26.9671 35.2254 26.9671 35.3619C26.9671 35.7156 27.013 36.1722 26.8955 36.4375C26.7422 36.7856 26.3607 36.7677 26.0843 36.7677H14.5891C14.4213 36.7677 14.1762 36.7822 14.0173 36.7643C13.788 36.7386 13.5027 36.4957 13.4926 36.1476C13.4837 35.8633 13.4769 35.8644 13.6425 35.7223C13.7634 35.6182 14.0822 35.2836 14.165 35.147L14.1673 35.1448ZM36.4036 34.3848C36.4819 34.3848 36.5009 34.3949 36.5602 34.4497L36.7281 34.6971C36.8041 34.8426 36.7661 35.7357 36.7661 35.9629C36.7661 36.2842 36.7728 36.2316 36.6744 36.4599C36.5826 36.7811 36.2011 36.7822 35.8307 36.7822C34.7029 36.7822 28.171 36.8147 28.1117 36.7621C28.0703 36.7252 28.1117 36.5058 28.1251 36.4565C28.209 36.1297 28.1855 35.2578 28.1721 34.8907C28.1643 34.6825 28.0781 34.5034 28.0915 34.3132C28.2571 34.2796 29.2831 34.274 29.4297 34.3199L29.4342 35.5231H30.6168C30.6873 34.1262 30.3349 34.2997 31.2579 34.2997C32.181 34.2997 31.8185 34.115 31.8823 35.5242H33.0683C33.0783 35.3238 33.0302 34.4172 33.0973 34.3277C33.1611 34.2762 34.2397 34.2762 34.3035 34.3277C34.3706 34.4172 34.3225 35.3238 34.3326 35.5242L35.5186 35.5208C35.5275 35.3149 35.4783 34.4195 35.5499 34.3232C35.6562 34.2538 36.1966 34.2975 36.3633 34.3087C36.4047 34.3613 36.3823 34.3445 36.4014 34.3848H36.4036ZM15.4103 33.0775C15.4059 32.9913 15.4584 32.8626 15.4931 32.7831L15.5938 32.4977C15.7046 32.1552 15.8355 31.543 15.868 31.1994C15.9082 30.7651 15.8724 30.6353 16.0537 30.6353C17.2788 30.6353 17.177 30.5558 17.1725 30.8636V31.5967C17.1692 31.731 17.1311 31.8609 17.2553 31.8609L18.3876 31.8564L18.3955 30.642L19.6217 30.6453L19.6329 31.8575L19.7359 31.8609C21.0114 31.881 20.8458 31.9146 20.8402 31.5967V30.6554L22.0642 30.6532L22.0799 31.8642C22.269 31.8799 22.4961 31.8687 22.6897 31.8687C23.5613 31.8687 23.2413 32.0601 23.3039 30.6431H24.5056C24.5705 32.059 24.246 31.8687 25.1198 31.8687C25.3134 31.8687 25.5405 31.8799 25.7408 31.8642L25.7453 30.6509C26.0832 30.6252 26.5956 30.5972 26.8015 30.8278C26.9223 30.9632 26.9693 31.1054 26.9693 31.3348V32.3802C26.9693 32.5638 26.9257 32.7831 26.8026 32.913C26.6695 33.0551 26.4491 33.0864 26.2566 33.0864L15.4103 33.0753V33.0775ZM36.7661 32.3813C36.7661 32.8447 36.53 33.0887 36.0657 33.0887H28.228C28.0356 33.0887 28.0949 32.9622 28.1352 32.8044C28.2225 32.4619 28.1855 31.7254 28.1855 31.3359C28.1855 30.8781 27.9528 30.6364 28.228 30.6353C28.5268 30.6353 29.1578 30.6174 29.4185 30.6453L29.4297 31.8575L29.5349 31.8609C30.8081 31.8799 30.6426 31.9146 30.6381 31.5967V30.6554L31.8621 30.6532L31.8767 31.8642C32.0658 31.8799 32.2929 31.8687 32.4864 31.8687C32.6274 31.8687 32.9866 31.9202 33.0716 31.8407C33.1566 31.7422 33.0906 30.8502 33.0996 30.642H34.3012C34.3113 30.8502 34.2453 31.7422 34.3303 31.8407C34.4154 31.9202 34.7745 31.8687 34.9155 31.8687C35.1091 31.8687 35.3362 31.8799 35.5365 31.8642L35.5409 30.6509C36.1821 30.6006 36.7639 30.6006 36.7639 31.3348V32.3802L36.7661 32.3813ZM7.7987 36.7666C7.57716 36.7666 7.38584 36.7599 7.17213 36.7431L6.61047 36.6726C6.24236 36.5931 5.81383 36.5114 5.47482 36.3692C5.46699 36.3659 5.42894 36.3435 5.42782 36.3435C5.38419 36.3211 5.43901 36.3446 5.37188 36.3178L4.74196 36.0111C4.6021 35.9338 4.4891 35.8577 4.3526 35.7771C4.29442 35.7436 4.30784 35.757 4.25637 35.7156C4.13554 35.6193 4.21721 35.6574 4.09973 35.5891L3.60631 35.2421C3.37247 35.0541 3.16772 34.8493 2.95961 34.6344C2.54563 34.2068 2.47402 33.9819 2.16522 33.5465L2.03767 33.364C2.01081 33.3159 2.00857 33.2991 1.98955 33.2566C1.88214 33.0193 1.7076 32.7238 1.64271 32.4776L1.56662 32.2392C1.50844 32.0869 1.47152 31.9179 1.43124 31.7433C1.40663 31.6392 1.40439 31.5721 1.38649 31.4714C1.36747 31.365 1.3339 31.3505 1.32271 31.2318C1.26453 30.6118 1.21642 30.0488 1.29921 29.4354C1.37754 28.8624 1.46369 28.4426 1.6662 27.892C1.69865 27.8047 1.69306 27.7129 1.7311 27.6435C1.73333 27.639 1.73893 27.6334 1.74117 27.6278L1.84298 27.4454C1.92242 27.3335 1.99739 27.1465 2.06228 27.0346C2.28493 26.6485 2.53108 26.2634 2.83877 25.9321C3.03793 25.7184 3.23933 25.4867 3.45974 25.2998C3.67456 25.1173 3.92295 24.8823 4.14225 24.7021C4.17134 24.6786 4.20714 24.6439 4.22728 24.6282L4.47343 24.4066C4.85385 24.0619 5.2779 23.7585 5.64936 23.3869C5.8295 23.2079 6.2446 23.2884 6.49075 23.2884H9.02497C9.25882 23.2884 10.1036 23.237 10.2434 23.3231C10.4784 23.4675 10.6921 23.7406 10.9259 23.8973L10.9931 23.9566C10.9931 23.9566 11.002 23.9667 11.0054 23.9701C11.2235 24.2029 11.6633 24.5734 11.9251 24.8017C12.4867 25.2908 12.8839 25.64 13.3371 26.2131C13.3897 26.2802 13.4244 26.3138 13.4803 26.3832C13.5832 26.5119 13.656 26.6507 13.7343 26.7828L14.0621 27.4028C14.1024 27.5025 14.1001 27.5125 14.1572 27.6133C14.221 27.7241 14.3004 27.939 14.3407 28.0621C14.3911 28.2143 14.4548 28.3598 14.4929 28.5355C14.6126 29.0985 14.7178 29.5876 14.7189 30.2133C14.72 30.7203 14.711 30.9095 14.6238 31.374C14.5242 31.9034 14.3653 32.4485 14.1315 32.9174L13.9961 33.1995C13.9088 33.3987 13.8003 33.5476 13.6895 33.73L13.3505 34.2001C13.0674 34.5974 12.7362 34.9254 12.357 35.2455C12.1679 35.4056 11.8602 35.6372 11.6465 35.7615C11.5503 35.8174 11.4764 35.8533 11.3981 35.9059L10.5813 36.311C10.4258 36.3659 10.2636 36.4028 10.1215 36.4856C10.0364 36.536 9.89769 36.5416 9.80818 36.5841C9.70413 36.6323 9.0977 36.6994 8.9612 36.7285C8.60988 36.8024 8.17016 36.7666 7.79646 36.7666H7.7987ZM26.6102 27.0391L26.7388 27.0458C26.7903 27.198 26.9458 27.226 26.9671 27.5215C26.9794 27.6994 26.9828 28.8467 26.9481 28.9609C26.8944 29.1366 26.7713 29.3112 26.6113 29.3358C26.5587 29.4477 26.4916 29.4276 26.3472 29.4287H21.2519C20.8693 29.4287 16.1152 29.4634 15.8646 29.4086C15.8512 29.2821 15.8612 29.1657 15.8344 29.0482C15.8031 28.9138 15.7963 28.8556 15.7762 28.7045C15.7494 28.5131 15.6005 28.0039 15.5379 27.8024C15.4025 27.3737 15.2123 27.1566 15.2537 26.9495L17.1647 26.9585C17.2341 27.2047 17.1535 27.8517 17.1904 28.1606C17.3225 28.1897 18.25 28.1874 18.3787 28.1561C18.3798 27.9099 18.3485 27.1555 18.3977 26.9708C18.5029 26.9249 19.5087 26.9249 19.6139 26.9708C19.6631 27.1544 19.6318 27.9099 19.6329 28.1561C19.7616 28.1874 20.688 28.1897 20.8212 28.1606C20.8581 27.8517 20.7775 27.2047 20.8469 26.9585C20.9241 26.9462 21.996 26.9115 22.0575 26.9775C22.1448 27.1163 22.0597 27.9255 22.0911 28.1707C22.2824 28.1785 23.1462 28.1986 23.2704 28.1561C23.3028 27.8718 23.229 27.1667 23.2983 26.9495L24.5101 26.9574C24.5794 27.1667 24.5067 27.8718 24.5392 28.1561C24.6633 28.1998 25.5282 28.1785 25.7184 28.1707C25.7498 27.9255 25.6647 27.1163 25.752 26.9775C25.8024 26.9238 26.3282 26.9439 26.4546 26.9507C26.5844 26.9574 26.5699 26.9495 26.6102 27.0391ZM36.4472 27.0581C36.6173 27.0659 36.7281 27.3077 36.7572 27.4532C36.7862 27.5965 36.7672 27.9793 36.7672 28.1472C36.7672 28.6967 36.8153 28.8926 36.7079 29.0761C36.7046 29.0806 36.7012 29.0873 36.6979 29.0929C36.4886 29.4489 36.2615 29.4186 35.8844 29.4186C34.7801 29.4186 28.4887 29.4556 28.0446 29.4052C28.0423 29.2742 28.0356 29.3839 28.1285 29.1937C28.1363 29.0683 28.1665 29.037 28.1755 28.9071V27.4689C28.1632 27.2864 28.0938 27.1689 28.0938 26.9686C28.2694 26.9328 29.2764 26.9238 29.4297 26.9753L29.4387 28.1763L30.6213 28.1639C30.656 27.8528 30.5788 27.2092 30.6459 26.9607C30.7254 26.9495 31.7939 26.9137 31.8554 26.9798C31.9393 27.1107 31.8599 27.9345 31.8879 28.174C32.0881 28.1818 32.9318 28.2042 33.0705 28.1595C33.1007 27.8741 33.0302 27.17 33.0985 26.9518L34.308 26.9585C34.3762 27.17 34.3057 27.8729 34.3359 28.1583C34.4747 28.2031 35.3183 28.1807 35.5186 28.1729C35.5465 27.9345 35.4671 27.1096 35.551 26.9786C35.6036 26.9227 36.2257 26.9451 36.3007 26.9551C36.4148 26.9708 36.4215 27.0223 36.4472 27.0581ZM19.6229 14.7216L22.0665 14.7339V25.7228L21.9579 25.7318H19.737L19.6229 25.7262V14.7216ZM23.5971 23.3802C23.653 23.3119 23.6709 23.2884 23.7738 23.2761C23.8455 23.2672 23.9462 23.2717 24.0211 23.2717C24.6824 23.2717 24.5224 23.0478 24.5336 24.4984L25.7229 24.4939C25.733 23.0624 25.5081 23.2717 26.373 23.2717C27.1528 23.2717 26.9727 23.0176 26.9861 24.4984L28.171 24.4872L28.1822 23.2907C28.3131 23.247 29.2932 23.247 29.4331 23.2907L29.4353 24.4961H30.6202C30.6336 23.0109 30.4479 23.2717 31.2591 23.2717C32.0702 23.2717 31.8733 23.0679 31.8823 24.4972H33.0716C33.0727 24.3092 33.0369 23.378 33.0996 23.2985C33.1634 23.2481 34.2408 23.2481 34.3046 23.2985C34.3952 23.4127 34.2957 24.2588 34.346 24.4905H35.5197L35.5286 23.2952C35.6517 23.2437 36.2056 23.2571 36.2962 23.284C36.4025 23.3153 36.3488 23.303 36.4573 23.3813C36.5513 23.4205 36.6867 23.5929 36.7348 23.688C36.8019 23.819 36.7661 24.0854 36.7661 24.2555C36.7661 24.5666 36.8254 25.171 36.709 25.396C36.6654 25.48 36.6878 25.4699 36.5882 25.5617C36.3734 25.7609 36.1977 25.743 35.9102 25.743H24.1274C23.8152 25.743 23.7985 25.7564 23.5523 25.6367C23.436 25.5807 23.4639 25.6064 23.408 25.5035C23.2122 25.1386 23.2916 24.7323 23.2916 24.2297C23.2916 24.026 23.2435 23.7921 23.3464 23.6309L23.389 23.5694C23.3968 23.5582 23.4427 23.4989 23.4449 23.4955C23.4897 23.4429 23.5456 23.3914 23.5971 23.3825V23.3802ZM31.8442 11.1601C31.8442 10.9911 31.88 11.0135 32.0411 11.0146H33.7933C34.2699 11.0158 34.3348 10.9598 34.3348 11.1601V21.9543C34.3348 22.0662 34.3281 22.0852 34.2106 22.0852H31.9919C31.8632 22.0852 31.8453 22.0808 31.8453 21.9543V11.1601H31.8442ZM25.724 17.2758C25.724 17.1583 25.7319 17.1448 25.8516 17.1448C26.279 17.1448 27.898 17.1213 28.1967 17.1571C28.237 17.4694 28.2124 21.3085 28.2124 21.9543C28.2124 22.0259 28.2124 22.0069 28.1911 22.0729C27.7369 22.1031 26.3942 22.0808 25.8516 22.0808C25.7352 22.0808 25.724 22.0707 25.724 21.9532V17.2747V17.2758ZM5.89104 22.0617C5.80712 22.0248 5.77132 21.9621 5.71873 21.8894L4.87958 20.769C4.86056 20.741 4.83706 20.7097 4.81357 20.6772L2.91709 18.1589C2.65975 17.8052 2.39235 17.484 2.4785 16.9904C2.49416 16.9019 2.49416 16.9579 2.52437 16.8639C2.61276 16.5975 2.67654 16.3927 2.9708 16.1811C3.16101 16.0446 3.24492 16.0435 3.41051 15.9886C4.1277 15.7513 4.1691 16.4162 4.88629 16.8695C4.92769 16.8963 4.92993 16.9042 4.9758 16.9344C5.1 17.0172 5.31482 17.0732 5.46475 17.1057C6.07341 17.2366 6.4583 17.1112 6.96067 16.7497L7.45745 16.2528C7.78303 15.9271 8.06946 15.7323 8.47673 16.2315L8.79449 16.565C9.11896 16.9266 9.59783 17.1627 10.1237 17.1639C11.0635 17.1639 11.3914 16.565 11.6722 16.3378C11.8546 16.1912 11.9195 15.9327 12.3178 15.9383C12.9567 15.9461 13.5933 16.5606 13.4881 17.3519C13.459 17.569 13.3539 17.7526 13.2308 17.9283L12.9018 18.4074C12.9018 18.4074 12.8817 18.4286 12.8761 18.4342C12.8694 18.4409 12.8459 18.4667 12.8381 18.4756L12.2977 19.164C12.1186 19.3643 11.9888 19.5949 11.8904 19.6979L10.8409 21.1036C10.7055 21.3074 10.7268 21.2189 10.5791 21.4696C10.3822 21.8021 10.3866 21.6857 10.3754 21.6845C10.3531 21.7248 10.3419 21.7551 10.3128 21.7998C10.2893 21.8345 10.2624 21.8715 10.2389 21.9095C10.1808 22.0024 10.1528 22.0617 10.0062 22.0617H5.89104ZM30.0059 0.0783482C30.0059 1.36997 29.9008 1.25805 30.2935 1.25469H35.8061C35.7636 1.37109 35.6271 1.4584 35.5421 1.5401L35.3597 1.72366C35.3597 1.72366 35.3507 1.73261 35.3463 1.73709L34.6839 2.40753C34.6839 2.40753 34.6626 2.42879 34.6582 2.43327L34.2755 2.80822C34.2755 2.80822 34.2666 2.81718 34.2621 2.82165L32.9474 4.14574C32.9474 4.14574 32.9262 4.16589 32.9217 4.17148L32.6207 4.47144C32.6062 4.48599 32.6006 4.49159 32.5816 4.51062L31.8107 5.28179C31.8107 5.28179 31.8017 5.29074 31.7972 5.29522C31.7939 5.29858 31.7883 5.30417 31.7838 5.30865L31.5488 5.54369C31.5298 5.56272 31.5164 5.57615 31.4963 5.5963L30.647 6.44582C30.6123 6.48052 30.6034 6.48947 30.5687 6.52417C30.5497 6.54319 30.5441 6.54879 30.5296 6.56334L29.9891 7.09499C29.9891 7.09499 29.9802 7.10394 29.9757 7.10842L29.9231 7.16103C29.9231 7.16103 29.9142 7.16998 29.9097 7.17446L29.8045 7.27855C29.771 7.31213 29.762 7.32444 29.7296 7.36025L29.574 7.51807C29.555 7.5371 29.5494 7.54269 29.5349 7.55724L29.169 7.92324C29.169 7.92324 29.1601 7.9322 29.1556 7.93667L28.9161 8.16724C28.9161 8.16724 28.9072 8.17619 28.9027 8.18067L28.8501 8.23328C28.8501 8.23328 28.8412 8.24223 28.8367 8.24671L28.7718 8.31163C28.7718 8.31163 28.7629 8.32058 28.7584 8.32506C28.7528 8.33065 28.7371 8.3452 28.7327 8.3508L28.5279 8.56458C28.5279 8.56458 28.519 8.57353 28.5145 8.57801L28.5011 8.59144C28.5011 8.59144 28.4921 8.60039 28.4876 8.60487L27.7648 9.31896C27.7458 9.33799 27.7402 9.34358 27.7257 9.35813C27.7111 9.37268 27.7055 9.37828 27.6865 9.39731C27.6619 9.42193 27.6697 9.4141 27.6474 9.43648L27.4034 9.68943C27.3844 9.70846 27.3788 9.71406 27.3643 9.72861L27.3117 9.78121C27.2972 9.79576 27.2916 9.80136 27.2725 9.82039L25.9657 11.1277C25.9657 11.1277 25.9568 11.1366 25.9523 11.1411C25.9489 11.1445 25.9433 11.1501 25.9389 11.1545C25.9198 11.1736 25.9142 11.1792 25.8997 11.1937L25.2082 11.8877C25.2082 11.8877 25.187 11.9078 25.1803 11.9123C25.14 11.9425 25.1702 11.9336 25.1131 11.9492L24.453 11.3023C24.425 11.2732 24.4183 11.2642 24.3903 11.234L24.2214 11.0628C24.2214 11.0628 24.2124 11.0538 24.208 11.0493L23.502 10.3442C23.502 10.3442 23.4919 10.3352 23.4885 10.3319L21.2508 8.1012C21.2016 8.05308 21.1691 8.02062 21.1221 7.96913C21.1188 7.96465 21.1132 7.95906 21.1098 7.9557L21.0852 7.92772C20.9275 7.75535 20.8771 7.64007 20.7104 7.80908C20.707 7.81243 20.7014 7.81915 20.6981 7.82251L20.4195 8.09337C20.4195 8.09337 20.4105 8.10232 20.4061 8.1068L20.0268 8.48623C20.0022 8.51085 19.9988 8.51421 19.9742 8.53883L19.7963 8.72687C19.7963 8.72687 19.7873 8.73582 19.7829 8.7403L18.6595 9.86404C18.6595 9.86404 18.6383 9.8853 18.6338 9.88978L18.3552 10.1595C18.3362 10.1786 18.3306 10.1841 18.316 10.1987C18.3104 10.2043 18.2948 10.22 18.2903 10.2244L17.5373 10.9867C17.5373 10.9867 17.5283 10.9956 17.5239 11.0001C17.4993 11.0247 17.497 11.0269 17.4713 11.0527L17.1658 11.3482C17.1658 11.3482 17.1446 11.3694 17.1401 11.3739L16.6176 11.8966C16.5773 11.938 16.5493 11.9738 16.5046 12.0186L16.0693 12.4451C16.0693 12.4451 16.0604 12.454 16.0559 12.4585C16.0514 12.463 16.047 12.4674 16.0425 12.4719L15.3936 13.13C15.379 13.1446 15.3734 13.1502 15.3544 13.1692L15.1284 13.3875C15.1015 13.4121 15.1004 13.4132 15.0747 13.439L15.0489 13.4658C15.0344 13.4804 15.0288 13.486 15.0098 13.505L13.8215 14.6936C13.7969 14.7183 13.7857 14.7295 13.7567 14.7586L13.6918 14.8235C13.6325 14.8828 13.5586 14.9287 13.5374 15.0082C13.4266 15.0059 13.4322 14.9936 13.3572 14.9533L13.2017 14.8738C13.1592 14.8571 13.1927 14.8682 13.1413 14.8559L12.8134 14.7653C12.7183 14.7463 12.6837 14.6948 12.5438 14.6948H12.0213L11.4484 14.8794C11.2828 14.9623 11.1251 15.0798 10.9953 15.2107L10.7894 15.4234C10.7894 15.4234 10.7805 15.4335 10.7771 15.4368L10.6641 15.5588C10.5735 15.6562 10.4851 15.7693 10.3676 15.8375C10.2289 15.9181 10.0957 15.9472 9.9458 15.8812C9.83503 15.8319 9.74776 15.7536 9.66608 15.664L9.57546 15.5723C9.57546 15.5723 9.56651 15.5633 9.56203 15.5588L9.27448 15.2454C9.27448 15.2454 9.2521 15.2253 9.24651 15.2208L8.67365 14.8268C8.58414 14.7843 8.30666 14.6936 8.20485 14.6936H7.73492C7.59842 14.6936 7.29745 14.8011 7.15871 14.875L6.71004 15.2096C6.63844 15.2813 6.58473 15.3339 6.51424 15.4055C6.47732 15.4436 6.46054 15.4637 6.42697 15.5006L6.32739 15.6092C6.23565 15.7099 6.13942 15.8129 6.01523 15.8711C5.89663 15.9271 5.78474 15.9338 5.66279 15.8789L5.30475 15.5835C5.30475 15.5835 5.2958 15.5745 5.29132 15.57L5.25328 15.5297C5.21636 15.4872 5.20293 15.4648 5.15706 15.4167L4.96573 15.2163C4.96573 15.2163 4.93552 15.1861 4.92657 15.1772L4.40854 14.8324L4.09414 14.7283C3.914 14.6601 3.38478 14.6657 3.19905 14.7261L2.65192 14.9108C2.62731 14.922 2.61948 14.9231 2.59598 14.9343L2.51206 14.9802C2.51206 14.9802 2.50088 14.9869 2.49528 14.9902L2.36437 15.0686C2.17976 15.1772 2.02648 15.3193 1.87543 15.4682L1.61026 15.804C1.51516 15.945 1.42677 16.0983 1.37082 16.2696L1.26117 16.6311C1.10229 17.1348 1.22873 17.8041 1.46593 18.2697L1.90676 18.9267C1.9269 18.958 1.93249 18.9759 1.95487 19.0095L2.0276 19.0935C2.25137 19.3363 3.15429 20.6201 3.46422 21.0018L3.48771 21.0309C3.48771 21.0309 3.49555 21.041 3.4989 21.0454L4.65245 22.5833C4.58308 22.6091 4.53385 22.6874 4.47231 22.7434C4.46784 22.7467 4.46224 22.7523 4.45889 22.7557L4.27763 22.9146C4.13666 23.0333 4.02253 23.1317 3.88603 23.2549L3.74841 23.378C3.74841 23.378 3.73946 23.3869 3.73498 23.3914L3.11849 23.9242C3.05136 23.9813 2.99318 24.0227 2.93388 24.0786L2.41584 24.5532C2.39458 24.5734 2.38339 24.5823 2.36102 24.6025L2.16745 24.8006C2.16745 24.8006 2.15738 24.8095 2.15403 24.8129L1.80494 25.1957C1.80494 25.1957 1.79711 25.2057 1.79263 25.2102L1.64382 25.4016C1.64382 25.4016 1.61585 25.4341 1.60802 25.4441L1.13698 26.1224C1.13698 26.1224 1.13027 26.1336 1.12691 26.1392C1.10901 26.1705 1.11013 26.1649 1.08663 26.2041L0.696147 26.9372C0.696147 26.9372 0.690552 26.9495 0.688315 26.9551L0.136714 28.6766C0.117694 28.7862 0.12105 28.7437 0.0986729 28.8209C0.072939 28.9105 0.0762956 29.0683 0.0617504 29.15C0.0404919 29.2787 0.00133167 29.347 0.00133167 29.4556C0.00133167 29.8462 -0.0434229 30.8255 0.0360165 31.1456C0.0505617 31.205 0.0550372 31.2587 0.065107 31.3259L0.128882 31.7064C0.143427 31.7747 0.145665 31.8239 0.155735 31.8888C0.178112 32.0366 0.179231 31.9594 0.206084 32.0735C0.222867 32.1451 0.21951 32.1754 0.241888 32.247C0.313495 32.4809 0.378389 32.7462 0.482443 32.9734L0.680483 33.4547C0.68272 33.4603 0.686077 33.467 0.688315 33.4726L1.05195 34.1542C1.07432 34.1934 1.07432 34.2024 1.0967 34.2404L1.64382 35.0261C1.64382 35.0261 1.65278 35.0362 1.65613 35.0407C1.65949 35.0452 1.66508 35.0508 1.66844 35.0552L2.14172 35.6014C2.38339 35.8633 2.64857 36.0827 2.92045 36.3122L3.27737 36.5819C3.27737 36.5819 3.33219 36.6233 3.33667 36.6267C3.5582 36.8046 3.82673 36.9568 4.08071 37.0844L4.5842 37.3385C4.65357 37.3699 4.65581 37.3732 4.72965 37.4023C4.73525 37.4046 4.74308 37.4068 4.74867 37.409L5.38083 37.6396C5.45692 37.6609 5.40545 37.6452 5.45803 37.6676C5.47594 37.6754 5.51733 37.6944 5.55202 37.7034L6.83536 37.9619C6.9271 37.9821 6.92263 38.0022 7.03004 38.0022H8.83253C8.99924 38.0022 9.1749 37.9452 9.33378 37.9284C9.69965 37.8903 10.0443 37.7941 10.4057 37.6944L11.3679 37.324C11.4305 37.2993 11.4171 37.3083 11.4775 37.277L11.774 37.1292C11.8512 37.0889 11.9027 37.0621 11.9765 37.0184C12.1142 36.9367 12.2115 36.8304 12.386 36.827C12.3883 36.9457 12.4151 36.9669 12.4688 37.0576L12.6635 37.334C12.696 37.3732 12.7027 37.3833 12.734 37.4202C12.7933 37.4896 12.847 37.5277 12.9108 37.5836C13.0943 37.7482 13.5553 38.0034 13.7712 38.0034H36.4741C36.6318 38.0034 37.0055 37.8332 37.1432 37.7314L37.706 37.1706C37.706 37.1706 37.7138 37.1606 37.7171 37.1561L37.9029 36.7923C37.923 36.7285 37.9197 36.7106 37.9409 36.6479C37.9633 36.5853 37.989 36.5729 37.989 36.4868V34.6053C37.989 34.509 37.9163 34.3288 37.8805 34.2426L37.6981 33.9024C37.65 33.8375 37.5929 33.7726 37.5706 33.6897C37.6981 33.4983 37.8536 33.2924 37.9129 33.0652C37.9331 32.9857 37.989 32.8626 37.989 32.801V30.8927L37.6724 30.1909C37.4587 29.8999 37.6355 30.06 37.8648 29.5138C37.9018 29.4265 37.9901 29.2239 37.9901 29.1164V27.2607C37.9901 27.1644 37.9476 27.1085 37.923 27.0145C37.8995 26.9294 37.9062 26.9563 37.8816 26.8992C37.8626 26.8555 37.8492 26.8164 37.829 26.7693C37.6534 26.3731 37.4598 26.4638 37.6623 26.2008C37.6724 26.1884 37.688 26.1661 37.6948 26.1549C37.7831 26.0217 37.8749 25.8751 37.9152 25.7217C37.9353 25.6422 37.9913 25.5191 37.9913 25.4576V23.5761C37.9913 23.5492 37.9152 23.294 37.8984 23.2504L37.8357 23.1049C37.8357 23.1049 37.8301 23.0926 37.8268 23.087C37.8245 23.0814 37.8201 23.0747 37.8178 23.0702L37.4408 22.5587C37.1969 22.3225 36.9373 22.1994 36.6229 22.0964C36.2984 21.9901 35.9023 22.0338 35.5622 22.0338V9.88083C35.5622 9.77114 35.4447 9.79912 35.3284 9.80136C33.7608 9.8271 32.1922 9.80136 30.6247 9.80136C30.6112 9.85956 30.5989 9.8618 30.5989 9.93231V22.0326H29.423V15.9953C29.423 15.9349 29.4051 15.917 29.3447 15.917H24.5638C24.5033 15.917 24.4854 15.9349 24.4854 15.9953V22.0326C24.1945 22.0326 23.8522 22.0024 23.5702 22.0573C23.4348 22.0841 23.4673 22.111 23.3095 22.111V13.5386C23.3095 13.4781 23.2916 13.4602 23.2312 13.4602H18.4503C18.3899 13.4602 18.372 13.4781 18.372 13.5386V25.7172H14.5052C14.4962 25.6064 14.4324 25.5617 14.3597 25.471C14.3373 25.443 14.3385 25.4453 14.3239 25.4285C14.3194 25.4229 14.3049 25.4061 14.2993 25.4005L13.8674 24.8923C13.8674 24.8923 13.8585 24.8834 13.854 24.8789C13.8495 24.8744 13.845 24.87 13.8417 24.8655L13.4232 24.448C13.4042 24.429 13.3986 24.4234 13.3841 24.4088L12.6344 23.7473C12.6143 23.7294 12.5975 23.7138 12.5785 23.6981L11.3175 22.5822C11.3522 22.5296 11.3858 22.4759 11.4216 22.4255L11.7684 21.9621C11.9318 21.745 12.0761 21.5525 12.2384 21.3353C12.3972 21.1238 12.5382 20.9302 12.6971 20.7231L12.7911 20.6078C12.7911 20.6078 12.7989 20.5977 12.8023 20.5933L14.0632 18.9021C14.0867 18.8685 14.0677 18.8953 14.0979 18.8584L14.428 18.3783C14.428 18.3783 14.4336 18.3659 14.4369 18.3603L14.4548 18.3268C14.4548 18.3268 14.4615 18.3156 14.4649 18.31L14.6607 17.7996C14.6842 17.6474 14.6853 17.7268 14.7155 17.5925C14.7636 17.3743 14.7715 16.9042 14.6987 16.6926C14.6663 16.5986 14.6864 16.7027 14.6641 16.5706C14.6428 16.4498 14.6182 16.4352 14.5813 16.3132L14.5208 16.1644C14.4828 16.0826 14.4269 16.0256 14.4269 15.945C14.4269 15.8386 14.4224 15.9349 14.4526 15.8924C14.4548 15.889 14.4604 15.8812 14.4638 15.8778L15.5491 14.7933C15.558 14.7854 15.5961 14.7518 15.6039 14.744L17.638 12.7014C17.657 12.6823 17.6716 12.6678 17.6906 12.6488L17.7297 12.6096C17.7297 12.6096 17.7387 12.6006 17.7432 12.5962L18.0341 12.313C18.0419 12.304 18.0755 12.266 18.0833 12.2581L18.2131 12.1272C18.2131 12.1272 18.222 12.1182 18.2265 12.1138C18.2299 12.1104 18.2355 12.1048 18.2399 12.1003C18.259 12.0813 18.2724 12.0679 18.2925 12.0477L18.4883 11.8518C18.5129 11.8272 18.5152 11.825 18.5409 11.7992L18.6976 11.6425C18.6976 11.6425 18.7065 11.6336 18.711 11.6291L19.2201 11.1198C19.2201 11.1198 19.229 11.1109 19.2335 11.1064L19.8478 10.4919C19.8478 10.4919 19.8567 10.483 19.8612 10.4785L20.3714 9.96925C20.3714 9.96925 20.3803 9.96029 20.3848 9.95582L20.7372 9.60325C20.7708 9.56296 20.7585 9.59765 20.7786 9.54057C20.9241 9.54393 20.9386 9.59877 21.0248 9.68608L22.9593 11.619C23.0153 11.6694 23.0399 11.694 23.0902 11.75L24.3042 12.9666C24.3042 12.9666 24.3131 12.9756 24.3176 12.9801C24.3366 12.9991 24.3422 13.0047 24.3568 13.0192C24.3624 13.0248 24.378 13.0405 24.3825 13.045L24.8916 13.5542C24.8916 13.5542 24.9005 13.5632 24.905 13.5677L24.9308 13.5934C25.1143 13.7781 25.1053 13.8195 25.3011 13.6192C25.3045 13.6158 25.3101 13.6102 25.3145 13.6057L25.4186 13.5016C25.4376 13.4826 25.4432 13.477 25.4577 13.4625L26.0798 12.8312C26.0798 12.8312 26.1011 12.8099 26.1056 12.8055C26.1089 12.8021 26.1145 12.7965 26.119 12.792L26.5419 12.3779C26.5665 12.3533 26.5688 12.351 26.5945 12.3253L26.6202 12.2995C26.6202 12.2995 26.6292 12.2906 26.6337 12.2861C26.6482 12.2716 26.6538 12.266 26.6728 12.2469L26.6986 12.2212C26.6986 12.2212 26.7075 12.2122 26.712 12.2078L27.4046 11.5149C27.4236 11.4959 27.4292 11.4903 27.4437 11.4758L27.8488 11.0706C27.8488 11.0706 27.8577 11.0616 27.8622 11.0572L28.0927 10.8176C28.0927 10.8176 28.1016 10.8087 28.1061 10.8042L28.3936 10.5166C28.4306 10.4819 28.4585 10.4584 28.4899 10.4293C28.5122 10.4069 28.5044 10.4147 28.529 10.3901L28.764 10.155C28.783 10.136 28.7886 10.1304 28.8031 10.1159L28.8423 10.0767C28.8423 10.0767 28.8513 10.0677 28.8557 10.0633L29.1254 9.78457C29.1444 9.76554 29.15 9.75995 29.1645 9.7454C29.1679 9.74204 29.1735 9.73644 29.178 9.73197L29.9007 9.01788L29.9142 9.00445C29.9142 9.00445 29.9231 8.99549 29.9276 8.99102C29.931 8.98766 29.9366 8.98206 29.941 8.97758L30.7119 8.20641C30.7119 8.20641 30.7332 8.18515 30.7377 8.18067L31.4258 7.48337C31.4504 7.45875 31.4526 7.45651 31.4783 7.43077C31.4974 7.41174 31.503 7.40614 31.5175 7.39159L32.1228 6.79503C32.1228 6.79503 32.1318 6.78607 32.1362 6.7816L33.6993 5.20904C33.6993 5.20904 33.7082 5.20008 33.7127 5.1956L34.0047 4.91243C34.0193 4.89788 34.0249 4.89229 34.0439 4.87326C34.0685 4.84863 34.0719 4.84528 34.0965 4.82065L35.0375 3.88047C35.0375 3.88047 35.0464 3.87152 35.0509 3.86704L35.1158 3.80213C35.1158 3.80213 35.1247 3.79317 35.1292 3.7887C35.1326 3.78534 35.1382 3.77974 35.1426 3.77526C35.1672 3.75064 35.1695 3.7484 35.1952 3.72266L35.6741 3.23466C35.6741 3.23466 35.683 3.22571 35.6875 3.22123L36.7482 2.19151V7.68036C36.746 8.10344 36.6173 7.99375 37.9241 7.99375C37.9846 7.99375 38.0024 7.97585 38.0024 7.91541V0H30.0865C30.0261 0 30.0082 0.0179082 30.0082 0.0783482H30.0059Z" fill="black"/>
<path fill-rule="evenodd" clip-rule="evenodd" d="M6.82269 31.5297C6.82269 31.5218 6.76003 31.2913 6.71863 31.2666C6.6694 31.2375 5.63557 31.2476 5.53711 31.2689C5.51921 31.5408 5.62774 31.9124 5.7206 32.087C5.72284 32.0915 5.72732 32.0982 5.73067 32.1027C5.86606 32.3422 5.87836 32.34 6.07752 32.5359C6.4501 32.9041 6.81821 33.0653 7.35415 33.091L7.36869 34.3009L8.58042 34.3155L8.59497 33.1022C8.79301 33.0619 9.85928 33.0843 10.2039 33.0899C10.3695 33.0933 10.4254 33.1302 10.4389 32.9858L10.4243 31.0361C10.346 30.4831 10.1133 30.1362 9.70152 29.797L9.48446 29.6224C9.36139 29.5284 9.45649 29.5777 9.31775 29.5441C8.97986 29.4613 9.16335 29.421 8.79301 29.4142C8.57483 29.4098 8.35777 29.4109 8.13959 29.4109C7.68645 29.4109 6.79136 29.5687 6.76003 28.8289C6.75332 28.6811 6.7466 28.3252 6.77122 28.1909C7.03863 28.1607 8.07917 28.1842 8.47972 28.1842C8.77622 28.1842 8.7449 28.154 8.92391 28.2983C8.98881 28.3196 8.96755 28.2939 9.03916 28.3487L9.18349 28.567C9.28643 28.7886 9.12195 28.7931 9.44642 28.7897C9.76418 28.7863 10.0864 28.7975 10.4031 28.7875C10.5038 28.4707 10.2095 27.9872 10.0942 27.76C10.0719 27.7163 10.0898 27.7589 10.0708 27.7063C9.979 27.6828 9.94208 27.5876 9.78432 27.4444C9.70712 27.375 9.55495 27.2653 9.46544 27.2183L9.07049 27.0593C8.90154 27.0235 8.77175 27.0056 8.60168 26.9799C8.53902 26.8243 8.57483 25.9994 8.57483 25.761H7.39443C7.39443 25.9524 7.44589 26.8724 7.36534 26.9564C7.26464 27.0526 5.84256 26.9463 5.55949 26.9966V28.6185C5.55949 28.7472 5.602 29.196 5.65012 29.3102L5.8034 29.6739C6.81597 31.5588 9.22825 29.7153 9.22936 31.3629C9.22936 31.5039 9.26517 31.749 9.20699 31.8542C9.14992 31.918 7.27918 31.8945 7.1796 31.8699C7.09569 31.8486 6.84954 31.7132 6.82492 31.5297H6.82269Z" fill="black"/>
<path fill-rule="evenodd" clip-rule="evenodd" d="M6.82275 31.5295L6.93128 31.6313C7.01072 31.7231 7.09463 31.7813 7.22554 31.8205C7.37435 31.8641 9.08733 31.8552 9.18243 31.8328C9.23278 31.5138 9.2104 31.0851 9.05488 30.8881C8.92509 30.7236 8.88817 30.7594 8.70132 30.69C8.40146 30.5781 7.27365 30.7449 6.90219 30.6049C6.82051 30.5747 6.76457 30.5781 6.69296 30.5523L6.51842 30.4662C6.46471 30.4382 6.41884 30.4136 6.36178 30.3688C6.07647 30.1427 6.07087 30.1953 5.82472 29.8271C5.68374 29.6178 5.55731 29.3402 5.52598 29.0481C5.49242 28.7459 5.52039 27.6658 5.5148 27.2058L5.52934 27.0054C5.52934 27.0054 5.53717 26.9965 5.53829 26.9853C5.54948 26.8801 7.04093 26.9685 7.34861 26.9394C7.37099 26.7043 7.29827 25.8716 7.38442 25.7451C7.45603 25.7037 8.49657 25.7026 8.58272 25.7406C8.6409 25.7877 8.61629 26.2477 8.61629 26.3439C8.61629 26.5297 8.6051 26.7525 8.62188 26.9338C8.78859 26.9718 8.91726 26.9662 9.10635 27.0155C9.27418 27.0591 9.20257 27.0603 9.30439 27.0961C9.59641 27.2002 10.0395 27.4979 10.0686 27.7049C10.1536 27.7139 10.1167 27.6926 10.1861 27.8012L10.3684 28.1538C10.3897 28.231 10.374 28.2534 10.4109 28.3328C10.4848 28.494 10.4691 28.7582 10.4344 28.7962C10.3416 28.86 9.38942 28.8388 9.20929 28.8186C9.15446 28.7224 9.14887 28.6541 9.10299 28.5455C9.06271 28.4493 8.97656 28.3989 8.92286 28.297C8.74384 28.1527 8.77517 28.1829 8.47867 28.1829C8.07699 28.1829 7.03757 28.1594 6.77016 28.1896C6.74555 28.3228 6.75226 28.6787 6.75897 28.8276C6.79142 29.5674 7.68651 29.4096 8.13853 29.4096C8.35671 29.4096 8.57377 29.4085 8.79195 29.4129C9.16229 29.4197 8.9788 29.4611 9.3167 29.5428C9.45655 29.5763 9.36033 29.5271 9.48341 29.6211L9.70047 29.7957C10.1122 30.1349 10.3449 30.4829 10.4233 31.0347L10.4378 32.9845C10.4244 33.1278 10.3684 33.0908 10.2028 33.0886C9.85823 33.083 8.79195 33.0606 8.59391 33.1009L8.57937 34.3142L7.36763 34.2996L7.35309 33.0897C6.81715 33.0651 6.44905 32.9028 6.07647 32.5346C5.87731 32.3376 5.865 32.3409 5.72962 32.1014C5.72738 32.0969 5.7229 32.0902 5.71955 32.0857C5.62668 31.9111 5.51815 31.5395 5.53605 31.2675C5.63451 31.2463 6.66834 31.2362 6.71757 31.2653C6.75897 31.2899 6.82051 31.5216 6.82163 31.5283L6.82275 31.5295ZM7.7984 36.7665C8.1721 36.7665 8.61181 36.8012 8.96314 36.7284C9.09964 36.7004 9.70606 36.6322 9.81012 36.584C9.90074 36.5426 10.0384 36.5359 10.1234 36.4855C10.2655 36.4016 10.4277 36.3658 10.5833 36.3109L11.4 35.9058C11.4783 35.8532 11.5522 35.8173 11.6484 35.7614C11.8621 35.6371 12.1698 35.4055 12.3589 35.2454C12.7371 34.9253 13.0682 34.5962 13.3524 34.2L13.6915 33.7299C13.8022 33.5475 13.9119 33.3986 13.998 33.1994L14.1334 32.9173C14.3661 32.4495 14.525 31.9033 14.6257 31.3739C14.7141 30.9083 14.7219 30.7202 14.7208 30.2132C14.7186 29.5875 14.6145 29.0984 14.4948 28.5354C14.4579 28.3597 14.393 28.2142 14.3426 28.062C14.3024 27.9389 14.2229 27.724 14.1591 27.6132C14.101 27.5124 14.1043 27.5024 14.064 27.4027L13.7362 26.7827C13.6579 26.6506 13.5852 26.5118 13.4822 26.3831C13.4263 26.3137 13.3916 26.2801 13.339 26.213C12.8859 25.6399 12.4887 25.2907 11.927 24.8016C11.6652 24.5733 11.2255 24.2028 11.0073 23.97C11.0039 23.9666 10.9984 23.9599 10.995 23.9565L10.9279 23.8972C10.694 23.7405 10.4803 23.4663 10.2454 23.323C10.1055 23.2369 9.26075 23.2883 9.02691 23.2883H6.49268C6.24653 23.2883 5.83143 23.2078 5.6513 23.3868C5.27871 23.7584 4.85578 24.0606 4.47537 24.4065L4.22922 24.6281C4.2102 24.6438 4.17328 24.6785 4.14419 24.702C3.92489 24.8822 3.6765 25.1183 3.46168 25.2997C3.24126 25.4866 3.03875 25.7194 2.84071 25.932C2.53302 26.2622 2.28687 26.6472 2.06422 27.0345C1.99932 27.1476 1.92324 27.3345 1.84492 27.4453L1.7431 27.6277C1.7431 27.6277 1.73527 27.6378 1.73303 27.6434C1.69499 27.7139 1.70059 27.8046 1.66814 27.8919C1.46562 28.4425 1.37835 28.8623 1.30115 29.4353C1.21724 30.0487 1.26647 30.6117 1.32465 31.2317C1.33584 31.3504 1.3694 31.3649 1.38842 31.4713C1.40632 31.572 1.40856 31.6403 1.43318 31.7432C1.47346 31.9178 1.51038 32.0868 1.56856 32.2391L1.64464 32.4775C1.70842 32.7248 1.88408 33.0192 1.99149 33.2565C2.01051 33.299 2.01163 33.3158 2.0396 33.3639L2.16715 33.5464C2.47596 33.9818 2.54868 34.2067 2.96155 34.6343C3.16965 34.8492 3.37441 35.0551 3.60825 35.242L4.10167 35.589C4.21915 35.6573 4.13635 35.6192 4.25831 35.7155C4.3109 35.7569 4.29747 35.7435 4.35453 35.777C4.49103 35.8565 4.60404 35.9337 4.7439 36.011L5.37382 36.3177C5.44095 36.3445 5.38613 36.321 5.42976 36.3434C5.43088 36.3434 5.46892 36.3658 5.47675 36.3691C5.81577 36.5113 6.24429 36.593 6.6124 36.6725L7.17407 36.743C7.38777 36.7598 7.5791 36.7665 7.80064 36.7665H7.7984Z" fill="#B3DC7E"/>
<path fill-rule="evenodd" clip-rule="evenodd" d="M5.89092 22.0618H10.0061C10.1527 22.0618 10.1807 22.0025 10.2388 21.9096C10.2623 21.8715 10.2903 21.8346 10.3127 21.7999C10.3418 21.7551 10.353 21.7249 10.3753 21.6846C10.3854 21.6846 10.382 21.8021 10.579 21.4697C10.7267 21.2201 10.7054 21.3086 10.8408 21.1037L11.8903 19.6979C11.9887 19.5938 12.1185 19.3644 12.2975 19.1641L12.838 18.4757C12.8458 18.4668 12.8693 18.441 12.876 18.4343C12.8816 18.4287 12.8961 18.413 12.9017 18.4074L13.2307 17.9284C13.3538 17.7527 13.4589 17.5691 13.488 17.352C13.5932 16.5607 12.9577 15.9473 12.3177 15.9383C11.9194 15.9327 11.8545 16.1913 11.6721 16.3379C11.3913 16.5651 11.0634 17.1651 10.1236 17.1639C9.59772 17.1639 9.11885 16.9278 8.79438 16.5651L8.47662 16.2316C8.06823 15.7324 7.78181 15.9272 7.45733 16.2529L6.96056 16.7498C6.45819 17.1113 6.0733 17.2367 5.46464 17.1057C5.31471 17.0733 5.09989 17.0184 4.97569 16.9345C4.92982 16.9043 4.9287 16.8964 4.88618 16.8696C4.16899 16.4163 4.12759 15.7514 3.4104 15.9887C3.24481 16.0436 3.16089 16.0447 2.97069 16.1812C2.67643 16.3928 2.61265 16.5976 2.52426 16.864C2.49293 16.9569 2.49293 16.9009 2.47839 16.9905C2.39223 17.4829 2.65964 17.8053 2.91698 18.159L4.81346 20.6773C4.83695 20.7109 4.86045 20.7411 4.87947 20.7691L5.71862 21.8895C5.77121 21.9622 5.80813 22.0249 5.89092 22.0618Z" fill="#9FD368"/>
<path fill-rule="evenodd" clip-rule="evenodd" d="M26.612 29.3357C26.4442 29.3391 26.5348 29.3727 26.348 29.3805C25.7483 29.404 24.6182 29.3805 23.9961 29.3805H17.3076C16.8925 29.3805 16.3677 29.4085 15.966 29.376C15.853 29.1757 15.9179 28.9541 15.8407 28.7537C15.7937 28.6306 15.824 28.5332 15.777 28.4213L15.6002 27.8169C15.5711 27.7419 15.5241 27.6042 15.5028 27.5192C15.467 27.3737 15.2936 27.0883 15.2958 26.9976H17.1375C17.1968 27.2024 17.0905 27.9143 17.1576 28.1941C17.208 28.2098 18.309 28.259 18.3862 28.1818C18.4634 28.1079 18.4164 27.1722 18.4164 26.9864H19.5945C19.5901 28.4705 19.4368 28.212 20.2334 28.212C20.4012 28.212 20.7223 28.2344 20.8533 28.1941C20.9025 27.9904 20.8712 27.2562 20.8712 26.9976L22.0448 26.9853C22.0448 27.1554 22.0001 28.1135 22.0784 28.1851C22.1332 28.2321 23.2085 28.2355 23.2767 28.1896C23.3696 28.1124 23.2711 27.3009 23.3271 26.9965H24.4806C24.5097 27.1521 24.4952 27.6915 24.4929 27.9109C24.4929 28.0184 24.4705 28.1269 24.531 28.1885C24.5992 28.2344 25.6744 28.231 25.7293 28.184C25.8378 28.0754 25.7315 27.2203 25.7763 26.9954L26.4162 26.9976C26.4968 27.0077 26.3972 26.992 26.4946 27.0155C26.6076 27.0424 26.4431 27.0312 26.6098 27.0368C26.5695 26.9461 26.5841 26.9551 26.4543 26.9484C26.3279 26.9416 25.802 26.9226 25.7516 26.9752C25.6644 27.114 25.7494 27.9232 25.7181 28.1683C25.5267 28.1762 24.663 28.1963 24.5388 28.1538C24.5063 27.8695 24.5802 27.1644 24.5097 26.9551L23.298 26.9472C23.2297 27.1644 23.3024 27.8695 23.27 28.1538C23.1458 28.1974 22.2809 28.1762 22.0907 28.1683C22.0594 27.9232 22.1444 27.114 22.0571 26.9752C21.9956 26.9092 20.9237 26.945 20.8465 26.9562C20.7772 27.2024 20.8577 27.8494 20.8208 28.1583C20.6888 28.1874 19.7612 28.1851 19.6326 28.1538C19.6314 27.9076 19.6628 27.1532 19.6135 26.9685C19.5084 26.9226 18.5025 26.9226 18.3973 26.9685C18.3481 27.1521 18.3794 27.9076 18.3783 28.1538C18.2497 28.1851 17.3232 28.1874 17.1901 28.1583C17.1532 27.8494 17.2337 27.2024 17.1644 26.9562L15.2533 26.9472C15.2119 27.1543 15.4021 27.3714 15.5375 27.8001C15.6013 28.0016 15.7501 28.5108 15.7758 28.7022C15.7971 28.8533 15.8038 28.9115 15.834 29.0458C15.8609 29.1634 15.8508 29.2809 15.8642 29.4062C16.1149 29.4611 20.8689 29.4264 21.2516 29.4264H26.3469C26.4912 29.4253 26.5583 29.4454 26.6109 29.3335L26.612 29.3357Z" fill="#9E7B19"/>
<path fill-rule="evenodd" clip-rule="evenodd" d="M36.6743 36.4598C36.5367 36.5158 36.5669 36.6232 36.3073 36.687C36.1988 36.7127 36.2413 36.7284 36.1204 36.7396H32.539C31.0732 36.7396 29.6086 36.7396 28.1429 36.7396C28.1317 36.556 28.1866 36.6881 28.2067 36.509C28.2291 36.3098 28.2313 34.6041 28.1821 34.4899L28.1317 34.3354H29.3927C29.3905 35.7793 29.2103 35.561 30.0047 35.561C30.713 35.561 30.6682 35.6539 30.6649 35.2577C30.6626 35.0641 30.6425 34.4406 30.6839 34.3433H31.8262C31.8833 34.5738 31.777 35.42 31.871 35.5342C31.9336 35.5856 33.001 35.589 33.0782 35.5386C33.1767 35.4155 33.0715 34.5817 33.1241 34.3433H34.2777C34.3314 34.5817 34.2262 35.4144 34.3247 35.5386C34.4019 35.589 35.4693 35.5856 35.5319 35.5342C35.6259 35.42 35.5196 34.5738 35.5767 34.3444H36.2189C36.3274 34.3567 36.2849 34.3813 36.4035 34.388C36.3845 34.3466 36.4069 34.3645 36.3655 34.3119C36.1988 34.3007 35.6583 34.2571 35.5521 34.3265C35.4804 34.4216 35.5297 35.317 35.5207 35.5241L34.3347 35.5274C34.3247 35.3271 34.3728 34.4194 34.3056 34.331C34.2419 34.2795 33.1633 34.2795 33.0995 34.331C33.0324 34.4205 33.0805 35.3271 33.0704 35.5274H31.8844C31.8206 34.1183 32.1518 34.303 31.2601 34.303C30.3684 34.303 30.6895 34.1295 30.619 35.5274H29.4363L29.4319 34.3231C29.2853 34.2772 28.2593 34.2828 28.0937 34.3164C28.0803 34.5056 28.1664 34.6846 28.1743 34.8939C28.1877 35.2611 28.2112 36.133 28.1273 36.4598C28.115 36.509 28.0724 36.7284 28.1138 36.7653C28.1731 36.818 34.704 36.7855 35.8329 36.7855C36.2032 36.7855 36.5836 36.7855 36.6765 36.4631L36.6743 36.4598Z" fill="#927D41"/>
<path fill-rule="evenodd" clip-rule="evenodd" d="M23.5967 23.3802C23.7791 23.3679 23.7757 23.3063 24.0218 23.3052C24.1807 23.3052 24.3396 23.3052 24.4985 23.3063C24.4996 23.5045 24.4593 24.4144 24.5276 24.5062C24.6037 24.5566 25.6733 24.5543 25.7359 24.5017C25.7975 24.4222 25.7606 23.4933 25.7628 23.3052H26.9454C26.9577 24.7905 26.7854 24.5308 27.5765 24.5308C28.3675 24.5308 28.2008 24.786 28.2142 23.3052H29.3946C29.4092 24.7782 29.2257 24.5308 30.0067 24.5308C30.7876 24.5308 30.6634 24.673 30.6634 23.9387C30.6634 23.7305 30.6623 23.5224 30.6634 23.3142L31.8461 23.3052C31.8472 23.4933 31.8103 24.4222 31.8729 24.5017C31.9356 24.5543 33.0041 24.5577 33.0813 24.5062C33.1495 24.4144 33.1081 23.5033 33.1104 23.3063H34.2975C34.2986 23.5045 34.2583 24.4144 34.3266 24.5062C34.4027 24.5566 35.4723 24.5543 35.535 24.5017C35.5965 24.4222 35.5596 23.4933 35.5618 23.3052C35.7229 23.3052 35.8841 23.303 36.044 23.3052C36.2846 23.3063 36.2242 23.3679 36.4603 23.3802C36.3517 23.3019 36.4054 23.3142 36.2991 23.2828C36.2085 23.2571 35.6558 23.2437 35.5316 23.294L35.5227 24.4883H34.349C34.2986 24.2577 34.3971 23.4116 34.3076 23.2974C34.2438 23.247 33.1663 23.247 33.1026 23.2974C33.0399 23.3769 33.0768 24.3081 33.0746 24.4961H31.8852C31.8752 23.0668 32.0945 23.2705 31.262 23.2705C30.4296 23.2705 30.6366 23.0097 30.6232 24.4961H29.4383L29.436 23.2896C29.2962 23.2459 28.3161 23.2459 28.1851 23.2896L28.174 24.486L26.9891 24.4972C26.9757 23.0176 27.1569 23.2705 26.3759 23.2705C25.5111 23.2705 25.7359 23.0612 25.7259 24.4928L24.5365 24.4972C24.5253 23.0478 24.6853 23.2716 24.0241 23.2705C23.9491 23.2705 23.8484 23.266 23.7768 23.275C23.6739 23.2873 23.656 23.3119 23.6 23.3791L23.5967 23.3802Z" fill="#876A16"/>
<path fill-rule="evenodd" clip-rule="evenodd" d="M31.8998 22.0416C31.854 21.9095 31.8808 17.1179 31.8808 16.5438C31.8808 16.0524 31.854 11.4075 31.8875 11.0538H34.2931C34.3322 11.4578 34.2998 12.0197 34.2998 12.4406C34.2998 13.5318 34.3311 21.8994 34.2797 22.0438L31.8998 22.0416ZM31.8439 11.1601V21.9543C31.8439 22.0807 31.8618 22.0852 31.9905 22.0852H34.2092C34.3278 22.0852 34.3334 22.0662 34.3334 21.9543V11.1601C34.3334 10.9598 34.2685 11.0157 33.7918 11.0157H32.0397C31.8797 11.0124 31.8428 10.9911 31.8428 11.1601H31.8439Z" fill="#703930"/>
<path fill-rule="evenodd" clip-rule="evenodd" d="M6.82288 31.5295C6.84749 31.7131 7.09364 31.8497 7.17756 31.8698C7.27713 31.8944 9.14899 31.9168 9.20494 31.8541C9.26312 31.7489 9.22732 31.5027 9.22732 31.3628C9.22732 29.7152 6.81392 31.5586 5.80135 29.6738L5.64807 29.3101C5.59996 29.1959 5.55744 28.7471 5.55744 28.6184V26.9965C5.84051 26.9462 7.26371 27.0514 7.36329 26.9562C7.44384 26.8723 7.39238 25.9523 7.39238 25.7586H8.57278C8.57278 25.9993 8.53698 26.8231 8.59963 26.9786C8.7697 27.0044 8.89949 27.0223 9.06844 27.0581L9.4634 27.217C9.55291 27.2652 9.70507 27.3737 9.78227 27.4431C9.94003 27.5864 9.97807 27.6815 10.0687 27.705C10.0396 27.498 9.59654 27.2002 9.30452 27.0962C9.20158 27.0603 9.27319 27.0592 9.10648 27.0156C8.91739 26.9663 8.78872 26.9719 8.62201 26.9339C8.60523 26.7525 8.61642 26.5298 8.61642 26.344C8.61642 26.2478 8.64103 25.7889 8.58285 25.7407C8.4967 25.7027 7.45615 25.7038 7.38455 25.7452C7.29951 25.8706 7.37224 26.7044 7.34874 26.9395C7.04217 26.9697 5.54961 26.8801 5.53842 26.9854C5.5373 26.9965 5.53171 26.9999 5.52947 27.0055L5.51492 27.2058C5.52052 27.6659 5.49255 28.7459 5.52611 29.0481C5.55744 29.3392 5.68499 29.6167 5.82485 29.8272C6.071 30.1954 6.07659 30.1428 6.3619 30.3689C6.41897 30.4136 6.46484 30.4383 6.51854 30.4663L6.69309 30.5524C6.76469 30.5782 6.82064 30.5748 6.90231 30.605C7.27378 30.7438 8.40159 30.5771 8.70145 30.6901C8.8883 30.7595 8.92522 30.7237 9.05501 30.8882C9.21053 31.0852 9.23291 31.5128 9.18256 31.8329C9.08746 31.8564 7.37336 31.8653 7.22567 31.8206C7.09476 31.7814 7.01084 31.7232 6.93141 31.6314L6.82288 31.5295Z" fill="#52653A"/>
<path fill-rule="evenodd" clip-rule="evenodd" d="M28.1273 29.1925C28.1273 29.1925 28.1866 29.1791 28.2023 29.1668C28.2112 28.8679 28.2593 27.5338 28.2023 27.2327C28.1754 27.0928 28.1519 27.1544 28.1351 26.9876H29.3916C29.3916 28.4617 29.2238 28.2121 30.0316 28.2121C30.1961 28.2121 30.525 28.2311 30.6526 28.1953C30.7029 27.9983 30.6716 27.2529 30.6716 26.9988L31.8408 26.9854C31.8408 27.1555 31.7961 28.1124 31.8755 28.1852C31.9326 28.2322 33.0033 28.2367 33.0761 28.1897C33.1365 28.127 33.1163 28.0453 33.1152 27.9367C33.1141 27.8315 33.1152 27.7274 33.1152 27.6222C33.1152 27.4185 33.0906 27.1924 33.1275 26.9954H34.2766C34.3124 27.1846 34.2889 27.4017 34.2889 27.5965C34.2889 27.7062 34.2587 28.1326 34.3281 28.1897C34.3997 28.2367 35.4715 28.2322 35.5286 28.1852C35.6416 28.0722 35.5286 27.2249 35.5778 26.9954L36.2335 26.9988C36.3275 27.0178 36.285 27.0491 36.4472 27.0559C36.4215 27.02 36.4147 26.9686 36.3006 26.9529C36.2245 26.9428 35.6025 26.9204 35.551 26.9764C35.4671 27.1074 35.5465 27.9311 35.5185 28.1706C35.3183 28.1785 34.4746 28.2009 34.3359 28.1561C34.3057 27.8707 34.3762 27.1667 34.3079 26.9563L33.0984 26.9495C33.0302 27.1678 33.1007 27.8718 33.0705 28.1572C32.9317 28.202 32.0881 28.1796 31.8878 28.1718C31.8598 27.9334 31.9393 27.1085 31.8554 26.9775C31.7938 26.9115 30.7242 26.9473 30.6459 26.9585C30.5787 27.207 30.6559 27.8505 30.6213 28.1617L29.4386 28.174L29.4297 26.973C29.2764 26.9216 28.2694 26.9294 28.0938 26.9663C28.0938 27.1667 28.1631 27.2853 28.1754 27.4666V28.9049C28.1676 29.0347 28.1374 29.0661 28.1296 29.1914L28.1273 29.1925Z" fill="#A38B48"/>
<path fill-rule="evenodd" clip-rule="evenodd" d="M25.7673 17.484C25.7673 17.2635 25.7013 17.1841 25.8993 17.1841C26.2473 17.1841 28.0195 17.1695 28.1516 17.1952C28.2109 17.3564 28.1684 21.4764 28.1684 22.0428L25.7717 22.0305L25.7661 17.4829L25.7673 17.484ZM25.7236 17.2758V21.9543C25.7236 22.0707 25.7337 22.0819 25.8512 22.0819C26.3938 22.0819 27.7365 22.1043 28.1907 22.0741C28.212 22.0069 28.212 22.026 28.212 21.9555C28.212 21.3096 28.2366 17.4695 28.1963 17.1583C27.8976 17.1225 26.2786 17.146 25.8512 17.146C25.7315 17.146 25.7236 17.1605 25.7236 17.277V17.2758Z" fill="#844439"/>
<path fill-rule="evenodd" clip-rule="evenodd" d="M19.6206 35.5085C19.6665 35.5812 19.6072 35.523 19.6866 35.551C19.7638 35.5779 20.7563 35.5711 20.8514 35.5376C20.8916 35.2824 20.8077 34.4933 20.886 34.3422L22.0362 34.3388C22.0799 34.556 21.9948 35.4357 22.0776 35.5297C22.1336 35.579 23.2122 35.5823 23.2793 35.5331C23.3677 35.429 23.2793 34.5649 23.3229 34.3411L24.4888 34.3377C24.5313 34.5638 24.4429 35.4279 24.5313 35.532C24.5984 35.5812 25.677 35.5779 25.733 35.5286C25.8158 35.4357 25.7609 34.5291 25.7609 34.3299C26.6046 34.3299 26.2678 34.284 26.7444 34.4709C26.7377 34.406 26.7142 34.3679 26.5867 34.3187C26.5195 34.2929 25.8225 34.2549 25.7531 34.3187C25.6759 34.4295 25.733 35.2958 25.7207 35.5152L24.5414 35.5197C24.5291 35.3059 24.585 34.4306 24.5123 34.3243C24.4407 34.2706 23.3722 34.2706 23.3006 34.3243C23.2278 34.4306 23.2838 35.3059 23.2715 35.5197H22.0922C22.0799 35.2969 22.1369 34.4306 22.0597 34.3198C21.9378 34.2482 21.6267 34.2963 21.4634 34.2963C21.3123 34.2963 20.942 34.2415 20.848 34.3288C20.782 34.4172 20.8323 35.3193 20.82 35.5197L19.6228 35.5085H19.6206Z" fill="#7E6214"/>
<path fill-rule="evenodd" clip-rule="evenodd" d="M14.167 35.1448L14.6996 34.4844C14.7432 35.7615 14.4814 35.5555 15.3217 35.5555C16.0881 35.5555 15.9617 35.701 15.9617 34.9679C15.9617 34.7642 15.937 34.537 15.9751 34.3411L17.1297 34.3355C17.2036 34.4967 17.123 35.278 17.1622 35.5354C17.2584 35.5679 18.2676 35.5723 18.3258 35.5499C18.403 35.5197 18.3392 35.5667 18.3907 35.5063L17.1958 35.5186C17.1812 35.3115 17.236 34.424 17.1678 34.3277C17.104 34.2561 16.6732 34.2941 16.577 34.2941C16.4226 34.2941 16.0612 34.2572 15.9538 34.3176C15.8733 34.4374 15.9348 35.288 15.9203 35.513L14.7443 35.5175C14.7253 35.2254 14.8003 34.5919 14.6951 34.3949C14.5922 34.4643 14.5183 34.6277 14.4288 34.7542C14.3348 34.8851 14.1916 34.9993 14.1681 35.1437L14.167 35.1448Z" fill="#745C13"/>
<path fill-rule="evenodd" clip-rule="evenodd" d="M8.92202 28.2972C8.97572 28.399 9.06187 28.4494 9.10215 28.5456C9.14803 28.6542 9.15362 28.7225 9.20845 28.8187C9.38858 28.8389 10.3407 28.8602 10.4336 28.7964C10.4683 28.7594 10.4851 28.4942 10.4101 28.333C10.3732 28.2535 10.3888 28.2311 10.3676 28.1539L10.1852 27.8013C10.1158 27.6928 10.1528 27.714 10.0677 27.7051C10.0868 27.7577 10.0677 27.7152 10.0912 27.7588C10.2065 27.986 10.5007 28.4695 10.4 28.7863C10.0834 28.7964 9.76117 28.7863 9.44341 28.7885C9.11894 28.7919 9.28341 28.7874 9.18047 28.5658L9.03614 28.3475C8.96342 28.2927 8.98579 28.3184 8.9209 28.2972H8.92202Z" fill="#799556"/>
</g>
<defs>
<clipPath id="clip0_1018_842">
<rect width="38" height="38" fill="white"/>
</clipPath>
</defs>
</svg>
