<svg width="37" height="38" viewBox="0 0 37 38" fill="none" xmlns="http://www.w3.org/2000/svg">
<g clip-path="url(#clip0_1018_868)">
<path fill-rule="evenodd" clip-rule="evenodd" d="M6.96207 22.6672H4.73788C4.29224 22.6672 3.93066 23.0255 3.93066 23.4671V31.3292C3.93066 31.7708 4.29224 32.1291 4.73788 32.1291H7.83867C8.28431 32.1291 8.64589 31.7708 8.64589 31.3292V23.4671C8.64589 23.3521 8.62188 23.2423 8.57651 23.1432C8.45109 22.8629 8.1669 22.6672 7.83734 22.6672H6.96207Z" fill="#FFEDDF"/>
<path fill-rule="evenodd" clip-rule="evenodd" d="M19.453 26.5012V10.7292C16.092 12.8564 10.6149 14.3397 9.94511 14.5169C9.86105 14.5473 9.76899 14.5632 9.67426 14.5632H8.57617V22.6699H9.65691C9.7303 22.6686 9.80368 22.6765 9.8784 22.6963L9.87706 22.699C9.97046 22.7201 15.8972 24.2497 19.453 26.5012Z" fill="#FFEDDF"/>
<path fill-rule="evenodd" clip-rule="evenodd" d="M6.96192 22.6673V14.5605H5.56096C4.47622 14.5605 3.49021 15.0008 2.77372 15.7094C2.05856 16.418 1.61426 17.3963 1.61426 18.4711V18.7567C1.61426 19.8315 2.05856 20.8085 2.77372 21.5184C3.48887 22.227 4.47622 22.6673 5.56096 22.6673H6.96192Z" fill="#FFEDDF"/>
<path fill-rule="evenodd" clip-rule="evenodd" d="M21.0674 18.6138V20.5638C21.4423 20.4779 21.7759 20.2888 22.0387 20.0284C22.4043 19.6661 22.6298 19.1664 22.6298 18.6125C22.6298 18.0585 22.4043 17.5588 22.0387 17.1966C21.7759 16.9361 21.441 16.7471 21.0674 16.6611V18.6138Z" fill="#FFEDDF"/>
<path fill-rule="evenodd" clip-rule="evenodd" d="M26.7344 21.3664H35.7886V15.8628H26.7344V21.3664ZM31.3789 18.614L30.7011 19.0886V18.1393L31.3789 18.614Z" fill="#F45A52"/>
<path d="M9.57989 12.9609C10.4952 12.7177 17.0917 10.9065 19.7202 8.54796L19.7175 8.54532C20.0484 8.24918 20.5581 8.27298 20.8583 8.60084C20.9984 8.7542 21.0678 8.94589 21.0678 9.13759V28.0917C21.0678 28.5332 20.7062 28.8915 20.2605 28.8915C20.0284 28.8915 19.8202 28.795 19.6721 28.639C17.013 26.3003 10.4898 24.5089 9.57989 24.267H5.56114C4.03076 24.267 2.64047 23.647 1.63312 22.6488C0.625762 21.6507 0 20.2731 0 18.7567V18.4712C0 16.9548 0.625762 15.5772 1.63312 14.5791C2.64047 13.581 4.03076 12.9609 5.56114 12.9609H9.57989ZM19.4533 10.728C16.0924 12.8552 10.6153 14.3385 9.94548 14.5156C9.86142 14.546 9.76935 14.5619 9.67462 14.5619H5.56114C4.4764 14.5619 3.49039 15.0022 2.7739 15.7108C2.05874 16.4194 1.61444 17.3977 1.61444 18.4725V18.7581C1.61444 19.8329 2.05874 20.8099 2.7739 21.5198C3.48906 22.2284 4.4764 22.6687 5.56114 22.6687H9.65861C9.732 22.6673 9.80538 22.6753 9.8801 22.6951L9.87876 22.6977C9.96949 22.7215 15.8976 24.2511 19.4533 26.5026V10.728Z" fill="#333333"/>
<path d="M8.57782 13.7608C8.57782 13.3192 8.21624 12.9609 7.7706 12.9609C7.32496 12.9609 6.96338 13.3192 6.96338 13.7608V23.4672C6.96338 23.9087 7.32496 24.267 7.7706 24.267C8.21624 24.267 8.57782 23.9087 8.57782 23.4672V13.7608Z" fill="#333333"/>
<path d="M20.6114 15.0127C20.1658 15.0127 19.8042 15.371 19.8042 15.8125C19.8042 16.2541 20.1658 16.6124 20.6114 16.6124C21.1691 16.6124 21.6748 16.8358 22.0404 17.198C22.406 17.5603 22.6315 18.06 22.6315 18.6139C22.6315 19.1679 22.406 19.6676 22.0404 20.0298C21.6748 20.3921 21.1705 20.6155 20.6114 20.6155C20.1658 20.6155 19.8042 20.9738 19.8042 21.4153C19.8042 21.8569 20.1658 22.2152 20.6114 22.2152C21.6148 22.2152 22.5234 21.8119 23.1812 21.1602C23.839 20.5084 24.2459 19.6081 24.2459 18.6139C24.2459 17.6198 23.839 16.7194 23.1812 16.0677C22.5234 15.4159 21.6148 15.0127 20.6114 15.0127Z" fill="#333333"/>
<path d="M4.73788 22.6672H7.83867C8.28431 22.6672 8.64589 23.0255 8.64589 23.4671V31.3292C8.64589 31.7708 8.28431 32.1291 7.83867 32.1291H4.73788C4.29224 32.1291 3.93066 31.7708 3.93066 31.3292V23.4671C3.93066 23.0255 4.29224 22.6672 4.73788 22.6672ZM7.03145 24.2669H5.5451V30.5294H7.03145V24.2669Z" fill="#333333"/>
<path d="M22.2751 5.14636L31.1292 0.0816351V0.080313C31.4187 -0.0849417 31.7896 0.0128891 31.9564 0.299771C31.9631 0.31167 31.9697 0.323568 31.9764 0.335466L35.3387 6.10484H35.34C35.5068 6.39172 35.4081 6.75925 35.1185 6.9245C35.1025 6.93376 35.0852 6.94301 35.0692 6.94962L26.2258 12.0077L26.2271 12.0104C25.9376 12.1756 25.5667 12.0778 25.3999 11.7909C25.3906 11.7751 25.3812 11.7579 25.3745 11.742L22.0202 5.98453L22.0176 5.98586C21.8508 5.69897 21.9495 5.33145 22.2391 5.16619C22.2511 5.15826 22.2631 5.15165 22.2751 5.14636ZM31.2105 1.41689L23.3652 5.90521L26.1444 10.6751L33.9898 6.18681L31.2105 1.41689Z" fill="#333333"/>
<path d="M31.9819 0.852383L29.5455 6.79627V6.79759C29.4334 7.07125 29.1412 7.218 28.8597 7.1585L22.4593 6.27935V6.28067C22.1284 6.23572 21.8963 5.93165 21.943 5.60379C21.9723 5.39887 22.1018 5.2323 22.2765 5.14636L31.1293 0.0816351V0.080313C31.4188 -0.0849417 31.7897 0.0128891 31.9565 0.299771C32.0592 0.47428 32.0619 0.680518 31.9819 0.852383ZM28.6009 5.91314L30.2086 1.98934L24.3673 5.33145L28.6009 5.91314Z" fill="#333333"/>
<path d="M26.1287 14.6624H36.3944C36.7293 14.6624 37.0001 14.9307 37.0001 15.2626V21.9666C37.0001 22.2984 36.7293 22.5668 36.3944 22.5668H26.1287C25.7938 22.5668 25.5229 22.2984 25.5229 21.9666V15.2626C25.5229 14.9307 25.7938 14.6624 26.1287 14.6624ZM35.7886 15.8628H26.7344V21.3664H35.7886V15.8628Z" fill="#333333"/>
<path d="M32.7435 19.1256L30.4446 20.7358V20.7371C30.1711 20.9288 29.7935 20.864 29.6 20.593C29.524 20.4873 29.488 20.3643 29.4893 20.244V16.9825C29.4893 16.6507 29.7601 16.3823 30.095 16.3823C30.2391 16.3823 30.3699 16.4312 30.474 16.5145L32.7742 18.1248H32.7755C33.0491 18.3165 33.1131 18.6906 32.921 18.9616C32.8716 19.029 32.8116 19.0846 32.7435 19.1256ZM30.7008 19.0885L31.3786 18.6139L30.7008 18.1393V19.0885Z" fill="#333333"/>
<path d="M33.9911 31.8146L26.1457 27.3263L23.3665 32.0962L31.2119 36.5845L33.9911 31.8146ZM26.2271 25.9911L35.0812 31.0558C35.0932 31.0624 35.1052 31.0677 35.1172 31.0756C35.4067 31.2409 35.5055 31.6084 35.3387 31.8953L35.336 31.894L31.9817 37.6514C31.9737 37.6686 31.9657 37.6845 31.9564 37.7003C31.7896 37.9872 31.4187 38.0851 31.1292 37.9198L31.1305 37.9172L22.2884 32.859C22.2711 32.8511 22.2551 32.8432 22.2391 32.8339C21.9495 32.6687 21.8508 32.3011 22.0176 32.0143H22.0189L25.3812 26.2449C25.3879 26.233 25.3932 26.2211 25.4012 26.2092C25.568 25.9223 25.9389 25.8245 26.2285 25.9897L26.2271 25.9911Z" fill="#333333"/>
<path d="M28.6782 30.1355C29.1852 30.1355 29.6442 30.3391 29.9764 30.6683C30.3087 30.9975 30.5141 31.4522 30.5141 31.9546C30.5141 32.457 30.3087 32.9118 29.9764 33.241C29.6442 33.5702 29.1852 33.7737 28.6782 33.7737C28.1712 33.7737 27.7122 33.5702 27.38 33.241C27.0478 32.9118 26.8423 32.457 26.8423 31.9546C26.8423 31.4522 27.0478 30.9975 27.38 30.6683C27.7122 30.3391 28.1712 30.1355 28.6782 30.1355ZM29.1198 31.517C29.0064 31.4047 28.8503 31.3359 28.6782 31.3359C28.5061 31.3359 28.35 31.4047 28.2366 31.517C28.1232 31.6294 28.0538 31.7841 28.0538 31.9546C28.0538 32.1252 28.1232 32.2798 28.2366 32.3922C28.35 32.5046 28.5061 32.5733 28.6782 32.5733C28.8503 32.5733 29.0064 32.5046 29.1198 32.3922C29.2333 32.2798 29.3026 32.1252 29.3026 31.9546C29.3026 31.7841 29.2333 31.6294 29.1198 31.517Z" fill="#333333"/>
<path d="M31.7457 30.8958C31.4575 30.7306 31.0879 30.8271 30.9198 31.114C30.753 31.3995 30.8504 31.7657 31.1399 31.9323L32.3287 32.6132C32.6169 32.7784 32.9865 32.6819 33.1546 32.395C33.3214 32.1095 33.224 31.7433 32.9345 31.5767L31.7457 30.8958Z" fill="#333333"/>
<path fill-rule="evenodd" clip-rule="evenodd" d="M26.1459 27.3262L23.3667 32.0961L31.2121 36.5844L33.9913 31.8145L26.1459 27.3262ZM27.3801 30.6684C27.7123 30.3392 28.1713 30.1356 28.6783 30.1356C29.1853 30.1356 29.6443 30.3392 29.9766 30.6684C30.3088 30.9976 30.5143 31.4524 30.5143 31.9548C30.5143 32.4571 30.3088 32.9119 29.9766 33.2411C29.6443 33.5703 29.1853 33.7739 28.6783 33.7739C28.1713 33.7739 27.7123 33.5703 27.3801 33.2411C27.0479 32.9119 26.8424 32.4571 26.8424 31.9548C26.8424 31.4524 27.0479 30.9976 27.3801 30.6684ZM30.9199 31.1138C31.0866 30.8283 31.4562 30.7304 31.7458 30.8957L32.9346 31.5765C33.2228 31.7418 33.3215 32.108 33.1547 32.3949C32.988 32.6804 32.6184 32.7783 32.3288 32.613L31.14 31.9322C30.8518 31.7656 30.7531 31.3994 30.9199 31.1138Z" fill="#9DD5C0"/>
<path fill-rule="evenodd" clip-rule="evenodd" d="M26.1461 10.6751L33.9915 6.18676L31.5285 1.96021L29.5471 6.79622V6.79754C29.435 7.0712 29.1428 7.21795 28.8613 7.15846L23.6831 6.4472L26.1461 10.6751Z" fill="#FECA5F"/>
<path fill-rule="evenodd" clip-rule="evenodd" d="M28.6008 5.91307L30.2085 1.98926L24.3672 5.33137L28.6008 5.91307Z" fill="#FECA5F"/>
<path fill-rule="evenodd" clip-rule="evenodd" d="M29.1198 31.5171C29.0064 31.4047 28.8503 31.3359 28.6781 31.3359C28.506 31.3359 28.3499 31.4047 28.2365 31.5171C28.1231 31.6294 28.0537 31.7841 28.0537 31.9547C28.0537 32.1252 28.1231 32.2799 28.2365 32.3922C28.3499 32.5046 28.506 32.5734 28.6781 32.5734C28.8503 32.5734 29.0064 32.5046 29.1198 32.3922C29.2332 32.2799 29.3026 32.1252 29.3026 31.9547C29.3026 31.7841 29.2332 31.6294 29.1198 31.5171Z" fill="#9DD5C0"/>
<path fill-rule="evenodd" clip-rule="evenodd" d="M30.7012 19.0886L31.379 18.614L30.7012 18.1394V19.0886Z" fill="#F45A52"/>
</g>
<defs>
<clipPath id="clip0_1018_868">
<rect width="37" height="38" fill="white"/>
</clipPath>
</defs>
</svg>
