<svg width="42" height="42" viewBox="0 0 42 42" fill="none" xmlns="http://www.w3.org/2000/svg">
<g clip-path="url(#clip0_1018_927)">
<path fill-rule="evenodd" clip-rule="evenodd" d="M10.2098 20.5894C10.0573 20.5649 9.82701 20.6013 9.67374 20.6267C8.82104 20.7655 8.3731 20.5411 8.0437 20.5852C8.00899 20.9501 8.00475 21.874 8.11568 22.1881C8.22407 22.4946 8.64661 22.8427 9.12758 22.8444C9.31725 22.8444 9.65173 22.6996 9.74657 22.6284C9.95657 22.4692 10.0125 22.4184 10.1251 22.1661C10.2521 21.8807 10.2377 20.9849 10.2098 20.5903V20.5894Z" fill="#FBBA83"/>
<path fill-rule="evenodd" clip-rule="evenodd" d="M31.8402 22.0636C31.8512 22.2931 32.2399 22.7859 32.7623 22.8384C33.1637 22.8791 33.4415 22.7504 33.693 22.4642C33.7598 22.3888 33.8242 22.3075 33.8581 22.2101C33.8835 22.0399 33.9317 22.0221 33.9428 21.8308C33.9563 21.5962 33.969 20.7046 33.9207 20.5801C33.8809 20.5792 33.5355 20.6343 33.4677 20.6504C32.9275 20.7808 32.0096 20.5902 31.8267 20.6046L31.8411 22.0636H31.8402Z" fill="#FBBA83"/>
<path fill-rule="evenodd" clip-rule="evenodd" d="M14.0149 12.152V13.2723C14.0149 13.5241 14.0792 13.7247 14.2079 13.8743C14.4543 14.1605 14.8235 14.1038 15.2317 14.1038C15.4222 14.1038 15.4214 14.1106 15.4214 13.9167C15.4214 13.401 15.4476 11.7303 15.4019 11.3391C14.948 11.2925 14.2266 11.2485 14.0428 11.7726C14.0064 11.8768 14.0157 12.0394 14.0157 12.1528L14.0149 12.152Z" fill="#FBBA83"/>
<path fill-rule="evenodd" clip-rule="evenodd" d="M17.8357 27.3024C18.0372 27.2355 18.1964 26.979 18.3844 26.8139L18.5038 26.7089C18.7485 26.5048 19.4005 25.8265 19.6783 25.5581C20.0686 25.1804 20.0077 25.2626 19.5242 24.9399L18.2252 24.1372C18.0753 24.0381 17.784 23.8891 17.7324 23.6003C17.6858 23.3395 17.8238 22.9712 17.5783 23.2015C17.2963 23.4657 16.9618 23.7426 16.6578 24.05C16.3445 24.3675 16.2785 24.1033 16.6714 24.9315L17.4199 26.4557C17.5165 26.614 17.7256 27.1551 17.8357 27.3016V27.3024Z" fill="#B0E3F8"/>
<path fill-rule="evenodd" clip-rule="evenodd" d="M24.1644 27.3025L24.2973 27.0367C24.316 26.9952 24.321 26.9892 24.3439 26.9435L24.5861 26.427C24.5954 26.4058 24.6039 26.3855 24.6123 26.3686L24.8079 26.0104C24.8384 25.9528 24.8723 25.8791 24.9002 25.8224L25.4464 24.6869C25.5641 24.4455 25.6031 24.4405 25.5971 24.2677C25.548 24.2254 25.5057 24.1805 25.4481 24.1373L24.8172 23.5649C24.7478 23.5073 24.736 23.4675 24.6614 23.4116C24.4548 23.2558 24.4421 23.1754 24.3033 23.144C24.299 23.1517 24.2956 23.1542 24.2939 23.1669C24.2931 23.1796 24.2872 23.1838 24.2855 23.1906L24.2719 23.3794C24.2745 23.6089 24.2448 23.8011 24.0441 23.9595L23.3938 24.3744C23.1533 24.5099 22.9628 24.6538 22.7477 24.7902L22.0805 25.1907C21.9602 25.3084 22.2109 25.4693 22.3608 25.6014C22.6156 25.8258 23.4065 26.6666 23.5818 26.7903C23.7503 26.9096 23.9993 27.2661 24.1627 27.3017L24.1644 27.3025Z" fill="#B0E3F8"/>
<path fill-rule="evenodd" clip-rule="evenodd" d="M20.1203 19.0897C20.161 19.1219 20.1271 19.1033 20.1923 19.1245C20.2304 19.1372 20.2524 19.1372 20.2914 19.1456C20.6276 19.2159 20.4599 19.1939 20.8604 19.1981C21.1585 19.2015 21.747 19.1753 22.001 19.0931L23.4422 18.4597C23.8318 18.2269 24.4855 17.5867 24.6802 17.1709L25.0833 16.3428C25.3314 15.5697 25.3475 15.3826 25.3475 14.5036C25.3475 13.4028 25.378 12.258 25.3449 11.1622C25.19 11.0615 24.8623 10.9124 24.5964 10.7363C24.5541 10.7084 24.5244 10.6906 24.4829 10.6559L23.7632 9.95728C23.7649 10.097 23.8233 10.1156 23.8233 10.3307C23.8233 10.462 23.8224 10.5924 23.8224 10.7236C23.8224 11.9074 23.8699 14.5841 23.7894 15.5688C23.7826 15.6535 23.7877 15.6942 23.7657 15.7661C23.7437 15.8364 23.7378 15.8034 23.7234 15.9296C23.7047 16.0947 23.6311 16.3293 23.5608 16.4783C23.5515 16.4986 23.5481 16.5079 23.5362 16.5376C23.499 16.6307 23.471 16.7281 23.4245 16.8187C23.3135 17.0355 23.333 17.0947 23.162 17.3691L22.913 17.7366C22.8063 17.9229 22.836 17.828 22.7369 17.9796L22.0933 18.6494C21.885 18.8399 21.7419 18.9068 21.5565 19.0652C21.3947 19.204 20.6665 19.188 20.4811 19.1355C20.3388 19.0957 20.2982 19.044 20.1187 19.0889L20.1203 19.0897Z" fill="#FEBC86"/>
<path fill-rule="evenodd" clip-rule="evenodd" d="M19.0693 23.2L20.3852 24.0485C20.3903 24.0518 20.397 24.0569 20.4021 24.0603C20.4072 24.0637 20.414 24.0688 20.4182 24.0722L20.5596 24.1535C20.6629 24.217 20.9034 24.3838 21.0008 24.3838C21.0736 24.3838 21.2048 24.3025 21.2751 24.2661L21.4978 24.1255C21.5029 24.1221 21.5105 24.1187 21.5156 24.1154C21.5478 24.0959 21.5266 24.1103 21.5664 24.084L22.9314 23.2008C22.9534 23.0865 22.9653 23.1195 22.9712 22.9891L22.9644 21.415C22.7443 21.4014 22.3709 21.5581 22.0076 21.5716C21.8205 21.5784 21.6917 21.6106 21.5165 21.6352C20.9059 21.7198 20.3911 21.5886 19.9923 21.5725C19.7611 21.5632 19.7391 21.5022 19.5172 21.4861C19.2818 21.47 19.2649 21.3997 19.0371 21.415C19.0159 21.6987 19.0312 22.0281 19.0312 22.316C19.0312 22.7021 19.0032 22.857 19.0701 23.2H19.0693Z" fill="#FEBC86"/>
<path fill-rule="evenodd" clip-rule="evenodd" d="M36.7466 29.9605C36.6204 30.1188 36.6619 30.2323 36.6619 30.4643C36.6619 30.7573 36.6873 31.9191 36.6416 32.0444L35.4442 32.0317C35.4053 31.7684 35.4341 29.8902 35.4282 29.3144C35.4248 28.9528 35.4028 29.123 35.3943 29.0714C35.3934 29.0646 35.385 29.0663 35.3807 29.0638C35.374 28.9342 35.3621 28.7191 35.3392 28.5989C35.3282 28.5388 35.2961 28.4871 35.28 28.4134C35.2647 28.3415 35.2681 28.2856 35.252 28.2136L35.0878 27.6242C34.9726 27.2838 35.0158 27.5099 34.948 27.36C34.9167 27.2906 34.843 27.0205 34.7448 26.8283C34.6822 26.7046 34.6339 26.609 34.5746 26.4946L34.3959 26.1983C34.357 26.1331 34.3434 26.0933 34.307 26.034C34.3053 26.0306 34.274 25.9832 34.2732 25.9832L34.0259 25.6402C33.7465 25.3151 33.4933 24.9163 33.0623 24.5869L32.544 24.1482C32.7617 24.1372 32.9124 24.1931 33.1503 24.1381C33.2443 24.1161 33.2867 24.0966 33.3807 24.0737C33.4281 24.0627 33.4365 24.0686 33.4907 24.0424C33.6042 23.9882 33.5432 24.0195 33.5991 23.9611C33.4484 23.9746 33.4755 23.9865 33.3646 24.0144C33.2181 24.0509 32.6914 24.0381 32.5347 24.0322C31.9327 24.0085 31.638 23.6732 31.4068 23.5301C31.2256 23.4183 31.1265 23.2422 31.0156 23.1075C30.9665 23.0483 30.9411 23.0042 30.8979 22.9433C30.627 22.5563 30.853 22.4589 30.2535 22.6875C29.9114 22.8179 29.278 22.9221 28.8936 23.094C28.7954 23.138 28.7573 23.1169 28.654 23.1431C28.5862 23.16 28.5312 23.199 28.4397 23.2261C28.2992 23.2684 28.1154 23.3396 27.9909 23.3675L27.4973 23.492C27.493 23.4945 27.4863 23.4996 27.4812 23.5021C27.4761 23.5047 27.4702 23.5098 27.4651 23.5123L27.0908 23.6579C27.2077 23.7748 27.9859 23.9128 28.1942 23.9653L29.3263 24.2575C29.4999 24.3006 29.5693 24.2668 29.7387 24.3311C29.8538 24.3752 30.0071 24.4158 30.135 24.4429C30.2637 24.47 30.3441 24.5259 30.4694 24.5759C30.5304 24.6004 30.5795 24.6089 30.6371 24.6334C31.074 24.8206 31.6261 25.1627 31.9894 25.4616L32.4958 25.9341C32.6109 26.0204 32.6465 26.0763 32.7312 26.1754C33.0047 26.5006 33.5017 27.2737 33.633 27.6827L33.8252 28.2136C33.8278 28.2204 33.8311 28.2271 33.8337 28.2339L33.9632 28.8046C34.0733 29.5363 34.0445 29.3034 34.0445 30.1815C34.0445 30.7946 34.0107 31.5135 34.0513 32.113C34.1512 32.1274 36.214 32.1519 36.5688 32.1282C36.6069 32.1257 36.6111 32.1274 36.6484 32.1172C36.7085 32.1011 36.6805 32.1121 36.7186 32.0859C36.7872 31.9292 36.739 30.2907 36.7457 29.9579L36.7466 29.9605Z" fill="#5391F8"/>
<path fill-rule="evenodd" clip-rule="evenodd" d="M8.70807 24.0425C8.85118 24.2415 9.21783 24.1441 9.45662 24.1492C9.4346 24.1983 9.05271 24.4803 8.97904 24.5463L8.42779 25.0891C8.18476 25.377 7.95021 25.6183 7.73851 25.9697C7.73513 25.9757 7.73174 25.9824 7.72835 25.9884L7.70803 26.0248C7.6894 26.0561 7.68517 26.062 7.66485 26.0925C7.35747 26.5591 7.42097 26.5438 7.26601 26.8428C7.26347 26.8478 7.25839 26.8546 7.25585 26.8597L6.90698 27.7513C6.88835 27.8572 6.91376 27.8436 6.86972 27.9292C6.81638 28.0316 6.74017 28.306 6.73339 28.4491C6.56658 28.5939 6.71476 28.5405 6.62247 28.9571C6.4565 29.7049 6.68513 31.4653 6.54541 32.075L7.91718 32.0699C7.97307 31.3188 7.91295 30.4263 7.92819 29.6532C7.93497 29.2891 7.93158 28.9174 8.03997 28.5626L8.1763 28.0841C8.21355 27.9275 8.21525 27.9724 8.25335 27.8623C8.27368 27.8055 8.25674 27.8157 8.28638 27.7598L8.35073 27.6828C8.35412 27.6692 8.36513 27.6701 8.3719 27.6641L8.56581 27.2424C8.57174 27.2297 8.60476 27.1688 8.61577 27.151L9.00275 26.5608C9.10436 26.4329 9.12214 26.3508 9.27033 26.2085C9.27456 26.2043 9.28134 26.1992 9.28557 26.195C9.45323 26.04 9.36686 26.0553 9.51928 25.9249C9.69202 25.7775 9.78771 25.6437 10.0417 25.4396C10.0934 25.3982 10.14 25.3363 10.1992 25.2923C10.2695 25.2407 10.3237 25.2127 10.4008 25.1577C10.8428 24.8452 11.4474 24.5598 11.9775 24.4345L12.4915 24.283C12.8886 24.2245 13.1909 24.0967 13.5533 24.0281L14.3205 23.8172C14.4424 23.7664 14.5889 23.7986 14.7422 23.7326L14.8497 23.6487L13.5592 23.2287C13.483 23.205 13.4144 23.1957 13.3382 23.1686L11.7785 22.7088C11.1874 22.5039 11.3669 22.5284 10.9224 23.2169C10.7505 23.4828 10.2196 23.8392 9.85799 23.9468C9.70303 23.9925 9.82581 23.9798 9.69372 24.0213C9.4219 24.1077 8.98073 24.0518 8.70807 24.0416V24.0425Z" fill="#5391F8"/>
<path fill-rule="evenodd" clip-rule="evenodd" d="M0.569824 28.588V30.1563C0.642647 30.2045 0.723937 30.1834 0.82301 30.2308C1.3387 30.4806 1.23115 30.8532 1.23115 31.5001C1.23115 31.7059 1.18966 32.1005 1.29382 32.1377C1.33107 32.1513 3.87478 32.1546 4.01874 32.1309C4.07547 31.5915 4.0289 30.7786 4.02805 30.2113C4.0272 29.6685 4.33289 29.4577 4.81809 29.5271C4.95103 29.5466 5.04079 29.627 5.12801 29.7075C5.38882 29.8438 5.327 30.5653 5.327 30.771C5.327 31.1817 5.30329 31.6686 5.33378 32.07L6.54551 32.0734C6.68607 31.4637 6.4566 29.7024 6.62257 28.9555C6.71486 28.5398 6.56753 28.5923 6.73349 28.4475C6.74027 28.3052 6.81648 28.0309 6.86982 27.9275C6.91386 27.842 6.88845 27.8556 6.90708 27.7497L7.25595 26.8581C7.25849 26.853 7.26357 26.8462 7.26611 26.8411C7.42107 26.5431 7.35757 26.5575 7.66494 26.0909C7.68527 26.0604 7.6895 26.0545 7.70813 26.0232L7.72845 25.9867C7.73184 25.9808 7.73523 25.974 7.73861 25.9681C7.95031 25.6167 8.18402 25.3762 8.42789 25.0875L8.97914 24.5447C9.05281 24.4778 9.4347 24.1958 9.45672 24.1475C9.21878 24.1425 8.85128 24.2398 8.70817 24.0409C8.36099 24.0163 7.88087 23.7326 7.62769 23.5345C7.24749 23.2364 7.1374 22.896 6.94434 22.5844C6.78938 22.5751 5.58019 22.9443 5.27111 23.0315C5.21607 23.0467 5.17374 23.0544 5.12124 23.073C4.85874 23.1687 4.98914 23.0679 4.75204 23.1788L3.6597 23.5387C3.53099 23.5777 3.51406 23.5955 3.37434 23.6463C3.27781 23.681 3.20837 23.7233 3.11777 23.7792C2.53095 24.1365 2.07962 24.4964 1.73753 25.1188C1.41829 25.7014 1.23793 26.1823 1.232 26.9072C1.22777 27.4042 1.30736 28.0656 1.0889 28.3332C1.02878 28.406 0.962727 28.4525 0.869582 28.5042C0.7468 28.5719 0.660429 28.5321 0.570671 28.588H0.569824Z" fill="#61A3FB"/>
<path fill-rule="evenodd" clip-rule="evenodd" d="M33.6 23.9629C33.5441 24.0205 33.6051 23.99 33.4916 24.0442C33.4374 24.0696 33.429 24.0637 33.3815 24.0756C33.2867 24.0984 33.2444 24.1179 33.1512 24.1399C32.9133 24.195 32.7625 24.1399 32.5449 24.1501L33.0631 24.5887C33.495 24.9181 33.7473 25.3178 34.0268 25.6421L34.274 25.985C34.274 25.985 34.3054 26.0325 34.3079 26.0358C34.3452 26.0951 34.3587 26.1349 34.3968 26.2001L34.5755 26.4965C34.6348 26.6108 34.683 26.7065 34.7457 26.8301C34.8431 27.0223 34.9176 27.2925 34.9489 27.3619C35.0158 27.5109 34.9735 27.2848 35.0886 27.6261L35.2529 28.2154C35.269 28.2874 35.2656 28.3433 35.2808 28.4153C35.2969 28.489 35.3283 28.5415 35.3401 28.6007C35.363 28.721 35.374 28.9361 35.3816 29.0656C35.3858 29.069 35.3943 29.0673 35.3952 29.0732C35.4036 29.124 35.4256 28.9547 35.429 29.3163C35.4341 29.8921 35.4053 31.7702 35.4451 32.0336L36.6425 32.0463C36.6882 31.9201 36.6628 30.7592 36.6628 30.4662C36.6628 30.2333 36.6204 30.1207 36.7475 29.9623C36.7593 29.8158 36.7373 29.8235 36.8508 29.7142L36.9693 29.6059C37.0633 29.5195 37.1463 29.4966 37.3072 29.4721C37.5561 29.4348 37.85 29.6262 37.9456 29.9285C38.0498 30.2596 37.9304 31.633 37.9829 32.1335C38.1345 32.158 40.5723 32.1682 40.685 32.1453C40.8018 32.1208 40.773 32.0403 40.7713 31.8955L40.7696 30.8574C40.7696 30.6321 40.8323 30.4899 40.9534 30.3705C41.1143 30.2121 41.1583 30.2003 41.4411 30.1698L41.4369 28.5906C41.1524 28.4 40.7688 28.5804 40.7696 27.7226C40.7705 26.8725 40.8077 26.7421 40.6164 25.9444C40.5452 25.6463 40.3496 25.2238 40.2209 25.0197L39.9466 24.6514C39.5977 24.2195 39.4986 24.2356 39.2454 24.0358C39.2412 24.0324 39.2344 24.0265 39.2302 24.0231L38.9999 23.8613C38.5841 23.5912 38.22 23.5065 37.7475 23.3541C37.5638 23.2948 37.3216 23.2457 37.1497 23.167C37.0591 23.1255 36.9346 23.128 36.8279 23.0899L35.5078 22.6589C35.3689 22.6157 35.1606 22.5505 35.0285 22.5615C34.8812 23.0781 34.4781 23.4498 34.0759 23.7445C33.9582 23.8308 33.7414 23.9062 33.6008 23.9646L33.6 23.9629Z" fill="#61A3FB"/>
<path fill-rule="evenodd" clip-rule="evenodd" d="M8.73726 9.51347C8.4231 9.5592 7.94213 9.6371 7.66778 9.77259L7.13431 10.0749C6.97004 10.1816 6.67621 10.395 6.5475 10.5508C6.4027 10.7277 6.32818 10.7718 6.13342 11.0309C6.13004 11.036 6.12496 11.0427 6.12157 11.047C5.93951 11.2925 5.93359 11.4238 5.78794 11.6668C5.73883 11.7481 5.73713 11.7777 5.70411 11.8607C5.5881 12.1503 5.50342 12.4374 5.4958 12.7388L5.49072 15.96C5.50596 16.6543 5.60588 16.6721 5.72443 17.0608C5.94459 17.778 6.49415 18.4952 7.15125 18.8593C7.23169 18.9042 7.26133 18.9144 7.33415 18.9584C7.34177 18.9626 7.36125 18.9753 7.36887 18.9796L7.5323 19.0473C7.6881 19.115 7.92181 19.2344 8.11826 19.2751C8.36213 19.3259 8.23258 19.3267 8.55266 19.3716C8.63141 19.3826 8.68052 19.3979 8.7508 19.4165C9.12084 19.5122 9.81097 19.3869 10.2073 19.2751C10.4545 19.2057 10.9025 18.9796 11.126 18.8263L11.6781 18.4012C12.3123 17.6298 12.2234 17.6899 12.6079 16.8415C12.6451 16.7585 12.6358 16.7017 12.6637 16.6179C12.8348 16.0946 12.7823 14.617 12.7823 14.0276C12.7823 13.6847 12.7984 13.3019 12.7798 12.9641C12.7679 12.7448 12.6629 12.1867 12.5816 11.9674C12.3445 11.329 11.9736 10.7354 11.4148 10.3094L11.1184 10.1003C10.4672 9.65404 9.61875 9.38392 8.73556 9.51263L8.73726 9.51347Z" fill="#FDD1A3"/>
<path fill-rule="evenodd" clip-rule="evenodd" d="M32.5084 9.51357C31.8148 9.61519 31.4346 9.71002 30.8622 10.1122L30.764 10.1817C30.7589 10.1851 30.7521 10.1893 30.7471 10.1927C30.742 10.1961 30.7352 10.2003 30.7301 10.2037C30.7259 10.2062 30.6827 10.2367 30.6802 10.2384C30.4287 10.4188 30.2669 10.5991 30.0629 10.8269C29.8927 11.0158 29.6039 11.4654 29.537 11.6373C29.5218 11.6771 29.5209 11.7008 29.5031 11.7474L29.3863 12.0209C29.3346 12.1377 29.2152 13.0387 29.2161 13.2157C29.2178 14.0252 29.1915 15.1539 29.2178 15.905C29.2237 16.0693 29.2686 16.1811 29.2881 16.353L29.3956 16.8018C29.6429 17.6562 30.1492 18.2955 30.8538 18.8162L31.3931 19.116C32.0528 19.4056 32.9868 19.5453 33.6871 19.3505C34.0224 19.2574 34.135 19.2252 34.461 19.0652L34.8234 18.867C35.2748 18.6172 35.6338 18.2328 35.9192 17.806C35.9971 17.6892 36.0546 17.5749 36.1181 17.4699C36.18 17.3682 36.2384 17.2319 36.2816 17.1091C36.5509 16.3496 36.5102 15.9787 36.5102 15.176C36.5102 14.8355 36.5263 12.6805 36.4899 12.4968C36.4704 12.3994 36.4475 12.4265 36.434 12.2639C36.4137 12.0099 36.423 12.1894 36.3654 12.0073C36.3078 11.8244 36.4052 11.9624 36.2765 11.7745C36.2638 11.7567 36.2299 11.694 36.2231 11.6813L35.7803 10.9218C35.4382 10.4687 34.8895 10.0225 34.3348 9.79047L33.5372 9.53051C33.2264 9.47801 32.8157 9.46869 32.5075 9.51357H32.5084Z" fill="#FDD1A3"/>
<path fill-rule="evenodd" clip-rule="evenodd" d="M20.1203 19.0898C20.2998 19.0449 20.3404 19.0965 20.4827 19.1363C20.6681 19.1888 21.3964 19.2049 21.5581 19.066C21.7435 18.9069 21.8866 18.8408 22.0949 18.6503L22.7385 17.9805C22.8376 17.8289 22.8079 17.9237 22.9146 17.7375L23.1636 17.37C23.3346 17.0956 23.3151 17.0363 23.4261 16.8196C23.4726 16.729 23.5006 16.6316 23.5378 16.5384C23.5497 16.5079 23.5531 16.4995 23.5624 16.4792C23.6327 16.3301 23.7064 16.0956 23.725 15.9304C23.7394 15.8043 23.7453 15.8373 23.7673 15.767C23.7893 15.695 23.7843 15.6544 23.791 15.5697C23.8706 14.5841 23.8241 11.9083 23.8241 10.7245C23.8241 10.5932 23.8249 10.462 23.8249 10.3316C23.8249 10.1173 23.7673 10.0979 23.7648 9.95815C23.7512 9.8904 23.8359 9.91581 23.7038 9.91327C23.5692 9.90988 23.6488 9.91919 23.5116 10.0403L23.4642 10.0767C23.4549 10.0843 23.4337 10.1013 23.4176 10.1165L23.189 10.3316C23.1348 10.3646 23.1449 10.3451 23.078 10.3917C23.0196 10.4323 22.9815 10.4772 22.9146 10.5356L21.6766 11.1394C21.6089 11.1648 21.498 11.1682 21.4175 11.1944C20.4463 11.5094 18.5893 11.1673 17.8899 11.4239C17.6875 11.4976 17.6739 11.5382 17.5122 11.6585C17.3987 11.7431 17.2853 11.8871 17.2218 11.9853C17.0549 12.2444 16.9042 12.5027 16.7323 12.7567C16.5935 12.9625 16.6536 13.6323 16.6536 13.9168C16.6536 14.7958 16.6138 14.8593 16.7315 15.6908C16.7543 15.8534 16.7645 15.8094 16.7992 15.9279C16.8797 16.2023 16.8703 16.309 17.0321 16.6214L17.2539 17.0448C17.4301 17.3234 17.4732 17.5198 17.8501 17.8264L18.2193 18.1905C18.2743 18.265 18.3226 18.2896 18.403 18.3404C18.6266 18.4818 18.5148 18.4581 18.8162 18.6029L19.0982 18.7638C19.1041 18.7671 19.1109 18.7705 19.1168 18.7731C19.1507 18.79 19.1389 18.7832 19.1744 18.8002L19.6071 18.9814C19.7418 19.0364 19.7358 19.0059 19.8688 19.0381C19.9924 19.0686 19.9585 19.1389 20.1228 19.0898H20.1203Z" fill="#FDD1A3"/>
<path fill-rule="evenodd" clip-rule="evenodd" d="M20.8326 10.013C20.8825 9.88009 21.4372 9.38134 21.5794 9.22976C21.7725 9.024 22.5024 8.22549 22.6235 8.04005L23.936 6.05097C24.0258 5.85876 24.0334 5.78593 24.19 5.5717C24.301 5.42097 24.2925 5.33545 24.4043 5.05009C24.4568 4.9163 24.483 4.90698 24.5237 4.81045L24.7421 4.27529C24.9081 3.93488 24.7828 4.05343 24.9225 3.7215C24.9741 3.59872 24.9919 3.59025 25.0334 3.47339L25.1934 2.89928C25.2519 2.66472 25.2239 2.8146 25.1596 2.62662C25.1012 2.49198 24.4415 2.16259 24.3374 2.094L24.1528 1.97291C23.9843 1.86706 23.3441 1.61303 23.2052 1.57662L22.1214 1.31751C21.7039 1.28448 21.8546 1.2396 21.1967 1.23368C20.4591 1.2269 20.6234 1.22605 19.9384 1.31497C19.8757 1.32343 19.8639 1.32343 19.8012 1.3463L19.7631 1.36238C19.6826 1.39118 19.3058 1.43775 19.1128 1.49872C18.7918 1.59948 18.7199 1.58932 18.3498 1.74851C17.9527 1.91872 17.5945 2.09738 17.2414 2.32093C17.0907 2.41662 16.7774 2.61476 16.6529 2.73839C16.5513 2.84001 16.4039 2.96533 16.293 3.05001C16.0508 3.23376 15.8476 3.51404 15.6444 3.7469C15.2235 4.22872 14.8772 4.78674 14.5978 5.38795L14.3141 6.11025C14.2548 6.24404 14.3166 6.23049 14.2159 6.52263L14.116 6.92315C14.1007 7.029 14.1092 7.13654 14.0872 7.23815C13.9483 7.88593 14.016 8.81992 14.016 9.52275L14.0143 10.0283C14.0228 10.2129 14.0431 10.2323 14.3717 10.1231C14.4851 10.0859 14.6122 10.0952 14.757 10.0952C15.0372 10.0952 15.3167 10.0952 15.597 10.0952C16.0034 10.0952 16.2752 10.0274 16.542 10.3992C16.6393 10.5346 16.6419 10.5329 16.6605 10.7277C16.7604 10.7074 16.7613 10.6752 16.8485 10.6075L17.4353 10.273C17.5877 10.2061 17.7596 10.19 17.9247 10.1468C18.5251 9.99101 20.5743 10.2213 20.8334 10.0164L20.8326 10.013Z" fill="#E49541"/>
<path fill-rule="evenodd" clip-rule="evenodd" d="M19.2965 37.7119C19.4667 37.7195 19.564 37.6238 19.708 37.573C20.1983 37.3985 20.537 37.1233 21.029 37.1327C21.4574 37.1411 21.7377 37.3333 22.0951 37.4883C22.267 37.5628 22.3135 37.5594 22.5007 37.6737C22.9825 37.9701 22.5227 36.8752 22.5896 36.23C22.6006 36.1258 22.6175 36.1191 22.6429 36.0056C22.6886 35.7998 22.8097 35.6127 22.9325 35.4459L23.5896 34.7024C23.6548 34.633 23.6836 34.6321 23.6938 34.5144C23.5634 34.4399 22.9893 34.3264 22.7767 34.2858C21.952 34.1275 21.8139 33.8658 21.4532 33.2578C21.3753 33.1266 21.3118 33.0241 21.2356 32.8869C21.1865 32.798 21.0849 32.5491 21.001 32.5491C20.8909 32.5491 20.4438 33.5686 20.0907 33.9208C19.8316 34.1791 19.6242 34.1901 19.2897 34.2706L18.3311 34.4662C18.1999 34.5415 18.4328 34.7202 18.4785 34.7761C18.774 35.1402 19.0407 35.3561 19.2643 35.7245C19.4176 35.9768 19.4548 36.3358 19.3989 36.6762L19.2965 37.7102V37.7119Z" fill="#E49541"/>
<path fill-rule="evenodd" clip-rule="evenodd" d="M23.2761 28.2246C23.6682 28.5913 24.2271 28.6438 24.675 28.4296C25.1407 28.2069 25.2119 27.9478 25.421 27.5481L26.5752 25.2034C26.6844 24.94 26.6463 24.9747 26.7437 24.9222C26.7996 24.8926 26.7081 24.8731 26.9537 24.9307L28.2848 25.255C28.3754 25.2753 28.4245 25.2703 28.5024 25.294L28.9283 25.4201C29.0232 25.4413 29.0782 25.4278 29.1781 25.4574L29.5795 25.5836C29.6794 25.6073 29.7006 25.6013 29.7853 25.6327C29.842 25.6538 29.9216 25.697 29.9682 25.7224L30.7108 26.073C31.2536 26.421 31.5915 26.6928 31.9945 27.2255C32.1859 27.4786 32.3256 27.8385 32.3773 27.9063L32.5602 28.278C32.6008 28.3771 32.6364 28.5913 32.6702 28.7082C32.7634 29.0274 32.8066 29.2746 32.8117 29.654C32.8176 30.1163 32.8362 35.8558 32.8032 36.1115C32.4865 36.1598 31.8252 36.1217 31.4712 36.1217C31.3645 36.1217 30.2654 36.1674 30.1867 36.0903C30.1104 36.0158 30.157 34.39 30.1629 34.3341C30.3103 34.219 30.5736 33.9565 30.6473 33.7896C30.7464 33.5644 30.6871 33.2291 30.4238 33.0546C30.2646 32.9488 29.9258 32.9022 29.7184 33.0809C29.7142 33.0851 29.7074 33.0902 29.7031 33.0944L29.3526 33.4137C29.2628 33.4899 29.1705 33.5703 29.1096 33.6567C29.0935 33.7609 29.1045 33.7185 29.0469 33.8049C28.9419 33.9649 28.9665 33.9988 28.9665 34.2452V35.617C28.9665 35.8465 29.0079 36.0429 28.8945 36.1826C28.6633 36.1911 28.4262 36.186 28.1942 36.186C27.3813 36.186 27.5523 36.3977 27.5447 35.197C27.5439 35.0293 27.5447 34.8608 27.5396 34.6932C27.5346 34.5221 27.4837 34.34 27.4821 34.2012C27.5151 34.0132 27.3076 33.4077 27.2492 33.2308C27.0646 32.6744 26.7547 32.0859 26.4185 31.5982C26.1213 31.1672 25.8292 31.2984 25.5988 31.3408C25.4413 31.5288 25.4117 31.4382 25.3152 31.7049C25.1898 32.0538 25.4303 32.3298 25.6234 32.616C25.714 32.7507 25.7673 32.8794 25.8537 33.0301C25.9528 33.2037 26.1585 33.8794 26.2 33.9717C26.4414 34.5153 26.3863 35.689 26.3186 36.2902C26.2652 36.7576 25.8757 37.7695 25.6175 38.1641L25.15 38.8169C24.8376 39.1988 24.7724 39.1836 24.5835 39.3699L24.2033 39.7399L23.6834 40.0625C23.5522 40.1337 23.4184 40.2065 23.2473 40.2759C23.155 40.3132 23.1381 40.3352 23.0255 40.3852L22.0627 40.6798C21.4674 40.7561 21.2185 40.7874 20.5495 40.7654L19.9906 40.6841C19.6968 40.6477 19.4834 40.5647 19.2294 40.4665L18.7823 40.2785C18.5638 40.2116 18.1667 39.9626 17.9677 39.8263C17.8898 39.773 17.8449 39.7467 17.7975 39.6688C17.6705 39.6553 17.0811 39.0828 17.0032 38.966L16.8644 38.8026C16.8644 38.8026 16.8542 38.7932 16.85 38.789L16.347 38.1167C16.0404 37.6264 16.021 37.3673 15.8736 37.0777C15.8042 36.9413 15.8525 36.9744 15.7788 36.7821C15.739 36.6771 15.7492 36.5925 15.7212 36.4731C15.5078 35.5357 15.5806 34.7177 15.8381 33.8176C16.032 33.141 16.0125 33.3603 16.1598 32.9886C16.2403 32.7845 16.4401 32.5186 16.5155 32.395C16.6704 32.1401 16.601 32.2815 16.7492 32.069C16.949 31.7819 16.9033 31.8726 17.1006 31.6659C17.5325 31.2146 18.0727 30.8386 18.6121 30.5465C18.8213 30.433 19.2015 30.3086 19.4377 30.223C19.5579 30.1798 19.6325 30.1951 19.7578 30.1671C19.8315 30.1511 19.8298 30.135 19.9068 30.1206C20.0787 30.0876 19.9779 30.1384 20.3937 30.0469C20.9035 29.9343 22.083 30.0596 22.6444 30.2501C22.6986 30.2688 22.7452 30.2705 22.8036 30.2899C23.0619 30.3763 23.4074 30.5914 23.5844 30.6244C24.1136 30.7226 24.3905 30.3238 24.2804 29.8234C24.2245 29.5685 23.8723 29.4203 23.6157 29.3255C23.5573 29.3043 23.5022 29.2967 23.4633 29.2789C23.3862 29.2442 23.354 29.1637 23.0712 29.1171C22.9569 29.0977 23.0052 29.1112 22.9188 29.0731C22.8756 29.0536 22.8358 29.0392 22.8053 29.0248C22.7994 28.919 23.028 28.3889 23.1152 28.2433C23.1703 28.1518 23.0915 28.2162 23.1881 28.1527L23.2761 28.2263V28.2246ZM20.1473 0.000815902H21.8798L22.0551 0.0372272C22.0619 0.0397675 22.0686 0.0431546 22.0754 0.0448482C22.1635 0.0694046 22.2676 0.049082 22.365 0.0626304C22.4353 0.0727917 22.5157 0.111743 22.5801 0.126985C22.6758 0.150695 22.7333 0.130372 22.8307 0.156622L23.4853 0.342066C23.5386 0.366622 23.5234 0.368316 23.5835 0.384405L23.9612 0.510574L26.0671 1.70876C26.3355 1.90944 26.576 2.12876 26.8114 2.36416C26.8326 2.38533 26.8377 2.39041 26.8538 2.4065L27.5396 3.17707C27.7869 3.44465 27.9842 3.80707 28.1696 4.11529L28.6354 5.04928C28.6582 5.10602 28.6506 5.0984 28.6743 5.15005C28.7048 5.21695 28.6785 5.15005 28.7023 5.20594L29.0596 6.33299C29.0799 6.48965 29.0596 6.43207 29.1062 6.5667C29.1375 6.65815 29.1417 6.69626 29.1468 6.80549C29.1578 7.03243 29.2171 7.04259 29.2306 7.56166C29.2357 7.75896 29.2891 7.83094 29.2882 8.0638V9.74465L29.4042 9.66505C29.4449 9.62779 29.4652 9.61001 29.505 9.57021C29.544 9.53211 29.5626 9.50924 29.6024 9.47199L29.6921 9.39324C29.6964 9.38985 29.7031 9.38477 29.7082 9.38053L30.2044 9.0088C30.229 8.99186 30.2265 8.9944 30.2552 8.97578L31.2968 8.47787C31.4975 8.38557 31.749 8.37626 31.9158 8.31275C32.0758 8.25178 32.2511 8.27888 32.4171 8.25348C33.2308 8.12985 33.031 8.25856 33.4594 8.26025L34.1081 8.36779L35.0217 8.71412C35.3655 8.87924 35.7076 9.08924 35.9955 9.3365C36.0455 9.37969 36.0108 9.3492 36.0531 9.39154L36.1852 9.51094C36.1894 9.51432 36.1962 9.52025 36.2004 9.52364C36.2385 9.55666 36.2614 9.57868 36.3038 9.61678C36.3402 9.64981 36.3266 9.63711 36.3613 9.67098L37.0599 10.5686C37.1175 10.6498 37.0269 10.5178 37.0836 10.6007L37.2945 11.0055C37.3233 11.0614 37.2953 11.0013 37.3258 11.058C37.3283 11.0639 37.3326 11.0707 37.3351 11.0766L37.5443 11.6236C37.6374 11.8616 37.6848 12.1258 37.7365 12.3832C37.8203 12.8007 37.7721 15.1869 37.7721 15.7915C37.7721 16.1251 37.7661 16.3546 37.6967 16.6679L37.5299 17.3411L37.137 18.2361C37.1336 18.2412 37.1294 18.248 37.126 18.253C36.6772 18.9906 36.0556 19.6722 35.2792 20.0744C35.2436 20.0931 35.3071 20.0736 35.2241 20.1032V21.2794L36.2275 21.5639C36.3173 21.5859 36.2504 21.5673 36.3114 21.5919C36.4037 21.6291 36.3774 21.6215 36.4841 21.6435C36.6204 21.6715 36.5358 21.6613 36.6501 21.7019L37.0193 21.8086C37.3783 21.8882 38.2623 22.2142 38.585 22.2862L38.9364 22.4107C38.9423 22.4132 38.9491 22.4175 38.955 22.42L39.2869 22.564C39.2929 22.5665 39.2996 22.5699 39.3056 22.5733C39.3115 22.5758 39.3183 22.58 39.3242 22.5826C39.3615 22.6012 39.3716 22.6055 39.3996 22.619C39.4741 22.6563 39.4233 22.63 39.4885 22.6698C39.535 22.6978 39.4978 22.6774 39.5588 22.7113C39.6053 22.7367 39.651 22.7613 39.7027 22.7917L39.9728 22.9696C40.0761 23.0407 40.1312 23.0873 40.2277 23.1626C40.5122 23.3828 40.7451 23.6504 40.9788 23.9239C41.1414 24.1144 41.2718 24.3236 41.3954 24.5429L41.4547 24.6513C41.4581 24.6563 41.4623 24.6631 41.4657 24.669L41.9162 25.8427C41.9382 25.9104 41.9373 25.9485 41.9433 26.04C41.9475 26.0975 41.9416 26.084 41.956 26.139C41.9577 26.1458 41.961 26.1526 41.9636 26.1594L41.9805 26.1983C41.9831 26.2051 41.9865 26.2119 41.9881 26.2186C41.9932 26.2356 41.9966 26.2576 42 26.2838V28.0866C41.9907 28.1603 41.9746 28.2204 41.95 28.2568L41.9255 28.2882C41.718 28.5574 41.6587 28.4871 41.4361 28.5862C41.1515 28.3957 40.7679 28.5761 40.7688 27.7183C40.7696 26.8681 40.8069 26.7377 40.6155 25.94C40.5444 25.642 40.3488 25.2194 40.2201 25.0154L39.9457 24.647C39.5969 24.2152 39.4978 24.2313 39.2446 24.0314C39.2404 24.028 39.2336 24.0221 39.2294 24.0187L38.999 23.857C38.5833 23.5869 38.2192 23.5022 37.7467 23.3498C37.5629 23.2905 37.3207 23.2414 37.1488 23.1626C37.0582 23.1211 36.9338 23.1237 36.8271 23.0856L35.5069 22.6546C35.3681 22.6114 35.1598 22.5462 35.0277 22.5572C34.8803 23.0737 34.4773 23.4455 34.075 23.7401C33.9573 23.8265 33.7406 23.9019 33.6 23.9603C33.4493 23.9738 33.4764 23.9857 33.3654 24.0136C33.219 24.05 32.6923 24.0373 32.5356 24.0314C31.9335 24.0077 31.6389 23.6724 31.4077 23.5293C31.2265 23.4175 31.1274 23.2414 31.0165 23.1067C30.9674 23.0475 30.942 23.0034 30.8988 22.9425C30.6278 22.5555 30.8539 22.4581 30.2544 22.6867C29.9123 22.8171 29.2789 22.9213 28.8945 23.0932C28.7963 23.1372 28.7581 23.1161 28.6548 23.1423C28.5871 23.1592 28.5321 23.1982 28.4406 23.2253C28.3 23.2676 28.1163 23.3388 27.9918 23.3667L27.4981 23.4912C27.4939 23.4937 27.4871 23.4988 27.4821 23.5013C27.477 23.5039 27.471 23.509 27.466 23.5115L27.0917 23.6571C27.2085 23.774 27.9867 23.912 28.195 23.9645L29.3272 24.2567C29.5008 24.2998 29.5702 24.266 29.7396 24.3303C29.8547 24.3744 30.008 24.415 30.1358 24.4421C30.2646 24.4692 30.345 24.5251 30.4703 24.575C30.5313 24.5996 30.5804 24.6081 30.638 24.6326C31.0749 24.8198 31.627 25.1619 31.9903 25.4608L32.4967 25.9333C32.6118 26.0196 32.6474 26.0755 32.7321 26.1746C33.0056 26.4998 33.5026 27.2729 33.6339 27.6819L33.8261 28.2128C33.8286 28.2196 33.832 28.2263 33.8346 28.2331L33.9641 28.8038C34.0742 29.5355 34.0454 29.3026 34.0454 30.1807C34.0454 30.7938 34.0115 31.5127 34.0522 32.1122C34.1521 32.1266 36.2148 32.1511 36.5696 32.1274C36.6077 32.1249 36.612 32.1266 36.6492 32.1164C36.7094 32.1003 36.6814 32.1113 36.7195 32.0851C36.7881 31.9284 36.7398 30.2899 36.7466 29.9571C36.7585 29.8107 36.7365 29.8183 36.8499 29.709L36.9685 29.6007C37.0625 29.5143 37.1454 29.4914 37.3063 29.4669C37.5553 29.4296 37.8491 29.621 37.9448 29.9233C38.049 30.2544 37.9296 31.6278 37.9821 32.1283C38.1336 32.1528 40.5715 32.163 40.6841 32.1401C40.801 32.1156 40.7722 32.0351 40.7705 31.8903L40.7688 30.8522C40.7688 30.6269 40.8315 30.4847 40.9525 30.3653C41.1134 30.2069 41.1575 30.1951 41.4403 30.1646C41.6418 30.1358 41.8713 30.328 41.9644 30.4965C41.9814 30.5262 41.9924 30.6439 42 30.8124V32.561C41.9941 32.8074 41.9873 32.9776 41.9822 32.9911L41.9433 33.0648C41.8789 33.1774 41.7883 33.2596 41.6672 33.3205C41.5715 33.3688 41.5427 33.4018 41.3852 33.4027L34.075 33.401V36.0886C34.075 36.3791 34.1402 36.7711 34.0065 37.0286C33.7541 37.5155 33.1622 37.4045 32.7024 37.4045H27.3542C27.1781 37.7373 27.0908 38.1463 26.8131 38.6002L26.5616 39.021C26.3956 39.2725 26.2153 39.5325 26.007 39.7543C26.0027 39.7586 25.9977 39.7645 25.9934 39.7687C25.9892 39.773 25.9833 39.7789 25.9799 39.7831L25.664 40.1117C25.6598 40.1159 25.6539 40.121 25.6496 40.1252C25.6454 40.1294 25.6395 40.1345 25.6352 40.1388L24.2626 41.1744C23.9773 41.3479 23.6428 41.5122 23.3261 41.6096L22.5369 41.856C22.4598 41.8628 22.4607 41.8518 22.3862 41.873C22.0492 41.972 22.1914 41.8984 21.9569 41.9475C21.8798 41.9636 21.8248 41.9915 21.7198 41.9974H20.2066C20.1863 41.9957 20.1668 41.9923 20.1431 41.9856C20.1363 41.9839 20.1295 41.9805 20.1227 41.978C20.116 41.9754 20.11 41.972 20.1033 41.9695C20.0017 41.9331 19.8069 41.9458 19.7112 41.9136C19.6054 41.878 19.6697 41.8789 19.5664 41.8619L19.2252 41.7832C18.8619 41.6807 18.4978 41.5698 18.1591 41.3937C17.8703 41.2438 17.5638 41.1007 17.303 40.9059C17.2979 40.9025 17.292 40.8975 17.2869 40.8941C17.0295 40.7002 16.7441 40.5215 16.5163 40.2929L16.3766 40.1523C16.3766 40.1523 16.3665 40.143 16.3622 40.1388L16.0032 39.7696C15.9371 39.701 15.9058 39.6578 15.8508 39.5858C15.822 39.5477 15.8101 39.5359 15.7762 39.4918L15.4824 39.0854C15.4562 39.0507 15.4401 39.0312 15.413 38.9863C15.3749 38.9219 15.3944 38.9457 15.3503 38.8813L15.1615 38.5663C14.9024 38.1311 14.8152 37.7322 14.6424 37.4054H9.26625C8.87927 37.4054 8.48298 37.4799 8.16629 37.2453C8.16121 37.2419 8.15444 37.2369 8.1502 37.2335C7.9927 37.1107 7.92157 36.949 7.92073 36.7347L7.92242 33.401H2.04411C1.57585 33.401 1.01444 33.4298 0.558871 33.4027C0.411532 33.3942 0.23879 33.2875 0.137177 33.18L0.0220161 33.0148C0.0127016 32.992 0.00508064 32.9378 0 32.8607V30.6168C0.0110081 30.5617 0.0296371 30.5109 0.0618145 30.4669L0.192218 30.3179C0.296371 30.223 0.44371 30.1782 0.569032 30.1528C0.641855 30.201 0.723992 30.1798 0.823065 30.2273C1.33875 30.4771 1.23121 30.8496 1.23121 31.4966C1.23121 31.7023 1.18972 32.0969 1.29387 32.1342C1.33113 32.1478 3.87484 32.1511 4.01879 32.1274C4.07552 31.588 4.02895 30.7751 4.0281 30.2078C4.02726 29.665 4.33294 29.4542 4.81815 29.5236C4.95109 29.5431 5.04085 29.6235 5.12806 29.704C5.1577 29.8234 5.17464 29.8547 5.21359 29.9487C5.25085 30.0376 5.24153 30.1172 5.24153 30.2357C5.23984 30.5863 5.20851 31.997 5.27032 32.1401C5.36601 32.1774 7.68109 32.1723 7.9402 32.1528C8.06044 31.8243 7.87923 29.9885 8.03419 29.2094C8.08585 28.9495 8.03673 28.7581 8.18746 28.2898C8.2044 28.2373 8.20524 28.1992 8.22048 28.1484C8.2569 28.0273 8.36359 27.8233 8.3746 27.6607L8.56851 27.239C8.57444 27.2263 8.60746 27.1653 8.61847 27.1475L9.00544 26.5573C9.10706 26.4295 9.12484 26.3473 9.27302 26.2051C9.27726 26.2009 9.28403 26.1958 9.28827 26.1915C9.45593 26.0366 9.36956 26.0518 9.52198 25.9214C9.69472 25.7741 9.7904 25.6403 10.0444 25.4362C10.0961 25.3947 10.1427 25.3329 10.2019 25.2889C10.2722 25.2372 10.3264 25.2093 10.4035 25.1542C10.8455 24.8418 11.4501 24.5564 11.9802 24.4311L12.4942 24.2795C12.8913 24.2211 13.1936 24.0932 13.556 24.0246L14.3232 23.8138C14.4451 23.763 14.5916 23.7952 14.7449 23.7291L14.8524 23.6453L13.5619 23.2253C13.4857 23.2016 13.4171 23.1923 13.3409 23.1652L11.7812 22.7054C11.1901 22.5005 11.3696 22.525 10.9251 23.2134C10.7532 23.4793 10.2223 23.8358 9.86069 23.9434C9.70573 23.9891 9.82851 23.9764 9.69641 24.0179C9.4246 24.1042 8.98343 24.0484 8.71077 24.0382C8.36359 24.0136 7.88347 23.73 7.63028 23.5318C7.25008 23.2338 7.14 22.8934 6.94694 22.5817C6.79198 22.5724 5.58278 22.9416 5.27371 23.0288C5.21867 23.0441 5.17633 23.0517 5.12383 23.0703C4.86133 23.166 4.99173 23.0653 4.75464 23.1762L3.6623 23.5361C3.53359 23.575 3.51665 23.5928 3.37694 23.6436C3.2804 23.6783 3.21097 23.7207 3.12036 23.7765C2.53355 24.1339 2.08222 24.4938 1.74012 25.1161C1.42089 25.6987 1.24052 26.1797 1.2346 26.9045C1.23036 27.4016 1.30996 28.0629 1.09149 28.3305C1.03137 28.4033 0.965323 28.4499 0.872177 28.5015C0.749395 28.5693 0.663024 28.5295 0.573266 28.5854C0.368347 28.5032 0.326855 28.5972 0.108387 28.3407L0.0389516 28.2416C0.0228629 28.2103 0.0110081 28.1323 0.0033871 28.024V26.3262C0.0101613 26.2212 0.0406452 26.1653 0.0541935 26.0882C0.0609677 26.0501 0.0584274 26.0222 0.0618145 25.9832L0.13379 25.719C0.144798 25.6733 0.139718 25.6632 0.148185 25.6208L0.403911 24.9248C0.406452 24.9188 0.409839 24.9112 0.412379 24.9053C0.414919 24.8994 0.419153 24.8926 0.421694 24.8867L0.722298 24.3473L1.55044 23.3548C1.58177 23.3244 1.59194 23.315 1.62242 23.2871L1.68 23.2329C1.73589 23.1804 1.73673 23.183 1.80617 23.1347C2.08222 22.9442 2.3371 22.7469 2.64194 22.5978L3.97899 22.1152C4.1204 22.0855 4.03573 22.0906 4.16528 22.0491C4.23726 22.0263 4.2779 22.0263 4.3431 22.0025L5.57177 21.6351C5.74875 21.5978 5.90964 21.5106 6.08323 21.475L6.77927 21.2752V20.099L6.64972 20.0321C6.36774 19.8856 6.11456 19.6688 5.87153 19.4665L5.69879 19.303C5.69879 19.303 5.68863 19.2929 5.68439 19.2895L5.14331 18.6553L4.58867 17.6696L4.25927 16.4867C4.23726 16.2132 4.1602 12.7431 4.27875 12.3358L4.65726 11.0902L5.80294 9.51941C5.80718 9.51602 5.81395 9.51009 5.81819 9.5067L6.03919 9.30771C6.3254 9.07993 6.64633 8.87078 6.98165 8.70989L7.36778 8.5363C7.42282 8.51513 7.46093 8.51344 7.51851 8.49057C7.76661 8.39404 7.85891 8.38727 8.10956 8.32545L8.59984 8.25602C8.74633 8.25009 8.78867 8.20606 8.93516 8.19928C9.04694 8.1942 9.21714 8.1942 9.32806 8.19928C9.46524 8.20606 9.51182 8.24586 9.63629 8.25517C9.77855 8.26533 9.89032 8.25009 10.0004 8.28311C10.0724 8.30428 10.0893 8.32037 10.1477 8.33223C10.2062 8.34324 10.2426 8.33731 10.301 8.34747L10.9877 8.58457C10.9945 8.58711 11.0021 8.58965 11.0081 8.59219C11.3967 8.73953 11.8896 9.01219 12.2003 9.30432L12.5128 9.58037C12.5543 9.62102 12.5687 9.63541 12.6135 9.67521C12.6872 9.73957 12.6178 9.71501 12.716 9.74126V8.03247C12.7152 7.81061 12.7719 7.73949 12.7727 7.53033C12.7744 7.33557 12.7702 7.17892 12.8142 7.01126L12.9472 6.3042L13.4603 4.82912C13.617 4.45908 13.827 4.09751 14.048 3.76473C14.0514 3.75965 14.0556 3.75287 14.059 3.74779L14.2156 3.51239C14.219 3.50731 14.2233 3.50053 14.2267 3.49545L14.4781 3.15844C14.4824 3.1542 14.4883 3.14828 14.4917 3.14404L14.7804 2.78924C14.8194 2.74775 14.8211 2.74436 14.8592 2.69949L15.9956 1.65203C15.9998 1.64864 16.0066 1.64356 16.0117 1.64017L17.1946 0.891622C17.2022 0.888235 17.2259 0.878074 17.2335 0.874687L17.3258 0.827268C17.4071 0.783235 17.4478 0.756139 17.5291 0.722268C17.7924 0.613034 18.0558 0.487711 18.3301 0.403034C18.3801 0.387792 18.3936 0.392026 18.4419 0.37509L18.6502 0.303114C18.834 0.273477 18.9974 0.189647 19.1947 0.148155C19.2971 0.126138 19.3437 0.147308 19.4436 0.117671C19.5173 0.0956546 19.5766 0.0651707 19.6621 0.0558562C19.762 0.0456949 19.8552 0.064324 19.9475 0.0329933L19.9864 0.0160578C20.011 0.0075901 20.0694 0.00166268 20.1507 -0.00341797L20.1473 0.000815902ZM14.9151 32.8074C14.8744 32.9581 14.8194 33.0767 14.7762 33.1935C14.7347 33.3061 14.7034 33.4374 14.6619 33.5534C14.5078 33.9827 14.4197 34.7499 14.4028 35.2241C14.3977 35.3782 14.396 35.545 14.4062 35.6991C14.4146 35.8346 14.4773 36.0175 14.3994 36.12C14.3317 36.1784 13.1529 36.1852 13.0767 36.0946C13.0107 35.9701 13.0454 34.2122 13.0429 33.9082V33.8337C12.9717 33.8074 12.9802 33.8218 12.9125 33.7261C12.8049 33.5746 12.7761 33.5974 12.6279 33.4348C12.5323 33.3298 12.3299 33.1224 12.2232 33.053C11.8159 32.7896 11.3298 33.1757 11.3392 33.572C11.351 34.0581 11.8946 34.0911 11.8955 34.55C11.8955 35.042 11.9175 35.6009 11.8904 36.0853C11.7888 36.1682 11.8125 36.1716 11.6228 36.1708L9.27557 36.164C9.20952 36.1521 9.2527 36.1665 9.21714 36.1428C9.1079 36.0243 9.1604 34.7338 9.1604 34.4671V31.0512C9.1604 30.8852 9.11298 29.5244 9.2146 29.3712C9.19089 29.1586 9.36956 28.4965 9.44069 28.3093L9.68371 27.8013C9.9081 27.3372 10.0766 27.1035 10.4704 26.7089C10.7506 26.4278 10.9031 26.3355 11.1944 26.1179C11.3188 26.0247 11.5034 25.9536 11.6618 25.8791C12.3146 25.5717 12.1275 25.7216 12.6042 25.5378C12.6847 25.5065 15.1158 24.9146 15.2665 24.9155L15.684 25.6979C15.6865 25.7038 15.6899 25.7114 15.6933 25.7173L16.1429 26.6996C16.1454 26.7055 16.1488 26.7132 16.1522 26.7191C16.1556 26.7267 16.1658 26.7513 16.1692 26.7589C16.1988 26.8198 16.1725 26.7784 16.209 26.8292C16.4062 27.1052 16.2682 26.9223 16.3766 27.134C16.5036 27.3838 16.6493 27.7242 16.7729 27.913L16.9236 28.1027C16.9236 28.1027 16.9338 28.1129 16.9372 28.1171C16.9914 28.1747 16.9397 28.1188 16.9897 28.1747C17.093 28.2907 17.2463 28.4033 17.3885 28.4533C17.485 28.4871 17.6781 28.5371 17.7806 28.5422C18.021 28.554 18.3784 28.4753 18.5528 28.3491L18.8052 28.1577L19.132 28.8055C19.1625 28.8699 19.1405 28.8191 19.1608 28.8606C19.1608 28.8623 19.1862 28.9148 19.1862 28.9148C19.204 28.9749 19.1981 28.9588 19.1955 29.0215L18.4377 29.2941C18.1785 29.3822 17.9533 29.5287 17.7619 29.6269C17.4478 29.7878 17.4114 29.8369 17.1455 30.0198L16.8982 30.2188C16.6933 30.3678 16.2225 30.7895 16.0785 30.9707C15.6535 31.5076 15.1412 32.124 14.9185 32.8057L14.9151 32.8074ZM20.4682 28.7767C20.3946 28.687 20.0821 27.9054 19.989 27.6954C19.8408 27.3601 19.7281 27.2322 19.8704 27.0959L20.4191 26.5514C20.4733 26.4998 20.4962 26.5006 20.5444 26.4532C20.5961 26.4024 20.58 26.4007 20.6494 26.3346C20.7341 26.2542 20.7908 26.1907 20.8713 26.1077C20.9797 25.9968 21.0195 25.9959 21.1279 26.1077C21.2024 26.1848 21.2625 26.2517 21.3353 26.3211L21.564 26.5396C21.5987 26.5743 21.6342 26.6302 21.6664 26.6615C21.7071 26.6996 21.7485 26.7267 21.7875 26.7648C21.8315 26.808 21.8485 26.8393 21.8917 26.8859C21.9306 26.9282 21.9636 26.9469 22.011 26.9884C22.0847 27.0544 22.1728 27.123 22.2067 27.217L21.5377 28.7793L20.4665 28.7767H20.4682ZM24.1644 27.3034C24.001 27.2678 23.752 26.9113 23.5835 26.7919C23.4082 26.6683 22.6173 25.8274 22.3625 25.603C22.2126 25.4709 21.9619 25.31 22.0822 25.1923L22.7494 24.7918C22.9645 24.6546 23.155 24.5107 23.3955 24.3761L24.0458 23.9611C24.2465 23.8019 24.2753 23.6106 24.2736 23.3811L24.2872 23.1923C24.2889 23.1863 24.294 23.1813 24.2956 23.1686C24.2965 23.1559 24.3007 23.1533 24.305 23.1457C24.4438 23.177 24.4557 23.2575 24.6631 23.4133C24.7377 23.4692 24.7495 23.5081 24.819 23.5665L25.4498 24.139C25.5074 24.1821 25.5497 24.227 25.5988 24.2694C25.6048 24.4421 25.565 24.4472 25.4481 24.6885L24.9019 25.824C24.874 25.8808 24.8401 25.9536 24.8096 26.012L24.614 26.3702C24.6056 26.3863 24.5979 26.4075 24.5878 26.4286L24.3456 26.9452C24.3227 26.9909 24.3185 26.9977 24.299 27.0383L24.1661 27.3042L24.1644 27.3034ZM17.8356 27.3034C17.7255 27.1577 17.5164 26.6158 17.4198 26.4574L16.6713 24.9332C16.2792 24.1051 16.3444 24.3693 16.6577 24.0517C16.9609 23.7444 17.2954 23.4675 17.5782 23.2033C17.8237 22.973 17.6857 23.3413 17.7323 23.6021C17.784 23.8909 18.0752 24.0399 18.2251 24.139L19.5241 24.9417C20.0076 25.2635 20.0694 25.1822 19.6782 25.5598C19.4004 25.8283 18.7484 26.5057 18.5037 26.7106L18.3843 26.8156C18.1963 26.9799 18.0363 27.2373 17.8356 27.3042V27.3034ZM22.9306 23.2007L21.5656 24.0839C21.5258 24.1102 21.5479 24.0958 21.5148 24.1153C21.5098 24.1186 21.5021 24.122 21.4971 24.1254L21.2744 24.266C21.2041 24.3024 21.0728 24.3828 21 24.3837C20.9026 24.3837 20.663 24.2177 20.5588 24.1534L20.4174 24.0721C20.4123 24.0687 20.4064 24.0636 20.4013 24.0602C20.3962 24.0568 20.3895 24.0517 20.3844 24.0484L19.0685 23.1999C18.9322 23.1423 18.9491 23.1101 18.9508 22.9332L18.9567 20.5241C18.9567 20.2125 18.8687 20.0194 19.1862 20.1498C19.3649 20.2235 19.574 20.2387 19.7358 20.3031C20.0813 20.4394 21.3192 20.4657 21.6901 20.4072C21.9823 20.3607 22.5648 20.276 22.8333 20.1439C23.1246 20.0016 23.0416 20.2726 23.0407 20.5241L23.045 22.6241C23.045 22.9958 23.1017 23.1321 22.9281 23.2007H22.9306ZM33.8583 22.2109C33.8244 22.3091 33.76 22.3895 33.6931 22.4649C33.4417 22.7511 33.1639 22.8798 32.7625 22.8392C32.2401 22.7867 31.8506 22.293 31.8404 22.0644C31.7608 21.9636 31.749 21.8391 31.7447 21.7019C31.7041 20.348 31.7142 20.5097 32.0326 20.5605L32.8718 20.6452L33.7126 20.5647C33.8574 20.5461 33.8337 20.508 33.9506 20.5122C34.0285 20.7155 33.9921 21.5622 33.9844 21.8688C33.9802 22.0423 33.9794 22.1075 33.8574 22.2117L33.8583 22.2109ZM10.2096 20.5901C10.2383 20.9847 10.2519 21.8806 10.1249 22.166C10.0123 22.4183 9.95637 22.4691 9.74637 22.6283C9.65153 22.7003 9.31706 22.8451 9.12738 22.8442C8.64557 22.8417 8.22387 22.4945 8.11548 22.188C8.00456 21.8738 8.00879 20.9509 8.04351 20.5851C8.3729 20.541 8.82085 20.7663 9.67355 20.6265C9.82681 20.6011 10.0571 20.5647 10.2096 20.5893V20.5901ZM30.4923 21.309L29.5448 21.5656C29.4517 21.5876 29.5236 21.5682 29.461 21.5936C29.229 21.6884 28.9605 21.7477 28.7285 21.8129C28.6565 21.8332 28.6404 21.8442 28.582 21.862L27.8487 22.0805C27.8352 22.0855 27.8021 22.0999 27.7886 22.1042L27.4169 22.2083C27.3364 22.2244 27.3398 22.2253 27.2678 22.2557C27.2026 22.2828 27.2771 22.2574 27.2077 22.2794L26.4448 22.5809C26.3923 22.608 26.3685 22.619 26.3135 22.6453C26.1823 22.7088 26.0696 22.8112 25.9291 22.8485C25.7707 22.7426 25.6124 22.5741 25.4693 22.4403L24.504 21.5571C24.504 21.5571 24.4938 21.5478 24.4896 21.5436L24.421 21.4725C24.421 21.4725 24.4117 21.4623 24.4074 21.4581L24.3058 21.392V19.4038L24.4057 19.3352C24.6648 19.1337 24.896 18.9228 25.1213 18.679L25.758 17.8593C25.7775 17.8271 25.7792 17.8212 25.7987 17.7882C25.9689 17.5028 26.1501 17.1937 26.2576 16.8745C26.2839 16.7957 26.2712 16.8059 26.3042 16.7255L26.4388 16.2724C26.4541 16.1827 26.4608 16.1962 26.4871 16.1242L26.6023 15.3715C26.9317 15.3715 27.3982 15.3977 27.6878 15.3088C27.8944 15.2444 27.9783 15.2038 27.9766 15.4528C27.9749 15.7119 27.952 15.9981 28.0121 16.2292C28.0494 16.3723 28.0206 16.5341 28.0596 16.6857L28.3822 17.7069C28.3847 17.7128 28.3881 17.7204 28.3906 17.7263C28.416 17.7831 28.3906 17.7196 28.4186 17.7822L28.466 17.9033C28.4685 17.9092 28.4728 17.916 28.4753 17.9219C28.6625 18.2827 28.8716 18.6358 29.1358 18.9415L29.6202 19.4368C29.6261 19.4419 29.6439 19.458 29.6498 19.4631C29.654 19.4673 29.66 19.4724 29.6642 19.4766L30.306 19.955C30.4077 20.0194 30.3746 20.038 30.4932 20.0473C30.5008 20.1346 30.5211 20.1464 30.5211 20.243C30.5211 20.5935 30.5372 20.9636 30.4932 21.3073L30.4923 21.309ZM11.4797 21.1126V20.2446C11.4797 20.1481 11.5 20.1363 11.5077 20.049C11.644 20.038 11.7473 19.9254 11.8667 19.8484C11.8718 19.845 11.8785 19.8407 11.8836 19.8373L12.81 18.9999C13.0115 18.7653 13.2181 18.5088 13.3596 18.2336C13.3909 18.1726 13.4104 18.1243 13.4425 18.0651C13.6517 17.6755 13.6906 17.5163 13.8194 17.126L13.8973 16.8118C13.9125 16.7449 13.9117 16.7788 13.9345 16.7085L14.0277 15.7661C14.0277 14.9786 13.9294 15.374 15.0074 15.374H15.3994C15.3994 15.606 15.4655 15.6949 15.4824 15.8795C15.5027 16.1039 15.5603 16.3063 15.6315 16.5146C15.6552 16.584 15.645 16.6069 15.6687 16.6738L15.7796 16.9549C15.8101 17.021 15.8084 17.0286 15.8364 17.0946L16.4486 18.1624L16.894 18.6967C17.1015 18.9254 17.3258 19.1498 17.579 19.3276L17.6959 19.4072C17.6959 19.6028 17.7433 21.2963 17.6578 21.4132L16.0718 22.8519C15.9939 22.8307 16.0184 22.8332 15.9532 22.8019L15.2682 22.4513C15.2623 22.4488 15.2546 22.4463 15.2479 22.4429C15.2419 22.4403 15.2343 22.4369 15.2284 22.4344L14.772 22.2752C14.7144 22.2549 14.7186 22.2413 14.6314 22.2202C14.5459 22.199 14.5493 22.2134 14.4714 22.1838L11.8235 21.3878C11.677 21.3522 11.7329 21.3116 11.5077 21.3116C11.5 21.2244 11.4797 21.2125 11.4797 21.116V21.1126ZM32.5085 9.51432C32.8167 9.46945 33.2266 9.47876 33.5382 9.53126L34.3358 9.79122C34.8896 10.0232 35.4392 10.4703 35.7813 10.9225L36.2242 11.6821C36.2309 11.6948 36.2648 11.7574 36.2775 11.7752C36.4071 11.9623 36.3088 11.8252 36.3664 12.0081C36.424 12.1901 36.4147 12.0098 36.435 12.2646C36.4477 12.4272 36.4714 12.4001 36.4909 12.4975C36.5273 12.6813 36.5112 14.8363 36.5112 15.1767C36.5112 15.9794 36.551 16.3512 36.2826 17.1099C36.2394 17.2327 36.181 17.369 36.1192 17.4706C36.0556 17.5756 35.9989 17.6899 35.9202 17.8068C35.6348 18.2336 35.2758 18.618 34.8244 18.8678L34.462 19.0659C34.136 19.2268 34.0234 19.2582 33.6881 19.3513C32.9878 19.5461 32.0538 19.4063 31.3942 19.1167L30.8548 18.817C30.1502 18.2962 29.6439 17.6569 29.3966 16.8025L29.2891 16.3537C29.2696 16.181 29.2247 16.0692 29.2188 15.9058C29.1925 15.1547 29.2188 14.0268 29.2171 13.2164C29.2171 13.0394 29.3365 12.1385 29.3873 12.0216L29.5042 11.7481C29.5219 11.7015 29.5228 11.6778 29.538 11.638C29.6049 11.4661 29.8937 11.0165 30.0639 10.8277C30.2679 10.5999 30.4288 10.4195 30.6812 10.2392C30.6837 10.2375 30.7269 10.207 30.7311 10.2044C30.7362 10.2011 30.743 10.1968 30.7481 10.1934C30.7531 10.1901 30.7599 10.1858 30.765 10.1824L30.8632 10.113C31.4356 9.71078 31.8158 9.61594 32.5094 9.51432H32.5085ZM8.73702 9.51432C9.6202 9.38561 10.4687 9.65489 11.1198 10.102L11.4162 10.3111C11.9751 10.7371 12.3451 11.3307 12.5831 11.9691C12.6644 12.1884 12.7694 12.7465 12.7812 12.9658C12.7998 13.3036 12.7838 13.6864 12.7838 14.0293C12.7838 14.6187 12.8354 16.0963 12.6652 16.6196C12.6381 16.7034 12.6474 16.7602 12.6093 16.8432C12.2249 17.6916 12.3138 17.6323 11.6796 18.4029L11.1275 18.828C10.9039 18.9804 10.456 19.2073 10.2087 19.2768C9.81242 19.3886 9.1223 19.5139 8.75226 19.4182C8.68198 19.4004 8.63202 19.3843 8.55411 19.3733C8.23403 19.3284 8.36359 19.3276 8.11972 19.2768C7.92327 19.2361 7.68956 19.1167 7.53375 19.049L7.37032 18.9813C7.3627 18.977 7.34238 18.9643 7.3356 18.9601C7.26278 18.9169 7.23315 18.9059 7.1527 18.861C6.49476 18.4978 5.9452 17.7805 5.72589 17.0625C5.60649 16.6738 5.50742 16.6569 5.49218 15.9617L5.49726 12.7405C5.50488 12.4391 5.58956 12.152 5.70556 11.8624C5.73859 11.7803 5.74028 11.7498 5.7894 11.6685C5.93504 11.4246 5.94097 11.2934 6.12302 11.0487C6.12641 11.0436 6.13149 11.0368 6.13488 11.0326C6.32964 10.7735 6.40415 10.7286 6.54895 10.5525C6.67766 10.3958 6.97149 10.1833 7.13577 10.0766L7.66923 9.77428C7.94359 9.6388 8.42456 9.5609 8.73871 9.51517L8.73702 9.51432ZM20.1202 19.0905C19.9559 19.1396 19.9898 19.0693 19.8662 19.0388C19.7332 19.0067 19.7392 19.0371 19.6045 18.9821L19.1718 18.8009C19.1371 18.784 19.1481 18.7907 19.1142 18.7738C19.1083 18.7713 19.1015 18.767 19.0956 18.7645L18.8136 18.6036C18.5122 18.458 18.624 18.4825 18.4004 18.3411C18.32 18.2903 18.2717 18.2649 18.2167 18.1912L17.8475 17.8271C17.4715 17.5206 17.4275 17.3241 17.2513 17.0455L17.0295 16.6221C16.8677 16.3097 16.8771 16.2038 16.7966 15.9286C16.7619 15.8101 16.7517 15.8541 16.7289 15.6915C16.6112 14.86 16.651 14.7965 16.651 13.9176C16.651 13.6339 16.5908 12.9641 16.7297 12.7575C16.9016 12.5034 17.0523 12.2452 17.2192 11.9861C17.2827 11.8878 17.3961 11.7439 17.5096 11.6592C17.6705 11.539 17.6849 11.4992 17.8873 11.4246C18.5867 11.1689 20.4445 11.5102 21.4149 11.1952C21.4954 11.1689 21.6063 11.1664 21.674 11.1401L22.912 10.5364C22.9798 10.478 23.017 10.4331 23.0754 10.3924C23.1423 10.3459 23.133 10.3653 23.1864 10.3323L23.415 10.1172C23.4319 10.102 23.4523 10.0851 23.4616 10.0774L23.509 10.041C23.6453 9.91993 23.5666 9.91061 23.7012 9.914C23.8333 9.91739 23.7486 9.89199 23.7622 9.95888L24.4819 10.6575C24.5234 10.6922 24.5531 10.71 24.5954 10.7379C24.8613 10.914 25.189 11.0631 25.344 11.1638C25.377 12.2596 25.3465 13.4044 25.3465 14.5052C25.3465 15.3842 25.3304 15.5713 25.0823 16.3444L24.6792 17.1726C24.4845 17.5883 23.8308 18.2285 23.4412 18.4613L22 19.0947C21.746 19.1769 21.1575 19.2023 20.8594 19.1997C20.4589 19.1955 20.6266 19.2175 20.2904 19.1472C20.2515 19.1388 20.2303 19.1388 20.1913 19.1261C20.1261 19.1049 20.1608 19.1235 20.1194 19.0913L20.1202 19.0905ZM14.015 12.1529C14.015 12.0403 14.0056 11.8777 14.0421 11.7727C14.2258 11.2485 14.9473 11.2926 15.4011 11.3391C15.4469 11.7303 15.4206 13.401 15.4206 13.9167C15.4206 14.1106 15.4215 14.1038 15.2309 14.1038C14.8228 14.1038 14.4536 14.1597 14.2072 13.8744C14.0785 13.7248 14.0141 13.5241 14.0141 13.2723V12.152L14.015 12.1529ZM27.963 13.5983C27.9622 13.6686 27.8843 13.7838 27.8385 13.8405C27.7742 13.9192 27.7065 13.9523 27.6362 14.0048L27.5786 14.0547C27.4194 14.1657 26.7437 14.1386 26.6353 14.114L26.5896 14.0971C26.526 13.9734 26.5159 11.4695 26.5836 11.3425L26.7123 11.3061C26.9638 11.2782 27.4135 11.2866 27.6252 11.3865C27.654 11.4001 27.6683 11.406 27.7005 11.423C28.1696 11.6787 28.0528 12.5204 28.0562 13.1902C28.0562 13.2698 28.0613 13.3528 28.0477 13.4307C28.0308 13.523 27.9977 13.5611 27.9656 13.5992L27.963 13.5983ZM20.8323 10.0139C20.5732 10.2188 18.5232 9.98852 17.9237 10.1443C17.7585 10.1875 17.5867 10.2044 17.4342 10.2705L16.8474 10.605C16.7602 10.6719 16.7594 10.7049 16.6594 10.7252C16.6408 10.5305 16.6383 10.5321 16.5409 10.3967C16.275 10.0258 16.0023 10.0927 15.5959 10.0927C15.3156 10.0927 15.0362 10.0927 14.7559 10.0927C14.6111 10.0927 14.4841 10.0834 14.3706 10.1206C14.0421 10.2298 14.0217 10.2104 14.0133 10.0258L14.015 9.52025C14.015 8.81828 13.9472 7.88428 14.0861 7.23566C14.1081 7.13404 14.0996 7.0265 14.1149 6.92066L14.2148 6.52013C14.3147 6.22799 14.2537 6.24154 14.313 6.10775L14.5967 5.38545C14.8761 4.78509 15.2216 4.22622 15.6433 3.7444C15.8465 3.51154 16.0498 3.23211 16.2919 3.04751C16.4029 2.96283 16.5502 2.83751 16.6518 2.7359C16.7754 2.61227 17.0896 2.41412 17.2403 2.31844C17.5934 2.09404 17.9516 1.91622 18.3488 1.74602C18.7188 1.58682 18.7908 1.59699 19.1117 1.49622C19.3048 1.43525 19.6816 1.38868 19.762 1.35989L19.8001 1.3438C19.8628 1.32178 19.8738 1.32094 19.9373 1.31247C20.6232 1.22356 20.4581 1.2244 21.1956 1.23118C21.8535 1.23711 21.7037 1.28114 22.1203 1.31501L23.2042 1.57412C23.343 1.61053 23.9832 1.86541 24.1517 1.97041L24.3363 2.0915C24.4404 2.15924 25.1001 2.48949 25.1585 2.62412C25.261 2.65799 25.7961 3.11949 25.8969 3.22025C25.9934 3.31763 26.1111 3.44211 26.206 3.55557C26.7564 4.21267 27.1306 4.74191 27.4668 5.54211C27.5752 5.80037 27.549 5.83001 27.5913 5.92739L27.6192 5.98158C27.7505 6.26356 27.7886 6.62598 27.8513 6.81311C27.8885 6.92319 27.8868 6.94521 27.8944 7.08324C27.9071 7.29916 27.9673 7.39739 27.974 7.64211C27.9833 7.9969 28.0621 10.0046 27.9723 10.1909C27.9359 10.2298 27.6438 10.1579 27.576 10.1359C27.1298 9.98767 26.3017 10.2248 25.9206 10.0325C25.3355 9.73618 25.4185 9.87166 24.841 9.31618L24.6598 9.05453C24.52 8.81912 24.4201 8.75392 24.7461 8.36695C24.8274 8.27041 24.874 8.17049 24.9468 8.06041C24.9544 8.04856 24.9748 8.01977 24.9807 8.01045C25.1187 7.79368 25.1001 7.86396 25.1627 7.7759C25.3465 7.51763 25.4947 7.2763 25.3668 6.93844C25.3507 6.89525 25.355 6.89356 25.3363 6.85799C25.2982 6.78686 25.167 6.67509 25.0891 6.63953C24.8469 6.53029 24.5869 6.5286 24.4066 6.68356C24.255 6.81481 24.3236 6.77755 24.2575 6.89356L23.4277 8.08243C23.3786 8.15017 23.3718 8.17473 23.3261 8.23231C23.1186 8.49396 23.0356 8.66755 22.8019 8.93936C22.7283 9.02489 22.6444 9.11549 22.5615 9.20356C22.4768 9.29332 22.3675 9.35428 22.2829 9.4288C22.1736 9.52449 22.1169 9.56344 21.989 9.63626C21.945 9.66082 21.9399 9.66166 21.8967 9.68453L21.2566 9.92755C21.0525 9.95888 21.2744 9.92924 21.0788 9.99191C21.0059 10.0156 20.9229 10.0114 20.8349 10.0131L20.8323 10.0139Z" fill="#010101"/>
<path fill-rule="evenodd" clip-rule="evenodd" d="M19.3979 36.678C19.4537 36.3384 19.4165 35.9786 19.2632 35.7262C19.0397 35.3579 18.7729 35.1419 18.4774 34.7778C18.4317 34.7211 18.1988 34.5433 18.3301 34.4679L19.2886 34.2723C19.6222 34.1919 19.8306 34.1809 20.0897 33.9226C20.4428 33.5712 20.889 32.5508 20.9999 32.5508C21.0838 32.5508 21.1845 32.7998 21.2345 32.8887C21.3107 33.0259 21.3751 33.1292 21.4521 33.2596C21.812 33.8667 21.95 34.1292 22.7756 34.2876C22.9873 34.3282 23.5614 34.4417 23.6927 34.5162C23.6825 34.6339 23.6537 34.6347 23.5885 34.7042L22.9314 35.4476C22.8095 35.6136 22.6876 35.8007 22.6418 36.0074C22.6164 36.1208 22.5995 36.1267 22.5885 36.2317C22.5224 36.8778 22.9822 37.9727 22.4996 37.6755C22.3124 37.5603 22.2659 37.5646 22.094 37.4901C21.7366 37.3342 21.4564 37.142 21.0279 37.1344C20.5359 37.1251 20.1972 37.4011 19.7069 37.5747C19.563 37.6255 19.4656 37.7212 19.2954 37.7136L19.3979 36.6797V36.678ZM22.3819 38.9575C22.5284 38.9643 22.6749 38.9711 22.8222 38.9668C23.2515 38.9558 23.6461 38.5917 23.8358 38.2284C23.9755 37.9609 23.8858 37.3072 23.8764 37.0353C23.8443 36.9117 23.7977 36.4604 23.8129 36.2868C23.9679 36.1716 24.0856 35.9803 24.2228 35.8414C24.376 35.6856 24.4971 35.5433 24.6478 35.3697C24.9569 35.0124 24.9705 34.8024 24.9493 34.3544C24.9171 33.6855 24.299 33.3104 23.6622 33.2147C23.5386 33.1961 23.5835 33.1918 23.4878 33.1622C23.3235 33.1114 22.8374 33.0784 22.746 33.0022L22.2557 32.174C22.1829 32.0512 22.1355 32.0241 22.072 31.9157C22.0076 31.8065 21.9585 31.7354 21.8764 31.6583C21.5673 31.3696 21.0728 31.1613 20.5672 31.3721C20.3657 31.4559 20.1786 31.5618 20.0541 31.7278C20.0236 31.7684 19.9889 31.8268 19.961 31.8599L19.4639 32.7117C19.2785 33.1529 19.187 33.0386 18.9795 33.1088C18.8906 33.1385 18.8957 33.1334 18.7907 33.1402C18.6104 33.152 18.5773 33.1851 18.4385 33.2147C17.8754 33.3358 17.966 33.2486 17.4697 33.5915C17.0404 33.8879 16.8076 34.6508 17.3419 35.3249C17.3842 35.379 17.4062 35.407 17.4384 35.4561C17.5053 35.5603 17.5663 35.6085 17.6416 35.7017L18.0735 36.1623C18.3064 36.4451 18.1421 36.5408 18.1141 37.2953C18.0938 37.8347 17.988 38.1548 18.4884 38.6332C18.8212 38.9507 19.3724 39.0608 19.8576 38.8415L20.7967 38.4588C21.0177 38.3766 20.9322 38.2979 21.4445 38.5587L21.4979 38.5883C21.6342 38.6603 21.624 38.618 21.7688 38.6849L22.3836 38.9567L22.3819 38.9575Z" fill="#010101"/>
<path fill-rule="evenodd" clip-rule="evenodd" d="M23.276 28.2238L23.0813 28.4017C23.0787 28.4067 23.0745 28.4144 23.0711 28.4194C23.0677 28.4262 23.0457 28.4711 23.0432 28.4762C22.9517 28.6633 22.8882 28.7946 22.8789 29.024C22.9212 29.0257 23.0305 29.0249 23.0686 29.0308C23.1939 29.0511 23.0288 29.0291 23.2989 29.1282L23.9035 29.4093C24.5089 29.7091 24.3599 30.03 24.2964 30.3408C24.4776 30.4737 24.6851 30.577 24.7723 30.7167C24.9323 30.815 25.0348 30.9225 25.1567 31.0394C25.2101 31.0902 25.288 31.1545 25.3456 31.2138C25.4514 31.3222 25.4074 31.3518 25.6013 31.34C25.8308 31.2976 26.1229 31.1664 26.421 31.5974C26.7571 32.0851 27.0679 32.6736 27.2516 33.23C27.3101 33.4069 27.5175 34.0124 27.4845 34.2004C27.5167 34.2207 27.5565 34.1944 27.5726 34.4078C27.5785 34.4832 27.5777 34.5586 27.5861 34.6348C27.6056 34.8024 27.6335 34.8719 27.6378 35.0844L27.6149 36.0836L28.8648 36.0946C28.9748 35.5205 28.7614 34.3367 28.9469 33.8405C28.9562 33.8159 28.9985 33.749 29.0053 33.7406C29.0764 33.6559 29.0053 33.7059 29.1103 33.6559C29.1704 33.5695 29.2636 33.4882 29.3533 33.4129L29.7039 33.0936C29.7081 33.0894 29.7149 33.0843 29.7191 33.0801C29.9266 32.9014 30.2653 32.948 30.4245 33.0538C30.6879 33.2283 30.7463 33.5636 30.6481 33.7888C30.5752 33.9548 30.3119 34.2173 30.1637 34.3333C30.1586 34.3901 30.1121 36.015 30.1874 36.0895C30.2662 36.1666 31.3653 36.1209 31.472 36.1209C31.8251 36.1209 32.4864 36.159 32.8039 36.1107C32.837 35.855 32.8175 30.1147 32.8124 29.6532C32.8073 29.2747 32.7641 29.0266 32.671 28.7073C32.6371 28.5913 32.6016 28.3763 32.5609 28.2772L32.378 27.9055C32.3255 27.8369 32.1866 27.477 31.9953 27.2246C31.5931 26.692 31.2543 26.4202 30.7116 26.0722L29.9689 25.7216C29.9224 25.6971 29.8428 25.653 29.786 25.6319C29.7014 25.6005 29.6802 25.6073 29.5803 25.5828L29.1789 25.4566C29.079 25.4269 29.0239 25.4405 28.9291 25.4193L28.5032 25.2932C28.4261 25.2694 28.3762 25.2745 28.2856 25.2542L26.9544 24.9299C26.7089 24.8723 26.8003 24.8918 26.7444 24.9214C26.6471 24.9739 26.686 24.9392 26.5759 25.2026L25.4218 27.5473C25.2126 27.9478 25.1423 28.2069 24.6758 28.4288C24.2287 28.6421 23.6698 28.5896 23.2769 28.2238H23.276Z" fill="#E2F3FA"/>
<path fill-rule="evenodd" clip-rule="evenodd" d="M9.21368 29.372C9.24162 29.8911 9.20605 30.5431 9.20605 31.0799V36.0818L11.804 36.0801C11.804 35.5543 11.8141 35.0191 11.8057 34.4941C11.8031 34.3163 11.7726 34.3078 11.6752 34.2155C11.6363 34.1783 11.616 34.1588 11.5753 34.1198L11.5465 34.0928C10.8683 33.4331 11.6431 32.6329 12.2629 33.0089C12.4077 33.0969 12.5788 33.3002 12.7481 33.4517L12.8345 33.533C12.8489 33.5474 12.8717 33.5686 12.8785 33.5754C12.8827 33.5796 12.8895 33.5847 12.8929 33.5889C12.9852 33.677 12.9852 33.699 13.0411 33.8345V33.909C13.1275 33.9878 13.0487 33.8269 13.119 34.0064C13.1495 34.0843 13.1325 35.9658 13.1325 36.0767H14.3544C14.3451 35.749 14.335 35.44 14.3417 35.1123C14.3536 34.5128 14.4027 34.7041 14.4137 34.4425C14.4298 34.0597 14.6119 33.4899 14.7363 33.1257C14.7626 33.0504 14.7761 33.0148 14.8007 32.9547C14.849 32.8353 14.8049 32.8184 14.915 32.8065C15.1377 32.1248 15.65 31.5084 16.0751 30.9715C16.219 30.7903 16.6898 30.3678 16.8948 30.2196L17.142 30.0206C17.4079 29.8377 17.4443 29.7886 17.7585 29.6277C17.9498 29.5295 18.1759 29.383 18.4342 29.2949L19.1921 29.0223C19.1954 28.9596 19.2014 28.9748 19.1827 28.9156C19.1827 28.9156 19.1582 28.8631 19.1573 28.8614C19.137 28.8199 19.1582 28.8707 19.1286 28.8063L18.8017 28.1586L18.5494 28.3499C18.3749 28.4761 18.0176 28.5548 17.7771 28.543C17.6746 28.5379 17.4816 28.488 17.385 28.4541C17.2428 28.4041 17.0895 28.2923 16.9862 28.1755C16.9363 28.1196 16.9879 28.1755 16.9337 28.1179C16.9295 28.1137 16.9236 28.1078 16.9202 28.1035L16.7694 27.9138C16.6458 27.725 16.5002 27.3846 16.3732 27.1348C16.2648 26.9231 16.4036 27.106 16.2055 26.83C16.1691 26.7792 16.1953 26.8207 16.1657 26.7597C16.1623 26.7521 16.1521 26.7275 16.1488 26.7199C16.1462 26.714 16.1428 26.7063 16.1394 26.7004L15.6898 25.7182C15.6864 25.7122 15.683 25.7046 15.6805 25.6987L15.263 24.9163C15.1123 24.9163 12.6812 25.5082 12.6008 25.5386C12.124 25.7224 12.3112 25.5725 11.6583 25.8799C11.5 25.9544 11.3154 26.0255 11.1909 26.1187C10.8996 26.3363 10.7472 26.4286 10.4669 26.7097C10.0723 27.1052 9.90464 27.338 9.68025 27.8021L9.43722 28.3101C9.36609 28.4973 9.18743 29.1603 9.21114 29.372H9.21368Z" fill="#E5F6FD"/>
<path fill-rule="evenodd" clip-rule="evenodd" d="M17.799 39.6663C17.9853 39.6612 18.0589 39.7459 18.4256 39.7865C18.661 39.8128 18.4764 39.867 18.6745 39.8797C19.1208 39.9085 19.656 39.8797 20.1039 39.867C20.2944 39.861 20.2614 39.8475 20.4053 39.8128C20.4917 39.7916 20.6289 39.7874 20.7237 39.7671C20.8372 39.7425 20.8999 39.7239 21.026 39.7002C21.1598 39.6756 21.4537 39.5723 21.5671 39.5173C21.8195 39.3953 22.3131 39.2387 22.5528 39.0321L22.3817 38.9575L21.767 38.6857C21.6222 38.6188 21.6332 38.6612 21.496 38.5892L21.4426 38.5596C20.9295 38.2988 21.0159 38.3767 20.7949 38.4596L19.8558 38.8424C19.3706 39.0617 18.8193 38.9516 18.4866 38.6341C17.9861 38.1565 18.092 37.8356 18.1123 37.2962C18.1402 36.5417 18.3045 36.446 18.0716 36.1632L17.6398 35.7025C17.5644 35.6102 17.5035 35.5611 17.4366 35.457C17.4052 35.4079 17.3832 35.3799 17.34 35.3257C16.8057 34.6517 17.0386 33.8888 17.4679 33.5924C17.9649 33.2494 17.8743 33.3358 18.4366 33.2156C18.5755 33.1859 18.6085 33.1529 18.7889 33.1411C18.8939 33.1343 18.8888 33.1402 18.9777 33.1097C19.1851 33.0403 19.2774 33.1538 19.462 32.7126L19.9591 31.8607C19.987 31.8277 20.0218 31.7693 20.0522 31.7286C20.1767 31.5627 20.3639 31.4577 20.5654 31.373C21.0701 31.1621 21.5654 31.3704 21.8745 31.6592C21.9558 31.7354 22.0057 31.8074 22.0701 31.9166C22.1336 32.025 22.181 32.0521 22.2539 32.1749L22.7441 33.003C22.8356 33.0784 23.3216 33.1123 23.4859 33.1631C23.5816 33.1927 23.5367 33.1969 23.6603 33.2156C24.2971 33.3121 24.9153 33.6864 24.9474 34.3553C24.9695 34.8033 24.9551 35.0133 24.646 35.3706C24.4953 35.5442 24.3742 35.6865 24.2209 35.8423C24.0837 35.982 23.966 36.1725 23.8111 36.2877C23.7958 36.4613 23.8424 36.9126 23.8746 37.0362C23.8932 37.0582 23.8907 37.0472 23.9127 37.0938L23.9686 37.435C23.9796 37.5875 23.9753 37.7365 23.9948 37.8881C23.9872 37.8525 24.1955 37.64 24.2489 37.579L24.4351 37.3148C24.4766 37.2631 24.4699 37.2775 24.5012 37.2411C24.618 37.1048 24.6291 37.015 24.7214 36.8448C24.9373 36.4485 25.1464 36.0506 25.2624 35.5992C25.2904 35.4917 25.3141 35.4417 25.3319 35.3596L25.4589 34.589C25.6088 33.5881 25.4716 33.6135 25.4259 32.8997L25.3276 32.4061C25.2404 32.0961 24.9805 31.3603 24.8204 31.0936C24.7518 30.9801 24.6434 30.8361 24.624 30.6769C24.6816 30.7006 24.6934 30.704 24.7696 30.7184C24.6824 30.5787 24.4741 30.4754 24.2937 30.3425C24.3581 30.0325 24.5063 29.7108 23.9008 29.411L23.2962 29.1299C23.0261 29.0308 23.1912 29.0528 23.0659 29.0325C23.0287 29.0266 22.9186 29.0274 22.8762 29.0257C22.8855 28.7963 22.9491 28.665 23.0405 28.4779C23.043 28.4728 23.0651 28.4279 23.0684 28.4211C23.071 28.4161 23.0752 28.4084 23.0786 28.4033L23.2734 28.2255L23.1853 28.1519C23.0888 28.2154 23.1675 28.1519 23.1125 28.2425C23.0253 28.3881 22.7975 28.919 22.8026 29.024C22.833 29.0384 22.8728 29.0528 22.916 29.0723C23.0024 29.1104 22.9541 29.0969 23.0684 29.1163C23.3513 29.1638 23.3834 29.2433 23.4605 29.2781C23.4995 29.2958 23.5545 29.3035 23.6129 29.3246C23.8695 29.4195 24.2218 29.5677 24.2776 29.8225C24.3877 30.3221 24.1108 30.7218 23.5816 30.6236C23.4046 30.5906 23.0591 30.3755 22.8009 30.2891C22.7424 30.2696 22.6959 30.2679 22.6417 30.2493C22.0794 30.0588 20.9007 29.9335 20.391 30.0461C19.9752 30.1375 20.076 30.0867 19.9041 30.1198C19.8278 30.1342 19.8295 30.1502 19.755 30.1663C19.6305 30.1934 19.5552 30.179 19.4349 30.2222C19.1987 30.3069 18.8185 30.4322 18.6093 30.5457C18.0699 30.8378 17.5305 31.2138 17.0978 31.6651C16.9005 31.8709 16.9463 31.7811 16.7464 32.0682C16.5982 32.2807 16.6685 32.1393 16.5127 32.3942C16.4374 32.5178 16.2375 32.7837 16.1571 32.9878C16.0106 33.3595 16.0292 33.1402 15.8353 33.8168C15.5779 34.7169 15.5051 35.5349 15.7185 36.4723C15.7455 36.5917 15.7362 36.6763 15.776 36.7813C15.8489 36.9735 15.8006 36.9405 15.8709 37.0769C16.0182 37.3656 16.0377 37.6256 16.3442 38.1158L16.8472 38.7882C16.8472 38.7882 16.8574 38.7975 16.8616 38.8017L17.0005 38.9652C17.0784 39.082 17.6686 39.6544 17.7947 39.668L17.799 39.6663Z" fill="#F5E064"/>
<path fill-rule="evenodd" clip-rule="evenodd" d="M20.8325 10.0132C20.9206 10.0115 21.0035 10.0158 21.0764 9.99205C21.2728 9.92939 21.051 9.95902 21.2542 9.92769L21.8943 9.68467C21.9375 9.66181 21.9426 9.66096 21.9866 9.6364C22.1145 9.56358 22.1712 9.52463 22.2805 9.42894C22.3651 9.35443 22.4744 9.29346 22.5591 9.2037C22.6429 9.11479 22.7259 9.02503 22.7995 8.93951C23.0333 8.66769 23.1171 8.49326 23.3237 8.23245C23.3694 8.17487 23.377 8.15116 23.4253 8.08257L24.2552 6.8937C24.3212 6.7777 24.2526 6.81495 24.4042 6.6837C24.5845 6.5279 24.8445 6.53044 25.0867 6.63967C25.1646 6.67524 25.2958 6.78701 25.3339 6.85814C25.3526 6.89286 25.3483 6.8954 25.3644 6.93858C25.4923 7.27644 25.3433 7.51778 25.1604 7.77604C25.0977 7.86411 25.1172 7.79382 24.9783 8.0106C24.9724 8.01907 24.952 8.0487 24.9444 8.06056C24.8716 8.17064 24.825 8.27056 24.7437 8.36709C24.4186 8.75491 24.5185 8.81927 24.6574 9.05467L24.8386 9.31632C25.4161 9.87181 25.3331 9.73632 25.9182 10.0327C26.2993 10.2258 27.1283 9.98866 27.5737 10.136C27.6414 10.1589 27.9335 10.23 27.9699 10.191C28.0597 10.0048 27.981 7.99705 27.9716 7.64225C27.9649 7.39753 27.9047 7.29931 27.892 7.08338C27.8844 6.94536 27.8861 6.92334 27.8489 6.81326C27.7854 6.62697 27.7481 6.2637 27.6168 5.98173L27.5889 5.92753C27.5466 5.83015 27.5728 5.80052 27.4644 5.54225C27.1283 4.74205 26.754 4.21197 26.2036 3.55572C26.1087 3.44225 25.991 3.31778 25.8945 3.2204C25.7937 3.11963 25.2586 2.65814 25.1561 2.62427C25.2205 2.81225 25.2484 2.66237 25.19 2.89693L25.0299 3.47104C24.9885 3.58874 24.9707 3.59721 24.919 3.71915C24.7793 4.05108 24.9055 3.93253 24.7387 4.27294L24.5202 4.8081C24.4787 4.90378 24.4524 4.91394 24.4008 5.04774C24.289 5.3331 24.2975 5.41862 24.1866 5.56935C24.0299 5.78358 24.0223 5.8564 23.9325 6.04862L22.62 8.03769C22.4981 8.22314 21.7682 9.02249 21.576 9.22741C21.4337 9.37898 20.8782 9.87774 20.8291 10.0107L20.8325 10.0132Z" fill="#E28423"/>
<path fill-rule="evenodd" clip-rule="evenodd" d="M23.8756 37.0371C23.885 37.3089 23.9747 37.9618 23.835 38.2302C23.6462 38.5926 23.2507 38.9576 22.8214 38.9686C22.6749 38.972 22.5276 38.9652 22.3811 38.9593L22.5521 39.0338C22.3125 39.2404 21.8188 39.3971 21.5665 39.519C21.453 39.574 21.1592 39.6773 21.0254 39.7019C20.8992 39.7248 20.8366 39.7442 20.7231 39.7688C20.6291 39.7891 20.4911 39.7934 20.4047 39.8145C20.2599 39.8492 20.2938 39.8636 20.1033 39.8687C19.6562 39.8823 19.1202 39.9102 18.6739 39.8814C18.4758 39.8687 18.6604 39.8145 18.425 39.7883C18.0583 39.7476 17.9855 39.663 17.7983 39.668C17.8458 39.7459 17.8906 39.7722 17.9685 39.8255C18.1675 39.9619 18.5647 40.2108 18.7831 40.2777L19.2302 40.4657C19.4843 40.5631 19.6968 40.6461 19.9915 40.6833L20.5504 40.7646C21.2185 40.7866 21.4683 40.7553 22.0635 40.6791L23.0263 40.3844C23.1389 40.3344 23.155 40.3124 23.2482 40.2752C23.4192 40.2066 23.553 40.1329 23.6843 40.0618L24.2042 39.7392L24.5844 39.3691C24.7724 39.1828 24.8384 39.1989 25.1509 38.8162L25.6183 38.1633C25.8774 37.7679 26.2669 36.756 26.3194 36.2894C26.3872 35.689 26.4431 34.5154 26.2009 33.9709C26.1594 33.8786 25.9545 33.2021 25.8545 33.0293C25.7682 32.8786 25.7148 32.7499 25.6242 32.6153C25.4312 32.329 25.1907 32.053 25.316 31.7041C25.4125 31.4374 25.4422 31.528 25.5997 31.34C25.4066 31.3527 25.4498 31.3222 25.3439 31.2138C25.2855 31.1537 25.2076 31.0902 25.1551 31.0394C25.0332 30.9226 24.9307 30.815 24.7707 30.7168C24.6945 30.7024 24.6826 30.699 24.625 30.6753C24.6445 30.8345 24.7529 30.9793 24.8215 31.0919C24.9815 31.3586 25.2423 32.0945 25.3287 32.4044L25.4269 32.8981C25.4727 33.6128 25.6098 33.5865 25.46 34.5874L25.3329 35.358C25.3152 35.4401 25.2906 35.4901 25.2635 35.5976C25.1475 36.0489 24.9383 36.4469 24.7224 36.8432C24.6293 37.0134 24.6183 37.104 24.5022 37.2395C24.4709 37.2759 24.4777 37.2615 24.4362 37.3132L24.2499 37.5773C24.1966 37.6392 23.9883 37.8509 23.9959 37.8864C23.9756 37.7348 23.9798 37.5867 23.9696 37.4334L23.9137 37.0921C23.8926 37.0456 23.8943 37.0566 23.8756 37.0346V37.0371Z" fill="#F1D131"/>
<path fill-rule="evenodd" clip-rule="evenodd" d="M19.0691 23.1999C19.0022 22.8569 19.0302 22.7011 19.0302 22.3158C19.0302 22.0271 19.0158 21.6977 19.0361 21.4149C19.2639 21.3988 19.2808 21.4691 19.5162 21.486C19.7381 21.5012 19.7601 21.5622 19.9913 21.5724C20.3901 21.5893 20.9041 21.7197 21.5155 21.635C21.6908 21.6105 21.8195 21.5783 22.0066 21.5715C22.3699 21.558 22.7433 21.4005 22.9635 21.4149L22.9702 22.989C22.9635 23.1203 22.9524 23.0873 22.9304 23.2007C23.1032 23.1321 23.0473 22.9967 23.0473 22.6241L23.0431 20.5241C23.0431 20.2726 23.1269 20.0008 22.8356 20.1439C22.5663 20.2751 21.9846 20.3606 21.6924 20.4072C21.3216 20.4665 20.0827 20.4402 19.7381 20.3031C19.5764 20.2387 19.3672 20.2235 19.1885 20.1498C18.8701 20.0194 18.9582 20.2133 18.9591 20.5241L18.9531 22.9331C18.9514 23.1101 18.9345 23.1423 19.0708 23.1999H19.0691Z" fill="#E99A58"/>
<path fill-rule="evenodd" clip-rule="evenodd" d="M20.4682 28.776L21.5394 28.7785L22.2084 27.2162C22.1745 27.1222 22.0864 27.0528 22.0128 26.9876C21.9653 26.9461 21.9332 26.9275 21.8934 26.8851C21.8502 26.8377 21.8332 26.8072 21.7892 26.764C21.7503 26.7259 21.7079 26.6988 21.6681 26.6607C21.6359 26.6303 21.5995 26.5744 21.5657 26.5388L21.337 26.3203C21.2642 26.2509 21.2041 26.184 21.1296 26.107C21.0212 25.9952 20.9814 25.996 20.873 26.107C20.7917 26.1899 20.735 26.2534 20.6511 26.3339C20.5817 26.3999 20.5978 26.4016 20.5461 26.4524C20.4979 26.4999 20.4759 26.499 20.4208 26.5507L19.8721 27.0951C19.7298 27.2315 19.8425 27.3593 19.9907 27.6947C20.0838 27.9047 20.3954 28.6854 20.4699 28.776H20.4682Z" fill="#DD5790"/>
<path fill-rule="evenodd" clip-rule="evenodd" d="M27.636 14.003C27.7062 13.9505 27.774 13.9175 27.8383 13.8388C27.8849 13.782 27.962 13.6677 27.9628 13.5966C27.9594 13.2706 28.0187 12.036 27.9416 11.815C27.7088 11.1486 26.6351 11.384 26.6249 11.3958C26.5792 11.5093 26.5843 13.9395 26.6274 14.0284L26.7392 14.0615C26.7714 14.0648 26.8442 14.0623 26.8798 14.0615C26.9645 14.0615 27.0483 14.0615 27.133 14.0615C27.3472 14.0615 27.431 14.0208 27.636 14.0022V14.003Z" fill="#F1A668"/>
<path fill-rule="evenodd" clip-rule="evenodd" d="M13.0412 33.8336C12.9853 33.6981 12.9862 33.6769 12.893 33.588C12.8888 33.5838 12.8828 33.5787 12.8786 33.5745C12.8718 33.5677 12.8498 33.5465 12.8346 33.5321L12.7482 33.4509C12.5789 33.2993 12.4078 33.0961 12.263 33.008C11.644 32.632 10.8684 33.4314 11.5466 34.0919L11.5754 34.119C11.6161 34.1579 11.6364 34.1774 11.6754 34.2146C11.7727 34.3069 11.8032 34.3154 11.8058 34.4932C11.8134 35.0182 11.8041 35.5534 11.8041 36.0792L9.20616 36.0809V31.079C9.20616 30.5422 9.24257 29.8902 9.21378 29.3711C9.11301 29.5244 9.15958 30.8851 9.15958 31.0511V34.467C9.15958 34.7329 9.10708 36.0242 9.21632 36.1427C9.25188 36.1656 9.2087 36.1521 9.27475 36.1639L11.622 36.1707C11.8117 36.1715 11.788 36.1682 11.8896 36.0852C11.9167 35.6008 11.8955 35.0419 11.8947 34.55C11.8947 34.091 11.3502 34.0571 11.3383 33.5719C11.329 33.1757 11.8151 32.7895 12.2224 33.0529C12.3291 33.1215 12.5314 33.3289 12.6271 33.4348C12.7753 33.5982 12.8041 33.5753 12.9116 33.7261C12.9794 33.8217 12.9701 33.8073 13.0404 33.8336H13.0412Z" fill="#6D7D84"/>
<path fill-rule="evenodd" clip-rule="evenodd" d="M6.54543 32.0742L5.3337 32.0708C5.30321 31.6694 5.32692 31.1825 5.32692 30.7719C5.32692 30.5661 5.38874 29.8446 5.12793 29.7083C5.15757 29.8277 5.1745 29.859 5.21345 29.953C5.25071 30.0419 5.2414 30.1215 5.2414 30.2401C5.2397 30.5906 5.20837 32.0014 5.27019 32.1445C5.36587 32.1817 7.68095 32.1767 7.94007 32.1572C8.06031 31.8286 7.8791 29.9928 8.03406 29.2138C8.08571 28.9538 8.0366 28.7625 8.18733 28.2942C8.20426 28.2417 8.20511 28.2036 8.22035 28.1528C8.25676 28.0317 8.36345 27.8276 8.37446 27.665C8.36684 27.671 8.35668 27.6701 8.35329 27.6837L8.28894 27.7607C8.25845 27.8158 8.27539 27.8056 8.25591 27.8632C8.21696 27.9733 8.21527 27.9284 8.17886 28.085L8.04253 28.5635C7.93414 28.9174 7.93753 29.2892 7.93075 29.6541C7.91551 30.4272 7.97563 31.3189 7.91974 32.0708L6.54797 32.0759L6.54543 32.0742Z" fill="#426FAB"/>
<path fill-rule="evenodd" clip-rule="evenodd" d="M13.042 33.9082C13.0446 34.2122 13.0099 35.9701 13.0759 36.0946C13.1521 36.186 14.3308 36.1784 14.3986 36.12C14.4765 36.0175 14.4138 35.8346 14.4053 35.6991C14.3952 35.545 14.3969 35.3782 14.402 35.2241C14.4189 34.749 14.507 33.9827 14.6611 33.5534C14.7026 33.4374 14.7339 33.3061 14.7754 33.1935C14.8186 33.0766 14.8736 32.9573 14.9143 32.8074C14.8042 32.8184 14.8482 32.8353 14.7999 32.9556C14.7754 33.0157 14.7618 33.0512 14.7356 33.1266C14.6111 33.4907 14.4291 34.0606 14.413 34.4433C14.402 34.705 14.3537 34.5136 14.341 35.1131C14.3342 35.4408 14.3444 35.7499 14.3537 36.0768H13.1318C13.1318 35.9667 13.1487 34.0852 13.1182 34.0073C13.048 33.8269 13.1267 33.9886 13.0412 33.9099L13.042 33.9082Z" fill="#939DA1"/>
<path fill-rule="evenodd" clip-rule="evenodd" d="M27.4839 34.2005C27.4856 34.3394 27.5372 34.5206 27.5415 34.6925C27.5457 34.8601 27.5457 35.0286 27.5465 35.1963C27.5542 36.397 27.3831 36.1853 28.196 36.1853C28.4272 36.1853 28.6651 36.1904 28.8963 36.1819C29.0098 36.0422 28.9691 35.8458 28.9691 35.6163V34.2445C28.9691 33.9981 28.9437 33.9642 29.0487 33.8042C29.1063 33.717 29.0945 33.7593 29.1114 33.656C29.0072 33.706 29.0775 33.656 29.0064 33.7407C28.9996 33.7492 28.9573 33.816 28.948 33.8406C28.7625 34.3368 28.9759 35.5206 28.8658 36.0947L27.616 36.0837L27.6388 35.0845C27.6338 34.8711 27.6067 34.8025 27.5872 34.6349C27.5779 34.5587 27.5796 34.4842 27.5736 34.4079C27.5567 34.1954 27.5178 34.2217 27.4856 34.2005H27.4839Z" fill="#5B6366"/>
<path fill-rule="evenodd" clip-rule="evenodd" d="M27.6362 14.003C27.4304 14.0217 27.3466 14.0623 27.1332 14.0623C27.0485 14.0623 26.9647 14.0623 26.88 14.0623C26.8445 14.0623 26.7716 14.0649 26.7395 14.0623L26.6277 14.0293C26.5845 13.9404 26.5794 11.5101 26.6251 11.3967C26.6353 11.3848 27.709 11.1494 27.9419 11.8158C28.0189 12.0368 27.9597 13.2723 27.963 13.5974C27.9961 13.5593 28.0291 13.5221 28.0452 13.4289C28.0596 13.351 28.0545 13.268 28.0536 13.1885C28.0511 12.5187 28.1671 11.6761 27.698 11.4212C27.6667 11.4043 27.6514 11.3984 27.6226 11.3848C27.4109 11.2849 26.9613 11.2764 26.7098 11.3044L26.5811 11.3408C26.5134 11.4678 26.5235 13.9726 26.587 14.0953L26.6328 14.1123C26.7411 14.1368 27.4169 14.1639 27.5761 14.053L27.6336 14.003H27.6362Z" fill="#6D502F"/>
<path fill-rule="evenodd" clip-rule="evenodd" d="M31.8403 22.0636L31.8259 20.6046C32.0088 20.5902 32.9267 20.7807 33.4669 20.6503C33.5347 20.6342 33.8802 20.5783 33.92 20.58C33.9682 20.7045 33.9555 21.5953 33.942 21.8307C33.931 22.0221 33.8827 22.0407 33.8573 22.21C33.9792 22.1067 33.9801 22.0415 33.9843 21.8671C33.9919 21.5606 34.0275 20.7138 33.9504 20.5106C33.8336 20.5063 33.8581 20.5453 33.7125 20.5631L32.8717 20.6435L32.0325 20.5588C31.7133 20.508 31.704 20.3463 31.7446 21.7003C31.7488 21.8375 31.7607 21.9619 31.8403 22.0627V22.0636Z" fill="#5B4B3B"/>
</g>
<defs>
<clipPath id="clip0_1018_927">
<rect width="42" height="42" fill="white"/>
</clipPath>
</defs>
</svg>
