<svg width="41" height="41" viewBox="0 0 41 41" fill="none" xmlns="http://www.w3.org/2000/svg">
<g clip-path="url(#clip0_1018_2191)">
<path fill-rule="evenodd" clip-rule="evenodd" d="M23.7872 33.3459C23.9967 33.3285 24.4766 32.938 25.2214 33.2248C25.4987 33.3316 25.4653 33.6316 25.4653 33.8929C25.4653 34.5193 25.3521 34.8029 25.032 35.279C24.9643 35.38 24.9135 35.4372 24.8263 35.516C24.5861 35.7324 24.6998 35.6551 24.4358 35.835C24.4311 35.8382 24.4247 35.8435 24.4194 35.8466L23.9872 36.0519C23.8438 36.0948 23.8052 36.09 23.6862 35.9805L23.5746 35.8731C23.4947 35.8049 23.4926 35.7974 23.3989 35.7789C23.4746 35.9376 23.5719 35.9773 23.7174 36.0884C23.8285 36.1731 24.1914 36.3349 24.3512 36.3561C25.879 36.5566 26.5874 35.1541 26.2483 34.2453C26.1361 33.9453 26.0478 33.7247 25.7891 33.4977C25.4733 33.2205 25.1495 33.0682 24.7104 33.065C24.4512 33.0629 23.9359 33.1227 23.7878 33.3459H23.7872Z" fill="#7A8A96"/>
<path fill-rule="evenodd" clip-rule="evenodd" d="M7.40242 33.1937C7.62726 33.2392 7.61245 33.1201 8.11979 33.1265C8.19967 33.1275 8.64776 33.2191 8.71654 33.3196C8.85462 33.5201 8.83663 34.1385 8.7832 34.3311C8.76362 34.4009 8.75304 34.4914 8.7377 34.5591L8.64036 34.8194C8.54513 35.0506 8.38113 35.3066 8.21131 35.4891L7.905 35.7621C7.78491 35.8521 7.67223 35.9034 7.53733 35.9716C7.35322 36.0642 7.31831 36.0954 7.06543 36.0531L7.2326 36.1764C7.4458 36.3044 7.59235 36.3568 7.8722 36.3631C8.0362 36.3668 8.22348 36.3784 8.37955 36.3435C9.04824 36.1933 9.53707 35.6484 9.66404 34.9511C9.7746 34.3443 9.41116 33.6434 8.92921 33.3307C8.77526 33.2307 8.53032 33.1402 8.34569 33.09C8.20708 33.0524 8.00499 33.0614 7.84417 33.0678C7.72355 33.072 7.56907 33.1027 7.4622 33.1561C7.41142 33.1815 7.4384 33.1619 7.40242 33.1937Z" fill="#7A8A96"/>
<path fill-rule="evenodd" clip-rule="evenodd" d="M32.1983 33.2794C32.3856 33.3074 32.3221 33.2455 32.5813 33.1905C32.6739 33.1709 32.6025 33.1926 32.6882 33.1572C32.886 33.0757 32.5522 33.1688 32.7564 33.1302C32.9347 33.0963 33.3897 33.1487 33.5685 33.236C33.5738 33.2387 33.5807 33.2424 33.586 33.245C33.5934 33.2487 33.6161 33.2614 33.6235 33.2656C33.7801 33.3598 33.7981 33.573 33.8002 33.7841C33.8071 34.3893 33.75 34.6374 33.4442 35.1622C33.2241 35.5405 32.9035 35.7838 32.5263 35.9769C32.2136 36.1372 32.1803 36.0632 32.0518 36.069C32.057 36.0753 32.0645 36.0764 32.0676 36.087C32.0898 36.1716 32.5771 36.3367 32.6136 36.3451C32.7506 36.3774 33.3072 36.3663 33.4257 36.3435L33.8007 36.1764C33.9166 36.1145 34.0161 36.0378 34.1139 35.9447L34.3589 35.6405C34.561 35.3638 34.7054 34.9141 34.6541 34.5496C34.6276 34.3618 34.5213 34.101 34.4483 33.9412C34.3758 33.783 34.3493 33.7381 34.2192 33.619C34.1261 33.5339 34.0727 33.4503 33.9325 33.3582C33.861 33.3117 33.6769 33.1736 33.6029 33.1529C33.4272 33.1037 33.3273 33.071 33.1278 33.0662C32.9966 33.063 32.7093 33.0556 32.5924 33.0895C32.5406 33.1043 32.4956 33.1302 32.3956 33.1609L32.2438 33.2334C32.1962 33.2704 32.2332 33.2302 32.1978 33.2783L32.1983 33.2794Z" fill="#7A8A96"/>
<path fill-rule="evenodd" clip-rule="evenodd" d="M15.4243 36.0751C15.4793 36.1566 15.574 36.1867 15.729 36.2587C16.2073 36.4804 16.7728 36.3751 17.1659 36.1391C17.2331 36.0989 17.2378 36.0831 17.2902 36.0466C17.3511 36.0037 17.3664 36.0095 17.4283 35.9624C17.7949 35.6847 17.9933 35.199 17.9949 34.7414C17.9959 34.5155 17.9721 34.3653 17.8891 34.1849C17.852 34.1039 17.8684 34.0965 17.8425 34.0108C17.805 33.8881 17.5574 33.5881 17.4669 33.5093C17.2331 33.3067 17.2643 33.3739 17.1125 33.2654L16.9088 33.1697C16.9252 33.3517 16.8913 33.1988 16.9971 33.2808C17.2437 33.4712 17.1426 34.3923 17.0231 34.6991L16.7178 35.2773C16.703 35.2959 16.6533 35.3451 16.639 35.3599C16.6353 35.3636 16.63 35.3694 16.6263 35.3736L16.4977 35.5181C16.494 35.5223 16.4898 35.5292 16.4861 35.5334L16.2676 35.7323C15.9904 35.9275 16.0581 35.8688 15.7989 36.0021L15.6777 36.0513C15.5439 36.0942 15.5947 36.0836 15.4259 36.0751H15.4243Z" fill="#7A8A96"/>
<path fill-rule="evenodd" clip-rule="evenodd" d="M15.4247 36.0752C15.5934 36.0836 15.5426 36.0942 15.6765 36.0514L15.7976 36.0022C16.0563 35.8689 15.9886 35.9276 16.2663 35.7324L16.4848 35.5335C16.4885 35.5292 16.4933 35.5223 16.4965 35.5181L16.625 35.3737C16.6287 35.37 16.634 35.3642 16.6377 35.3599C16.652 35.3451 16.7017 35.2959 16.7165 35.2774L17.0218 34.6992C17.1414 34.3918 17.2424 33.4713 16.9959 33.2808C16.8895 33.1988 16.9234 33.3517 16.9075 33.1697C16.6626 33.0243 15.9669 33.019 15.6384 33.2137C15.3003 33.4136 15.0369 33.6041 14.8395 33.9707C14.6412 34.34 14.5941 34.851 14.7464 35.2182C14.8126 35.3774 14.9194 35.6578 15.0543 35.7625L15.3717 36.0392C15.4289 36.0842 15.3966 36.0598 15.4241 36.0741L15.4247 36.0752Z" fill="#8B9AA5"/>
<path fill-rule="evenodd" clip-rule="evenodd" d="M7.40224 33.1937C7.2028 33.2032 6.86422 33.4963 6.71556 33.665C6.62404 33.7687 6.52722 33.9105 6.4849 34.0327L6.33148 34.4702C6.26271 34.9865 6.45263 35.451 6.7473 35.8118C6.88432 35.9795 6.9314 35.9933 7.06525 36.0531C7.31865 36.0949 7.35304 36.0642 7.53714 35.9716C7.67258 35.9039 7.78473 35.852 7.90482 35.7621L8.21113 35.4891C8.38042 35.3061 8.54495 35.05 8.64018 34.8194L8.73752 34.5591C8.75286 34.4914 8.76344 34.4009 8.78302 34.3311C8.83645 34.139 8.85443 33.5201 8.71636 33.3196C8.64758 33.219 8.19949 33.1275 8.11961 33.1265C7.61227 33.1201 7.62708 33.2392 7.40224 33.1937Z" fill="#8B9AA5"/>
<path fill-rule="evenodd" clip-rule="evenodd" d="M32.1982 33.2794C31.9893 33.336 31.747 33.6101 31.6163 33.7751C31.5539 33.8539 31.4687 34.0407 31.4311 34.1359C31.1566 34.8348 31.42 35.5781 31.9618 36.0182L32.0522 36.0701C32.1808 36.0642 32.2146 36.1378 32.5268 35.978C32.904 35.7844 33.224 35.541 33.4446 35.1633C33.7504 34.6385 33.8076 34.3899 33.8007 33.7852C33.7986 33.5746 33.7801 33.3609 33.624 33.2667C33.6166 33.2625 33.5938 33.2498 33.5864 33.2461C33.5811 33.2434 33.5743 33.2397 33.569 33.2371C33.3902 33.1498 32.9352 33.098 32.7569 33.1313C32.5527 33.1699 32.8865 33.0768 32.6887 33.1583C32.603 33.1937 32.6744 33.1715 32.5818 33.1916C32.3226 33.2471 32.3855 33.309 32.1988 33.2805L32.1982 33.2794Z" fill="#8B9AA5"/>
<path fill-rule="evenodd" clip-rule="evenodd" d="M16.9076 33.1697L17.1113 33.2655C17.2631 33.3739 17.2325 33.3067 17.4658 33.5093C17.5562 33.5876 17.8038 33.8876 17.8414 34.0109C17.8673 34.096 17.8509 34.104 17.8879 34.1849C17.971 34.3653 17.9948 34.5156 17.9937 34.7415C17.9921 35.1996 17.7938 35.6853 17.4271 35.9625C17.3652 36.009 17.3499 36.0037 17.2891 36.0466C17.2367 36.0831 17.2319 36.0984 17.1647 36.1392C16.7722 36.3751 16.2061 36.4809 15.7279 36.2587C15.5729 36.1868 15.4787 36.1571 15.4232 36.0751C15.3957 36.0609 15.4274 36.0847 15.3708 36.0402L15.0534 35.7635C14.9185 35.6588 14.8116 35.3789 14.7455 35.2192C14.5931 34.852 14.6402 34.3405 14.8386 33.9717C15.0359 33.6046 15.2994 33.4146 15.6374 33.2147C15.9659 33.02 16.6616 33.0253 16.9066 33.1708L16.9076 33.1697ZM15.8586 31.899C15.7686 31.9275 15.6633 31.9349 15.5639 31.9646C15.4941 31.9852 15.4978 31.9947 15.4507 32.0116C15.3925 32.0318 15.3517 32.0312 15.292 32.0497C15.2242 32.0704 15.12 32.1275 15.0497 32.163C14.3566 32.51 13.8107 33.1623 13.6006 33.9135C13.5657 34.0389 13.5435 34.0188 13.5282 34.1939C13.4943 34.5769 13.4028 34.5674 13.5192 35.1869C13.5562 35.3842 13.6001 35.6059 13.6636 35.7588C13.7292 35.917 13.8096 36.0905 13.8921 36.2418C14.0048 36.4481 13.917 36.2952 14.0419 36.4428L14.5968 36.9824L15.2586 37.3824C15.7586 37.5972 16.2691 37.6152 16.8373 37.5506C16.9611 37.5363 16.9214 37.5162 17.1351 37.4845C17.2721 37.4639 17.2473 37.439 17.3795 37.3882C17.6578 37.2819 17.8419 37.1798 18.0673 37.0084C18.8439 36.4169 19.3914 35.2583 19.1624 34.2722C19.1391 34.1717 19.1354 34.0659 19.1021 33.9781C18.8709 33.3628 18.7053 32.9311 18.0948 32.4714C18.0144 32.4111 17.9747 32.3867 17.8943 32.3169L17.6261 32.1518C17.6007 32.1397 17.6202 32.146 17.5726 32.1243C17.5287 32.1042 17.4689 32.0841 17.434 32.0709C17.0235 31.9127 16.2966 31.7593 15.8591 31.899H15.8586Z" fill="#020202"/>
<path fill-rule="evenodd" clip-rule="evenodd" d="M7.40205 33.1935C7.43802 33.1618 7.41104 33.1814 7.46183 33.156C7.5687 33.102 7.72264 33.0719 7.84379 33.0676C8.00515 33.0618 8.20724 33.0523 8.34532 33.0898C8.52942 33.1401 8.77436 33.2306 8.92884 33.3306C9.41079 33.6432 9.77423 34.3447 9.66366 34.951C9.5367 35.6482 9.0484 36.1932 8.37917 36.3434C8.22311 36.3783 8.03583 36.3672 7.87183 36.363C7.59197 36.3561 7.44543 36.3037 7.23223 36.1762L7.06506 36.053C6.93121 35.9932 6.88413 35.9794 6.74711 35.8117C6.45191 35.4509 6.26199 34.9864 6.33129 34.4701L6.48471 34.0326C6.52703 33.9104 6.62384 33.7691 6.71537 33.6649C6.86403 33.4956 7.20261 33.2025 7.40205 33.1935ZM7.47188 31.9048C7.36555 31.944 7.16663 31.9588 6.89259 32.0709L6.85186 32.0879C6.82488 32.0984 6.81112 32.1011 6.78943 32.1096C6.68521 32.1503 6.80054 32.1 6.736 32.1334C6.73124 32.136 6.72436 32.1402 6.7196 32.1429L6.45984 32.3169C6.09217 32.5381 5.80067 32.9163 5.56049 33.221C5.4859 33.3157 5.4404 33.4554 5.3785 33.558C5.35575 33.5951 5.36792 33.5771 5.34359 33.6099C5.29862 33.6713 5.32719 33.6162 5.29809 33.6676C5.27587 33.7072 5.28275 33.7252 5.26688 33.7871C5.25206 33.8464 5.26688 33.804 5.24413 33.8569C5.24307 33.8596 5.20498 33.9236 5.20445 33.9241C5.14837 34.059 5.07537 34.9409 5.1743 35.225C5.21027 35.3282 5.19599 35.4044 5.24201 35.5139C5.26688 35.5737 5.31978 35.7361 5.33301 35.7858C5.39279 36.0027 5.31237 35.8181 5.42506 36.0461L5.88955 36.6412C6.03873 36.7862 6.10962 36.892 6.26833 36.9983L6.57359 37.2137C6.74446 37.3316 6.82752 37.3449 7.01692 37.421C7.38353 37.5686 7.96124 37.6279 8.5236 37.5475C8.79235 37.5089 8.85636 37.4681 9.07538 37.3877C9.4256 37.2597 9.81232 36.9756 10.0462 36.6941C10.2953 36.3937 10.1472 36.655 10.4255 36.2238C10.6392 35.8927 10.4932 36.1879 10.6662 35.7556C10.708 35.6509 10.727 35.6202 10.7614 35.4996C10.9974 34.6579 10.8561 33.9199 10.4207 33.2052C10.2165 32.8698 9.85676 32.5132 9.53352 32.2905C9.35683 32.1688 8.68813 31.9244 8.51884 31.8879C8.43102 31.8688 8.26808 31.871 8.17285 31.8694C7.95648 31.8651 7.65123 31.8387 7.47188 31.9048Z" fill="#020202"/>
<path fill-rule="evenodd" clip-rule="evenodd" d="M32.1984 33.2794C32.2339 33.2312 32.1974 33.2715 32.2444 33.2344L32.3963 33.1619C32.4963 33.1313 32.5412 33.1053 32.5931 33.0905C32.71 33.0567 32.9967 33.0641 33.1285 33.0672C33.3284 33.0725 33.4284 33.1048 33.6035 33.154C33.6776 33.1746 33.8622 33.3127 33.9331 33.3593C34.0733 33.4513 34.1267 33.5349 34.2199 33.6201C34.35 33.7386 34.3764 33.7841 34.4489 33.9423C34.5225 34.102 34.6288 34.3628 34.6547 34.5507C34.7055 34.9152 34.5611 35.3648 34.3595 35.6415L34.1146 35.9457C34.0167 36.0388 33.9172 36.1155 33.8014 36.1774L33.4263 36.3446C33.3078 36.3673 32.7513 36.3785 32.6142 36.3462C32.5772 36.3372 32.09 36.1727 32.0683 36.088C32.0656 36.0769 32.0577 36.0759 32.0524 36.07L31.9619 36.0182C31.4202 35.578 31.1568 34.8347 31.4313 34.1359C31.4689 34.0407 31.5535 33.8544 31.6165 33.7751C31.7472 33.61 31.9895 33.336 32.1984 33.2794ZM32.6074 31.8907C32.3032 31.9468 32.0392 31.9875 31.7905 32.1457C31.699 32.2039 31.6339 32.2039 31.5435 32.2547C31.1345 32.4837 30.7002 32.9302 30.4769 33.346C30.4568 33.3841 30.4404 33.4249 30.4225 33.455L30.2823 33.746C30.0918 34.3708 30.0511 34.9749 30.2706 35.6008C30.2907 35.6579 30.3045 35.6849 30.3172 35.7188C30.3971 35.9277 30.4976 36.1303 30.6293 36.3081C30.8748 36.6382 30.6378 36.3758 30.9547 36.6953L31.2499 36.9741C31.2541 36.9779 31.261 36.9826 31.2652 36.9863C31.2694 36.99 31.2758 36.9948 31.2805 36.9985L32.0217 37.4281C32.4 37.5936 33.3364 37.6275 33.6506 37.527C34.2109 37.3482 33.8807 37.4799 34.3987 37.2154C34.6341 37.0953 35.0277 36.7652 35.1917 36.5604C35.3948 36.3065 35.7615 35.678 35.7937 35.3971C35.863 34.7998 35.9075 34.7025 35.789 34.0692C35.7704 33.9703 35.7382 33.9105 35.7059 33.801L35.534 33.4307C35.5313 33.4249 35.5271 33.418 35.5244 33.4127C35.3827 33.1508 35.3784 33.127 35.1922 32.8937C35.0869 32.762 34.9489 32.6186 34.8288 32.5213C34.4807 32.2388 34.3801 32.2531 34.1669 32.1134C33.8628 31.9145 33.0814 31.8029 32.6068 31.8907H32.6074Z" fill="#020202"/>
<path fill-rule="evenodd" clip-rule="evenodd" d="M18.2923 15.538C18.2643 15.5925 18.3135 15.5755 18.2135 15.6263C18.0278 15.7205 18.0505 15.4697 18.0516 15.4173C18.0648 14.5296 18.0045 12.5235 18.0627 11.9411C18.2685 11.8903 20.8835 11.8945 21.1036 11.9442C21.1554 12.4796 21.112 13.2436 21.112 13.8033L21.0808 15.6152C20.9671 15.666 20.7602 15.5189 20.6491 15.4591C20.3963 15.3221 20.2989 15.3274 20.254 15.2063C20.1206 15.2026 19.9656 15.0687 19.763 15.0507C19.308 15.01 19.3694 15.0761 19.0784 15.1877C18.8764 15.265 19.0054 15.1877 18.7314 15.3401L18.4621 15.4792C18.3114 15.5454 18.4008 15.539 18.2923 15.5374V15.538ZM26.9981 0.000285257H30.1548C30.3796 0.000285257 30.5394 0.00451751 30.7299 0.102388L30.851 0.172221C30.9954 0.266388 31.0986 0.365317 31.2081 0.498105C31.4874 0.836685 31.4874 1.06258 31.4874 1.44878C31.4874 1.91327 31.4874 2.37829 31.4874 2.84278C31.5218 2.85918 31.5403 2.86447 31.5827 2.88457L31.8371 2.98561C31.8879 3.00995 31.9556 3.03534 32.0106 3.05809C32.1752 3.12528 32.363 3.27817 32.5296 3.11999L32.8566 2.79093C32.882 2.76554 32.8947 2.75337 32.9253 2.72269L33.2078 2.43119C33.2332 2.4058 33.2454 2.3931 33.2761 2.36241L33.5676 2.07991C33.6147 2.03653 33.6321 2.02383 33.693 1.98627C33.8448 1.89316 33.9633 1.85031 34.1326 1.79741C34.3791 1.72017 34.5627 1.74027 34.8172 1.80958L34.9986 1.87412C35.1356 1.94342 35.2504 2.00902 35.3578 2.11589C35.3853 2.1434 35.388 2.14763 35.4118 2.17143L37.3026 4.05267L37.7787 4.75205C37.8998 5.0573 37.8469 5.46149 37.6993 5.74769C37.6692 5.80589 37.6406 5.85244 37.6073 5.90164C37.5687 5.95878 37.565 5.97306 37.5163 6.02967L37.3528 6.1942C37.3486 6.1979 37.3433 6.20372 37.3391 6.20795L36.701 6.85496C36.4217 7.15227 36.3312 7.10572 36.4323 7.32897C36.4545 7.3787 36.4482 7.37394 36.4699 7.4279C36.5476 7.621 36.6899 7.85271 36.7079 8.06432C37.4099 8.12252 38.3564 8.0056 38.8018 8.21192L38.9478 8.2844C38.9531 8.28758 38.96 8.29181 38.9648 8.29445L38.9992 8.31456C39.1452 8.40132 39.2827 8.52723 39.3785 8.67324L39.4795 8.84518C39.5663 9.02134 39.6324 9.2885 39.6335 9.48372C39.6366 9.9572 39.6324 10.4328 39.6324 10.9063C39.6324 11.2861 39.7028 12.4648 39.5404 12.8092C39.5382 12.8134 39.5192 12.8489 39.5123 12.8632C39.3906 13.1245 39.2161 13.3425 38.9648 13.4911C38.9246 13.5149 38.9267 13.5165 38.8965 13.5324C38.8912 13.535 38.8838 13.5387 38.8785 13.5414L38.4442 13.6811C38.3611 13.7022 37.1121 13.6874 36.7079 13.7213C36.6926 13.9064 36.5339 14.1937 36.4624 14.3778C36.3529 14.6608 36.3492 14.5794 36.5778 14.8074C36.8968 15.1264 37.4697 15.6173 37.693 16.0157L37.748 16.1522C37.8025 16.3109 37.83 16.3569 37.8289 16.5632C37.8284 16.7447 37.8226 16.9193 37.7702 17.0526L37.7549 17.0917C37.7517 17.0997 37.7438 17.124 37.7406 17.1319L37.6797 17.2621C37.6771 17.2679 37.6734 17.2748 37.6708 17.2801C37.6432 17.334 37.6649 17.3007 37.6332 17.352L37.5993 17.4002C37.3877 17.6874 37.111 17.9445 36.8492 18.181L36.792 18.2334C36.7793 18.2456 36.7518 18.2736 36.7375 18.2879L35.4531 19.5729C35.4488 19.5771 35.4435 19.5824 35.4393 19.5866C35.4356 19.5909 35.4298 19.5962 35.4255 19.6004L35.3578 19.6692C35.2473 19.7792 35.0886 19.8877 34.9431 19.9374C34.5024 20.0887 34.4077 20.0511 34.049 19.9607C33.9088 19.9252 33.9919 19.9533 33.8892 19.9014L33.4433 19.5819C33.42 19.5591 33.4136 19.5523 33.3888 19.5269C33.3639 19.502 33.3565 19.4957 33.3338 19.4724C33.33 19.4681 33.3242 19.4629 33.32 19.4586L32.4862 18.6249C32.3778 18.5217 32.2614 18.6143 32.1826 18.6534C31.9498 18.7698 31.717 18.8307 31.4864 18.9412L31.488 20.6098C31.4874 20.76 31.4282 20.9362 31.3594 21.0552L31.2245 21.2753C31.2208 21.2796 31.2155 21.2854 31.2118 21.2896L30.8505 21.6118C30.3622 21.9318 29.6834 21.8112 29.0819 21.8112C29.0819 22.2577 29.0798 22.7042 29.0819 23.1507C29.0824 23.3084 29.0957 23.3724 29.0428 23.4946L28.9608 23.6586C28.7735 23.9162 28.6703 23.8305 28.5349 23.9538C28.355 23.9141 28.5053 23.8951 28.3153 23.8692C28.0879 23.8379 27.8604 23.6925 27.8625 23.4465C27.8948 21.5398 27.8599 19.5956 27.8599 17.6842V12.3267C27.8614 11.7416 28.1053 11.9215 25.0634 11.9215C24.6148 11.9215 22.5314 11.8702 22.2638 11.9575C22.2405 12.441 22.2876 16.1178 22.2405 16.3093C22.1913 16.5098 22.0558 16.5923 22.0156 16.7494C21.9363 16.7579 21.8966 16.8251 21.8379 16.8648C21.6067 17.0219 21.2142 17.0198 21.0258 16.9648C20.7735 16.8912 20.4153 16.6616 20.1804 16.5521C19.5091 16.2389 19.6657 16.1892 19.3255 16.3744L18.5161 16.7949C18.3071 16.8182 17.8183 17.2335 17.2364 16.7658C17.0131 16.5865 17.0226 16.4966 16.957 16.3569C16.8465 16.121 16.9031 15.6972 16.9031 15.3332C16.9031 14.755 16.9332 12.2902 16.8962 11.9374C16.6068 11.8723 11.4218 11.8998 11.3149 11.9453C11.2657 11.9908 11.2641 28.3749 11.3149 28.4289C11.4763 28.5257 14.9139 28.4675 15.4149 28.4675C17.0136 28.4675 27.7503 28.5077 27.8302 28.4331L27.8498 28.3903C27.8514 28.3845 27.8556 28.3749 27.8572 28.3675L27.8651 26.6487C27.8651 26.2699 27.7451 25.8298 28.1307 25.589C28.1752 25.5615 28.227 25.542 28.2788 25.5224C28.345 25.4975 28.4026 25.4949 28.463 25.4377L28.5074 25.4441C28.6381 25.4504 28.6074 25.4563 28.6963 25.5033C28.7015 25.506 28.7084 25.5102 28.7142 25.5129L28.9423 25.6949C29.065 25.8599 29.0835 25.9747 29.0819 26.2112V28.3982C29.5713 28.3982 34.8769 28.3612 35.2801 28.4321C35.3383 28.4421 35.3822 28.4686 35.4536 28.477C35.6049 28.4956 35.698 28.4744 35.8318 28.5088L37.2708 28.9558C37.2766 28.9585 37.284 28.9616 37.2899 28.9637C37.2957 28.9664 37.3031 28.969 37.3094 28.9717C37.3152 28.9743 37.3232 28.977 37.329 28.9796L38.2236 29.479C38.531 29.6822 38.7717 29.9012 39.0462 30.1324L39.2801 30.363C39.2838 30.3673 39.2896 30.3731 39.2933 30.3773C39.297 30.3816 39.3028 30.3874 39.3065 30.3911L40.3 31.7756C40.335 31.848 40.3397 31.8517 40.3736 31.921C40.4 31.9761 40.4228 32.0173 40.4471 32.0665L40.5439 32.2977C40.5624 32.3496 40.5471 32.3093 40.5683 32.3554L40.7905 33.0082C40.809 33.0828 40.8275 33.059 40.8518 33.1653C40.8693 33.2415 40.8571 33.2833 40.8756 33.36L40.9439 33.7018C40.9465 33.7573 40.9418 33.7462 40.9566 33.7986L40.9883 33.8763C40.9931 33.8927 40.9968 33.9187 41 33.952V35.373L40.9248 35.9491C40.8941 36.0565 40.8883 36.0163 40.8725 36.0877C40.855 36.1655 40.8735 36.2083 40.8508 36.285C40.8169 36.4009 40.8132 36.3094 40.7857 36.439C40.7614 36.5548 40.7915 36.5046 40.745 36.6167L40.5106 37.2293C40.3799 37.5092 40.2524 37.8197 40.071 38.0742L39.1579 39.2111C39.1124 39.2529 39.142 39.2249 39.0981 39.2608L38.7484 39.5671C38.3961 39.8798 37.9855 40.1353 37.566 40.3528L36.6889 40.7056C36.6217 40.7247 36.6032 40.7458 36.5312 40.7665L35.9408 40.9141C35.8377 40.9442 35.7408 40.9352 35.6424 40.9437C35.5234 40.9532 35.5864 40.9691 35.4732 40.9934C35.4636 40.9955 35.4076 40.9971 35.3097 40.9987H13.9357C13.0157 40.9982 12.3079 40.9982 11.9005 40.9987H11.6424C11.5778 40.9913 11.5186 40.9707 11.4509 40.9183L11.3609 40.8442C11.3567 40.8405 11.3503 40.8352 11.3466 40.831C11.2318 40.7204 11.1795 40.6263 11.1795 40.4337C11.3419 40.0925 11.153 39.7925 12.054 39.7936H16.6184C22.6949 39.7936 28.7746 39.8285 34.85 39.7936C35.5726 39.7893 36.5873 39.5222 37.2396 39.1233C37.4745 38.9794 37.7057 38.8365 37.9215 38.6577L38.4056 38.1864C38.6045 37.9748 38.7378 37.8224 38.9055 37.5632C39.0928 37.2733 39.2573 37.032 39.3848 36.7035L39.589 36.1464C39.7816 35.611 39.8752 34.6926 39.7583 34.1229C39.7356 34.0123 39.7308 33.8853 39.7134 33.7816C39.6567 33.4415 39.4938 32.9733 39.3436 32.6527C39.1039 32.1416 38.9351 31.9036 38.6161 31.4608L38.2453 31.0698C38.2146 31.0375 38.1797 31.0058 38.1479 30.9767L37.6052 30.5614C37.5575 30.5276 37.538 30.5101 37.493 30.4821C37.4443 30.4519 37.4168 30.445 37.366 30.4154C37.2914 30.3715 37.2428 30.3001 37.1454 30.2609C36.8555 30.144 36.6629 30.0208 36.3503 29.9303C35.6752 29.7345 35.808 29.7912 35.07 29.6758C34.9335 29.6547 34.9208 29.6367 34.7399 29.6367H30.5849C27.9731 29.6367 6.54091 29.5621 5.88121 29.6446C5.76641 29.6589 5.7098 29.6912 5.54845 29.6986C5.38445 29.706 5.24796 29.7065 5.14744 29.7525L4.78717 29.8763C4.72157 29.8901 4.69195 29.9065 4.63904 29.9245C4.51578 29.9657 4.47769 29.9774 4.36183 30.0282L4.15709 30.1229C4.00897 30.1969 3.86031 30.2498 3.72329 30.3477L3.37148 30.5672C3.13818 30.7233 2.93768 30.8831 2.74458 31.0878L2.37002 31.4793C2.02933 31.8507 1.76798 32.3257 1.60398 32.7987L1.5278 32.959C1.5241 32.9664 1.51299 32.9886 1.50929 32.996C1.50559 33.004 1.48601 33.0479 1.48389 33.0532L1.35058 33.4923C1.31778 33.6139 1.30138 33.6372 1.28286 33.7785C1.21515 34.298 1.1797 34.672 1.20933 35.2312C1.22044 35.4402 1.33471 35.9644 1.4093 36.1734C1.577 36.6437 1.75688 37.0394 2.00605 37.4627C2.18804 37.7716 2.43933 38.0652 2.68638 38.3112L3.09586 38.6678C3.18156 38.7286 3.23711 38.7519 3.31593 38.8286C3.44449 38.9535 3.63282 39.0312 3.78571 39.127C4.01478 39.2698 4.2994 39.383 4.55281 39.4804C4.65968 39.5216 4.72104 39.5513 4.82103 39.5883C5.61828 39.8835 7.88519 39.7936 8.80094 39.7925C9.67278 39.7914 9.49503 40.2141 9.64845 40.4437C9.5765 40.6162 9.57068 40.7347 9.41409 40.8723L9.28553 40.9627L5.55004 40.9966C5.37122 40.9707 5.56908 40.9521 5.33102 40.9421C5.24161 40.9384 5.15538 40.9363 5.10247 40.9246C4.95064 40.8908 5.02735 40.8823 4.89086 40.8633L3.38365 40.3205L2.44409 39.7295C2.38801 39.6878 2.35839 39.6671 2.3076 39.62L2.08752 39.4301C2.05578 39.4026 2.05948 39.4068 2.02986 39.3783L1.41882 38.7323C1.41512 38.7281 1.4093 38.7223 1.4056 38.7186C1.1998 38.4974 1.02152 38.2334 0.866514 37.9732C0.748011 37.7743 0.631095 37.5785 0.548037 37.3621C0.527404 37.3076 0.54063 37.3346 0.517353 37.2833L0.298862 36.7368C0.273998 36.6411 0.25654 36.6416 0.232733 36.5569C0.197817 36.4353 0.22374 36.4612 0.173482 36.3427L0.0195334 35.5946C0.011598 35.5703 0.00524957 35.5306 0.000488281 35.4793V34.198C0.000488281 33.7531 0.0163592 33.9536 0.0507463 33.751C0.0671463 33.6531 0.0428109 33.6007 0.0713786 33.4981C0.0988883 33.3981 0.118462 33.415 0.133275 33.314C0.153908 33.1743 0.124811 33.2119 0.178772 33.086L0.97232 31.31L1.70662 30.3768C1.72884 30.353 1.73413 30.345 1.75793 30.3191L2.59698 29.6002C2.89271 29.379 3.22864 29.196 3.56035 29.033L4.78029 28.5855C4.87711 28.5506 5.01624 28.5564 5.10512 28.5278C5.2998 28.4654 5.37387 28.5067 5.56961 28.4728C5.64156 28.4601 5.67013 28.4337 5.768 28.4252L10.086 28.3972C10.086 27.7332 10.05 11.958 10.0987 11.7638C10.1976 11.3697 10.3997 11.0549 10.7668 10.847C10.998 10.7158 11.1557 10.7127 11.4255 10.7127C13.5395 10.7142 15.653 10.7127 17.767 10.7127C17.767 10.3159 17.7225 9.67576 17.7918 9.343C17.8781 8.92824 17.9733 8.57802 18.3695 8.33519C18.4076 8.31191 18.4309 8.29604 18.4695 8.27118C19.0552 7.89768 20.081 8.20293 20.692 8.06062L20.974 7.35701C21.0115 7.27342 21.065 7.2438 21.0068 7.14804C21.0068 7.14804 20.9428 7.0745 20.9417 7.07345L20.1889 6.32275C20.163 6.29683 20.1603 6.29418 20.1344 6.26826L19.6519 5.60274C19.6059 5.49217 19.6054 5.39853 19.5964 5.27368C19.5678 4.87532 19.6212 4.63461 19.8683 4.3119L20.1164 4.0405C20.1206 4.03627 20.1259 4.03098 20.1302 4.02675C20.1344 4.02252 20.1397 4.01723 20.1439 4.01299C20.1482 4.00876 20.1534 4.00347 20.1577 3.99924L20.3624 3.79398C20.3666 3.78974 20.3719 3.78445 20.3762 3.78022L20.9227 3.23373C20.9269 3.23003 20.9322 3.22421 20.9364 3.21998L22.296 1.92808C22.4632 1.8265 22.7097 1.74662 22.9055 1.7445C23.1028 1.74239 23.1562 1.75826 23.335 1.8101C23.6562 1.90269 23.8635 2.08785 24.1027 2.32697C25.129 3.35329 24.8798 3.26494 25.3898 3.05386C25.4485 3.02952 25.5051 3.01101 25.567 2.98509C25.6384 2.95546 25.6855 2.94805 25.7474 2.91949C25.7924 2.89885 25.7882 2.89515 25.8363 2.87187C25.8622 2.85918 25.8866 2.8523 25.913 2.8396C25.913 2.45976 25.8569 1.24457 25.9791 0.910221C26.1479 0.447318 26.4357 0.194969 26.8764 0.0309691L26.9568 0.00187235C26.9658 0.000285257 26.9801 -0.00183087 26.9991 -0.00341797L26.9981 0.000285257ZM31.1245 7.19989C31.3351 7.24009 31.971 7.85853 32.1133 8.04052C32.2397 8.2024 32.372 8.38069 32.4931 8.56003L32.7116 8.94252C32.792 9.08218 33.0454 9.88843 33.0655 9.98101C33.1534 10.3831 33.1941 11.0417 33.1253 11.4247C33.1047 11.5406 33.0915 11.6956 33.0676 11.8088C33.0449 11.9178 33.0401 11.8765 33.0116 11.9643C32.9878 12.0384 32.9962 12.0813 32.9788 12.1559C32.9603 12.2363 32.9465 12.2289 32.9163 12.3442C32.8693 12.5235 32.6619 12.9309 32.5704 13.0838C32.2365 13.6414 31.8297 14.1228 31.3091 14.5C31.0885 14.6598 30.5637 14.956 30.3035 15.0491C30.0474 15.1401 29.1914 15.4232 29.0539 15.2766C29.002 15.2216 29.0327 12.5294 29.0327 12.0818C29.0322 11.4062 28.8566 11.4829 28.8068 11.22C28.7201 11.202 28.5926 10.9042 28.0323 10.755C27.8636 10.71 24.6444 10.7386 24.2989 10.7365C24.2635 10.5973 24.3275 10.2085 24.3476 10.0313C24.3651 9.87838 24.4016 9.90641 24.4264 9.73131C24.4629 9.47367 24.7185 8.89649 24.8523 8.67218C25.2015 8.08866 25.3813 7.9892 25.7644 7.56069L26.0627 7.31469C26.1188 7.27818 26.1236 7.27607 26.1749 7.23374C26.2008 7.21205 26.1998 7.211 26.2331 7.18243C26.3817 7.05758 26.8235 6.85654 27.0002 6.77719C27.3525 6.62007 27.4345 6.64969 27.5636 6.59891C27.9207 6.45871 28.4529 6.45977 28.9174 6.46982C29.7861 6.48781 29.8797 6.63858 30.4537 6.80152C30.5743 6.83591 30.6013 6.86448 30.6955 6.91474C30.7447 6.94066 31.1039 7.1454 31.1235 7.19936L31.1245 7.19989ZM35.9715 9.03034C36.1244 9.04039 35.9916 9.01288 36.1016 9.07742C36.4122 9.25888 36.5005 9.27581 36.9 9.27687C37.2735 9.27792 37.6475 9.27951 38.021 9.2774C38.1707 9.27687 38.3638 9.2483 38.4315 9.42288C38.468 9.51758 38.4458 11.9025 38.4463 12.1924C38.4463 12.3241 38.4511 12.3495 38.3881 12.422C38.341 12.4759 38.3183 12.4997 38.2135 12.505C37.7681 12.5272 36.9296 12.4601 36.5429 12.5161C36.1366 12.5749 35.9414 12.8764 35.8001 12.9288C35.7631 13.0071 35.7985 12.9288 35.7287 13.0129C35.5694 13.2039 35.5308 13.4345 35.4319 13.6493C35.3885 13.744 35.3562 13.8049 35.3171 13.8858C35.2679 13.9879 35.2446 14.0482 35.2049 14.1545C35.1626 14.2672 35.1536 14.2857 35.1494 14.4593C35.1452 14.6497 35.1298 14.8285 35.2018 14.9814C35.2303 15.0417 35.2203 15.0327 35.2446 15.1052C35.3282 15.3502 35.5917 15.5237 35.7535 15.7136C35.8874 15.8702 36.6275 16.4918 36.5931 16.6738C36.5804 16.741 35.5694 17.7229 35.5276 17.7615C35.443 17.8398 34.5278 18.7994 34.44 18.7957C34.3564 18.792 33.676 18.0837 33.5745 17.9773C33.2454 17.6335 33.0973 17.4462 32.5434 17.3404C32.1413 17.2631 31.772 17.4732 31.4811 17.5991C31.4747 17.6017 31.4673 17.6044 31.4604 17.607C31.0134 17.7858 30.5214 17.9694 30.3685 18.4852C30.2611 18.8476 30.2728 19.1396 30.2728 19.5163C30.2728 19.8554 30.3119 20.2596 30.24 20.5733L29.0655 20.5701C29.0131 20.2707 29.0523 17.5552 29.0518 16.9743C29.0518 16.8478 29.0216 16.596 29.1078 16.5325C29.2211 16.4775 29.8268 16.4569 30.0247 16.3849L31.07 16.0326C31.3292 15.9078 31.6128 15.7903 31.8345 15.6014C31.9366 15.5142 32.0397 15.448 32.1461 15.3867C32.2418 15.3311 32.3143 15.2253 32.4116 15.1375C32.7777 14.8074 33.1258 14.454 33.3856 14.0313L33.7623 13.37C33.922 13.0822 33.9538 12.897 33.9993 12.8166C34.0411 12.7431 34.049 12.715 34.0792 12.6219C34.1072 12.5357 34.1093 12.4839 34.1342 12.3997C34.1537 12.3326 34.1754 12.2924 34.1934 12.2167C34.2527 11.9707 34.3289 11.5692 34.3384 11.3179C34.3511 10.9841 34.3611 10.5979 34.3167 10.2958C34.2871 10.0948 34.2463 9.57207 34.1733 9.39061C33.9697 8.88591 33.8004 8.30715 33.4925 7.86065L33.1063 7.34484C32.9968 7.18931 32.8396 7.06657 32.7232 6.9396C32.2979 6.47723 31.7736 6.12595 31.2155 5.82546C30.9827 5.70008 30.1601 5.39906 29.876 5.36256L28.9687 5.23453C28.6016 5.20014 28.3196 5.26945 27.99 5.28373C27.7578 5.29378 27.7615 5.33716 27.5673 5.36732C27.3959 5.39377 27.2853 5.42974 27.1573 5.47577L26.7563 5.5985C26.5859 5.63818 26.5119 5.67363 26.3791 5.74134C26.114 5.87678 25.7633 6.00374 25.5385 6.21271L25.0988 6.5423C24.8248 6.74069 24.573 7.07398 24.3365 7.33479L24.1011 7.61888C23.844 7.93207 23.7191 8.25901 23.5329 8.60711L23.5139 8.64256C23.5112 8.64785 23.507 8.65419 23.5043 8.65949C23.5006 8.66689 23.49 8.68647 23.4863 8.69387L23.3816 8.96632C23.3435 9.12133 23.3335 9.03087 23.3075 9.16207L23.2112 9.59376C22.9679 10.7201 23.2229 10.7423 22.7981 10.7381C22.1743 10.7317 19.1414 10.7846 19.0599 10.71L19.0292 10.6317C19.0266 10.618 19.0255 10.5698 19.025 10.554C19.0197 10.2693 18.9906 9.54879 19.0631 9.3594C19.9096 9.21021 21.1824 9.68475 21.7543 8.68964L22.1643 7.70247C22.2616 7.46387 22.2891 7.23533 22.2521 6.97134C22.1881 6.51267 21.8485 6.25503 21.5607 5.96618C21.4665 5.87201 21.3861 5.78684 21.2909 5.6895C21.1761 5.57152 20.7539 5.24035 20.8168 5.08481L22.4383 3.46862C22.6658 3.25066 22.8732 2.86235 23.1721 3.15279L23.771 3.758C24.009 4.0241 24.3391 4.36374 24.7153 4.41876C24.9094 4.44733 25.2967 4.44363 25.4575 4.3812C25.5416 4.34893 25.6787 4.29338 25.7495 4.26111C26.4103 3.95586 27.1298 3.78287 27.1462 2.84383C27.1504 2.59519 27.1123 1.38582 27.1716 1.2615C27.2631 1.15939 29.1597 1.22076 29.5221 1.22076C29.6676 1.22076 30.1648 1.17579 30.2426 1.27525C30.3278 1.38423 30.2564 2.61 30.2659 2.89938C30.2754 3.19776 30.4093 3.46227 30.5939 3.65854C30.7013 3.77281 30.7463 3.83894 30.8854 3.91512L32.0477 4.3976C32.5111 4.50764 33.0105 4.34681 33.3417 4.06484C33.4427 3.97914 33.4988 3.87545 33.6051 3.78392C33.7559 3.65484 34.3114 2.99355 34.4426 2.98985C34.5828 3.02635 34.8939 3.39085 35.0081 3.50936L35.9519 4.45156C35.9911 4.49389 36.0218 4.52563 36.0757 4.57324C36.1805 4.66529 36.2482 4.75258 36.3482 4.84834C36.746 5.22977 36.5889 5.2176 36.2239 5.5821C36.1487 5.65723 36.1091 5.6932 36.0376 5.78049C35.9763 5.85561 35.9101 5.90852 35.8514 5.9757L35.6525 6.18309C35.2589 6.51056 35.033 7.02583 35.1859 7.539C35.2425 7.72892 35.3435 7.87493 35.4128 8.07491C35.5276 8.40555 35.626 8.71927 35.8826 8.95045C35.898 8.96421 35.9223 8.9859 35.9382 8.99965L35.9747 9.0314L35.9715 9.03034Z" fill="#010101"/>
<path fill-rule="evenodd" clip-rule="evenodd" d="M16.782 23.5884C16.782 23.3678 16.7783 23.3493 16.9979 23.3493H21.1831C21.3545 23.3493 22.2591 23.3059 22.339 23.3911C22.4152 23.4715 22.3623 25.4543 22.3623 25.4543C22.3152 25.585 22.0777 25.5421 21.9211 25.5421L17.0011 25.5432C16.8471 25.5432 16.7815 25.5109 16.7815 25.3385V23.5889L16.782 23.5884ZM15.6192 23.2334V25.6389C15.6192 25.9521 15.7451 26.1981 15.9091 26.3764C16.1181 26.6034 16.2715 26.6748 16.6731 26.6748H22.4951C22.685 26.6748 22.8051 26.6933 22.9405 26.6065C23.1394 26.4785 23.3182 26.4267 23.4516 26.0743C23.5071 25.9273 23.5325 25.8051 23.5325 25.612V23.234C23.5325 22.7785 23.3124 22.4346 22.9236 22.2817C22.7643 22.2193 22.6617 22.1934 22.4676 22.1934H16.6731C16.2361 22.1934 15.8351 22.442 15.7076 22.7843C15.678 22.8642 15.6711 22.9187 15.642 22.9927C15.6102 23.0753 15.6187 23.134 15.6187 23.234L15.6192 23.2334Z" fill="#010101"/>
<path fill-rule="evenodd" clip-rule="evenodd" d="M23.7876 33.346C23.9357 33.1227 24.451 33.0635 24.7102 33.0651C25.1493 33.0682 25.4731 33.2206 25.7889 33.4978C26.0476 33.7248 26.136 33.9454 26.2481 34.2453C26.5878 35.1542 25.8789 36.5567 24.351 36.3562C24.1918 36.335 23.8283 36.1731 23.7172 36.0885C23.5718 35.9774 23.4749 35.9377 23.3988 35.779C23.2914 35.7081 23.1866 35.5224 23.1475 35.3986C23.1168 35.3018 23.1099 35.3161 23.0798 35.2193C22.7597 34.1808 23.5432 33.3428 23.7871 33.3454L23.7876 33.346ZM24.2457 31.8938C24.0119 31.9393 23.8844 31.9588 23.667 32.0345C23.6136 32.053 23.4601 32.1091 23.4125 32.1345C22.8322 32.4434 22.4047 32.9058 22.1032 33.4766C22.072 33.5359 22.0645 33.5438 22.0376 33.601C21.7075 34.2972 21.7561 35.2732 22.0815 35.9462C22.1264 36.0393 22.1518 36.0837 22.2074 36.1752L22.4492 36.5048C22.5846 36.708 22.8655 36.9481 23.0692 37.092L23.276 37.2143C23.5522 37.3603 24.0812 37.5438 24.3812 37.5608C24.6177 37.5745 24.8838 37.5666 25.1213 37.5539C25.2916 37.5449 25.2832 37.5211 25.4144 37.4888C25.9318 37.3613 26.62 36.9323 26.902 36.4921L27.0343 36.298C27.038 36.2932 27.0433 36.2874 27.0464 36.2826L27.302 35.8271C27.4385 35.3536 27.6088 34.886 27.4929 34.3062C27.3908 33.7951 27.4289 33.9025 27.2517 33.4766L26.9475 32.9682C26.6825 32.7 26.3788 32.3673 26.0386 32.2091C25.7281 32.0641 25.8799 32.1139 25.5445 31.9948C25.2319 31.8843 24.6145 31.8213 24.2463 31.8932L24.2457 31.8938Z" fill="#010101"/>
<path fill-rule="evenodd" clip-rule="evenodd" d="M7.472 31.9048C7.65081 31.8392 7.95606 31.8651 8.17296 31.8693C8.26766 31.8709 8.43113 31.8693 8.51895 31.8878C8.68824 31.9243 9.35694 32.1687 9.53364 32.2904C9.85687 32.5137 10.2166 32.8697 10.4208 33.2051C10.8562 33.9198 10.998 34.6584 10.7615 35.4995C10.7277 35.6207 10.7086 35.6508 10.6663 35.7556C10.4933 36.1878 10.6393 35.8926 10.4256 36.2238C10.1473 36.6549 10.2954 36.3936 10.0463 36.6941C9.81244 36.9755 9.42571 37.2601 9.07549 37.3876C8.85647 37.4675 8.79246 37.5088 8.52371 37.5474C7.96135 37.6278 7.38418 37.5686 7.01703 37.421C6.82763 37.3448 6.74458 37.3316 6.5737 37.2136L6.26845 36.9983C6.10974 36.8919 6.03885 36.7861 5.88966 36.6412L5.42517 36.046C5.31249 35.818 5.3929 36.0021 5.33312 35.7857C5.31936 35.736 5.26646 35.5736 5.24213 35.5138C5.19663 35.4038 5.21038 35.3281 5.17441 35.225C5.07548 34.9409 5.14796 34.0584 5.20456 33.9241C5.20456 33.9241 5.24265 33.8595 5.24424 33.8569C5.26699 33.8045 5.25165 33.8463 5.26699 33.7871C5.28286 33.7246 5.27598 33.7066 5.2982 33.6675C5.3273 33.6162 5.29873 33.6712 5.3437 33.6098C5.36803 33.577 5.35587 33.595 5.37862 33.558C5.44051 33.4559 5.48601 33.3157 5.5606 33.221C5.80078 32.9163 6.09228 32.538 6.45996 32.3169L6.71971 32.1428C6.72447 32.1402 6.73135 32.1359 6.73611 32.1333C6.80118 32.1 6.68585 32.1502 6.78954 32.1095C6.81123 32.101 6.82499 32.0984 6.85197 32.0878L6.89271 32.0709C7.16674 31.9587 7.36566 31.9439 7.472 31.9048ZM32.6074 31.8905C33.0819 31.8027 33.8633 31.9143 34.1675 32.1132C34.3807 32.2523 34.4812 32.2386 34.8293 32.5211C34.9494 32.6184 35.0875 32.7618 35.1928 32.8935C35.379 33.1268 35.3827 33.1506 35.525 33.4125C35.5282 33.4178 35.5319 33.4247 35.5345 33.4305L35.7065 33.8008C35.7387 33.9108 35.771 33.9701 35.7895 34.069C35.908 34.7023 35.8636 34.7996 35.7943 35.3969C35.762 35.6773 35.3948 36.3063 35.1922 36.5602C35.0282 36.765 34.6352 37.0951 34.3992 37.2152C33.8818 37.4792 34.2114 37.3474 33.6512 37.5268C33.3364 37.6273 32.4005 37.594 32.0223 37.4279L31.2811 36.9983C31.2763 36.9946 31.2705 36.9898 31.2658 36.9861C31.2615 36.9824 31.2546 36.9776 31.2504 36.9739L30.9552 36.6951C30.6383 36.3756 30.8753 36.638 30.6299 36.3079C30.4976 36.1301 30.3976 35.928 30.3177 35.7186C30.305 35.6852 30.2913 35.6577 30.2712 35.6006C30.0516 34.9742 30.0924 34.3706 30.2828 33.7458L30.423 33.4548C30.4405 33.4247 30.4569 33.3834 30.4775 33.3458C30.7007 32.93 31.1346 32.4835 31.544 32.2544C31.6345 32.2037 31.6996 32.2037 31.7911 32.1455C32.0392 31.9873 32.3032 31.9466 32.6079 31.8905H32.6074ZM15.8587 31.8989C16.2963 31.7593 17.0231 31.9127 17.4337 32.0709C17.4681 32.0841 17.5284 32.1047 17.5723 32.1243C17.6199 32.146 17.6003 32.1396 17.6257 32.1518L17.8939 32.3169C17.9743 32.3867 18.014 32.411 18.0944 32.4713C18.7049 32.9306 18.8705 33.3628 19.1017 33.978C19.1345 34.0659 19.1387 34.1717 19.162 34.2722C19.3916 35.2583 18.8441 36.4174 18.0669 37.0083C17.8416 37.1797 17.6575 37.2824 17.3792 37.3882C17.2469 37.4384 17.2718 37.4638 17.1348 37.4845C16.9205 37.5167 16.9607 37.5368 16.8369 37.5506C16.2687 37.6151 15.7582 37.5971 15.2583 37.3824L14.5965 36.9824L14.0415 36.4428C13.9172 36.2952 14.0045 36.4481 13.8918 36.2418C13.8093 36.0905 13.7289 35.9169 13.6633 35.7588C13.5998 35.6053 13.5559 35.3842 13.5188 35.1869C13.4019 34.5674 13.494 34.5769 13.5278 34.1939C13.5432 34.0182 13.5654 34.0389 13.6003 33.9135C13.8103 33.1623 14.3563 32.51 15.0493 32.1629C15.1197 32.1275 15.2239 32.0703 15.2916 32.0497C15.3519 32.0312 15.3927 32.0317 15.4503 32.0116C15.4974 31.9952 15.4937 31.9857 15.5635 31.9645C15.663 31.9349 15.7683 31.9275 15.8582 31.8989H15.8587ZM24.2455 31.8936C24.6132 31.8217 25.2306 31.8847 25.5437 31.9952C25.8791 32.1137 25.7268 32.0645 26.0379 32.2095C26.378 32.3682 26.6822 32.7004 26.9467 32.9686L27.2509 33.477C27.4287 33.9029 27.3906 33.795 27.4922 34.3066C27.608 34.8869 27.4377 35.354 27.3012 35.8275L27.0457 36.283C27.042 36.2878 27.0367 36.2941 27.0335 36.2984L26.9012 36.4925C26.6193 36.9327 25.931 37.3617 25.4136 37.4892C25.2824 37.5215 25.2903 37.5453 25.1205 37.5543C24.8835 37.5665 24.6174 37.5744 24.3804 37.5612C24.0804 37.5442 23.5514 37.3607 23.2752 37.2147L23.0684 37.0924C22.8647 36.9491 22.5833 36.7089 22.4484 36.5052L22.2066 36.1756C22.1516 36.0841 22.1257 36.0397 22.0807 35.9466C21.7553 35.2731 21.7072 34.2976 22.0368 33.6014C22.0638 33.5442 22.0712 33.5363 22.1024 33.477C22.4045 32.9062 22.8319 32.4433 23.4117 32.1349C23.4594 32.1095 23.6128 32.0534 23.6662 32.0349C23.8836 31.9592 24.0117 31.9397 24.245 31.8942L24.2455 31.8936ZM9.64844 40.446C9.86481 40.4682 11.0128 40.4783 11.1789 40.4349C11.3413 40.0936 11.1525 39.7937 12.0534 39.7947H16.6179C22.6944 39.7947 28.774 39.8297 34.8494 39.7947C35.5721 39.7905 36.5868 39.5233 37.2391 39.1245C37.4739 38.9806 37.7051 38.8377 37.921 38.6589L38.405 38.1875C38.604 37.9759 38.7373 37.8236 38.905 37.5643C39.0923 37.2744 39.2568 37.0332 39.3843 36.7047L39.5885 36.1476C39.7811 35.6122 39.8747 34.6938 39.7578 34.124C39.735 34.0135 39.7303 33.8865 39.7128 33.7828C39.6562 33.4427 39.4933 32.9745 39.343 32.6539C39.1034 32.1428 38.9346 31.9048 38.6156 31.462L38.2447 31.071C38.2141 31.0387 38.1791 31.007 38.1474 30.9779L37.6046 30.5626C37.557 30.5287 37.5374 30.5113 37.4925 30.4832C37.4438 30.4531 37.4163 30.4462 37.3655 30.4166C37.2909 30.3727 37.2422 30.3013 37.1449 30.2621C36.855 30.1452 36.6624 30.0219 36.3498 29.9315C35.6747 29.7357 35.8075 29.7923 35.0695 29.677C34.933 29.6558 34.9203 29.6379 34.7394 29.6379H30.5844C27.9725 29.6379 6.54037 29.5633 5.88067 29.6458C5.76587 29.6601 5.70926 29.6923 5.54791 29.6998C5.38391 29.7072 5.24742 29.7077 5.1469 29.7537L4.78663 29.8775C4.72103 29.8913 4.6914 29.9077 4.6385 29.9256C4.51523 29.9669 4.47714 29.9786 4.36129 30.0293L4.15655 30.124C4.00842 30.1981 3.85976 30.251 3.72274 30.3489L3.37094 30.5684C3.13763 30.7245 2.93713 30.8843 2.74403 31.089L2.36948 31.4805C2.02878 31.8519 1.76744 32.3269 1.60344 32.7999L1.52726 32.9602C1.52356 32.9676 1.51245 32.9898 1.50874 32.9972C1.50504 33.0051 1.48547 33.0491 1.48335 33.0543L1.35003 33.4934C1.31723 33.6151 1.30083 33.6384 1.28232 33.7796C1.2146 34.2992 1.17916 34.6732 1.20878 35.2324C1.21989 35.4413 1.33416 35.9656 1.40876 36.1746C1.57646 36.6449 1.75633 37.0406 2.00551 37.4638C2.18749 37.7728 2.43878 38.0664 2.68584 38.3124L3.09531 38.669C3.18102 38.7298 3.23656 38.7531 3.31539 38.8298C3.44394 38.9546 3.63228 39.0324 3.78517 39.1282C4.01424 39.271 4.29886 39.3842 4.55227 39.4816C4.65913 39.5228 4.7205 39.5524 4.82049 39.5895C5.61774 39.8847 7.88464 39.7947 8.8004 39.7937C9.67224 39.7926 9.49449 40.2153 9.64791 40.4449L9.64844 40.446Z" fill="#C3D1DA"/>
<path fill-rule="evenodd" clip-rule="evenodd" d="M15.6191 23.2335C15.6191 23.1335 15.6101 23.0748 15.6424 22.9923C15.6709 22.9182 15.6778 22.8637 15.708 22.7838C15.8355 22.4416 16.2359 22.1929 16.6734 22.1929H22.4679C22.6616 22.1929 22.7647 22.2188 22.924 22.2813C23.3128 22.4342 23.5329 22.7775 23.5329 23.2335V25.6115C23.5329 25.8046 23.5075 25.9263 23.4519 26.0739C23.3186 26.4262 23.1398 26.4781 22.9409 26.6061C22.806 26.6929 22.6859 26.6744 22.4954 26.6744H16.6734C16.2714 26.6744 16.118 26.6035 15.9095 26.376C15.7455 26.1977 15.6196 25.9517 15.6196 25.6385V23.233L15.6191 23.2335ZM28.464 25.4391L28.5084 25.4454C28.5084 25.1841 28.4534 24.089 28.5359 23.9541C28.3561 23.9144 28.5063 23.8953 28.3164 23.8694C28.0889 23.8382 27.8614 23.6927 27.8635 23.4467C27.7461 23.3626 27.7757 23.2907 27.7773 23.1245V17.712C27.7773 17.3237 27.8175 12.2138 27.7535 11.9704L22.3611 11.9757C22.3288 12.3228 22.3521 15.2044 22.3526 15.799C22.3526 16.063 22.315 16.4868 22.123 16.6809C22.0251 16.7799 22.1214 16.7058 22.0172 16.7502C21.9378 16.7587 21.8982 16.8259 21.8394 16.8656C21.6083 17.0227 21.2157 17.0206 21.0274 16.9656C20.775 16.892 20.4169 16.6624 20.182 16.5529C19.5106 16.2397 19.6672 16.19 19.3271 16.3752L18.5177 16.7957C18.2336 17.092 17.5442 17.1671 17.194 16.8037C17.167 16.7756 17.1707 16.7751 17.1438 16.7471L17.0337 16.6439C16.9374 16.5365 16.884 16.4005 16.8634 16.244C16.8046 15.7948 16.8406 12.6423 16.8374 11.9937C16.6375 11.9191 14.4981 11.9625 14.1039 11.9625C13.732 11.9625 11.5535 11.936 11.3773 11.9794C11.3233 12.5878 11.3694 13.4173 11.3694 14.0495C11.3694 16.2159 11.3318 28.2763 11.3921 28.4122L27.7699 28.3995C27.8905 27.7155 27.6493 26.157 27.8868 25.7528L28.0931 25.5306C28.2095 25.4703 28.2995 25.4438 28.464 25.4391Z" fill="#FACB7D"/>
<path fill-rule="evenodd" clip-rule="evenodd" d="M35.8 12.9285C35.8783 12.6963 36.2793 12.5053 36.5396 12.4714C36.6465 12.4577 36.7396 12.4371 36.8449 12.4312C38.5981 12.3408 38.3531 12.7841 38.3531 11.644V10.1135C38.3531 9.99875 38.3917 9.45173 38.3092 9.38401C38.1426 9.24699 36.7607 9.50569 36.1571 9.1888C36.0783 9.14754 36.0211 9.10627 35.9714 9.03009L35.9349 8.99835C35.919 8.98459 35.8947 8.9629 35.8794 8.94915C35.6228 8.71796 35.5244 8.40425 35.4096 8.0736C35.3403 7.87363 35.2392 7.72761 35.1826 7.53769C35.0297 7.02453 35.2551 6.50925 35.6492 6.18178L35.8482 5.9744C35.9069 5.90721 35.973 5.85431 36.0344 5.77919C36.1058 5.6919 36.1455 5.65539 36.2206 5.5808C36.5862 5.2163 36.7433 5.22847 36.3449 4.84703C36.2455 4.75181 36.1777 4.66452 36.0725 4.57194C36.0185 4.52485 35.9883 4.49258 35.9487 4.45026L35.0049 3.50805C34.8906 3.39008 34.5795 3.02505 34.4393 2.98854C34.3081 2.99277 33.7527 3.65354 33.6019 3.78262C33.495 3.87414 33.4389 3.97783 33.3384 4.06354C33.0072 4.34551 32.5084 4.50634 32.0444 4.3963L30.8821 3.91382C30.743 3.83764 30.698 3.77151 30.5906 3.65724C30.406 3.46097 30.2722 3.19645 30.2626 2.89808C30.2531 2.6087 30.3251 1.38293 30.2394 1.27395C30.1616 1.17449 29.6643 1.21946 29.5188 1.21946C29.1564 1.21946 27.2593 1.15809 27.1683 1.26019C27.1091 1.38452 27.1472 2.59388 27.1429 2.84253C27.1265 3.78156 26.4076 3.95508 25.7463 4.25981C25.6759 4.29261 25.5384 4.34763 25.4543 4.3799C25.2934 4.44232 24.9062 4.4455 24.712 4.41746C24.3354 4.36244 24.0058 4.02227 23.7677 3.7567L23.1688 3.15148C22.8699 2.86105 22.6626 3.24936 22.4351 3.46732L20.8136 5.08351C20.7506 5.23852 21.1728 5.57022 21.2876 5.68819C21.3828 5.78554 21.4638 5.87071 21.5574 5.96488C21.8452 6.25373 22.1854 6.51137 22.2488 6.97004C22.2859 7.23456 22.2584 7.46257 22.161 7.70116L21.751 8.68834C21.1791 9.68345 19.9063 9.2089 19.0598 9.35809C18.9879 9.54749 19.0165 10.268 19.0218 10.5526C19.0218 10.5685 19.0233 10.6161 19.026 10.6304L19.0567 10.7087C19.1381 10.7838 22.1711 10.7309 22.7948 10.7367C23.2196 10.741 22.9646 10.7188 23.208 9.59245L23.3043 9.16076C23.3302 9.02956 23.3402 9.12003 23.3783 8.96502L23.4831 8.69257C23.4868 8.68516 23.4974 8.66559 23.5011 8.65818C23.5037 8.65289 23.5079 8.64654 23.5106 8.64125L23.5296 8.60581C23.7159 8.2577 23.8407 7.93023 24.0978 7.61758L24.3332 7.33348C24.5697 7.07267 24.8215 6.73938 25.0956 6.54099L25.5352 6.21141C25.7595 6.00191 26.1103 5.87547 26.3758 5.74004C26.5086 5.67232 26.5827 5.63635 26.753 5.5972L27.154 5.47447C27.2821 5.42844 27.3926 5.39247 27.564 5.36601C27.7587 5.33586 27.7545 5.29248 27.9867 5.28243C28.3168 5.26814 28.5983 5.19884 28.9654 5.23323L29.8727 5.36125C30.1568 5.39828 30.9795 5.6993 31.2122 5.82416C31.7704 6.12465 32.2952 6.47592 32.72 6.9383C32.8364 7.06527 32.9935 7.18747 33.103 7.34354L33.4892 7.85934C33.7976 8.30585 33.9669 8.88461 34.1701 9.3893C34.2431 9.57076 34.2838 10.0934 34.3134 10.2945C34.3579 10.5966 34.3478 10.9827 34.3351 11.3166C34.3256 11.5679 34.2494 11.9699 34.1902 12.2154C34.1722 12.291 34.1505 12.3313 34.1309 12.3984C34.106 12.4826 34.1039 12.5344 34.0759 12.6206C34.0457 12.7137 34.0378 12.7413 33.996 12.8153C33.9505 12.8957 33.9182 13.0804 33.759 13.3687L33.3823 14.03C33.1226 14.4527 32.7745 14.8061 32.4084 15.1362C32.311 15.224 32.2386 15.3298 32.1428 15.3854C32.037 15.4467 31.9338 15.5129 31.8312 15.6001C31.6095 15.789 31.326 15.9065 31.0668 16.0313L30.0214 16.3836C29.8235 16.4556 29.2178 16.4762 29.1046 16.5312C29.0183 16.5947 29.0485 16.8465 29.0485 16.973C29.0485 17.5539 29.0099 20.2699 29.0623 20.5688L30.2367 20.572C30.3087 20.2583 30.2695 19.8541 30.2695 19.515C30.2695 19.1383 30.2579 18.8463 30.3653 18.4839C30.5182 17.9681 31.0107 17.7845 31.4572 17.6057C31.4635 17.6031 31.4709 17.6004 31.4778 17.5978C31.7688 17.4719 32.1386 17.2618 32.5401 17.3391C33.094 17.4454 33.2421 17.6322 33.5712 17.976C33.6728 18.0824 34.3531 18.7907 34.4367 18.7944C34.525 18.7981 35.4403 17.8385 35.5244 17.7602C35.5662 17.721 36.5772 16.7397 36.5899 16.6725C36.6242 16.4905 35.8841 15.8689 35.7503 15.7123C35.5884 15.5224 35.3244 15.3489 35.2414 15.1039C35.217 15.032 35.2265 15.041 35.1985 14.9801C35.1266 14.8272 35.1419 14.6479 35.1461 14.458C35.1498 14.2844 35.1594 14.2659 35.2017 14.1532C35.2414 14.0469 35.2652 13.9871 35.3138 13.8845C35.3525 13.8036 35.3847 13.7432 35.4286 13.648C35.5276 13.4332 35.5656 13.2026 35.7254 13.0116C35.7952 12.928 35.7598 13.0058 35.7968 12.9275L35.8 12.9285Z" fill="#C1CFD9"/>
<path fill-rule="evenodd" clip-rule="evenodd" d="M28.8079 11.2192C28.8148 11.2234 28.8233 11.2298 28.828 11.2335L28.8799 11.2784C29.0397 11.4509 29.1053 11.7027 29.1111 11.9445C29.1254 12.5619 29.0608 14.6219 29.1338 14.9235C29.2063 14.8684 29.183 14.9362 29.3782 14.8108L29.8803 14.5447L30.8632 13.6982C31.0256 13.5194 31.3071 13.1872 31.4441 12.9692C31.6377 12.6619 31.7414 12.3339 31.8917 12.0186L32.1091 11.2245C32.2117 10.6076 32.271 9.48766 32.0012 8.91895C31.8864 8.67771 31.9758 8.8232 31.9234 8.64491C31.898 8.55815 31.8499 8.44441 31.8128 8.37087L31.5647 7.88258C31.3589 7.49533 31.5436 7.67414 31.1939 7.3218C31.1066 7.23398 31.1542 7.30011 31.1246 7.19907C31.105 7.14511 30.7458 6.94037 30.6966 6.91445C30.6024 6.86472 30.5754 6.83562 30.4548 6.80123C29.8803 6.63829 29.7866 6.48752 28.9185 6.46953C28.454 6.46001 27.9218 6.45842 27.5647 6.59862C27.4351 6.6494 27.3536 6.61925 27.0013 6.7769C26.8246 6.85573 26.3829 7.05676 26.2342 7.18214C26.2003 7.21018 26.2019 7.21176 26.176 7.23345C26.1247 7.27578 26.1199 7.27842 26.0638 7.3144L25.7655 7.5604C25.3825 7.98891 25.2031 8.08837 24.8534 8.67189C24.719 8.8962 24.4641 9.47338 24.4275 9.73102C24.4027 9.9056 24.3662 9.87809 24.3487 10.031C24.3286 10.2082 24.2646 10.597 24.3001 10.7362C24.645 10.7383 27.8647 10.7097 28.0334 10.7547C28.5937 10.9044 28.7212 11.2017 28.8079 11.2197V11.2192Z" fill="#FAF6F6"/>
<path fill-rule="evenodd" clip-rule="evenodd" d="M16.9038 25.4352C17.2456 25.4474 21.8228 25.4585 22.2444 25.412L22.2386 23.49C22.0455 23.4667 21.7683 23.4815 21.5662 23.4826C21.3461 23.4831 21.135 23.4635 20.9102 23.4635C19.6537 23.4646 18.0968 23.4254 16.9043 23.4667V25.4358L16.9038 25.4352Z" fill="#D5A75D"/>
<path fill-rule="evenodd" clip-rule="evenodd" d="M18.2922 15.5378C18.4007 15.5394 18.3113 15.5457 18.462 15.4796L18.7313 15.3404C19.0054 15.1881 18.8763 15.2653 19.0784 15.1881C19.3693 15.077 19.308 15.0108 19.7629 15.0511C19.9661 15.069 20.1211 15.2029 20.2539 15.2066C20.347 15.214 20.6782 15.3939 20.7707 15.4478C20.8088 15.47 20.8157 15.4748 20.8538 15.4954C20.9205 15.5314 20.9781 15.5658 21.0421 15.5769L21.0358 11.9721L18.1155 11.9636C18.0912 12.3345 18.0743 15.4404 18.1303 15.5923C18.2261 15.5536 18.1896 15.5531 18.2917 15.5378H18.2922Z" fill="#D2A55B"/>
<path fill-rule="evenodd" clip-rule="evenodd" d="M28.8081 11.2191C28.8578 11.482 29.0335 11.4053 29.034 12.0809C29.034 12.5284 29.0038 15.2207 29.0552 15.2757C29.1922 15.4223 30.0487 15.1392 30.3047 15.0482C30.565 14.9556 31.0898 14.6594 31.3104 14.4991C31.8305 14.1224 32.2373 13.6405 32.5716 13.0829C32.6632 12.93 32.8711 12.5226 32.9176 12.3433C32.9478 12.228 32.9615 12.2354 32.9801 12.1549C32.9975 12.0804 32.989 12.0375 33.0129 11.9634C33.0409 11.8751 33.0457 11.9169 33.0689 11.8079C33.0927 11.6942 33.1054 11.5397 33.1266 11.4238C33.1954 11.0408 33.1541 10.3822 33.0668 9.9801C33.0467 9.88752 32.7933 9.0818 32.7129 8.94161L32.4944 8.55912C32.3733 8.37977 32.241 8.20149 32.1146 8.03961C31.9722 7.85762 31.3364 7.23971 31.1258 7.19897C31.1554 7.30002 31.1078 7.23389 31.1951 7.32171C31.5448 7.67405 31.3602 7.49523 31.566 7.88248L31.8141 8.37078C31.8511 8.44432 31.8992 8.55806 31.9246 8.64482C31.9775 8.8231 31.8881 8.67762 32.0024 8.91886C32.2722 9.48757 32.213 10.6075 32.1103 11.2244L31.8929 12.0185C31.7426 12.3338 31.639 12.6612 31.4453 12.9691C31.3078 13.1871 31.0269 13.5193 30.8645 13.6981L29.8815 14.5446L29.3795 14.8107C29.1837 14.9355 29.2075 14.8684 29.135 14.9234C29.062 14.6224 29.1266 12.5623 29.1123 11.9444C29.1065 11.7026 29.0409 11.4508 28.8811 11.2783L28.8293 11.2334C28.8245 11.2297 28.816 11.2233 28.8092 11.2191H28.8081Z" fill="#EBE0DC"/>
<path fill-rule="evenodd" clip-rule="evenodd" d="M23.7874 33.3461C23.543 33.3429 22.76 34.1809 23.0801 35.2199C23.1097 35.3167 23.1166 35.3024 23.1478 35.3992C23.187 35.523 23.2917 35.7087 23.3991 35.7796C23.4933 35.7976 23.4949 35.8055 23.5748 35.8738L23.6864 35.9812C23.8054 36.0902 23.844 36.0949 23.9874 36.0526L24.4196 35.8473C24.4249 35.8442 24.4313 35.8394 24.436 35.8357C24.7 35.6558 24.5863 35.7331 24.8264 35.5167C24.9137 35.4379 24.9645 35.3807 25.0322 35.2797C25.3523 34.8036 25.4655 34.52 25.4655 33.8936C25.4655 33.6317 25.4988 33.3318 25.2216 33.2254C24.4768 32.9387 23.9969 33.3291 23.7874 33.3466V33.3461Z" fill="#8C9BA8"/>
<path fill-rule="evenodd" clip-rule="evenodd" d="M28.4638 25.4391C28.2988 25.4438 28.2094 25.4703 28.093 25.5306L27.8867 25.7528C27.6491 26.157 27.8904 27.7155 27.7697 28.3995L11.392 28.4122C11.3316 28.2763 11.3692 16.2159 11.3692 14.0496C11.3692 13.4174 11.3232 12.5878 11.3771 11.9794C11.5533 11.9361 13.7319 11.9625 14.1038 11.9625C14.4979 11.9625 16.6368 11.9191 16.8373 11.9937C16.8405 12.6423 16.805 15.7948 16.8632 16.244C16.8838 16.4011 16.9378 16.5365 17.0336 16.6439L17.1436 16.7471C17.1706 16.7751 17.1669 16.7757 17.1939 16.8037C17.5441 17.1677 18.2334 17.092 18.5175 16.7958C18.3085 16.819 17.8197 17.2343 17.2378 16.7667C17.0145 16.5873 17.024 16.4974 16.9584 16.3577C16.8479 16.1218 16.9045 15.698 16.9045 15.334C16.9045 14.7558 16.9346 12.291 16.8976 11.9382C16.6082 11.8731 11.4232 11.9006 11.3163 11.9461C11.2671 11.9916 11.2655 28.3757 11.3163 28.4297C11.4777 28.5265 14.9153 28.4683 15.4163 28.4683C17.015 28.4683 27.7518 28.5085 27.8316 28.4339L27.8512 28.3911C27.8528 28.3853 27.857 28.3757 27.8586 28.3683L27.8666 26.6495C27.8666 26.2707 27.7465 25.8306 28.1321 25.5899C28.1766 25.5623 28.2284 25.5428 28.2803 25.5232C28.3464 25.4983 28.404 25.4957 28.4644 25.4386L28.4638 25.4391Z" fill="#94774B"/>
<path fill-rule="evenodd" clip-rule="evenodd" d="M22.0171 16.7496C22.1213 16.7046 22.0245 16.7787 22.1229 16.6803C22.3155 16.4866 22.353 16.0624 22.3525 15.7984C22.352 15.2043 22.3287 12.3221 22.361 11.9751L27.7534 11.9698C27.8174 12.2131 27.7777 17.3236 27.7777 17.7114V23.1239C27.7761 23.29 27.746 23.3625 27.864 23.4461C27.8962 21.5394 27.8613 19.5952 27.8613 17.6838V12.3263C27.8629 11.7412 28.1068 11.9211 25.0648 11.9211C24.6162 11.9211 22.5329 11.8698 22.2652 11.9571C22.2419 12.4406 22.289 16.1174 22.2419 16.3089C22.1927 16.5094 22.0573 16.5919 22.0171 16.749V16.7496Z" fill="#AB8B56"/>
<path fill-rule="evenodd" clip-rule="evenodd" d="M16.9039 23.4663C18.0964 23.4251 19.6533 23.4642 20.9098 23.4632C21.1346 23.4632 21.3457 23.4827 21.5658 23.4822C21.7679 23.4817 22.0451 23.4663 22.2382 23.4896L22.244 25.4116C21.8229 25.4582 17.2452 25.4476 16.9034 25.4349V23.4658L16.9039 23.4663ZM16.8304 23.5886C16.8304 23.9626 16.8119 25.1772 16.8447 25.4608C17.4324 25.5174 20.7971 25.4698 21.8398 25.4703C22.2556 25.4703 22.3313 25.5238 22.3313 25.3381C22.3313 24.7879 22.3503 23.9255 22.3212 23.4108C22.0551 23.3584 18.0572 23.3907 17.3573 23.3907C16.832 23.3907 16.8309 23.3404 16.8309 23.5886H16.8304Z" fill="#A88449"/>
<path fill-rule="evenodd" clip-rule="evenodd" d="M16.8304 23.5884C16.8304 23.3403 16.8315 23.3905 17.3568 23.3905C18.0567 23.3905 22.0546 23.3583 22.3207 23.4106C22.3498 23.9254 22.3308 24.7877 22.3308 25.3379C22.3308 25.5236 22.2551 25.4702 21.8393 25.4702C20.7966 25.4702 17.4319 25.5172 16.8442 25.4606C16.8119 25.1771 16.8299 23.9624 16.8299 23.5884H16.8304ZM16.7817 23.5884V25.3379C16.7817 25.5104 16.8468 25.5426 17.0013 25.5426L21.9213 25.5416C22.0779 25.5416 22.3154 25.585 22.3625 25.4538C22.3625 25.4538 22.4149 23.4709 22.3392 23.3905C22.2593 23.3059 21.3547 23.3487 21.1833 23.3487H16.9981C16.778 23.3487 16.7823 23.3673 16.7823 23.5879L16.7817 23.5884Z" fill="#241D12"/>
<path fill-rule="evenodd" clip-rule="evenodd" d="M18.2925 15.5378C18.1904 15.5531 18.2263 15.5537 18.1311 15.5923C18.075 15.4405 18.092 12.334 18.1163 11.9637L21.0366 11.9721L21.0429 15.5769C20.9794 15.5664 20.9218 15.5314 20.8546 15.4955C20.8165 15.4748 20.8096 15.4701 20.7715 15.4479C20.6789 15.3939 20.3478 15.214 20.2547 15.2066C20.2996 15.3278 20.397 15.3225 20.6498 15.4595C20.7609 15.5198 20.9673 15.6663 21.0815 15.6156L21.1127 13.8036C21.1127 13.2439 21.1561 12.48 21.1043 11.9446C20.8847 11.8949 18.2697 11.8906 18.0634 11.9414C18.0052 12.5239 18.0655 14.5305 18.0523 15.4177C18.0518 15.4695 18.0285 15.7208 18.2142 15.6267C18.3142 15.5759 18.265 15.5928 18.293 15.5383L18.2925 15.5378Z" fill="#856838"/>
<path fill-rule="evenodd" clip-rule="evenodd" d="M35.8003 12.9285C35.941 12.8761 36.1368 12.5751 36.5431 12.5158C36.9298 12.4597 37.7678 12.5269 38.2137 12.5047C38.319 12.4994 38.3412 12.4756 38.3883 12.4217C38.4513 12.3492 38.447 12.3238 38.4465 12.1921C38.4455 11.9021 38.4682 9.51674 38.4317 9.42257C38.364 9.24799 38.1709 9.27656 38.0212 9.27709C37.6477 9.27867 37.2736 9.27709 36.9001 9.27656C36.5013 9.2755 36.4124 9.25857 36.1018 9.07711C35.9918 9.0131 36.1246 9.04008 35.9717 9.03003C36.0214 9.10674 36.0786 9.14747 36.1574 9.18874C36.761 9.50563 38.1428 9.24693 38.3095 9.38395C38.392 9.45167 38.3534 9.99869 38.3534 10.1135V11.644C38.3534 12.784 38.5983 12.3407 36.8451 12.4312C36.7399 12.4365 36.6467 12.4576 36.5399 12.4714C36.2791 12.5052 35.8786 12.6968 35.8003 12.9285Z" fill="#3C4245"/>
</g>
<defs>
<clipPath id="clip0_1018_2191">
<rect width="41" height="41" fill="white"/>
</clipPath>
</defs>
</svg>
