<svg width="42" height="39" viewBox="0 0 42 39" fill="none" xmlns="http://www.w3.org/2000/svg">
<g clip-path="url(#clip0_1018_2222)">
<path d="M26.2338 36.1648C26.2338 37.1812 24.0297 37.0087 23.0056 37.0087H18.9948C17.9707 37.0087 15.9629 37.1812 15.9629 36.1648L17.1404 27.4219C17.1404 26.4056 17.9707 25.5815 18.9948 25.5815H23.0056C24.0299 25.5815 24.8602 26.4056 24.8602 27.4219L26.234 36.1648H26.2338Z" fill="#164F78"/>
<path d="M42 27.507C42 28.5234 41.1697 29.3474 40.1456 29.3474H1.85462C0.83026 29.3474 0 28.5234 0 27.507V1.84065C0 0.824006 0.83026 0 1.85462 0H40.1456C41.1697 0 42 0.824006 42 1.84065V27.507Z" fill="#276798"/>
<path d="M40.3275 24.6592C40.3275 25.527 39.5635 26.2308 38.6208 26.2308H3.37929C2.43684 26.2308 1.67285 25.527 1.67285 24.6592V2.74059C1.67285 1.87274 2.43684 1.16895 3.37929 1.16895H38.6208C39.5635 1.16895 40.3275 1.87274 40.3275 2.74059V24.6594V24.6592Z" fill="white"/>
<path d="M29.4607 37.6582C29.4607 38.3992 28.8554 39 28.109 39H13.8908C13.144 39 12.5386 38.3992 12.5386 37.6582C12.5386 36.9172 13.144 36.3164 13.8908 36.3164H28.109C28.8554 36.3164 29.4607 36.9172 29.4607 37.6582Z" fill="#276798"/>
<path d="M21.2252 28.7595C21.8022 28.6368 22.1697 28.073 22.046 27.5003C21.9223 26.9276 21.3543 26.5629 20.7772 26.6857C20.2002 26.8084 19.8327 27.3722 19.9564 27.9449C20.0801 28.5176 20.6482 28.8823 21.2252 28.7595Z" fill="white"/>
<path d="M29.8414 21.3307C23.6664 19.6568 20.986 22.4974 20.986 22.4974C20.986 22.4974 18.2587 19.9451 12.1592 21.3307V12.3066C12.1592 11.6626 12.7559 11.1401 13.4921 11.1401H28.5082C29.2444 11.1401 29.8414 11.6624 29.8414 12.3066V21.3307Z" fill="#005380"/>
<path d="M34.181 11.0607L33.7057 11.3105C31.4214 10.1798 21.7584 6.93058 21.7584 6.93058C21.3044 6.72242 20.7012 6.7606 20.247 6.93205C20.247 6.93205 10.6167 10.1877 8.30493 11.3292L7.81074 11.0942V11.6608C7.80975 11.6709 7.81248 11.68 7.82017 11.6876L20.5134 18.26C20.9167 18.5295 21.2153 18.4792 21.5943 18.259L34.1755 11.661C34.18 11.6564 34.1825 11.6512 34.184 11.646L34.1897 11.6467L34.1808 11.0605L34.181 11.0607Z" fill="#003E64"/>
<path d="M34.1754 11.0888L21.5941 17.6867C21.2151 17.9072 20.9168 17.9575 20.5132 17.688L7.82 11.1154C7.40301 10.7018 20.2466 6.36003 20.2466 6.36003C20.7008 6.18858 21.304 6.1504 21.7579 6.35855C21.7579 6.35855 34.5929 10.6744 34.1751 11.089L34.1754 11.0888Z" fill="#00436A"/>
<path d="M21.6035 10.9749L30.3936 13.0604L30.3934 16.5121" stroke="#BE8711" stroke-width="9.29" stroke-linecap="round" stroke-linejoin="round"/>
<path d="M31.2583 17.3705C31.2583 17.8444 30.8709 18.2287 30.3933 18.2287C29.9158 18.2287 29.5283 17.8444 29.5283 17.3705C29.5283 16.8965 29.9155 16.512 30.3933 16.512C30.8711 16.512 31.2583 16.8963 31.2583 17.3705Z" fill="#D9A30E"/>
<path d="M29.5923 20.7278C29.5923 20.2888 29.9507 17.9619 30.393 17.9619C30.8353 17.9619 31.194 20.2888 31.194 20.7278C31.194 21.1668 30.8353 21.5225 30.393 21.5225C29.9507 21.5225 29.5923 21.1668 29.5923 20.7278Z" fill="#D9A30E"/>
<path d="M30.3898 21.5099C30.3898 21.5099 30.3726 20.9591 30.3627 20.408C30.3592 20.2706 30.3548 20.1326 30.3535 20.0035C30.3548 19.939 30.3538 19.8767 30.3567 19.8175C30.359 19.7584 30.3612 19.7023 30.3629 19.6508C30.3649 19.5993 30.3692 19.552 30.3714 19.5099C30.3741 19.4677 30.3766 19.4313 30.3798 19.4015C30.385 19.3411 30.3898 19.3066 30.3898 19.3066H30.3972C30.3972 19.3066 30.4019 19.3411 30.4069 19.4015C30.4101 19.4315 30.4128 19.468 30.4153 19.5099C30.4178 19.5517 30.4223 19.599 30.4238 19.6508C30.426 19.7025 30.4282 19.7587 30.4302 19.8175C30.4332 19.8767 30.4322 19.939 30.4334 20.0035C30.4322 20.1326 30.4275 20.2706 30.4243 20.408C30.4141 20.9588 30.3972 21.5099 30.3972 21.5099H30.3898Z" fill="#827209"/>
<path d="M30.7738 21.4051C30.7738 21.4051 30.7112 20.7671 30.6556 20.1289C30.641 19.9695 30.6264 19.8098 30.613 19.6603C30.6085 19.5854 30.6025 19.513 30.6005 19.444C30.5978 19.3753 30.5953 19.3103 30.5931 19.2504C30.5904 19.1903 30.5909 19.1349 30.5896 19.0863C30.5889 19.0376 30.5886 18.995 30.5891 18.9595C30.5891 18.8893 30.5911 18.8491 30.5911 18.8491L30.5986 18.8486C30.5986 18.8486 30.606 18.8883 30.6162 18.9578C30.6216 18.9922 30.6276 19.0346 30.6336 19.0831C30.6395 19.1317 30.648 19.1864 30.6539 19.2462C30.6601 19.3061 30.6671 19.3706 30.674 19.4391C30.6817 19.5076 30.6862 19.58 30.6926 19.6549C30.7001 19.8047 30.7085 19.9648 30.7167 20.1247C30.7524 20.7644 30.781 21.4047 30.781 21.4047L30.7735 21.4054L30.7738 21.4051Z" fill="#827209"/>
<path d="M31.0715 21.1575C31.0715 21.1575 30.9921 20.6323 30.9199 20.1066C30.9008 19.9751 30.8804 19.844 30.8648 19.7206C30.8588 19.6588 30.8506 19.5992 30.8467 19.5422C30.8422 19.4853 30.8382 19.4316 30.834 19.3819C30.8298 19.3321 30.829 19.2863 30.8266 19.2461C30.8243 19.2057 30.8228 19.1705 30.8226 19.1412C30.8209 19.0831 30.8214 19.0496 30.8214 19.0496L30.829 19.0486C30.829 19.0486 30.8375 19.0811 30.8494 19.138C30.8559 19.1666 30.8631 19.2011 30.8703 19.241C30.8774 19.2809 30.8871 19.3255 30.8946 19.375C30.9025 19.424 30.911 19.4775 30.9196 19.5336C30.9293 19.59 30.9353 19.6499 30.944 19.7112C30.9574 19.8349 30.9683 19.9674 30.9805 20.0995C31.0331 20.6276 31.0787 21.1565 31.0787 21.1565L31.0713 21.1575H31.0715Z" fill="#827209"/>
<path d="M30.0049 21.4044C30.0049 21.4044 30.0337 20.7642 30.0694 20.1244C30.0776 19.9646 30.0858 19.8044 30.0935 19.6547C30.0999 19.5798 30.1042 19.5073 30.1119 19.4389C30.1191 19.3701 30.126 19.3056 30.1322 19.246C30.1382 19.1861 30.1464 19.1314 30.1526 19.0829C30.1583 19.0344 30.1645 18.9923 30.1699 18.9575C30.1801 18.8878 30.1873 18.8484 30.1873 18.8484L30.195 18.8489C30.195 18.8489 30.1965 18.8893 30.1967 18.9592C30.1975 18.9945 30.1972 19.0373 30.1963 19.0861C30.195 19.1349 30.1955 19.1903 30.193 19.2502C30.1905 19.3103 30.1883 19.3753 30.1856 19.4438C30.1833 19.5128 30.1774 19.5852 30.1732 19.6601C30.1593 19.8096 30.1449 19.9692 30.1305 20.1286C30.0749 20.7669 30.0126 21.4049 30.0126 21.4049L30.0049 21.4042V21.4044Z" fill="#827209"/>
<path d="M29.7068 21.1565C29.7068 21.1565 29.7525 20.6274 29.8051 20.0995C29.8175 19.9674 29.8287 19.8349 29.8418 19.7112C29.8503 19.6499 29.8565 19.59 29.8659 19.5336C29.8748 19.4775 29.8833 19.424 29.8912 19.375C29.8987 19.3255 29.9083 19.2809 29.9155 19.241C29.9227 19.2011 29.9294 19.1666 29.9361 19.138C29.9483 19.0809 29.9567 19.0486 29.9567 19.0486L29.9642 19.0496C29.9642 19.0496 29.9647 19.0831 29.9629 19.1412C29.9627 19.1705 29.9615 19.2057 29.959 19.2461C29.9565 19.2865 29.9555 19.3324 29.9515 19.3819C29.9476 19.4316 29.9436 19.4853 29.9389 19.5422C29.9349 19.5992 29.927 19.6588 29.921 19.7206C29.9051 19.844 29.885 19.9751 29.8659 20.1066C29.7937 20.6323 29.7142 21.1575 29.7142 21.1575L29.7065 21.1565H29.7068Z" fill="#827209"/>
<path d="M21.6727 10.8414C21.6727 11.2102 21.3269 11.1782 20.9551 11.1782C20.5833 11.1782 20.3271 11.2102 20.3271 10.8414C20.3271 10.4726 20.6285 10.1736 21 10.1736C21.3716 10.1736 21.6727 10.4724 21.6727 10.8414Z" fill="#D9A30E"/>
<path d="M28.8466 23.0428C28.5033 23.212 27.5102 29.9314 28.3549 29.8883C28.9806 29.8568 29.6712 29.7117 30.3704 29.4838L31.5749 32.0007C31.9378 32.7589 32.5268 32.4034 33.2908 32.0433L33.3792 32.0017C34.1429 31.6415 34.7925 31.4129 34.4298 30.6547L33.2121 28.1105C33.8289 27.7035 34.3767 27.2544 34.7979 26.7916C35.3648 26.1686 29.2058 22.8654 28.8469 23.0428H28.8466Z" fill="#AEADB2"/>
</g>
<defs>
<clipPath id="clip0_1018_2222">
<rect width="42" height="39" fill="white"/>
</clipPath>
</defs>
</svg>
