<svg width="17" height="33" viewBox="0 0 17 33" fill="none" xmlns="http://www.w3.org/2000/svg">
<path d="M0.456839 29.6406C0.310908 29.795 0.196821 29.9767 0.121096 30.1752C0.0453703 30.3737 0.0094854 30.5852 0.0154935 30.7976C0.0215017 31.01 0.0692845 31.2191 0.156111 31.413C0.242939 31.607 0.367111 31.7819 0.52154 31.9278C0.675968 32.0738 0.85763 32.1878 1.05615 32.2636C1.25467 32.3393 1.46616 32.3752 1.67854 32.3692C1.89093 32.3632 2.10005 32.3154 2.29397 32.2285C2.4879 32.1417 2.66281 32.0175 2.80875 31.8631L16.5579 17.3052C16.8418 17.0049 17 16.6073 17 16.194C17 15.7807 16.8418 15.3831 16.5579 15.0827L2.80875 0.523232C2.66378 0.365424 2.4889 0.23799 2.29427 0.148337C2.09963 0.0586878 1.88913 0.00860464 1.67497 0.000994296C1.46082 -0.00661223 1.24729 0.0284067 1.04678 0.104018C0.846276 0.179633 0.662793 0.294329 0.506989 0.441452C0.351188 0.588576 0.22617 0.765191 0.139201 0.961037C0.0522317 1.15688 0.00504383 1.36806 0.000378439 1.5823C-0.00428695 1.79654 0.0336616 2.00957 0.112021 2.20901C0.190383 2.40846 0.307591 2.59035 0.456841 2.74412L13.1578 16.194L0.456839 29.6406Z" fill="black" fill-opacity="0.44"/>
</svg>
