<svg width="17" height="33" viewBox="0 0 17 33" fill="none" xmlns="http://www.w3.org/2000/svg">
<path d="M16.5432 2.7292C16.6891 2.57477 16.8032 2.39311 16.8789 2.19459C16.9546 1.99607 16.9905 1.78458 16.9845 1.57219C16.9785 1.35981 16.9307 1.15068 16.8439 0.956764C16.7571 0.762843 16.6329 0.587924 16.4785 0.441992C16.324 0.29606 16.1424 0.181975 15.9439 0.106249C15.7453 0.0305225 15.5338 -0.00536109 15.3215 0.00064702C15.1091 0.00665513 14.8999 0.054437 14.706 0.141265C14.5121 0.228092 14.3372 0.352265 14.1913 0.506694L0.442143 15.0646C0.158206 15.3649 0 15.7625 0 16.1758C0 16.5891 0.158206 16.9868 0.442143 17.2871L14.1913 31.8466C14.3362 32.0044 14.5111 32.1318 14.7057 32.2215C14.9004 32.3111 15.1109 32.3612 15.325 32.3688C15.5392 32.3764 15.7527 32.3414 15.9532 32.2658C16.1537 32.1902 16.3372 32.0755 16.493 31.9284C16.6488 31.7812 16.7738 31.6046 16.8608 31.4088C16.9478 31.2129 16.995 31.0018 16.9996 30.7875C17.0043 30.5733 16.9663 30.3602 16.888 30.1608C16.8096 29.9613 16.6924 29.7795 16.5432 29.6257L3.84222 16.1758L16.5432 2.7292Z" fill="black" fill-opacity="0.44"/>
</svg>
