<svg width="138" height="47" viewBox="0 0 138 47" fill="none" xmlns="http://www.w3.org/2000/svg">
<path d="M23.7296 39.1318C15.1424 39.1318 8.92418 31.9569 8.92418 23.1192C8.92418 14.2815 15.1424 7.24326 23.7296 7.24326C28.8545 7.24326 32.7039 9.47545 36.28 12.8238L41.3366 6.9927C37.0544 2.89275 32.0434 0 23.7979 0C10.2225 0 0.678711 10.4321 0.678711 23.2559C0.678711 36.1935 10.4047 46.3751 23.479 46.3751C31.8612 46.3751 36.9861 43.3001 41.6783 38.4257L36.6217 33.3008C32.7495 36.8996 29.2417 39.1318 23.7296 39.1318Z" fill="#601C70"/>
<path d="M113.496 0.774414H97.5518V45.6006H113.496C127.595 45.6006 137.321 35.8063 137.321 23.1192C137.321 10.4321 127.595 0.774414 113.496 0.774414ZM113.496 38.4257H105.433V7.94934H113.496C122.903 7.94934 129.053 14.4182 129.053 23.2558C129.053 32.0935 122.926 38.4257 113.496 38.4257Z" fill="#601C70"/>
<path d="M93.816 15.8304C93.816 6.6738 87.2105 0.774414 76.7784 0.774414H59.9458V45.6234H67.8268V31.2052H75.8901C85.7527 31.1824 93.816 25.9436 93.816 15.8304ZM85.8211 15.8531C85.8211 20.2036 82.1083 24.0075 76.1406 24.0075H71.7218L67.8041 27.8797V12.9376C67.8041 9.86265 69.4896 7.92656 72.8607 7.92656H76.1406C81.4934 7.94934 85.8211 11.0243 85.8211 15.8531Z" fill="#601C70"/>
<path d="M53.7276 0.774414H45.8921V45.6234H53.7276V0.774414Z" fill="#601C70"/>
</svg>
