<svg width="94" height="56" viewBox="0 0 94 56" fill="none" xmlns="http://www.w3.org/2000/svg">
<g clip-path="url(#clip0_725_1447)">
<path d="M80.8106 20.9944H73.2866H71.1341H66.5051V34.1738H73.2866V28.1818H80.8106V20.9944Z" fill="#F4993C"/>
<path d="M6.43774 48.3743H3.96628V45.2662C3.40821 45.2662 2.89498 45.3608 2.43657 45.5651C1.97815 45.7693 1.59946 46.0333 1.30548 46.362C0.533149 47.2187 0.129545 48.2099 0.0946655 49.3406H1.14603V49.3306H2.14259V48.3693H1.40015C1.734 47.5275 2.23228 46.9348 2.89997 46.5911V49.3406H7.4592V45.2911H6.43774V48.3793V48.3743Z" fill="#183A66"/>
<path d="M32.8116 48.6632C32.8116 49.4352 32.5425 49.8187 31.9894 49.8237V50.8548H32.1239C33.1056 50.8548 33.6786 50.4314 33.7832 49.4203L33.8081 48.3743V45.2861H32.8066V48.6632H32.8116Z" fill="#183A66"/>
<path d="M22.0288 48.3743H20.833V45.2861H19.8115V48.3743H18.5808V45.2861H17.5244V48.3743H16.1292V46.0482H15.0729V48.3743H13.6777V46.8053H12.6313V48.3743H10.1399V45.2861H9.13841V48.6632C9.13841 49.4352 8.86934 49.8187 8.31625 49.8237V50.8548H8.45079C9.43239 50.8548 9.97053 50.3467 10.0752 49.3356H23.0503V43.2589H22.0139V48.3693L22.0288 48.3743Z" fill="#183A66"/>
<path d="M25.168 43.2589H24.1465V49.3356H25.168V43.2589Z" fill="#183A66"/>
<path d="M30.0112 45.6199C29.5827 45.3808 29.1193 45.2612 28.6211 45.2612C28.5563 45.2612 28.4965 45.2612 28.4317 45.2612C28.3619 45.2612 28.2922 45.2612 28.2224 45.2612V46.357C29.5329 46.2973 30.2056 46.8999 30.2454 48.1651V48.3693H27.47V49.3306H31.3317V48.2996C31.3317 47.8015 31.232 47.3034 31.0377 46.8053C30.8284 46.2823 30.4896 45.8838 30.0112 45.6149V45.6199Z" fill="#183A66"/>
<path d="M35.577 43.2589H34.5555V49.3356H35.577V43.2589Z" fill="#183A66"/>
<path d="M45.5724 48.3743H44.8599H44.0327V45.2114H42.9764C41.7556 45.2363 41.1278 45.7045 41.0929 46.616V48.3793H40.6096H39.7376V45.2911H37.9388C37.1117 45.3708 36.6582 45.8241 36.5785 46.6609V47.8314C36.6533 48.972 37.3708 49.475 38.7211 49.3406C38.761 49.6394 38.6264 49.8038 38.3175 49.8337H36.6234V50.8597H38.2677C38.7859 50.8597 39.1895 50.7053 39.4685 50.3965C39.6529 50.1375 39.7426 49.7888 39.7426 49.3455H41.1128L44.2121 49.3406L46.6088 49.3455V43.2689H45.5724V48.3793V48.3743ZM38.6862 48.3743H38.0933C37.7445 48.3145 37.5751 48.0953 37.59 47.7168V46.89C37.6 46.5314 37.7545 46.3321 38.0584 46.2823H38.6912V48.3743H38.6862ZM42.9913 48.0655C43.0013 48.2199 42.9216 48.3195 42.7572 48.3693H42.1642V46.357C42.1891 46.1578 42.3486 46.0482 42.6426 46.0382H42.9864V48.0704L42.9913 48.0655Z" fill="#183A66"/>
<path d="M48.2133 43.2589H47.1918V49.3356H48.2133V43.2589Z" fill="#183A66"/>
<path d="M67.2176 48.3743H64.7262V45.2861H63.7047V48.3743H63.1716H62.3444V45.2114H61.2881C60.0673 45.2363 59.4395 45.7045 59.4046 46.616V48.3793H58.9213H57.9297V45.2911H56.9082V48.3793H54.8105V45.2712C54.2524 45.2712 53.7392 45.3658 53.2808 45.57C52.8224 45.7743 52.4437 46.0382 52.1497 46.367C51.3774 47.2237 50.9738 48.2149 50.9389 49.3455H51.9902H52.9669V48.4241H52.2194C52.5533 47.5574 53.0565 46.9497 53.7342 46.6011V49.3505H59.4993L62.6085 49.3455L64.9554 49.3505H68.2341V45.3011H67.2126V48.3892L67.2176 48.3743ZM61.303 48.0655C61.313 48.2199 61.2333 48.3195 61.0688 48.3693H60.4759V46.357C60.5008 46.1578 60.6603 46.0482 60.9542 46.0382H61.2981V48.0704L61.303 48.0655Z" fill="#183A66"/>
<path d="M73.1627 43.1838L72.4193 43.9269L73.1733 44.6806L73.9167 43.9375L73.1627 43.1838Z" fill="#183A66"/>
<path d="M74.7049 43.1863L73.9614 43.9294L74.7154 44.6831L75.4589 43.94L74.7049 43.1863Z" fill="#183A66"/>
<path d="M66.0867 43.1842L65.3433 43.9274L66.0973 44.6811L66.8407 43.9379L66.0867 43.1842Z" fill="#183A66"/>
<path d="M64.2485 43.1789L63.505 43.922L64.259 44.6757L65.0025 43.9326L64.2485 43.1789Z" fill="#183A66"/>
<path d="M67.6289 43.1818L66.8854 43.9249L67.6394 44.6786L68.3829 43.9355L67.6289 43.1818Z" fill="#183A66"/>
<path d="M52.5249 43.1829L51.7814 43.9261L52.5354 44.6798L53.2789 43.9367L52.5249 43.1829Z" fill="#183A66"/>
<path d="M54.0585 43.184L53.3151 43.9271L54.0691 44.6809L54.8125 43.9377L54.0585 43.184Z" fill="#183A66"/>
<path d="M14.7189 43.2463L13.9755 43.9894L14.7295 44.7432L15.4729 44L14.7189 43.2463Z" fill="#183A66"/>
<path d="M16.2561 43.2438L15.5127 43.987L16.2667 44.7407L17.0101 43.9975L16.2561 43.2438Z" fill="#183A66"/>
<path d="M1.70073 43.1182L0.957306 43.8614L1.7113 44.6151L2.45473 43.8719L1.70073 43.1182Z" fill="#183A66"/>
<path d="M3.23934 43.1243L2.49591 43.8674L3.24991 44.6211L3.99334 43.878L3.23934 43.1243Z" fill="#183A66"/>
<path d="M5.00023 49.907L4.25681 50.6502L5.0108 51.4039L5.75423 50.6607L5.00023 49.907Z" fill="#183A66"/>
<path d="M6.5374 49.9046L5.79398 50.6477L6.54797 51.4014L7.2914 50.6583L6.5374 49.9046Z" fill="#183A66"/>
<path d="M20.305 49.9094L19.5615 50.6525L20.3155 51.4062L21.0589 50.6631L20.305 49.9094Z" fill="#183A66"/>
<path d="M15.5083 41.5656L14.7649 42.3087L15.5189 43.0624L16.2623 42.3193L15.5083 41.5656Z" fill="#183A66"/>
<path d="M55.9515 49.9875L55.208 50.7306L55.962 51.4843L56.7055 50.7412L55.9515 49.9875Z" fill="#183A66"/>
<path d="M57.4886 49.99L56.7452 50.7331L57.4992 51.4868L58.2426 50.7437L57.4886 49.99Z" fill="#183A66"/>
<path d="M76.1866 46.6559V47.8264C76.2613 48.967 76.9788 49.4701 78.3292 49.3356C78.369 49.6344 78.2345 49.7988 77.9256 49.8287H76.2314V50.8548H77.8757C78.394 50.8548 78.7976 50.7003 79.0766 50.3915C79.261 50.1325 79.3506 49.7839 79.3506 49.3406V45.2911H77.5519C76.7247 45.3708 76.2713 45.8241 76.1916 46.6609L76.1866 46.6559ZM78.2993 46.2823V48.3743H77.7063C77.3575 48.3145 77.1881 48.0954 77.2031 47.7168V46.89C77.213 46.5314 77.3675 46.3321 77.6715 46.2823H78.2993Z" fill="#183A66"/>
<path d="M85.3996 43.2483L84.6492 43.9985L85.3926 44.7416L86.1431 43.9914L85.3996 43.2483Z" fill="#183A66"/>
<path d="M93.6413 45.844C93.4619 45.6298 93.2825 45.4854 93.1031 45.4107C92.9237 45.3359 92.7493 45.2911 92.57 45.2861H88.9973V48.3743H88.215V46.6011H87.2434V48.3743H85.8681V45.2861H84.8467V48.3743H83.7056C83.7305 47.8862 83.6408 47.3731 83.4316 46.8352C83.2223 46.2973 82.8785 45.8888 82.4001 45.6199C81.9716 45.3808 81.5082 45.2612 81.0099 45.2612C80.9452 45.2612 80.8854 45.2612 80.8206 45.2612C80.7508 45.2612 80.6811 45.2612 80.6113 45.2612V46.357C81.9218 46.2973 82.5945 46.8999 82.6393 48.1651V48.3693H79.8639V49.3306H93.995V46.7505C93.9402 46.357 93.8206 46.0532 93.6413 45.839V45.844ZM92.9486 48.3743H89.9739V46.2973H92.3457C92.7194 46.3471 92.9188 46.5463 92.9486 46.89V48.3743Z" fill="#183A66"/>
<path d="M74.1187 45.2861C73.2418 45.2463 72.6688 45.6099 72.4047 46.3869C72.2253 46.9547 72.2602 47.4678 72.5043 47.9111H72.4894C72.8481 48.5337 73.3713 48.957 74.039 49.2061V48.0306C73.6454 47.7965 73.4162 47.4528 73.3514 46.9946C73.3863 46.5264 73.7151 46.3172 74.333 46.367H74.4526V48.2199C74.4526 48.2199 74.4476 48.698 74.4426 49.0268C74.4426 49.2011 74.4426 49.3306 74.4426 49.3306C74.4426 49.3306 74.3729 49.8586 73.9394 49.8237H72.3499C72.011 49.8187 71.8316 49.5647 71.8217 49.0666V48.3095H70.7554V48.6881C70.7554 48.7727 70.7554 48.8524 70.7554 48.9321C70.7554 49.5797 70.855 50.0528 71.0494 50.3517C71.2686 50.6854 71.6722 50.8548 72.2502 50.8597H73.8796C73.9394 50.8597 73.9942 50.8597 74.049 50.8597C74.4675 50.8597 74.8064 50.7502 75.0555 50.526C75.3345 50.272 75.489 49.8785 75.5089 49.3356V45.2861H74.1237H74.1187Z" fill="#183A66"/>
<path d="M0 53.0961H0.881951V54.0923H1.84363V53.0961H2.73056V55.9502H1.84363V54.7946H0.881951V55.9502H0V53.0961Z" fill="#183A66"/>
<path d="M5.17211 53.0961H6.05406V54.7946C6.05406 54.964 6.02915 55.1234 5.97434 55.2728C5.91953 55.4222 5.8398 55.5517 5.7252 55.6663C5.6106 55.7808 5.49599 55.8556 5.37142 55.9004C5.20201 55.9651 4.99273 55.995 4.75356 55.995C4.61404 55.995 4.46456 55.9851 4.30013 55.9651C4.13569 55.9452 4.00116 55.9054 3.88656 55.8506C3.77694 55.7908 3.67728 55.7111 3.58261 55.6065C3.49292 55.5019 3.42814 55.3923 3.39326 55.2778C3.33845 55.0985 3.31354 54.9341 3.31354 54.7946V53.0961H4.19549V54.8345C4.19549 54.9889 4.24033 55.1134 4.32504 55.1981C4.40975 55.2877 4.52933 55.3276 4.6838 55.3276C4.83827 55.3276 4.95287 55.2828 5.04256 55.1981C5.12727 55.1134 5.17211 54.9889 5.17211 54.8295V53.0912V53.0961Z" fill="#183A66"/>
<path d="M6.62708 53.0961H7.78806L8.23651 54.8295L8.67998 53.0961H9.84096V55.9502H9.11846V53.7735L8.56039 55.9502H7.90765L7.35456 53.7735V55.9502H6.63206V53.0961H6.62708Z" fill="#183A66"/>
<path d="M12.153 55.482H11.1514L11.0119 55.9552H10.11L11.1813 53.1011H12.143L13.2143 55.9552H12.2925L12.148 55.482H12.153ZM11.9686 54.8644L11.6547 53.8383L11.3408 54.8644H11.9686Z" fill="#183A66"/>
<path d="M13.5083 53.0961H14.3305L15.4067 54.6751V53.0961H16.2389V55.9502H15.4067L14.3404 54.3862V55.9502H13.5133V53.0961H13.5083Z" fill="#183A66"/>
<path d="M18.1622 55.9502V53.0961H19.6321C19.9062 53.0961 20.1105 53.1211 20.255 53.1659C20.3995 53.2107 20.5141 53.3004 20.6038 53.4249C20.6934 53.5494 20.7383 53.7038 20.7383 53.8881C20.7383 54.0475 20.7034 54.182 20.6386 54.2965C20.5689 54.4111 20.4792 54.5057 20.3596 54.5755C20.2849 54.6203 20.1802 54.6601 20.0507 54.69C20.1553 54.7249 20.2301 54.7598 20.2799 54.7946C20.3098 54.8195 20.3596 54.8693 20.4194 54.9441C20.4792 55.0188 20.524 55.0785 20.544 55.1234L20.9725 55.9502H19.9759L19.5026 55.0785C19.4428 54.964 19.388 54.8942 19.3431 54.8594C19.2783 54.8146 19.2086 54.7946 19.1289 54.7946H19.0491V55.9502H18.1622ZM19.0491 54.2517H19.4228C19.4627 54.2517 19.5424 54.2368 19.657 54.2119C19.7168 54.2019 19.7617 54.172 19.8015 54.1222C19.8364 54.0724 19.8563 54.0176 19.8563 53.9578C19.8563 53.8682 19.8264 53.7935 19.7667 53.7437C19.7069 53.6939 19.5972 53.669 19.4378 53.669H19.0491V54.2467V54.2517Z" fill="#183A66"/>
<path d="M21.2465 53.0961H23.6084V53.7038H22.1285V54.1571H23.4987V54.7398H22.1285V55.3027H23.6482V55.9502H21.2415V53.0961H21.2465Z" fill="#183A66"/>
<path d="M23.9771 55.0088L24.8142 54.954C24.8341 55.0885 24.869 55.1931 24.9238 55.2628C25.0135 55.3774 25.1431 55.4372 25.3125 55.4372C25.437 55.4372 25.5367 55.4073 25.6015 55.3475C25.6712 55.2877 25.7061 55.218 25.7061 55.1433C25.7061 55.0686 25.6762 55.0038 25.6065 54.9441C25.5417 54.8843 25.3922 54.8295 25.153 54.7797C24.7644 54.695 24.4903 54.5755 24.3259 54.431C24.1615 54.2866 24.0767 54.1023 24.0767 53.8781C24.0767 53.7337 24.1216 53.5942 24.2063 53.4647C24.291 53.3352 24.4206 53.2306 24.59 53.1559C24.7594 53.0812 24.9936 53.0463 25.2925 53.0463C25.6563 53.0463 25.9353 53.1161 26.1247 53.2506C26.314 53.385 26.4286 53.6042 26.4685 53.8981L25.6364 53.9479C25.6164 53.8184 25.5666 53.7237 25.4968 53.669C25.4271 53.6092 25.3274 53.5793 25.2029 53.5793C25.0982 53.5793 25.0235 53.5992 24.9736 53.644C24.9238 53.6889 24.8939 53.7387 24.8939 53.8034C24.8939 53.8483 24.9139 53.8881 24.9587 53.928C24.9986 53.9678 25.0982 54.0027 25.2527 54.0326C25.6364 54.1172 25.9154 54.1969 26.0798 54.2866C26.2443 54.3713 26.3688 54.4759 26.4436 54.6004C26.5183 54.7249 26.5582 54.8693 26.5582 55.0237C26.5582 55.208 26.5083 55.3774 26.4087 55.5318C26.309 55.6862 26.1645 55.8057 25.9851 55.8854C25.8058 55.9651 25.5766 56.005 25.2975 56.005C24.8142 56.005 24.4754 55.9103 24.291 55.7261C24.1066 55.5418 23.997 55.3027 23.9721 55.0138L23.9771 55.0088Z" fill="#183A66"/>
<path d="M26.897 54.5257C26.897 54.0624 27.0266 53.6988 27.2857 53.4398C27.5448 53.1808 27.9085 53.0513 28.3719 53.0513C28.8353 53.0513 29.214 53.1808 29.4681 53.4348C29.7272 53.6889 29.8518 54.0475 29.8518 54.5057C29.8518 54.8395 29.797 55.1134 29.6824 55.3276C29.5678 55.5418 29.4083 55.7061 29.1941 55.8257C28.9798 55.9452 28.7157 56.005 28.4018 56.005C28.0879 56.005 27.8138 55.9552 27.6046 55.8506C27.3953 55.746 27.2209 55.5866 27.0913 55.3624C26.9618 55.1383 26.897 54.8644 26.897 54.5306V54.5257ZM27.779 54.5306C27.779 54.8195 27.8338 55.0238 27.9384 55.1533C28.043 55.2778 28.1925 55.3425 28.3769 55.3425C28.5612 55.3425 28.7107 55.2828 28.8154 55.1582C28.92 55.0337 28.9698 54.8146 28.9698 54.4958C28.9698 54.2268 28.915 54.0326 28.8054 53.908C28.6958 53.7835 28.5513 53.7237 28.3669 53.7237C28.1826 53.7237 28.048 53.7885 27.9384 53.913C27.8288 54.0375 27.779 54.2467 27.779 54.5356V54.5306Z" fill="#183A66"/>
<path d="M32.1837 53.0961H33.0657V54.7946C33.0657 54.964 33.0408 55.1234 32.986 55.2728C32.9312 55.4222 32.8514 55.5517 32.7368 55.6663C32.6222 55.7808 32.5076 55.8556 32.383 55.9004C32.2136 55.9651 32.0044 55.995 31.7652 55.995C31.6257 55.995 31.4762 55.9851 31.3118 55.9651C31.1473 55.9452 31.0128 55.9054 30.8982 55.8506C30.7886 55.7908 30.6889 55.7111 30.5942 55.6065C30.5045 55.5019 30.4398 55.3923 30.4049 55.2778C30.3501 55.0985 30.3252 54.9341 30.3252 54.7946V53.0961H31.2071V54.8345C31.2071 54.9889 31.252 55.1134 31.3367 55.1981C31.4214 55.2877 31.541 55.3276 31.6954 55.3276C31.8499 55.3276 31.9645 55.2828 32.0542 55.1981C32.1389 55.1134 32.1837 54.9889 32.1837 54.8295V53.0912V53.0961Z" fill="#183A66"/>
<path d="M33.6586 55.9502V53.0961H35.1285C35.4026 53.0961 35.6069 53.1211 35.7514 53.1659C35.8959 53.2107 36.0105 53.3004 36.1002 53.4249C36.1899 53.5494 36.2347 53.7038 36.2347 53.8881C36.2347 54.0475 36.1998 54.182 36.1351 54.2965C36.0653 54.4111 35.9756 54.5057 35.856 54.5755C35.7813 54.6203 35.6766 54.6601 35.5471 54.69C35.6517 54.7249 35.7265 54.7598 35.7763 54.7946C35.8062 54.8195 35.856 54.8693 35.9158 54.9441C35.9756 55.0188 36.0205 55.0785 36.0404 55.1234L36.4689 55.9502H35.4724L34.999 55.0785C34.9392 54.964 34.8844 54.8942 34.8395 54.8594C34.7748 54.8146 34.705 54.7946 34.6253 54.7946H34.5456V55.9502H33.6586ZM34.5456 54.2517H34.9193C34.9591 54.2517 35.0389 54.2368 35.1535 54.2119C35.2133 54.2019 35.2581 54.172 35.298 54.1222C35.3328 54.0724 35.3528 54.0176 35.3528 53.9578C35.3528 53.8682 35.3229 53.7935 35.2631 53.7437C35.2033 53.6939 35.0937 53.669 34.9342 53.669H34.5456V54.2467V54.2517Z" fill="#183A66"/>
<path d="M38.5766 54.7847L39.349 55.0188C39.2991 55.2329 39.2144 55.4172 39.1048 55.5617C38.9952 55.7061 38.8557 55.8157 38.6912 55.8904C38.5268 55.9651 38.3175 56 38.0584 56C37.7495 56 37.4954 55.9552 37.296 55.8655C37.1017 55.7759 36.9323 55.6165 36.7878 55.3923C36.6433 55.1632 36.5735 54.8743 36.5735 54.5207C36.5735 54.0475 36.6981 53.6839 36.9522 53.4348C37.2014 53.1808 37.5601 53.0563 38.0186 53.0563C38.3773 53.0563 38.6613 53.131 38.8656 53.2755C39.0699 53.4199 39.2244 53.644 39.324 53.9429L38.5467 54.1172C38.5218 54.0326 38.4919 53.9678 38.462 53.928C38.4122 53.8582 38.3524 53.8084 38.2826 53.7735C38.2129 53.7387 38.1332 53.7188 38.0435 53.7188C37.8442 53.7188 37.6897 53.7985 37.585 53.9578C37.5053 54.0774 37.4655 54.2667 37.4655 54.5207C37.4655 54.8345 37.5153 55.0536 37.61 55.1682C37.7046 55.2877 37.8392 55.3425 38.0136 55.3425C38.188 55.3425 38.3076 55.2977 38.3972 55.1981C38.4819 55.1034 38.5467 54.964 38.5866 54.7847H38.5766Z" fill="#183A66"/>
<path d="M39.7775 53.0961H42.1393V53.7038H40.6594V54.1571H42.0297V54.7398H40.6594V55.3027H42.1792V55.9502H39.7725V53.0961H39.7775Z" fill="#183A66"/>
<path d="M42.5031 55.0088L43.3402 54.954C43.3601 55.0885 43.395 55.1931 43.4498 55.2628C43.5395 55.3774 43.669 55.4372 43.8384 55.4372C43.963 55.4372 44.0627 55.4073 44.1274 55.3475C44.1972 55.2877 44.2321 55.218 44.2321 55.1433C44.2321 55.0686 44.2022 55.0038 44.1324 54.9441C44.0677 54.8843 43.9182 54.8295 43.679 54.7797C43.2903 54.695 43.0163 54.5755 42.8519 54.431C42.6874 54.2866 42.6027 54.1023 42.6027 53.8781C42.6027 53.7337 42.6476 53.5942 42.7323 53.4647C42.817 53.3352 42.9465 53.2306 43.1159 53.1559C43.2854 53.0812 43.5195 53.0463 43.8185 53.0463C44.1823 53.0463 44.4613 53.1161 44.6506 53.2506C44.84 53.385 44.9546 53.6042 44.9944 53.8981L44.1623 53.9479C44.1424 53.8184 44.0926 53.7237 44.0228 53.669C43.953 53.6092 43.8534 53.5793 43.7288 53.5793C43.6242 53.5793 43.5494 53.5992 43.4996 53.644C43.4498 53.6889 43.4199 53.7387 43.4199 53.8034C43.4199 53.8483 43.4398 53.8881 43.4847 53.928C43.5245 53.9678 43.6242 54.0027 43.7786 54.0326C44.1623 54.1172 44.4414 54.1969 44.6058 54.2866C44.7702 54.3713 44.8948 54.4759 44.9695 54.6004C45.0443 54.7249 45.0841 54.8693 45.0841 55.0237C45.0841 55.208 45.0343 55.3774 44.9347 55.5318C44.835 55.6862 44.6905 55.8057 44.5111 55.8854C44.3317 55.9651 44.1025 56.005 43.8235 56.005C43.3402 56.005 43.0013 55.9103 42.817 55.7261C42.6326 55.5418 42.523 55.3027 42.4981 55.0138L42.5031 55.0088Z" fill="#183A66"/>
<path d="M46.8779 53.0961H48.1884C48.4475 53.0961 48.6568 53.131 48.8162 53.2007C48.9757 53.2705 49.1052 53.3701 49.2099 53.5046C49.3145 53.6391 49.3892 53.7885 49.4341 53.9628C49.4789 54.1372 49.5038 54.3214 49.5038 54.5157C49.5038 54.8195 49.469 55.0586 49.3992 55.223C49.3295 55.3874 49.2348 55.5318 49.1102 55.6464C48.9856 55.7609 48.8561 55.8356 48.7116 55.8705C48.5173 55.9203 48.3429 55.9502 48.1884 55.9502H46.8779V53.0961ZM47.7599 53.7437V55.3027H47.9741C48.1585 55.3027 48.2881 55.2828 48.3678 55.2429C48.4475 55.2031 48.5073 55.1283 48.5521 55.0287C48.597 54.9291 48.6169 54.7598 48.6169 54.5356C48.6169 54.2318 48.5671 54.0276 48.4674 53.913C48.3678 53.8034 48.2033 53.7437 47.9791 53.7437H47.7599Z" fill="#183A66"/>
<path d="M49.9623 53.0961H52.3241V53.7038H50.8442V54.1571H52.2145V54.7398H50.8442V55.3027H52.364V55.9502H49.9573V53.0961H49.9623Z" fill="#183A66"/>
<path d="M52.5633 53.0961H53.4851L54.1279 55.1483L54.7607 53.0961H55.6576L54.5962 55.9502H53.6395L52.5633 53.0961Z" fill="#183A66"/>
<path d="M55.9416 53.0961H58.3034V53.7038H56.8235V54.1571H58.1938V54.7398H56.8235V55.3027H58.3433V55.9502H55.9366V53.0961H55.9416Z" fill="#183A66"/>
<path d="M58.8216 53.0961H59.7036V55.2479H61.0788V55.9502H58.8216V53.0961Z" fill="#183A66"/>
<path d="M61.303 54.5257C61.303 54.0624 61.4326 53.6988 61.6917 53.4398C61.9508 53.1808 62.3145 53.0513 62.7779 53.0513C63.2413 53.0513 63.62 53.1808 63.8742 53.4348C64.1333 53.6889 64.2578 54.0475 64.2578 54.5057C64.2578 54.8395 64.203 55.1134 64.0884 55.3276C63.9738 55.5418 63.8144 55.7061 63.6001 55.8257C63.3858 55.9452 63.1218 56.005 62.8078 56.005C62.4939 56.005 62.2199 55.9552 62.0106 55.8506C61.8013 55.746 61.6269 55.5866 61.4974 55.3624C61.3678 55.1383 61.303 54.8644 61.303 54.5306V54.5257ZM62.185 54.5306C62.185 54.8195 62.2398 55.0238 62.3444 55.1533C62.4491 55.2778 62.5986 55.3425 62.7829 55.3425C62.9673 55.3425 63.1168 55.2828 63.2214 55.1582C63.326 55.0337 63.3759 54.8146 63.3759 54.4958C63.3759 54.2268 63.3211 54.0326 63.2114 53.908C63.1018 53.7835 62.9573 53.7237 62.773 53.7237C62.5886 53.7237 62.4541 53.7885 62.3444 53.913C62.2348 54.0375 62.185 54.2467 62.185 54.5356V54.5306Z" fill="#183A66"/>
<path d="M64.7312 53.0961H66.1961C66.515 53.0961 66.7542 53.1709 66.9137 53.3253C67.0731 53.4747 67.1528 53.6939 67.1528 53.9728C67.1528 54.2517 67.0681 54.4858 66.8937 54.6502C66.7193 54.8146 66.4552 54.8942 66.1015 54.8942H65.6181V55.9502H64.7312V53.0961ZM65.6181 54.3165H65.8324C66.0018 54.3165 66.1214 54.2866 66.1911 54.2268C66.2609 54.167 66.2958 54.0923 66.2958 53.9977C66.2958 53.9031 66.2659 53.8333 66.2061 53.7686C66.1463 53.7088 66.0317 53.6739 65.8673 53.6739H65.6181V54.3115V54.3165Z" fill="#183A66"/>
<path d="M67.6063 53.0961H68.7672L69.2157 54.8295L69.6592 53.0961H70.8202V55.9502H70.0976V53.7735L69.5396 55.9502H68.8868L68.3288 53.7735V55.9502H67.6063V53.0961Z" fill="#183A66"/>
<path d="M71.3732 53.0961H73.7351V53.7038H72.2552V54.1571H73.6255V54.7398H72.2552V55.3027H73.7749V55.9502H71.3683V53.0961H71.3732Z" fill="#183A66"/>
<path d="M74.2632 53.0961H75.0854L76.1617 54.6751V53.0961H76.9938V55.9502H76.1617L75.0954 54.3862V55.9502H74.2682V53.0961H74.2632Z" fill="#183A66"/>
<path d="M77.3775 53.0961H80.0582V53.7985H79.1613V55.9452H78.2794V53.7985H77.3825V53.0961H77.3775Z" fill="#183A66"/>
<path d="M81.7872 53.0961H83.9647V53.7088H82.6692V54.2069H83.7754V54.7847H82.6692V55.9502H81.7823V53.0961H81.7872Z" fill="#183A66"/>
<path d="M86.3016 53.0961H87.1836V54.7946C87.1836 54.964 87.1587 55.1234 87.1039 55.2728C87.049 55.4222 86.9693 55.5517 86.8547 55.6663C86.7451 55.7808 86.6255 55.8556 86.5009 55.9004C86.3315 55.9651 86.1222 55.995 85.8831 55.995C85.7436 55.995 85.5941 55.9851 85.4296 55.9651C85.2652 55.9452 85.1257 55.9054 85.0161 55.8506C84.9064 55.7908 84.8068 55.7111 84.7121 55.6065C84.6224 55.5019 84.5577 55.3923 84.5228 55.2778C84.468 55.0985 84.4431 54.9341 84.4431 54.7946V53.0961H85.325V54.8345C85.325 54.9889 85.3698 55.1134 85.4546 55.1981C85.5393 55.2877 85.6589 55.3276 85.8133 55.3276C85.9678 55.3276 86.0824 55.2828 86.1721 55.1981C86.2568 55.1134 86.3016 54.9889 86.3016 54.8295V53.0912V53.0961Z" fill="#183A66"/>
<path d="M87.7665 53.0961H88.5887L89.665 54.6751V53.0961H90.4971V55.9502H89.665L88.5987 54.3862V55.9502H87.7715V53.0961H87.7665Z" fill="#183A66"/>
<path d="M91.095 53.0961H92.4055C92.6646 53.0961 92.8739 53.131 93.0333 53.2007C93.1928 53.2705 93.3223 53.3701 93.427 53.5046C93.5316 53.6391 93.6063 53.7885 93.6512 53.9628C93.696 54.1372 93.7209 54.3214 93.7209 54.5157C93.7209 54.8195 93.6861 55.0586 93.6163 55.223C93.5466 55.3923 93.4519 55.5318 93.3273 55.6464C93.2027 55.7609 93.0732 55.8356 92.9287 55.8705C92.7344 55.9203 92.56 55.9502 92.4055 55.9502H91.095V53.0961ZM91.977 53.7437V55.3027H92.1912C92.3756 55.3027 92.5052 55.2828 92.5849 55.2429C92.6646 55.2031 92.7244 55.1283 92.7692 55.0287C92.8141 54.9291 92.834 54.7598 92.834 54.5356C92.834 54.2318 92.7842 54.0276 92.6845 53.913C92.5849 53.8034 92.4204 53.7437 92.1962 53.7437H91.977Z" fill="#183A66"/>
<path d="M18.4462 7.08281H25.9054V0H11.6099V14.7882H18.4462V7.08281Z" fill="#5BB84C"/>
<path d="M29.0745 9.1947H20.3746V25.6615H29.0745V16.5265H33.3646V25.2879C33.3646 25.2879 33.8679 28.5803 28.8453 30.9113C28.5114 31.0657 27.769 31.255 27.769 31.255H0.109619V39.334H26.03C26.03 39.334 28.9001 39.1696 29.4332 39.065C43.6142 36.3704 43.5544 25.2929 43.5544 25.2929V9.1947H29.0745Z" fill="#183A66"/>
<path d="M77.0187 9.18972L50.2164 9.09508V16.7009H76.8393C82.9582 17.0744 83.5362 22.653 83.5362 22.653V31.6634H58.9362V21.0841H50.336V31.6634H43.679C41.945 36.3753 35.3179 39.0302 35.3179 39.0302H93.6213V21.6519C91.5435 9.28436 77.0137 9.19968 77.0137 9.19968L77.0187 9.18972Z" fill="#183A66"/>
</g>
<defs>
<clipPath id="clip0_725_1447">
<rect width="94" height="56" fill="white"/>
</clipPath>
</defs>
</svg>
