<svg width="12" height="11" viewBox="0 0 12 11" fill="none" xmlns="http://www.w3.org/2000/svg">
<path fill-rule="evenodd" clip-rule="evenodd" d="M5.29999 0.789736C4.56691 0.349974 3.74205 0.0857158 2.8899 0.0176174C2.03775 -0.050481 1.1814 0.0794258 0.387779 0.397183C0.273163 0.442806 0.174905 0.521825 0.105756 0.623987C0.0366083 0.726148 -0.000237352 0.846735 1.15058e-06 0.970097V7.15545C1.15058e-06 7.56922 0.418547 7.8525 0.803142 7.69866C1.45306 7.43879 2.15426 7.33269 2.85197 7.38864C3.54968 7.44459 4.22501 7.66107 4.82521 8.02119L5.4273 8.38191C5.47345 8.41003 5.52279 8.4217 5.57 8.42117C5.62046 8.42215 5.67014 8.40871 5.71323 8.38244L6.31479 8.02119C6.91499 7.66107 7.59032 7.44459 8.28803 7.38864C8.98574 7.33269 9.68694 7.43879 10.3369 7.69866C10.4257 7.7342 10.5219 7.74742 10.6171 7.73717C10.7122 7.72692 10.8034 7.69351 10.8827 7.63985C10.9619 7.5862 11.0268 7.51394 11.0717 7.4294C11.1165 7.34487 11.14 7.25062 11.14 7.15492V0.970097C11.14 0.717591 10.9862 0.491077 10.7522 0.397183C9.9586 0.0796695 9.1023 -0.0500139 8.25025 0.018268C7.39819 0.0865499 6.57347 0.350947 5.84054 0.790797L5.57 0.953122L5.29999 0.789736ZM5.96839 2.05757C5.96839 1.95206 5.92647 1.85086 5.85186 1.77625C5.77725 1.70163 5.67605 1.65972 5.57053 1.65972C5.46501 1.65972 5.36382 1.70163 5.2892 1.77625C5.21459 1.85086 5.17267 1.95206 5.17267 2.05757V7.0971C5.17267 7.20262 5.21459 7.30381 5.2892 7.37843C5.36382 7.45304 5.46501 7.49495 5.57053 7.49495C5.67605 7.49495 5.77725 7.45304 5.85186 7.37843C5.92647 7.30381 5.96839 7.20262 5.96839 7.0971V2.05757Z" fill="#CEB07E"/>
<path d="M0.65036 8.71079C1.17768 8.40321 1.7772 8.24114 2.38767 8.24114C2.99814 8.24114 3.59766 8.40321 4.12498 8.71079L4.70161 9.04712C4.96533 9.20101 5.26519 9.2821 5.57053 9.2821C5.87586 9.2821 6.17572 9.20101 6.43945 9.04712L7.01607 8.71079C7.54339 8.40321 8.14292 8.24114 8.75338 8.24114C9.36385 8.24114 9.96337 8.40321 10.4907 8.71079L10.5453 8.74262C10.5905 8.76896 10.63 8.80392 10.6616 8.84552C10.6932 8.88713 10.7164 8.93455 10.7297 8.98509C10.743 9.03563 10.7462 9.0883 10.7391 9.14008C10.7321 9.19186 10.7149 9.24175 10.6886 9.28689C10.6622 9.33203 10.6273 9.37155 10.5857 9.40317C10.5441 9.4348 10.4966 9.45793 10.4461 9.47123C10.3955 9.48453 10.3429 9.48774 10.2911 9.48069C10.2393 9.47364 10.1894 9.45645 10.1443 9.43012L10.0897 9.39829C9.68405 9.16174 9.22292 9.03709 8.75338 9.03709C8.28384 9.03709 7.82271 9.16174 7.41711 9.39829L6.83996 9.73461C6.45464 9.95933 6.01658 10.0777 5.57053 10.0777C5.12447 10.0777 4.68641 9.95933 4.3011 9.73461L3.72394 9.39829C3.31834 9.16174 2.85721 9.03709 2.38767 9.03709C1.91813 9.03709 1.457 9.16174 1.0514 9.39829L0.996761 9.43012C0.905593 9.4833 0.797033 9.49809 0.694963 9.47123C0.592892 9.44437 0.505673 9.37806 0.452492 9.28689C0.399311 9.19572 0.384524 9.08716 0.411385 8.98509C0.438245 8.88302 0.504553 8.7958 0.595721 8.74262L0.65036 8.71079Z" fill="#CEB07E"/>
</svg>
