<svg width="12" height="15" viewBox="0 0 12 15" fill="none" xmlns="http://www.w3.org/2000/svg">
<path d="M4.95111 1.85667C4.95111 1.69253 5.01632 1.53511 5.13238 1.41905C5.24844 1.30298 5.40586 1.23778 5.57 1.23778C5.73414 1.23778 5.89156 1.30298 6.00762 1.41905C6.12368 1.53511 6.18889 1.69253 6.18889 1.85667H7.42667C7.42667 1.36425 7.23105 0.891998 6.88286 0.543805C6.53467 0.195613 6.06242 0 5.57 0C5.07758 0 4.60533 0.195613 4.25714 0.543805C3.90895 0.891998 3.71333 1.36425 3.71333 1.85667H4.95111Z" fill="#CEB07E"/>
<path fill-rule="evenodd" clip-rule="evenodd" d="M8.04556 1.85667H9.65467C10.0486 1.85667 10.4264 2.01316 10.705 2.29171C10.9835 2.57026 11.14 2.94807 11.14 3.342V12.7491C11.14 13.143 10.9835 13.5208 10.705 13.7994C10.4264 14.078 10.0486 14.2344 9.65467 14.2344H1.48533C1.29028 14.2344 1.09713 14.196 0.916921 14.1214C0.736712 14.0467 0.57297 13.9373 0.435044 13.7994C0.15649 13.5208 0 13.143 0 12.7491V3.342C0 3.14694 0.0384193 2.9538 0.113064 2.77359C0.187709 2.59338 0.297118 2.42964 0.435044 2.29171C0.713598 2.01316 1.0914 1.85667 1.48533 1.85667H3.09444V2.59933C3.09444 2.73064 3.14661 2.85658 3.23946 2.94943C3.33231 3.04228 3.45824 3.09444 3.58956 3.09444H7.55044C7.68176 3.09444 7.80769 3.04228 7.90054 2.94943C7.99339 2.85658 8.04556 2.73064 8.04556 2.59933V1.85667ZM2.47556 6.18889C2.31142 6.18889 2.154 6.25409 2.03794 6.37016C1.92187 6.48622 1.85667 6.64364 1.85667 6.80778C1.85667 6.97192 1.92187 7.12933 2.03794 7.2454C2.154 7.36146 2.31142 7.42667 2.47556 7.42667H8.66444C8.82858 7.42667 8.986 7.36146 9.10207 7.2454C9.21813 7.12933 9.28333 6.97192 9.28333 6.80778C9.28333 6.64364 9.21813 6.48622 9.10207 6.37016C8.986 6.25409 8.82858 6.18889 8.66444 6.18889H2.47556ZM2.47556 8.04556C2.31142 8.04556 2.154 8.11076 2.03794 8.22682C1.92187 8.34289 1.85667 8.50031 1.85667 8.66444C1.85667 8.82858 1.92187 8.986 2.03794 9.10207C2.154 9.21813 2.31142 9.28333 2.47556 9.28333H8.66444C8.82858 9.28333 8.986 9.21813 9.10207 9.10207C9.21813 8.986 9.28333 8.82858 9.28333 8.66444C9.28333 8.50031 9.21813 8.34289 9.10207 8.22682C8.986 8.11076 8.82858 8.04556 8.66444 8.04556H2.47556ZM2.47556 9.90222C2.31142 9.90222 2.154 9.96743 2.03794 10.0835C1.92187 10.1996 1.85667 10.357 1.85667 10.5211C1.85667 10.6853 1.92187 10.8427 2.03794 10.9587C2.154 11.0748 2.31142 11.14 2.47556 11.14H6.18889C6.35303 11.14 6.51045 11.0748 6.62651 10.9587C6.74257 10.8427 6.80778 10.6853 6.80778 10.5211C6.80778 10.357 6.74257 10.1996 6.62651 10.0835C6.51045 9.96743 6.35303 9.90222 6.18889 9.90222H2.47556Z" fill="#CEB07E"/>
</svg>
