<svg width="9" height="11" viewBox="0 0 9 11" fill="none" xmlns="http://www.w3.org/2000/svg">
<path d="M1.1 11C0.7975 11 0.538633 10.8924 0.3234 10.6771C0.108167 10.4619 0.000366667 10.2029 0 9.9V1.1C0 0.7975 0.1078 0.538633 0.3234 0.3234C0.539 0.108167 0.797867 0.000366667 1.1 0H7.7C8.0025 0 8.26155 0.1078 8.47715 0.3234C8.69275 0.539 8.80037 0.797867 8.8 1.1V9.9C8.8 10.2025 8.69238 10.4615 8.47715 10.6771C8.26192 10.8927 8.00287 11.0004 7.7 11H1.1ZM3.85 4.95L5.225 4.125L6.6 4.95V1.1H3.85V4.95Z" fill="#626262"/>
</svg>
