<svg width="14" height="12" viewBox="0 0 14 12" fill="none" xmlns="http://www.w3.org/2000/svg">
<path fill-rule="evenodd" clip-rule="evenodd" d="M14 2.52631V10.1053H11.8987L11.9 12L8.39999 10.1053H5.60001V2.52631H14ZM8.39999 0V1.89474H4.89999V7.9579L2.1 9.47369L2.10131 7.57895H0V0H8.39999ZM10.2112 4.42105H9.39313L7.83998 8.21052H8.57803L9.00781 7.12478H10.5846L11.0174 8.21052H11.7999L10.2112 4.42105ZM9.79623 5.05487C9.85967 5.2468 9.92745 5.43755 9.9995 5.62699L10.0304 5.7074L10.3831 6.60595H9.20639L9.55913 5.7074C9.65791 5.45958 9.73695 5.24207 9.79623 5.05487ZM3.84008 1.02254H3.14009V1.33831H1.39003V1.96991L4.00296 1.96994C3.96096 2.5078 3.80972 2.9923 3.54942 3.42634C3.26681 3.0756 3.0721 2.6836 2.96415 2.24787L2.95726 2.21939L2.27285 2.35202L2.32421 2.54481C2.48007 3.07264 2.74893 3.54825 3.12959 3.96894C2.71674 4.3709 2.12513 4.65283 1.34387 4.81349L1.31411 4.81953L1.46596 5.43606L1.67491 5.39071C2.49034 5.19958 3.14111 4.87688 3.61889 4.42161C3.95371 4.68217 4.36865 4.92848 4.8636 5.16183L4.89995 5.17885V4.45965C4.56126 4.28365 4.27569 4.10267 4.04315 3.91746C4.42913 3.35153 4.64867 2.71167 4.70213 2.00224L4.70442 1.96997L4.89992 1.96991V1.33831H3.84001L3.84008 1.02254Z" fill="#CEB07E"/>
</svg>
