<svg width="71" height="43" viewBox="0 0 71 43" fill="none" xmlns="http://www.w3.org/2000/svg">
<path d="M38.3564 9.01132H40.7144C40.8807 9.01132 41.0154 9.18853 41.0154 9.408V19.754C41.0154 19.9727 40.8807 20.1499 40.7144 20.1499H38.3564C38.1901 20.1499 38.0554 19.9727 38.0554 19.754V9.408C38.0554 9.18934 38.1901 9.01132 38.3564 9.01132Z" fill="white"/>
<path d="M43.5192 11.0808H45.8772C46.0435 11.0808 46.1782 11.2581 46.1782 11.4775V19.7548C46.1782 19.9735 46.0435 20.1507 45.8772 20.1507H43.5192C43.3529 20.1507 43.2182 19.9735 43.2182 19.7548V11.4775C43.2182 11.2589 43.3529 11.0808 43.5192 11.0808Z" fill="white"/>
<path d="M48.6834 14.1843H51.0414C51.2077 14.1843 51.3424 14.3615 51.3424 14.581V19.754C51.3424 19.9735 51.2077 20.1507 51.0414 20.1507H48.6834C48.5171 20.1507 48.3824 19.9735 48.3824 19.754V14.581C48.3824 14.3623 48.5171 14.1843 48.6834 14.1843Z" fill="white"/>
<path d="M36.5469 6.47113C36.5469 6.16468 36.2986 5.91595 35.9919 5.91595C35.6852 5.91595 35.4369 6.16468 35.4369 6.47113V21.6292C35.4369 21.9357 35.6852 22.1852 35.9919 22.1852H53.2491C53.5558 22.1852 53.8041 21.9365 53.8041 21.6292C53.8041 21.322 53.5558 21.0732 53.2491 21.0732H36.5469V6.47113Z" fill="white"/>
<path d="M18.7459 13.9307L20.1902 12.3798C20.0279 11.962 20.118 11.484 20.4231 11.154C20.6259 10.9345 20.914 10.7923 21.2385 10.7801C21.5615 10.7679 21.8593 10.8882 22.0791 11.0922C22.2982 11.2954 22.4402 11.5848 22.4524 11.9099C22.4548 11.9709 22.4524 12.0327 22.4451 12.092L24.5394 13.369C24.5653 13.3487 24.5913 13.3284 24.6189 13.3105C24.7933 13.1942 25.001 13.1219 25.2266 13.1138C25.436 13.1056 25.6356 13.1544 25.8108 13.2463C25.8376 13.2601 25.8636 13.2755 25.8895 13.291L27.9319 11.8221C27.8597 11.4523 27.9651 11.0686 28.2215 10.7914C28.4244 10.572 28.7125 10.4297 29.037 10.4175C29.6853 10.3932 30.2265 10.8996 30.2517 11.5474C30.2574 11.697 30.2103 11.9319 30.1657 12.0392L31.5418 13.5031C31.6473 13.4666 31.7609 13.4454 31.8802 13.4405C32.5277 13.4162 33.0697 13.9226 33.0941 14.5688H33.0957V14.62C33.0941 14.9248 32.9764 15.2036 32.7825 15.4125C32.0563 16.1969 30.7913 15.6783 30.7523 14.6566C30.7467 14.4899 30.771 14.3331 30.8335 14.1835C30.8408 14.1656 30.8392 14.1648 30.8278 14.1534L29.4622 12.7008C29.1425 12.8106 28.7879 12.7756 28.4942 12.6057L26.4251 14.0941C26.4827 14.4509 26.3845 14.8078 26.1281 15.0858C25.6875 15.5621 24.9459 15.5881 24.4712 15.1475C24.2156 14.911 24.0842 14.5785 24.0979 14.2323L21.9461 12.9203C21.7619 13.0479 21.5477 13.1178 21.3237 13.126C21.1663 13.1317 21.0162 13.1073 20.8791 13.0569L19.4502 14.5907C19.6262 15.0134 19.5451 15.5011 19.2262 15.8433C19.0226 16.062 18.7353 16.2034 18.4116 16.2156C18.0691 16.2286 17.8282 16.1197 17.5709 15.9051C17.3445 15.6946 17.209 15.3955 17.1977 15.0874H17.1961V15.037C17.1993 14.4078 17.6959 13.8957 18.3231 13.8705L18.3418 13.8689H18.375C18.5032 13.8697 18.6274 13.8917 18.7442 13.9315L18.7459 13.9307Z" fill="white"/>
<path fill-rule="evenodd" clip-rule="evenodd" d="M24.8499 40.5094C24.4644 40.5094 24.2007 40.1266 24.3265 39.7689L24.8612 37.7164C24.9416 37.4035 25.1915 37.2994 25.4828 37.2994H28.2189C28.6043 37.2994 28.868 37.6823 28.7422 38.04L28.2075 40.0924C28.1337 40.346 27.9332 40.5135 27.6639 40.5094H24.8499ZM28.6392 36.324H25.8252C25.5193 36.324 25.2702 36.0753 25.2702 35.768C25.2702 35.7038 25.2815 35.6412 25.3018 35.5843L25.8365 33.5311C25.8917 33.3165 26.0654 33.1645 26.2682 33.1254C26.3104 33.1173 26.3575 33.1141 26.3997 33.1141H29.1934C29.4993 33.1141 29.7484 33.362 29.7484 33.6692C29.7484 33.7343 29.737 33.7961 29.7167 33.8538L29.182 35.907C29.0992 36.1623 28.9167 36.3281 28.6384 36.3232L28.6392 36.324ZM28.0825 31.4502L28.4891 29.3782C28.5426 29.1067 28.7747 28.9287 29.0473 28.9287H31.8564C32.2183 28.9287 32.4804 29.2693 32.3952 29.6172L31.9879 31.6891C31.9108 31.9582 31.7298 32.1435 31.4353 32.1386H28.6213C28.2586 32.1386 27.9973 31.7981 28.0825 31.4502ZM12.1034 26.6194C11.8372 26.6194 11.6887 26.7242 11.5167 26.9112L0.182911 41.771C-0.229287 42.2416 0.0977124 43 0.73954 43H70.2606C70.8651 43 71.2213 42.3131 70.8464 41.8108L59.5134 26.9518C59.3812 26.751 59.154 26.6194 58.8968 26.6194H12.1034ZM30.4624 39.8534L30.6466 37.8075C30.675 37.4726 30.9428 37.2994 31.2568 37.2994H34.0197C34.3677 37.2994 34.6266 37.6157 34.5657 37.9554L34.3815 40.0014C34.3069 40.3103 34.1657 40.5094 33.8241 40.5094H31.0085C30.6604 40.5094 30.4007 40.1932 30.4624 39.8534ZM30.787 35.6681L30.9712 33.6221C31.0004 33.284 31.2698 33.1141 31.5846 33.1141H34.3442C34.6923 33.1141 34.9512 33.4303 34.8903 33.77L34.7061 35.816C34.6866 36.1151 34.444 36.324 34.1487 36.324H31.3331C30.985 36.324 30.7261 36.0078 30.787 35.6681ZM24.5415 33.9131L23.6474 35.9883C23.5532 36.1988 23.3601 36.3289 23.1289 36.3248H20.3157C20.0098 36.3248 19.7607 36.0761 19.7607 35.7688C19.7607 35.6819 19.781 35.5998 19.8159 35.5258L20.71 33.4506C20.7928 33.2579 20.9705 33.136 21.1652 33.1173C21.9767 33.0393 23.1857 33.1141 24.0417 33.1141C24.3476 33.1141 24.5967 33.3628 24.5967 33.6701C24.5967 33.757 24.5764 33.8391 24.5415 33.9131ZM25.9672 32.1386H23.1556C22.7426 32.1386 22.4789 31.7029 22.6574 31.3396L23.4551 29.2855C23.5386 29.0693 23.7488 28.9295 23.9784 28.9295H26.7932C27.2062 28.9295 27.4699 29.3644 27.2922 29.7285L26.4946 31.7834C26.42 32.0045 26.1968 32.1435 25.968 32.1395L25.9672 32.1386ZM22.9171 38.0985L22.0229 40.1729C21.9109 40.3883 21.7584 40.5135 21.5044 40.5094H18.6921C18.279 40.5094 18.0161 40.0745 18.193 39.7112L19.0864 37.6368C19.1903 37.3937 19.4004 37.3003 19.6471 37.3003H22.4181C22.8311 37.3003 23.094 37.7351 22.9171 38.0985ZM18.1046 36.055C18.0032 36.2249 17.8222 36.3257 17.625 36.3248H14.8078C14.3599 36.3248 14.1035 35.8225 14.3469 35.46L15.5949 33.3839C15.7572 33.1149 15.9819 33.1149 16.2546 33.1149H18.8917C19.3396 33.1149 19.596 33.6172 19.3525 33.9798L18.1046 36.055ZM13.7408 33.1141C14.0475 33.1141 14.2958 33.3628 14.2958 33.6701C14.2958 33.8131 14.2415 33.9448 14.1522 34.0432L12.5594 36.107C12.4385 36.2533 12.3152 36.324 12.122 36.324H9.29914C8.99324 36.324 8.74413 36.0753 8.74413 35.768C8.74413 35.6242 8.7985 35.4933 8.88775 35.3949L10.4797 33.3295C10.5885 33.188 10.7532 33.1133 10.9187 33.1133L13.7408 33.1141ZM36.6121 39.9762L36.4442 37.8993C36.4125 37.4913 36.7298 37.3003 37.0933 37.3003H39.8196C40.119 37.3003 40.3625 37.5376 40.3738 37.8335L40.541 39.9095C40.554 40.2371 40.3235 40.5102 39.9884 40.5102H37.1655C36.8661 40.5102 36.6235 40.2729 36.6121 39.9762ZM42.7805 40.0599L42.2612 37.9904C42.1865 37.6929 42.3675 37.3921 42.6636 37.3173C42.7545 37.2946 42.8494 37.3003 42.9436 37.3003H45.6212C45.8914 37.3003 46.117 37.4937 46.1657 37.7498L46.685 39.8185C46.771 40.103 46.5536 40.4249 46.2825 40.4923C46.2347 40.5045 46.186 40.5094 46.1389 40.5094H43.3249C43.0547 40.5094 42.8292 40.316 42.7797 40.0591L42.7805 40.0599ZM48.0896 38.0708C47.9711 37.7888 48.1033 37.4645 48.3841 37.3458C48.5188 37.2889 48.66 37.3003 48.802 37.3003H51.4212C51.6687 37.3003 51.878 37.462 51.9494 37.6864L52.8144 39.7388C52.9848 40.103 52.6773 40.52 52.2919 40.5102H49.4828C49.2353 40.5102 49.0259 40.3477 48.9545 40.1241L48.0887 38.0717L48.0896 38.0708ZM58.8757 36.324C58.6826 36.324 58.5122 36.2249 58.4132 36.0753L56.8358 34.0066C56.5534 33.6294 56.8204 33.1141 57.2829 33.1141H60.0985C60.2916 33.1141 60.4612 33.2132 60.561 33.3628L62.1384 35.4315C62.4021 35.7843 62.1603 36.324 61.6913 36.324H58.8757ZM39.6646 36.324H36.8417C36.5423 36.324 36.2989 36.0867 36.2876 35.79L36.1204 33.7131C36.092 33.3555 36.3703 33.1141 36.7127 33.1141H39.4951C39.7945 33.1141 40.0379 33.3506 40.0493 33.6481L40.2164 35.7233C40.2399 36.0452 39.9884 36.324 39.6646 36.324ZM41.806 35.8745L41.2859 33.805C41.1893 33.4181 41.4855 33.1149 41.8644 33.1149H44.6459C44.9161 33.1149 45.1409 33.3083 45.1904 33.5644L45.7097 35.6331C45.8249 35.9802 45.5133 36.3297 45.1636 36.324H42.3496C42.0794 36.324 41.8547 36.1306 41.8052 35.8737L41.806 35.8745ZM49.9915 31.8363L48.8068 29.7602C48.5805 29.3636 48.8774 28.9287 49.3253 28.9287H52.1101C52.3251 28.9287 52.5118 29.0514 52.6043 29.2311L53.7889 31.3071C53.9942 31.7046 53.7321 32.1451 53.3005 32.1378H50.4857C50.2698 32.1378 50.084 32.0151 49.9915 31.8363ZM55.4888 31.8899L53.9114 29.8212C53.6274 29.457 53.8993 28.9287 54.3512 28.9287H57.1741C57.3673 28.9287 57.5377 29.0278 57.6366 29.1782L59.214 31.2461C59.5005 31.5997 59.2262 32.1386 58.7742 32.1386H55.9513C55.7582 32.1386 55.5878 32.0403 55.4888 31.8899ZM15.4837 31.9216C15.3693 32.0614 15.2289 32.1378 15.0456 32.1386H12.2235C11.7382 32.1386 11.4948 31.5607 11.8121 31.2104L13.4049 29.1465C13.512 29.0035 13.6645 28.9295 13.8431 28.9295H16.666C16.9719 28.9295 17.221 29.1782 17.221 29.4855C17.221 29.6285 17.1666 29.7602 17.0773 29.8586L15.4845 31.9232L15.4837 31.9216ZM17.0782 38.1651L15.8302 40.2412C15.7028 40.4119 15.5754 40.5127 15.3507 40.5102H12.5326C12.0847 40.5102 11.8283 40.0087 12.0717 39.6453L13.3197 37.5693C13.4893 37.2873 13.7311 37.3003 14.0151 37.3003H16.6173C17.0652 37.3003 17.3216 37.8018 17.0782 38.1651ZM10.8165 37.3003C11.3017 37.3003 11.5451 37.8782 11.2279 38.2294L9.63506 40.2932C9.53526 40.4298 9.36486 40.5102 9.1969 40.5102H6.37399C5.88877 40.5102 5.64534 39.9331 5.96342 39.5819L7.55622 37.5181C7.67956 37.3783 7.80127 37.3011 7.99357 37.3011H10.8157L10.8165 37.3003ZM53.9228 38.1375C53.6932 37.749 53.9828 37.2994 54.4251 37.2994H57.222C57.437 37.2994 57.6245 37.4222 57.7162 37.6026L58.9406 39.6714C59.1613 40.051 58.8854 40.5167 58.4562 40.5102H55.6414C55.4263 40.5102 55.2389 40.3875 55.1472 40.207L53.9228 38.1375ZM59.7601 38.192C59.5613 37.9692 59.6319 37.5905 59.8632 37.4141C59.9646 37.3368 60.0806 37.2994 60.2072 37.2994H63.0228C63.2159 37.2994 63.3863 37.3986 63.4853 37.5482L65.0627 39.6169C65.3524 39.9762 65.0724 40.5094 64.6156 40.5094H61.8C61.6069 40.5094 61.4365 40.4102 61.3375 40.2607L59.7601 38.192ZM47.3301 35.9379L46.4643 33.8847C46.302 33.4977 46.599 33.1141 46.9974 33.1141H49.7968C50.0443 33.1141 50.2536 33.2758 50.325 33.5002L51.19 35.5526C51.3482 35.9265 51.0642 36.3338 50.6674 36.324H47.8583C47.6108 36.324 47.4015 36.1615 47.3301 35.9379ZM51.6476 33.9521C51.3725 33.4847 51.7612 33.1141 52.257 33.1141H54.9476C55.1626 33.1141 55.3501 33.2368 55.4418 33.4173L56.6662 35.486C56.9096 35.8233 56.6037 36.3313 56.1818 36.3248H53.3678C53.152 36.3248 52.9653 36.2021 52.8736 36.0225L51.6484 33.9529L51.6476 33.9521ZM42.3658 32.1386H39.5535C39.2687 32.1386 39.0342 31.9232 39.0025 31.6469L38.6171 29.5871C38.5514 29.2367 38.8224 28.9295 39.1721 28.9295H41.9837C42.2685 28.9295 42.503 29.1441 42.5346 29.4213L42.92 31.481C43.0069 31.8135 42.7042 32.1443 42.3658 32.1386ZM44.4877 31.742L43.7063 29.6798C43.5992 29.3928 43.7428 29.0734 44.0292 28.9653C44.1404 28.923 44.2313 28.9279 44.3441 28.9279H47.0469C47.2976 28.9279 47.5102 29.0945 47.5784 29.3245L48.3589 31.3851C48.4717 31.6802 48.3338 31.9891 48.0384 32.1012C47.9695 32.1273 47.8989 32.1395 47.8299 32.1378H45.0192C44.7684 32.1378 44.5559 31.9712 44.4877 31.742ZM33.5352 31.5314L33.5442 29.483C33.5458 29.1758 33.7989 28.9295 34.1048 28.9295H36.9188C37.2247 28.9295 37.4738 29.1782 37.4738 29.4855C37.4738 30.1845 37.4649 30.886 37.4617 31.5859C37.4373 31.9086 37.2426 32.1395 36.9067 32.1395H34.087C33.76 32.1395 33.5263 31.8631 33.5352 31.5314ZM22.1884 29.7968L20.9908 31.8615C20.8618 32.037 20.7368 32.1419 20.5056 32.1395H17.6891C17.2404 32.1395 16.984 31.6347 17.2299 31.2721L18.4267 29.2083C18.529 29.0311 18.7148 28.9319 18.9055 28.9319H21.7284C22.0343 28.9311 22.2834 29.179 22.2834 29.4863C22.2834 29.6017 22.2485 29.7082 22.1884 29.7968Z" fill="white"/>
<path fill-rule="evenodd" clip-rule="evenodd" d="M9.68935 38.4114H8.26451L7.50259 39.3991H8.92662L9.68935 38.4114Z" fill="white"/>
<path fill-rule="evenodd" clip-rule="evenodd" d="M11.8518 35.2129L12.6137 34.226H11.1888L10.4269 35.2129H11.8518Z" fill="white"/>
<path fill-rule="evenodd" clip-rule="evenodd" d="M13.5137 39.3983H15.0424L15.6364 38.4107H14.1077L13.5137 39.3983Z" fill="white"/>
<path fill-rule="evenodd" clip-rule="evenodd" d="M17.3176 35.2129L17.9116 34.226H16.3829L15.7889 35.2129H17.3176Z" fill="white"/>
<path fill-rule="evenodd" clip-rule="evenodd" d="M21.1598 35.2129H22.7753L23.2005 34.226H21.585L21.1598 35.2129Z" fill="white"/>
<path fill-rule="evenodd" clip-rule="evenodd" d="M19.9595 38.4114L19.5352 39.3991H21.1507L21.5751 38.4114H19.9595Z" fill="white"/>
<path fill-rule="evenodd" clip-rule="evenodd" d="M14.7769 31.0275L15.5388 30.0407H14.1139L13.352 31.0275H14.7769Z" fill="white"/>
<path fill-rule="evenodd" clip-rule="evenodd" d="M18.6515 31.0275H20.194L20.766 30.0407H19.2235L18.6515 31.0275Z" fill="white"/>
<path fill-rule="evenodd" clip-rule="evenodd" d="M23.9652 31.0275H25.601L25.9848 30.0407H24.3482L23.9652 31.0275Z" fill="white"/>
<path fill-rule="evenodd" clip-rule="evenodd" d="M29.2959 31.0275H30.9885L31.1824 30.0407H29.4898L29.2959 31.0275Z" fill="white"/>
<path fill-rule="evenodd" clip-rule="evenodd" d="M26.7973 34.226L26.5401 35.2129H28.2197L28.477 34.226H26.7973Z" fill="white"/>
<path fill-rule="evenodd" clip-rule="evenodd" d="M25.8233 38.4114L25.566 39.3991H27.2457L27.5029 38.4114H25.8233Z" fill="white"/>
<path fill-rule="evenodd" clip-rule="evenodd" d="M31.6125 39.3983H33.3262L33.4147 38.4107H31.7018L31.6125 39.3983Z" fill="white"/>
<path fill-rule="evenodd" clip-rule="evenodd" d="M33.6517 35.2129L33.7402 34.226H32.0273L31.9388 35.2129H33.6517Z" fill="white"/>
<path fill-rule="evenodd" clip-rule="evenodd" d="M36.3607 31.0275L36.3648 30.0407H34.647L34.643 31.0275H36.3607Z" fill="white"/>
<path fill-rule="evenodd" clip-rule="evenodd" d="M40.0126 31.0275H41.7092L41.5242 30.0407H39.8276L40.0126 31.0275Z" fill="white"/>
<path fill-rule="evenodd" clip-rule="evenodd" d="M37.2737 34.226L37.3532 35.2129H39.0645L38.9849 34.226H37.2737Z" fill="white"/>
<path fill-rule="evenodd" clip-rule="evenodd" d="M37.5986 38.4114L37.6781 39.3991H39.3894L39.3099 38.4114H37.5986Z" fill="white"/>
<path fill-rule="evenodd" clip-rule="evenodd" d="M43.7572 39.3983H45.4376L45.1901 38.4107H43.5105L43.7572 39.3983Z" fill="white"/>
<path fill-rule="evenodd" clip-rule="evenodd" d="M44.4623 35.2129L44.2148 34.226H42.5344L42.7819 35.2129H44.4623Z" fill="white"/>
<path fill-rule="evenodd" clip-rule="evenodd" d="M47.0402 31.0275L46.6662 30.0407H45.0271L45.4012 31.0275H47.0402Z" fill="white"/>
<path fill-rule="evenodd" clip-rule="evenodd" d="M50.8074 31.0275H52.3531L51.79 30.0407H50.2443L50.8074 31.0275Z" fill="white"/>
<path fill-rule="evenodd" clip-rule="evenodd" d="M47.8087 34.226L48.225 35.2129H49.8478L49.4315 34.226H47.8087Z" fill="white"/>
<path fill-rule="evenodd" clip-rule="evenodd" d="M49.4327 38.4114L49.8489 39.3991H51.4717L51.0555 38.4114H49.4327Z" fill="white"/>
<path fill-rule="evenodd" clip-rule="evenodd" d="M55.9574 39.3983H57.4918L56.9076 38.4107H55.3724L55.9574 39.3983Z" fill="white"/>
<path fill-rule="evenodd" clip-rule="evenodd" d="M55.2174 35.2129L54.6331 34.226H53.098L53.6822 35.2129H55.2174Z" fill="white"/>
<path fill-rule="evenodd" clip-rule="evenodd" d="M57.6543 31.0275L56.9013 30.0407H55.4716L56.2246 31.0275H57.6543Z" fill="white"/>
<path fill-rule="evenodd" clip-rule="evenodd" d="M58.3961 34.226L59.1491 35.2129H60.5788L59.8258 34.226H58.3961Z" fill="white"/>
<path fill-rule="evenodd" clip-rule="evenodd" d="M61.3211 38.4114L62.0741 39.3991H63.5038L62.7508 38.4114H61.3211Z" fill="white"/>
<path d="M12.1036 0H58.8969C59.3051 0 59.6362 0.331644 59.6362 0.74051V27.3599C59.6362 27.7695 59.3051 28.1004 58.8969 28.1004H12.1036C11.6954 28.1004 11.3644 27.7687 11.3644 27.3599V0.74051C11.3644 0.331644 11.6954 0 12.1036 0ZM14.3228 2.96367V25.1375H56.6786V2.96367H14.3228Z" fill="white"/>
</svg>
