<svg width="72" height="43" viewBox="0 0 72 43" fill="none" xmlns="http://www.w3.org/2000/svg">
<path d="M38.7138 9.01132H41.0718C41.2382 9.01132 41.3728 9.18853 41.3728 9.408V19.754C41.3728 19.9727 41.2382 20.1499 41.0718 20.1499H38.7138C38.5475 20.1499 38.4128 19.9727 38.4128 19.754V9.408C38.4128 9.18934 38.5475 9.01132 38.7138 9.01132Z" fill="#898989"/>
<path d="M43.8767 11.0808H46.2346C46.401 11.0808 46.5357 11.2581 46.5357 11.4775V19.7548C46.5357 19.9735 46.401 20.1507 46.2346 20.1507H43.8767C43.7103 20.1507 43.5756 19.9735 43.5756 19.7548V11.4775C43.5756 11.2589 43.7103 11.0808 43.8767 11.0808Z" fill="#898989"/>
<path d="M49.0408 14.1843H51.3988C51.5651 14.1843 51.6998 14.3615 51.6998 14.581V19.754C51.6998 19.9735 51.5651 20.1507 51.3988 20.1507H49.0408C48.8745 20.1507 48.7398 19.9735 48.7398 19.754V14.581C48.7398 14.3623 48.8745 14.1843 49.0408 14.1843Z" fill="#898989"/>
<path d="M36.9044 6.47113C36.9044 6.16468 36.6561 5.91595 36.3494 5.91595C36.0426 5.91595 35.7943 6.16468 35.7943 6.47113V21.6292C35.7943 21.9357 36.0426 22.1852 36.3494 22.1852H53.6065C53.9132 22.1852 54.1615 21.9365 54.1615 21.6292C54.1615 21.322 53.9132 21.0732 53.6065 21.0732H36.9044V6.47113Z" fill="#898989"/>
<path d="M19.1033 13.9307L20.5476 12.3798C20.3853 11.962 20.4754 11.484 20.7805 11.154C20.9833 10.9345 21.2714 10.7923 21.5959 10.7801C21.9189 10.7679 22.2167 10.8882 22.4366 11.0922C22.6557 11.2954 22.7976 11.5848 22.8098 11.9099C22.8123 11.9709 22.8098 12.0327 22.8025 12.092L24.8968 13.369C24.9227 13.3487 24.9487 13.3284 24.9763 13.3105C25.1507 13.1942 25.3585 13.1219 25.584 13.1138C25.7934 13.1056 25.993 13.1544 26.1683 13.2463C26.195 13.2601 26.221 13.2755 26.247 13.291L28.2893 11.8221C28.2171 11.4523 28.3226 11.0686 28.579 10.7914C28.7818 10.572 29.0699 10.4297 29.3944 10.4175C30.0428 10.3932 30.584 10.8996 30.6091 11.5474C30.6148 11.697 30.5677 11.9319 30.5231 12.0392L31.8993 13.5031C32.0048 13.4666 32.1184 13.4454 32.2376 13.4405C32.8851 13.4162 33.4272 13.9226 33.4515 14.5688H33.4531V14.62C33.4515 14.9248 33.3338 15.2036 33.1399 15.4125C32.4137 16.1969 31.1487 15.6783 31.1098 14.6566C31.1041 14.4899 31.1284 14.3331 31.1909 14.1835C31.1982 14.1656 31.1966 14.1648 31.1852 14.1534L29.8196 12.7008C29.4999 12.8106 29.1453 12.7756 28.8516 12.6057L26.7825 14.0941C26.8401 14.4509 26.7419 14.8078 26.4855 15.0858C26.0449 15.5621 25.3033 15.5881 24.8286 15.1475C24.573 14.911 24.4416 14.5785 24.4554 14.2323L22.3035 12.9203C22.1193 13.0479 21.9051 13.1178 21.6811 13.126C21.5237 13.1317 21.3736 13.1073 21.2365 13.0569L19.8076 14.5907C19.9837 15.0134 19.9025 15.5011 19.5836 15.8433C19.38 16.062 19.0927 16.2034 18.769 16.2156C18.4266 16.2286 18.1856 16.1197 17.9284 15.9051C17.702 15.6946 17.5665 15.3955 17.5551 15.0874H17.5535V15.037C17.5567 14.4078 18.0533 13.8957 18.6805 13.8705L18.6992 13.8689H18.7325C18.8607 13.8697 18.9848 13.8917 19.1017 13.9315L19.1033 13.9307Z" fill="#898989"/>
<path fill-rule="evenodd" clip-rule="evenodd" d="M25.2073 40.5094C24.8219 40.5094 24.5582 40.1266 24.6839 39.7689L25.2187 37.7164C25.299 37.4035 25.5489 37.2995 25.8402 37.2995H28.5763C28.9617 37.2995 29.2254 37.6823 29.0996 38.04L28.5649 40.0924C28.4911 40.346 28.2907 40.5135 28.0213 40.5094H25.2073ZM28.9966 36.324H26.1826C25.8767 36.324 25.6276 36.0753 25.6276 35.768C25.6276 35.7038 25.639 35.6412 25.6592 35.5843L26.194 33.5311C26.2491 33.3165 26.4228 33.1645 26.6256 33.1254C26.6678 33.1173 26.7149 33.1141 26.7571 33.1141H29.5508C29.8567 33.1141 30.1058 33.362 30.1058 33.6692C30.1058 33.7343 30.0944 33.796 30.0742 33.8538L29.5394 35.907C29.4567 36.1623 29.2741 36.3281 28.9958 36.3232L28.9966 36.324ZM28.44 31.4502L28.8465 29.3782C28.9 29.1067 29.1321 28.9287 29.4047 28.9287H32.2138C32.5757 28.9287 32.8378 29.2693 32.7526 29.6172L32.3453 31.6891C32.2682 31.9582 32.0873 32.1435 31.7927 32.1386H28.9787C28.616 32.1386 28.3548 31.7981 28.44 31.4502ZM12.4608 26.6194C12.1947 26.6194 12.0462 26.7242 11.8742 26.9112L0.540333 41.771C0.128135 42.2416 0.455134 43 1.09696 43H70.618C71.2225 43 71.5787 42.3131 71.2039 41.8108L59.8709 26.9518C59.7386 26.751 59.5114 26.6194 59.2542 26.6194H12.4608ZM30.8198 39.8534L31.004 37.8075C31.0324 37.4726 31.3002 37.2995 31.6142 37.2995H34.3771C34.7252 37.2995 34.984 37.6157 34.9232 37.9554L34.739 40.0014C34.6643 40.3103 34.5231 40.5094 34.1815 40.5094H31.3659C31.0178 40.5094 30.7582 40.1932 30.8198 39.8534ZM31.1444 35.6681L31.3286 33.6221C31.3578 33.284 31.6272 33.1141 31.942 33.1141H34.7016C35.0497 33.1141 35.3086 33.4303 35.2477 33.77L35.0635 35.816C35.0441 36.1151 34.8014 36.324 34.5061 36.324H31.6905C31.3424 36.324 31.0835 36.0078 31.1444 35.6681ZM24.899 33.9131L24.0048 35.9883C23.9107 36.1988 23.7175 36.3289 23.4863 36.3248H20.6731C20.3672 36.3248 20.1181 36.0761 20.1181 35.7688C20.1181 35.6819 20.1384 35.5998 20.1733 35.5258L21.0675 33.4506C21.1502 33.2579 21.3279 33.136 21.5227 33.1173C22.3341 33.0393 23.5431 33.1141 24.3991 33.1141C24.705 33.1141 24.9541 33.3628 24.9541 33.6701C24.9541 33.757 24.9338 33.8391 24.899 33.9131ZM26.3246 32.1386H23.5131C23.1001 32.1386 22.8363 31.7029 23.0149 31.3396L23.8125 29.2855C23.896 29.0693 24.1062 28.9295 24.3358 28.9295H27.1506C27.5636 28.9295 27.8273 29.3644 27.6496 29.7285L26.852 31.7834C26.7774 32.0045 26.5542 32.1435 26.3254 32.1395L26.3246 32.1386ZM23.2745 38.0985L22.3803 40.1729C22.2684 40.3883 22.1158 40.5135 21.8618 40.5094H19.0495C18.6365 40.5094 18.3736 40.0745 18.5505 39.7112L19.4438 37.6368C19.5477 37.3937 19.7578 37.3003 20.0045 37.3003H22.7755C23.1885 37.3003 23.4514 37.7351 23.2745 38.0985ZM18.462 36.055C18.3606 36.2249 18.1796 36.3257 17.9825 36.3248H15.1652C14.7173 36.3248 14.4609 35.8225 14.7044 35.46L15.9523 33.3839C16.1146 33.1149 16.3394 33.1149 16.612 33.1149H19.2491C19.697 33.1149 19.9534 33.6172 19.71 33.9798L18.462 36.055ZM14.0982 33.1141C14.4049 33.1141 14.6532 33.3628 14.6532 33.6701C14.6532 33.8131 14.5989 33.9448 14.5096 34.0432L12.9168 36.107C12.7959 36.2533 12.6726 36.324 12.4795 36.324H9.65656C9.35066 36.324 9.10155 36.0753 9.10155 35.768C9.10155 35.6242 9.15592 35.4933 9.24517 35.3949L10.8372 33.3295C10.9459 33.188 11.1106 33.1133 11.2761 33.1133L14.0982 33.1141ZM36.9695 39.9762L36.8016 37.8993C36.7699 37.4913 37.0872 37.3003 37.4507 37.3003H40.1771C40.4765 37.3003 40.7199 37.5376 40.7312 37.8335L40.8984 39.9095C40.9114 40.2371 40.6809 40.5102 40.3458 40.5102H37.5229C37.2235 40.5102 36.9809 40.2729 36.9695 39.9762ZM43.1379 40.0599L42.6186 37.9904C42.5439 37.6929 42.7249 37.3921 43.0211 37.3173C43.1119 37.2946 43.2069 37.3003 43.301 37.3003H45.9787C46.2489 37.3003 46.4744 37.4937 46.5231 37.7498L47.0424 39.8185C47.1284 40.103 46.911 40.4249 46.64 40.4923C46.5921 40.5045 46.5434 40.5094 46.4963 40.5094H43.6824C43.4122 40.5094 43.1866 40.316 43.1371 40.0591L43.1379 40.0599ZM48.447 38.0708C48.3285 37.7888 48.4608 37.4645 48.7415 37.3458C48.8762 37.2889 49.0174 37.3003 49.1594 37.3003H51.7786C52.0261 37.3003 52.2355 37.462 52.3069 37.6864L53.1718 39.7388C53.3422 40.103 53.0347 40.52 52.6493 40.5102H49.8402C49.5927 40.5102 49.3833 40.3477 49.3119 40.1241L48.4462 38.0717L48.447 38.0708ZM59.2331 36.324C59.04 36.324 58.8696 36.2249 58.7706 36.0753L57.1932 34.0066C56.9108 33.6294 57.1778 33.1141 57.6403 33.1141H60.4559C60.649 33.1141 60.8186 33.2132 60.9184 33.3628L62.4958 35.4315C62.7595 35.7843 62.5177 36.324 62.0487 36.324H59.2331ZM40.0221 36.324H37.1992C36.8998 36.324 36.6563 36.0867 36.645 35.79L36.4778 33.7131C36.4494 33.3555 36.7277 33.1141 37.0702 33.1141H39.8525C40.1519 33.1141 40.3953 33.3506 40.4067 33.6481L40.5738 35.7233C40.5974 36.0452 40.3458 36.324 40.0221 36.324ZM42.1634 35.8745L41.6433 33.805C41.5467 33.4181 41.8429 33.1149 42.2218 33.1149H45.0033C45.2735 33.1149 45.4983 33.3083 45.5478 33.5644L46.0671 35.6331C46.1823 35.9802 45.8707 36.3297 45.521 36.324H42.707C42.4368 36.324 42.2121 36.1306 42.1626 35.8737L42.1634 35.8745ZM50.3489 31.8363L49.1643 29.7602C48.9379 29.3636 49.2349 28.9287 49.6828 28.9287H52.4675C52.6826 28.9287 52.8692 29.0514 52.9617 29.2311L54.1463 31.3071C54.3516 31.7046 54.0895 32.1451 53.6579 32.1378H50.8431C50.6272 32.1378 50.4414 32.0151 50.3489 31.8363ZM55.8463 31.8899L54.2689 29.8212C53.9849 29.457 54.2567 28.9287 54.7087 28.9287H57.5316C57.7247 28.9287 57.8951 29.0278 57.9941 29.1782L59.5715 31.2461C59.8579 31.5997 59.5836 32.1386 59.1317 32.1386H56.3088C56.1156 32.1386 55.9452 32.0403 55.8463 31.8899ZM15.8412 31.9216C15.7267 32.0614 15.5864 32.1378 15.403 32.1386H12.5809C12.0957 32.1386 11.8522 31.5607 12.1695 31.2104L13.7623 29.1465C13.8694 29.0035 14.022 28.9295 14.2005 28.9295H17.0234C17.3293 28.9295 17.5784 29.1782 17.5784 29.4855C17.5784 29.6285 17.524 29.7602 17.4348 29.8586L15.842 31.9232L15.8412 31.9216ZM17.4356 38.1651L16.1876 40.2412C16.0602 40.4119 15.9328 40.5127 15.7081 40.5102H12.89C12.4421 40.5102 12.1857 40.0087 12.4292 39.6453L13.6771 37.5693C13.8467 37.2873 14.0885 37.3003 14.3725 37.3003H16.9747C17.4226 37.3003 17.679 37.8018 17.4356 38.1651ZM11.1739 37.3003C11.6591 37.3003 11.9026 37.8782 11.5853 38.2294L9.99248 40.2932C9.89268 40.4298 9.72228 40.5102 9.55432 40.5102H6.73142C6.24619 40.5102 6.00277 39.9331 6.32084 39.5819L7.91364 37.5181C8.03698 37.3783 8.15869 37.3011 8.351 37.3011H11.1731L11.1739 37.3003ZM54.2802 38.1375C54.0506 37.749 54.3403 37.2995 54.7825 37.2995H57.5794C57.7945 37.2995 57.9819 37.4222 58.0736 37.6026L59.298 39.6714C59.5187 40.051 59.2428 40.5167 58.8136 40.5102H55.9988C55.7838 40.5102 55.5963 40.3875 55.5047 40.207L54.2802 38.1375ZM60.1175 38.192C59.9187 37.9692 59.9893 37.5905 60.2206 37.4141C60.322 37.3368 60.438 37.2995 60.5646 37.2995H63.3802C63.5733 37.2995 63.7437 37.3986 63.8427 37.5482L65.4201 39.6169C65.7098 39.9762 65.4299 40.5094 64.973 40.5094H62.1574C61.9643 40.5094 61.7939 40.4102 61.6949 40.2607L60.1175 38.192ZM47.6875 35.9379L46.8217 33.8846C46.6594 33.4977 46.9564 33.1141 47.3548 33.1141H50.1542C50.4017 33.1141 50.611 33.2758 50.6824 33.5002L51.5474 35.5526C51.7056 35.9265 51.4216 36.3338 51.0248 36.324H48.2157C47.9682 36.324 47.7589 36.1615 47.6875 35.9379ZM52.005 33.9521C51.73 33.4847 52.1186 33.1141 52.6144 33.1141H55.305C55.5201 33.1141 55.7075 33.2368 55.7992 33.4173L57.0236 35.486C57.267 35.8233 56.9611 36.3313 56.5392 36.3248H53.7252C53.5094 36.3248 53.3228 36.2021 53.2311 36.0225L52.0058 33.9529L52.005 33.9521ZM42.7233 32.1386H39.9109C39.6261 32.1386 39.3916 31.9232 39.36 31.6469L38.9745 29.5871C38.9088 29.2367 39.1798 28.9295 39.5295 28.9295H42.3411C42.6259 28.9295 42.8604 29.1441 42.892 29.4213L43.2775 31.481C43.3643 31.8135 43.0616 32.1443 42.7233 32.1386ZM44.8451 31.742L44.0637 29.6798C43.9566 29.3928 44.1002 29.0734 44.3867 28.9653C44.4978 28.923 44.5887 28.9279 44.7015 28.9279H47.4043C47.655 28.9279 47.8676 29.0945 47.9358 29.3245L48.7164 31.3851C48.8291 31.6802 48.6912 31.9891 48.3959 32.1013C48.3269 32.1273 48.2563 32.1395 48.1873 32.1378H45.3766C45.1259 32.1378 44.9133 31.9712 44.8451 31.742ZM33.8927 31.5314L33.9016 29.483C33.9032 29.1758 34.1564 28.9295 34.4623 28.9295H37.2762C37.5822 28.9295 37.8313 29.1782 37.8313 29.4855C37.8313 30.1845 37.8223 30.886 37.8191 31.5859C37.7947 31.9086 37.6 32.1395 37.2641 32.1395H34.4444C34.1174 32.1395 33.8837 31.8631 33.8927 31.5314ZM22.5459 29.7968L21.3482 31.8615C21.2192 32.037 21.0942 32.1419 20.863 32.1395H18.0466C17.5979 32.1395 17.3415 31.6347 17.5873 31.2721L18.7841 29.2083C18.8864 29.0311 19.0722 28.9319 19.2629 28.9319H22.0858C22.3917 28.9311 22.6408 29.179 22.6408 29.4863C22.6408 29.6017 22.6059 29.7082 22.5459 29.7968Z" fill="#898989"/>
<path fill-rule="evenodd" clip-rule="evenodd" d="M10.0468 38.4114H8.62193L7.86001 39.3991H9.28404L10.0468 38.4114Z" fill="#898989"/>
<path fill-rule="evenodd" clip-rule="evenodd" d="M12.2092 35.2129L12.9711 34.226H11.5463L10.7843 35.2129H12.2092Z" fill="#898989"/>
<path fill-rule="evenodd" clip-rule="evenodd" d="M13.8711 39.3983H15.3998L15.9938 38.4107H14.4651L13.8711 39.3983Z" fill="#898989"/>
<path fill-rule="evenodd" clip-rule="evenodd" d="M17.675 35.2129L18.269 34.226H16.7403L16.1463 35.2129H17.675Z" fill="#898989"/>
<path fill-rule="evenodd" clip-rule="evenodd" d="M21.5172 35.2129H23.1327L23.5579 34.226H21.9424L21.5172 35.2129Z" fill="#898989"/>
<path fill-rule="evenodd" clip-rule="evenodd" d="M20.317 38.4114L19.8926 39.3991H21.5081L21.9325 38.4114H20.317Z" fill="#898989"/>
<path fill-rule="evenodd" clip-rule="evenodd" d="M15.1343 31.0275L15.8962 30.0407H14.4714L13.7094 31.0275H15.1343Z" fill="#898989"/>
<path fill-rule="evenodd" clip-rule="evenodd" d="M19.0089 31.0275H20.5514L21.1234 30.0407H19.581L19.0089 31.0275Z" fill="#898989"/>
<path fill-rule="evenodd" clip-rule="evenodd" d="M24.3226 31.0275H25.9584L26.3422 30.0407H24.7056L24.3226 31.0275Z" fill="#898989"/>
<path fill-rule="evenodd" clip-rule="evenodd" d="M29.6533 31.0275H31.3459L31.5398 30.0407H29.8472L29.6533 31.0275Z" fill="#898989"/>
<path fill-rule="evenodd" clip-rule="evenodd" d="M27.1547 34.226L26.8975 35.2129H28.5772L28.8344 34.226H27.1547Z" fill="#898989"/>
<path fill-rule="evenodd" clip-rule="evenodd" d="M26.1807 38.4114L25.9235 39.3991H27.6031L27.8603 38.4114H26.1807Z" fill="#898989"/>
<path fill-rule="evenodd" clip-rule="evenodd" d="M31.97 39.3983H33.6837L33.7721 38.4107H32.0592L31.97 39.3983Z" fill="#898989"/>
<path fill-rule="evenodd" clip-rule="evenodd" d="M34.0091 35.2129L34.0976 34.226H32.3847L32.2963 35.2129H34.0091Z" fill="#898989"/>
<path fill-rule="evenodd" clip-rule="evenodd" d="M36.7181 31.0275L36.7222 30.0407H35.0044L35.0004 31.0275H36.7181Z" fill="#898989"/>
<path fill-rule="evenodd" clip-rule="evenodd" d="M40.37 31.0275H42.0667L41.8817 30.0407H40.185L40.37 31.0275Z" fill="#898989"/>
<path fill-rule="evenodd" clip-rule="evenodd" d="M37.6311 34.226L37.7106 35.2129H39.4219L39.3424 34.226H37.6311Z" fill="#898989"/>
<path fill-rule="evenodd" clip-rule="evenodd" d="M37.956 38.4114L38.0356 39.3991H39.7468L39.6673 38.4114H37.956Z" fill="#898989"/>
<path fill-rule="evenodd" clip-rule="evenodd" d="M44.1146 39.3983H45.795L45.5475 38.4107H43.8679L44.1146 39.3983Z" fill="#898989"/>
<path fill-rule="evenodd" clip-rule="evenodd" d="M44.8197 35.2129L44.5723 34.226H42.8918L43.1393 35.2129H44.8197Z" fill="#898989"/>
<path fill-rule="evenodd" clip-rule="evenodd" d="M47.3976 31.0275L47.0236 30.0407H45.3845L45.7586 31.0275H47.3976Z" fill="#898989"/>
<path fill-rule="evenodd" clip-rule="evenodd" d="M51.1648 31.0275H52.7105L52.1474 30.0407H50.6017L51.1648 31.0275Z" fill="#898989"/>
<path fill-rule="evenodd" clip-rule="evenodd" d="M48.1661 34.226L48.5824 35.2129H50.2052L49.789 34.226H48.1661Z" fill="#898989"/>
<path fill-rule="evenodd" clip-rule="evenodd" d="M49.7901 38.4114L50.2063 39.3991H51.8292L51.4129 38.4114H49.7901Z" fill="#898989"/>
<path fill-rule="evenodd" clip-rule="evenodd" d="M56.3148 39.3983H57.8492L57.265 38.4107H55.7298L56.3148 39.3983Z" fill="#898989"/>
<path fill-rule="evenodd" clip-rule="evenodd" d="M55.5748 35.2129L54.9906 34.226H53.4554L54.0396 35.2129H55.5748Z" fill="#898989"/>
<path fill-rule="evenodd" clip-rule="evenodd" d="M58.0118 31.0275L57.2588 30.0407H55.8291L56.582 31.0275H58.0118Z" fill="#898989"/>
<path fill-rule="evenodd" clip-rule="evenodd" d="M58.7535 34.226L59.5065 35.2129H60.9362L60.1832 34.226H58.7535Z" fill="#898989"/>
<path fill-rule="evenodd" clip-rule="evenodd" d="M61.6785 38.4114L62.4315 39.3991H63.8612L63.1082 38.4114H61.6785Z" fill="#898989"/>
<path d="M12.461 0H59.2544C59.6625 0 59.9936 0.331644 59.9936 0.74051V27.3599C59.9936 27.7695 59.6625 28.1004 59.2544 28.1004H12.461C12.0528 28.1004 11.7218 27.7687 11.7218 27.3599V0.74051C11.7218 0.331644 12.0528 0 12.461 0ZM14.6802 2.96367V25.1375H57.036V2.96367H14.6802Z" fill="#898989"/>
</svg>
