<svg width="68" height="49" viewBox="0 0 68 49" fill="none" xmlns="http://www.w3.org/2000/svg">
<g clip-path="url(#clip0_725_2979)">
<path d="M67.4022 17.7773L54.3121 23.5482V19.3462C54.3121 16.346 51.8799 13.9138 48.8797 13.9138H19.5823C16.5821 13.9138 14.1499 16.346 14.1499 19.3462V42.7343C14.1499 45.7345 16.5821 48.1667 19.5823 48.1667H48.8797C51.8799 48.1667 54.3121 45.7345 54.3121 42.7343V38.5323L67.4022 44.3032V17.7773Z" fill="white"/>
<path d="M26.6509 37.3323H19.5151V24.7303H21.7902V35.2701H26.6509V37.3323Z" fill="#074226"/>
<path d="M30.4616 37.3491H28.1865V24.7475H30.4616V37.3491Z" fill="#074226"/>
<path d="M40.9023 24.7478L37.5146 37.3494H35.1577L31.7537 24.7478H34.0611L35.1577 28.5936L36.3359 34.4853L37.498 28.5607L38.5946 24.7475H40.9023V24.7478Z" fill="#074226"/>
<path d="M49.4425 24.7306V26.6945H44.4508V29.9349H48.7061V31.9644H44.4508V35.2864H49.6717V37.3486H42.1924V24.7303H49.4425V24.7306Z" fill="#074226"/>
<path d="M19.6052 19.5092V19.5034H19.6108" fill="#898989"/>
<path d="M0.332049 20.137C0.126663 19.9314 -0.00079956 19.6465 3.77504e-06 19.3326C0.0133927 14.1653 2.02682 9.31315 5.67021 5.66976C9.34199 1.99798 14.2327 -0.015442 19.441 8.9186e-05C20.0668 0.00249919 20.5729 0.51101 20.571 1.13681C20.5689 1.76287 20.0598 2.26898 19.4343 2.26737C14.8339 2.25318 10.5151 4.03096 7.27313 7.27268C4.05631 10.4895 2.2788 14.7745 2.26728 19.3382C2.26541 19.964 1.7569 20.4707 1.13056 20.4688C0.819138 20.4683 0.536632 20.3416 0.332049 20.137Z" fill="white"/>
<path d="M4.61403 20.3377C4.40784 20.1315 4.28145 19.8468 4.28198 19.5322C4.29591 15.4566 5.88491 11.6298 8.75763 8.75707C11.6593 5.85542 15.5247 4.26616 19.6426 4.28223C20.2686 4.28544 20.7742 4.79448 20.7715 5.42002C20.7694 6.04608 20.2595 6.55191 19.6337 6.5495C16.125 6.53585 12.8316 7.8892 10.3608 10.36C7.9144 12.8064 6.56105 16.0666 6.54953 19.54C6.54739 20.166 6.03781 20.6716 5.41254 20.6697C5.10058 20.6687 4.81834 20.5417 4.6143 20.3377H4.61403Z" fill="white"/>
<path d="M9.09327 20.2377C8.88654 20.031 8.75988 19.7455 8.76149 19.4309C8.77541 16.5804 9.88857 13.9047 11.8969 11.8966C13.9347 9.85886 16.651 8.7457 19.5444 8.76177C20.1702 8.76525 20.6758 9.27617 20.6715 9.90143C20.6683 10.5275 20.1576 11.032 19.5318 11.0285C17.2482 11.0159 15.106 11.8934 13.4998 13.4996C11.917 15.0824 11.0392 17.1928 11.0282 19.4413C11.025 20.0674 10.5154 20.5729 9.88937 20.5697C9.57821 20.5678 9.29731 20.4417 9.09327 20.2377Z" fill="white"/>
</g>
<defs>
<clipPath id="clip0_725_2979">
<rect width="67.4025" height="48.1661" fill="white"/>
</clipPath>
</defs>
</svg>
