<svg width="68" height="49" viewBox="0 0 68 49" fill="none" xmlns="http://www.w3.org/2000/svg">
<g clip-path="url(#clip0_694_1206)">
<path d="M67.7596 17.7773L54.6695 23.5482V19.3462C54.6695 16.346 52.2373 13.9138 49.2371 13.9138H19.9397C16.9396 13.9138 14.5073 16.346 14.5073 19.3462V42.7343C14.5073 45.7345 16.9396 48.1667 19.9397 48.1667H49.2371C52.2373 48.1667 54.6695 45.7345 54.6695 42.7343V38.5323L67.7596 44.3032V17.7773Z" fill="#898989"/>
<path d="M27.0083 37.3323H19.8726V24.7303H22.1476V35.2701H27.0083V37.3323Z" fill="white"/>
<path d="M30.819 37.3491H28.5439V24.7474H30.819V37.3491Z" fill="white"/>
<path d="M41.2595 24.7477L37.8718 37.3494H35.5148L32.1108 24.7477H34.4183L35.5148 28.5935L36.6931 34.4852L37.8552 28.5606L38.9518 24.7474H41.2595V24.7477Z" fill="white"/>
<path d="M49.7999 24.7306V26.6945H44.8082V29.9349H49.0635V31.9644H44.8082V35.2864H50.0291V37.3486H42.5498V24.7303H49.7999V24.7306Z" fill="white"/>
<path d="M19.9624 19.5093V19.5034H19.9679" fill="#898989"/>
<path d="M0.689471 20.137C0.484085 19.9314 0.356622 19.6465 0.357426 19.3326C0.370815 14.1653 2.38424 9.31315 6.02763 5.66976C9.69941 1.99798 14.5901 -0.015442 19.7984 8.9186e-05C20.4242 0.00249919 20.9303 0.51101 20.9284 1.13681C20.9263 1.76287 20.4172 2.26898 19.7917 2.26737C15.1913 2.25318 10.8725 4.03096 7.63055 7.27268C4.41373 10.4895 2.63622 14.7745 2.6247 19.3382C2.62283 19.964 2.11432 20.4707 1.48799 20.4688C1.17656 20.4683 0.894054 20.3416 0.689471 20.137Z" fill="#898989"/>
<path d="M4.97121 20.3377C4.76502 20.1315 4.63863 19.8468 4.63916 19.5322C4.65309 15.4566 6.24208 11.6298 9.11481 8.75707C12.0165 5.85542 15.8818 4.26616 19.9997 4.28223C20.6258 4.28544 21.1314 4.79448 21.1287 5.42002C21.1265 6.04608 20.6167 6.55191 19.9909 6.5495C16.4822 6.53585 13.1888 7.8892 10.718 10.36C8.27158 12.8064 6.91822 16.0666 6.90671 19.54C6.90457 20.166 6.39498 20.6716 5.76972 20.6697C5.45776 20.6687 5.17552 20.5417 4.97147 20.3377H4.97121Z" fill="#898989"/>
<path d="M9.45093 20.2377C9.24421 20.031 9.11755 19.7455 9.11916 19.4309C9.13308 16.5804 10.2462 13.9047 12.2546 11.8966C14.2924 9.85886 17.0087 8.7457 19.9021 8.76177C20.5279 8.76525 21.0334 9.27617 21.0291 9.90143C21.0259 10.5275 20.5153 11.032 19.8895 11.0285C17.6059 11.0159 15.4636 11.8934 13.8575 13.4996C12.2747 15.0824 11.3969 17.1928 11.3859 19.4413C11.3827 20.0674 10.8731 20.5729 10.247 20.5697C9.93588 20.5678 9.65498 20.4417 9.45093 20.2377Z" fill="#898989"/>
</g>
<defs>
<clipPath id="clip0_694_1206">
<rect width="67.4025" height="48.1661" fill="white" transform="translate(0.357422)"/>
</clipPath>
</defs>
</svg>
