<svg width="12" height="12" viewBox="0 0 12 12" fill="none" xmlns="http://www.w3.org/2000/svg">
<path d="M6 0C3.243 0 1 2.243 1 5C1 7.757 3.243 10 6 10C8.757 10 11 7.757 11 5C11 2.243 8.757 0 6 0ZM5.322 4.3805L6.8425 4.6335C7.5135 4.7455 8 5.3205 8 6C8 6.827 7.327 7.5 6.5 7.5V8H5.5V7.5C4.673 7.5 4 6.827 4 6H5C5 6.276 5.2245 6.5 5.5 6.5H6.5C6.7755 6.5 7 6.276 7 6C7 5.8105 6.8645 5.651 6.678 5.6195L5.1575 5.3665C4.4865 5.2545 4 4.6795 4 4C4 3.173 4.673 2.5 5.5 2.5V2H6.5V2.5C7.327 2.5 8 3.173 8 4H7C7 3.724 6.7755 3.5 6.5 3.5H5.5C5.2245 3.5 5 3.724 5 4C5 4.1895 5.1355 4.349 5.322 4.3805ZM12 10.25C12 11.2165 11.2165 12 10.25 12H1.75C0.7835 12 0 11.2165 0 10.25C0 9.475 0.507 8.8255 1.2045 8.5955C2.299 10.053 4.0365 11 6 11C7.9635 11 9.7005 10.053 10.7955 8.5955C11.4935 8.8255 12 9.4755 12 10.25Z" fill="white"/>
</svg>
