<svg width="45" height="48" viewBox="0 0 45 48" fill="none" xmlns="http://www.w3.org/2000/svg">
<path d="M30.3109 5.42633C30.2796 5.4173 30.2469 5.41495 30.2147 5.41943C30.1825 5.42392 30.1516 5.43514 30.124 5.45237C30.0965 5.46959 30.0729 5.49243 30.0547 5.5194C30.0366 5.54637 30.0243 5.57686 30.0188 5.60888C29.9951 5.66742 29.9951 5.73288 30.0188 5.79142L31.1141 7.48303C31.1535 7.53333 31.2096 7.56786 31.2723 7.58039L34.546 8.27407C34.6029 8.27522 34.6584 8.25637 34.7029 8.22079C34.7474 8.18521 34.778 8.13516 34.7894 8.07936L35.483 4.7935C35.5055 4.73472 35.5055 4.66972 35.483 4.61095L34.3878 2.93151C34.3705 2.90402 34.3478 2.88028 34.3212 2.86167C34.2946 2.84307 34.2645 2.82998 34.2328 2.82317C34.201 2.81637 34.1682 2.81599 34.1363 2.82205C34.1044 2.82812 34.074 2.84051 34.047 2.85849C33.9975 2.89336 33.9628 2.94543 33.9496 3.00453L33.5724 4.93953C32.2976 3.49534 30.7497 2.31761 29.0178 1.47419C27.2859 0.630771 25.4043 0.13832 23.4813 0.0252016C21.5583 -0.0879168 19.6319 0.180533 17.813 0.815089C15.9942 1.44964 14.3189 2.43777 12.8836 3.72255C12.4549 4.10447 12.0485 4.51081 11.6666 4.93953L11.2894 3.02887C11.2747 2.96525 11.2363 2.90963 11.182 2.87343C11.1277 2.83722 11.0616 2.82317 10.9973 2.83415C10.9648 2.84069 10.9341 2.85378 10.9069 2.87261C10.8797 2.89145 10.8566 2.91563 10.8391 2.94368L9.74378 4.62312C9.72131 4.68189 9.72131 4.74689 9.74378 4.80567L10.3888 8.09153C10.4105 8.15311 10.4483 8.20774 10.4983 8.24973C10.5578 8.26767 10.6213 8.26767 10.6809 8.24973L14.0397 7.58039C14.0988 7.56723 14.1509 7.53252 14.1858 7.48303L15.2567 5.79142C15.2747 5.76438 15.2871 5.73401 15.2932 5.70211C15.2992 5.6702 15.2988 5.63741 15.292 5.60565C15.2852 5.5739 15.2722 5.54383 15.2535 5.51721C15.2349 5.49059 15.2112 5.46797 15.1837 5.45067C15.1556 5.43575 15.1243 5.42795 15.0924 5.42795C15.0606 5.42795 15.0293 5.43575 15.0012 5.45067L13.6381 5.73057C16.0299 3.33909 19.2737 1.99559 22.656 1.99559C26.0383 1.99559 29.2821 3.33909 31.6739 5.73057L30.3109 5.42633Z" fill="white"/>
<path d="M34.8619 31.5307C33.1544 31.5371 31.5188 32.2191 30.3125 33.4277C29.1062 34.6363 28.4273 36.2732 28.4241 37.9807V46.0007C28.4241 46.2492 28.5228 46.4875 28.6985 46.6633C28.8743 46.839 29.1126 46.9377 29.3612 46.9377C29.45 46.9496 29.54 46.9496 29.6289 46.9377C34.0269 45.6724 38.0143 43.2716 41.1903 39.9766C41.36 39.7997 41.4558 39.5646 41.458 39.3194V38.1633C41.4612 36.4095 40.7685 34.7262 39.5318 33.4827C38.2952 32.2392 36.6157 31.5371 34.8619 31.5307ZM39.596 38.1268V38.8935C36.9902 41.51 33.8231 43.4992 30.3347 44.7107V37.9807C30.3347 36.7725 30.8139 35.6135 31.6671 34.758C32.5203 33.9025 33.678 33.4202 34.8863 33.417C36.1344 33.4202 37.3305 33.9175 38.213 34.8C39.0956 35.6826 39.5928 36.8787 39.596 38.1268Z" fill="white"/>
<path d="M41.4814 14.1521C40.4172 13.2904 39.1832 12.663 37.86 12.3107C36.5367 11.9584 35.1541 11.8891 33.8023 12.1075C32.1349 12.2684 30.571 12.9884 29.3646 14.1506C28.1583 15.3127 27.3804 16.8487 27.1575 18.5089L24.8087 22.0625C24.7382 22.1642 24.6889 22.279 24.6635 22.4001C24.6382 22.5212 24.6374 22.6462 24.6612 22.7676C24.6851 22.889 24.733 23.0044 24.8023 23.107C24.8715 23.2095 24.9606 23.2972 25.0643 23.3647C25.2185 23.4696 25.4011 23.5248 25.5876 23.5229H27.1332V26.541C27.1332 26.924 27.2088 27.3032 27.3557 27.6569C27.5027 28.0106 27.718 28.3318 27.9894 28.602C28.2608 28.8722 28.5828 29.0862 28.9371 29.2317C29.2914 29.3771 29.671 29.4512 30.0539 29.4496H35.9442C38.2417 29.4305 40.4395 28.5085 42.063 26.8827C43.6865 25.2569 44.6054 23.0578 44.6213 20.7603V20.3709C44.5734 19.17 44.2684 17.9934 43.7267 16.9205C43.185 15.8477 42.4194 14.9036 41.4814 14.1521ZM28.0946 21.6365H27.3644L28.8735 19.3486C28.9728 19.2054 29.0278 19.0361 29.0317 18.8618C29.0317 18.6914 29.2142 14.7484 34.1187 13.9939C35.2059 13.8136 36.319 13.8657 37.3846 14.1468C38.4502 14.4279 39.4441 14.9315 40.301 15.6246C41.025 16.2015 41.617 16.9269 42.0368 17.752C42.4567 18.577 42.6948 19.4825 42.7349 20.4074C42.8142 22.2222 42.1709 23.9944 40.9459 25.3357C39.721 26.677 38.0142 27.478 36.1997 27.5633H30.0418C29.9059 27.5633 29.7714 27.5365 29.6459 27.4845C29.5204 27.4325 29.4064 27.3563 29.3103 27.2603C29.2143 27.1642 29.1381 27.0502 29.0861 26.9247C29.0341 26.7992 29.0073 26.6647 29.0073 26.5288V22.5736C29.0073 22.3251 28.9086 22.0867 28.7329 21.911C28.5571 21.7353 28.3188 21.6365 28.0703 21.6365H28.0946Z" fill="white"/>
<path d="M10.3884 31.5307C8.64519 31.5435 6.9774 32.2433 5.74703 33.4783C4.51666 34.7132 3.82301 36.3835 3.81665 38.1268V39.794C3.82031 40.0508 3.92529 40.2958 4.10873 40.4755C7.33193 43.6231 11.3148 45.8828 15.6701 47.0351C15.7508 47.0469 15.8328 47.0469 15.9135 47.0351C16.162 47.0351 16.4004 46.9364 16.5761 46.7606C16.7518 46.5849 16.8506 46.3465 16.8506 46.098V37.9442C16.8377 36.2388 16.1512 34.6076 14.9407 33.4062C13.7302 32.2048 12.0939 31.5307 10.3884 31.5307ZM14.9521 37.9807V44.8689C11.4951 43.7571 8.33072 41.8859 5.69081 39.3924V38.1754C5.68438 37.5539 5.80105 36.9372 6.0341 36.361C6.26715 35.7847 6.61196 35.2603 7.04865 34.818C7.48534 34.3756 8.00527 34.0241 8.57847 33.7836C9.15167 33.5432 9.76679 33.4186 10.3884 33.417C11.5956 33.4234 12.7515 33.9067 13.604 34.7615C14.4565 35.6163 14.9367 36.7734 14.9399 37.9807H14.9521Z" fill="white"/>
<path d="M18.1149 18.509C17.8899 16.8496 17.1114 15.3148 15.9054 14.1531C14.6995 12.9913 13.1367 12.2706 11.4701 12.1076C10.1203 11.891 8.73988 11.9611 7.41889 12.3134C6.0979 12.6656 4.86591 13.2921 3.80313 14.1522C2.86816 14.8937 2.10302 15.827 1.5593 16.8893C1.01557 17.9516 0.705893 19.118 0.651134 20.3101C0.548729 22.6253 1.36894 24.8866 2.93181 26.5977C4.49467 28.3089 6.67252 29.3302 8.98749 29.4375H15.255C15.638 29.4375 16.0172 29.3619 16.3709 29.2149C16.7245 29.068 17.0457 28.8527 17.316 28.5813C17.5862 28.3099 17.8002 27.9878 17.9457 27.6335C18.0911 27.2792 18.1652 26.8997 18.1636 26.5167V23.5229H19.7091C19.9588 23.5197 20.1971 23.4183 20.3725 23.2407C20.5479 23.063 20.6462 22.8234 20.6462 22.5737C20.6482 22.3872 20.593 22.2046 20.488 22.0504L18.1149 18.509ZM16.2651 22.5737V26.5289C16.2651 26.8032 16.1561 27.0664 15.9621 27.2604C15.7681 27.4544 15.505 27.5633 15.2306 27.5633H9.40126C7.59233 27.5602 5.85749 26.8444 4.5727 25.571C3.2879 24.2976 2.55667 22.5692 2.53746 20.7604V20.4561C2.57765 19.5313 2.8157 18.6258 3.23558 17.8007C3.65545 16.9757 4.24738 16.2502 4.97143 15.6734C6.34814 14.5551 8.06575 13.9411 9.83938 13.9331C10.2474 13.9355 10.6545 13.9722 11.0564 14.0426C15.9243 14.8093 16.1312 18.7645 16.1434 18.9106C16.1469 19.0831 16.1974 19.2514 16.2894 19.3974L17.8106 21.6853H17.0804C16.8627 21.716 16.6623 21.8214 16.5136 21.9834C16.3648 22.1454 16.277 22.3541 16.2651 22.5737Z" fill="white"/>
</svg>
