<svg width="12" height="12" viewBox="0 0 12 12" fill="none" xmlns="http://www.w3.org/2000/svg">
<path d="M3.98426 1.89827C4.68996 0.632756 5.04253 0 5.57 0C6.09747 0 6.45004 0.632756 7.15574 1.89827L7.33843 2.22579C7.53895 2.58561 7.63921 2.76552 7.79516 2.88416C7.95112 3.00281 8.14606 3.04681 8.53595 3.13482L8.8902 3.21502C10.2604 3.52528 10.9449 3.68012 11.1081 4.20426C11.2708 4.72785 10.804 5.27427 9.86994 6.36655L9.62821 6.64895C9.36308 6.9592 9.22996 7.11461 9.17036 7.30622C9.11077 7.49838 9.13082 7.70559 9.17092 8.11944L9.20768 8.49653C9.3486 9.95421 9.41934 10.6828 8.99268 11.0064C8.56603 11.33 7.92438 11.0348 6.6422 10.4444L6.30968 10.2918C5.94541 10.1235 5.76327 10.04 5.57 10.04C5.37672 10.04 5.19459 10.1235 4.83032 10.2918L4.49836 10.4444C3.21562 11.0348 2.57397 11.33 2.14787 11.0069C1.72066 10.6828 1.7914 9.95421 1.93232 8.49653L1.96908 8.12C2.00918 7.70559 2.02923 7.49838 1.96908 7.30677C1.91004 7.11461 1.77692 6.9592 1.51179 6.64951L1.27006 6.36655C0.335994 5.27482 -0.130761 4.7284 0.0318791 4.20426C0.194519 3.68012 0.88017 3.52472 2.25036 3.21502L2.6046 3.13482C2.99394 3.04681 3.18832 3.00281 3.34484 2.88416C3.50135 2.76552 3.60105 2.58561 3.80157 2.22579L3.98426 1.89827Z" fill="#CEB07E"/>
</svg>
