<svg width="14" height="12" viewBox="0 0 14 12" fill="none" xmlns="http://www.w3.org/2000/svg">
<path fill-rule="evenodd" clip-rule="evenodd" d="M6.49262 0.936015C5.62375 0.414798 4.64611 0.101593 3.63612 0.0208806C2.62613 -0.0598314 1.61116 0.0941375 0.670543 0.470752C0.534697 0.524825 0.418239 0.618481 0.336283 0.739565C0.254327 0.860649 0.210656 1.00357 0.210939 1.14978V8.48082C0.210939 8.97124 0.70701 9.30698 1.16284 9.12465C1.93315 8.81665 2.76422 8.69089 3.59116 8.75721C4.41811 8.82352 5.21852 9.0801 5.9299 9.50692L6.64352 9.93446C6.69822 9.96778 6.75669 9.98161 6.81264 9.98098C6.87244 9.98214 6.93134 9.96622 6.9824 9.93508L7.69539 9.50692C8.40677 9.0801 9.20718 8.82352 10.0341 8.75721C10.8611 8.69089 11.6921 8.81665 12.4624 9.12465C12.5678 9.16677 12.6818 9.18244 12.7946 9.17029C12.9074 9.15814 13.0154 9.11854 13.1094 9.05495C13.2033 8.99136 13.2802 8.90572 13.3334 8.80552C13.3865 8.70532 13.4143 8.59362 13.4144 8.48019V1.14978C13.4144 0.850507 13.232 0.582038 12.9547 0.470752C12.0141 0.0944264 10.9992 -0.0592778 9.98934 0.0216517C8.97947 0.102581 8.00199 0.415952 7.1333 0.937272L6.81264 1.12967L6.49262 0.936015ZM7.28482 2.43869C7.28482 2.31363 7.23514 2.19369 7.14671 2.10525C7.05828 2.01682 6.93834 1.96714 6.81327 1.96714C6.68821 1.96714 6.56827 2.01682 6.47984 2.10525C6.3914 2.19369 6.34172 2.31363 6.34172 2.43869V8.41166C6.34172 8.53672 6.3914 8.65667 6.47984 8.7451C6.56827 8.83353 6.68821 8.88321 6.81327 8.88321C6.93834 8.88321 7.05828 8.83353 7.14671 8.7451C7.23514 8.65667 7.28482 8.53672 7.28482 8.41166V2.43869Z" fill="#CEB07E"/>
<path d="M0.98176 10.3243C1.60675 9.9597 2.31732 9.76761 3.04086 9.76761C3.76441 9.76761 4.47498 9.9597 5.09997 10.3243L5.7834 10.7229C6.09597 10.9053 6.45137 11.0014 6.81327 11.0014C7.17516 11.0014 7.53056 10.9053 7.84313 10.7229L8.52657 10.3243C9.15156 9.9597 9.86213 9.76761 10.5857 9.76761C11.3092 9.76761 12.0198 9.9597 12.6448 10.3243L12.7095 10.362C12.763 10.3932 12.8099 10.4346 12.8474 10.4839C12.8848 10.5333 12.9123 10.5895 12.928 10.6494C12.9438 10.7093 12.9476 10.7717 12.9392 10.8331C12.9309 10.8944 12.9105 10.9536 12.8793 11.0071C12.8481 11.0606 12.8066 11.1074 12.7573 11.1449C12.708 11.1824 12.6518 11.2098 12.5919 11.2255C12.532 11.2413 12.4696 11.2451 12.4082 11.2368C12.3468 11.2284 12.2877 11.208 12.2342 11.1768L12.1695 11.1391C11.6887 10.8587 11.1422 10.711 10.5857 10.711C10.0292 10.711 9.48262 10.8587 9.00189 11.1391L8.31783 11.5377C7.86114 11.8041 7.34194 11.9444 6.81327 11.9444C6.28459 11.9444 5.76539 11.8041 5.30871 11.5377L4.62464 11.1391C4.14392 10.8587 3.59738 10.711 3.04086 10.711C2.48435 10.711 1.93781 10.8587 1.45708 11.1391L1.39232 11.1768C1.28427 11.2399 1.1556 11.2574 1.03462 11.2255C0.913649 11.1937 0.810274 11.1151 0.747243 11.0071C0.684211 10.899 0.666685 10.7703 0.698521 10.6494C0.730357 10.5284 0.808946 10.425 0.917001 10.362L0.98176 10.3243Z" fill="#CEB07E"/>
</svg>
