<svg width="845" height="198" viewBox="0 0 845 198" fill="none" xmlns="http://www.w3.org/2000/svg">
<path d="M85.1738 177.601C85.5742 178.304 85.8721 179.036 86.0674 179.798C86.2627 180.56 86.3652 181.346 86.375 182.156V183.665L77 188.367L67.625 183.665C67.625 183.079 67.6299 182.532 67.6396 182.024C67.6494 181.517 67.6934 181.023 67.7715 180.545C67.8496 180.066 67.9668 179.588 68.123 179.109C68.2793 178.631 68.5137 178.128 68.8262 177.601L65.75 176.062V184.661C66.0332 184.759 66.2871 184.896 66.5117 185.071C66.7363 185.247 66.9365 185.452 67.1123 185.687C67.2881 185.921 67.415 186.175 67.4932 186.448C67.5713 186.722 67.6152 187.01 67.625 187.312V192H62V187.312C62 187.02 62.0439 186.736 62.1318 186.463C62.2197 186.189 62.3467 185.931 62.5127 185.687C62.6787 185.442 62.874 185.237 63.0986 185.071C63.3232 184.905 63.582 184.769 63.875 184.661V175.125L62 174.188L77 166.688L92 174.188L85.1738 177.601ZM65.75 187.312C65.75 187.059 65.6572 186.839 65.4717 186.653C65.2861 186.468 65.0664 186.375 64.8125 186.375C64.5586 186.375 64.3389 186.468 64.1533 186.653C63.9678 186.839 63.875 187.059 63.875 187.312V190.125H65.75V187.312ZM66.1895 174.188L77 179.593L87.8105 174.188L77 168.782L66.1895 174.188ZM84.5 182.508C84.5 181.756 84.4268 181.058 84.2803 180.413C84.1338 179.769 83.875 179.109 83.5039 178.436L77 181.688L70.4961 178.436C70.1738 179.002 69.9297 179.598 69.7637 180.223C69.5977 180.848 69.5098 181.492 69.5 182.156V182.508L77 186.258L84.5 182.508Z" fill="black" fill-opacity="0.32"/>
<path d="M15 111.556C13.3113 110.367 11.3563 109.61 9.30625 109.355C7.85231 109.06 6.37102 108.92 4.8875 108.939C4.69768 108.94 4.5094 108.904 4.33355 108.833C4.1577 108.761 3.99775 108.656 3.86294 108.522C3.72813 108.388 3.62113 108.229 3.54811 108.054C3.47509 107.879 3.43749 107.691 3.4375 107.501L3.46375 93.885C3.46295 93.5196 3.60129 93.1677 3.85066 92.9007C4.10002 92.6336 4.4417 92.4716 4.80625 92.4475C6.31643 92.4174 7.82537 92.5524 9.30625 92.85C11.354 93.1142 13.3075 93.8698 15 95.0525M15 111.556V95.0525M15 111.556C16.6887 110.367 18.6438 109.61 20.6938 109.355C22.1477 109.06 23.629 108.92 25.1125 108.939C25.3023 108.94 25.4906 108.904 25.6664 108.833C25.8423 108.761 26.0022 108.656 26.1371 108.522C26.2719 108.388 26.3789 108.229 26.4519 108.054C26.5249 107.879 26.5625 107.691 26.5625 107.501L26.535 93.885C26.5358 93.5198 26.3977 93.168 26.1485 92.9011C25.8994 92.6341 25.5581 92.4719 25.1938 92.4475C23.6836 92.4174 22.1746 92.5524 20.6938 92.85C18.646 93.1142 16.6925 93.8698 15 95.0525" stroke="black" stroke-opacity="0.32" stroke-width="1.5" stroke-linecap="round" stroke-linejoin="round"/>
<path d="M762.768 170.812C763.009 170.812 763.239 170.911 763.409 171.087C763.579 171.263 763.675 171.501 763.675 171.75V175.203H766.911C767.03 175.202 767.147 175.227 767.257 175.274C767.367 175.321 767.467 175.39 767.551 175.477C767.636 175.564 767.702 175.667 767.748 175.781C767.793 175.895 767.817 176.017 767.817 176.14C767.817 176.263 767.793 176.385 767.748 176.499C767.702 176.613 767.636 176.716 767.551 176.803C767.467 176.89 767.367 176.959 767.257 177.006C767.147 177.053 767.03 177.078 766.911 177.078H763.676V180.53C763.676 180.779 763.58 181.017 763.41 181.193C763.24 181.369 763.01 181.468 762.77 181.468C762.529 181.468 762.299 181.369 762.129 181.193C761.959 181.017 761.863 180.779 761.863 180.53V177.078H758.625C758.385 177.077 758.154 176.979 757.984 176.803C757.814 176.627 757.719 176.389 757.719 176.14C757.719 175.891 757.814 175.653 757.984 175.477C758.154 175.301 758.385 175.203 758.625 175.203H761.862V171.75C761.862 171.501 761.958 171.263 762.128 171.087C762.298 170.911 762.528 170.812 762.768 170.812ZM772.219 173.396C772.219 173.148 772.314 172.909 772.484 172.733C772.654 172.558 772.885 172.459 773.125 172.459H780.375C780.615 172.459 780.846 172.558 781.016 172.733C781.186 172.909 781.281 173.148 781.281 173.396C781.281 173.645 781.186 173.883 781.016 174.059C780.846 174.235 780.615 174.334 780.375 174.334H773.125C772.885 174.334 772.654 174.235 772.484 174.059C772.314 173.883 772.219 173.645 772.219 173.396ZM772.219 178.884C772.219 178.635 772.314 178.397 772.484 178.221C772.654 178.045 772.885 177.946 773.125 177.946H780.375C780.615 177.946 780.846 178.045 781.016 178.221C781.186 178.397 781.281 178.635 781.281 178.884C781.281 179.132 781.186 179.371 781.016 179.547C780.846 179.722 780.615 179.821 780.375 179.821H773.125C772.885 179.821 772.654 179.722 772.484 179.547C772.314 179.371 772.219 179.132 772.219 178.884ZM773.217 187.37C773.389 187.197 773.62 187.101 773.861 187.104C774.101 187.107 774.33 187.209 774.498 187.386L776.78 189.804L779.06 187.386C779.143 187.298 779.243 187.228 779.352 187.179C779.461 187.131 779.579 187.105 779.698 187.103C779.817 187.102 779.935 187.125 780.046 187.17C780.156 187.216 780.257 187.284 780.342 187.37C780.428 187.456 780.496 187.559 780.542 187.672C780.589 187.785 780.614 187.907 780.616 188.03C780.617 188.153 780.595 188.275 780.551 188.39C780.507 188.504 780.441 188.608 780.358 188.696L778.047 191.146L780.358 193.595C780.441 193.683 780.507 193.787 780.551 193.902C780.595 194.016 780.617 194.138 780.616 194.261C780.614 194.385 780.589 194.506 780.542 194.619C780.496 194.733 780.428 194.835 780.342 194.921C780.257 195.007 780.156 195.075 780.046 195.121C779.935 195.167 779.817 195.189 779.698 195.188C779.579 195.186 779.461 195.161 779.352 195.112C779.243 195.063 779.143 194.993 779.06 194.905L776.78 192.487L774.499 194.905C774.416 194.993 774.317 195.063 774.207 195.112C774.098 195.161 773.98 195.186 773.861 195.188C773.742 195.189 773.624 195.167 773.513 195.121C773.403 195.075 773.302 195.007 773.217 194.921C773.132 194.835 773.064 194.733 773.017 194.619C772.97 194.506 772.945 194.385 772.943 194.261C772.942 194.138 772.964 194.016 773.008 193.902C773.052 193.787 773.118 193.683 773.201 193.595L775.514 191.145L773.201 188.695C773.033 188.517 772.941 188.278 772.944 188.029C772.947 187.781 773.045 187.544 773.217 187.37ZM758.238 190.957C758.238 190.709 758.334 190.47 758.504 190.295C758.674 190.119 758.904 190.02 759.145 190.02H766.395C766.635 190.02 766.865 190.119 767.035 190.295C767.205 190.47 767.301 190.709 767.301 190.957C767.301 191.206 767.205 191.445 767.035 191.62C766.865 191.796 766.635 191.895 766.395 191.895H759.145C758.904 191.895 758.674 191.796 758.504 191.62C758.334 191.445 758.238 191.206 758.238 190.957Z" fill="black" fill-opacity="0.32"/>
<path d="M817.501 95.4993C817.501 102.173 823.097 107.583 830.001 107.583C836.905 107.583 842.501 102.173 842.501 95.4993C842.501 88.8257 836.905 83.416 830.001 83.416C823.097 83.416 817.501 88.8257 817.501 95.4993Z" stroke="black" stroke-opacity="0.32" stroke-width="1.5" stroke-linecap="round" stroke-linejoin="round"/>
<path d="M831.251 83.4761C831.251 83.4761 835.001 88.249 835.001 95.499C835.001 102.749 831.251 107.522 831.251 107.522M828.751 107.522C828.751 107.522 825.001 102.749 825.001 95.499C825.001 88.249 828.751 83.4761 828.751 83.4761M818.288 99.7282H841.713M818.288 91.2698H841.713" stroke="black" stroke-opacity="0.32" stroke-width="1.5" stroke-linecap="round" stroke-linejoin="round"/>
<path d="M170.807 21.75C171.367 20.4506 171.516 19.0204 171.238 17.6389C170.959 16.2574 170.265 14.9863 169.241 13.9852C169.523 13.299 169.576 12.545 169.394 11.8281C169.211 11.1112 168.803 10.467 168.224 9.98506L170.827 7.46931C171.178 7.12902 171.375 6.66803 171.375 6.18742C171.375 5.70681 171.178 5.24581 170.827 4.90553L168.175 2.34265C168.001 2.17427 167.794 2.04069 167.567 1.94956C167.339 1.85843 167.096 1.81152 166.849 1.81152C166.603 1.81152 166.359 1.85843 166.132 1.94956C165.904 2.04069 165.697 2.17427 165.523 2.34265L153.174 14.2798C152.823 14.6201 152.626 15.0811 152.626 15.5617C152.626 16.0423 152.823 16.5033 153.174 16.8436L155.826 19.4064C156 19.5748 156.206 19.7084 156.434 19.7995C156.662 19.8907 156.905 19.9376 157.152 19.9376C157.398 19.9376 157.642 19.8907 157.869 19.7995C158.097 19.7084 158.304 19.5748 158.478 19.4064L162.954 15.0791C163.589 15.7887 164.488 16.2278 165.455 16.3011C166.423 16.3744 167.381 16.076 168.123 15.4706C168.894 16.3226 169.368 17.3881 169.477 18.5154C169.586 19.6428 169.324 20.7746 168.729 21.75H162V25.375H150.75V27.1875H173.25V21.75H170.807ZM157.151 18.125L154.5 15.5612L156.262 13.8593L158.913 16.4222L157.151 18.125ZM162 12.6875C162.001 12.9163 162.025 13.1445 162.071 13.369L160.238 15.1407L157.587 12.5778L166.85 3.62409L169.5 6.18696L166.454 9.13228C165.912 9.02825 165.352 9.04212 164.816 9.17289C164.28 9.30365 163.781 9.54804 163.354 9.88834C162.928 10.2286 162.585 10.6563 162.351 11.1405C162.117 11.6246 161.997 12.153 162 12.6875ZM165.75 14.5C165.379 14.5 165.017 14.3937 164.708 14.1945C164.4 13.9954 164.16 13.7123 164.018 13.3811C163.876 13.0499 163.839 12.6855 163.911 12.3339C163.983 11.9823 164.162 11.6593 164.424 11.4059C164.686 11.1524 165.02 10.9798 165.384 10.9098C165.748 10.8399 166.125 10.8758 166.468 11.013C166.81 11.1501 167.103 11.3825 167.309 11.6805C167.515 11.9786 167.625 12.329 167.625 12.6875C167.625 13.1682 167.427 13.6292 167.076 13.9691C166.724 14.309 166.247 14.5 165.75 14.5ZM171.375 25.375H163.875V23.5625H171.375V25.375Z" fill="black" fill-opacity="0.32"/>
<g clip-path="url(#clip0_824_339)">
<path d="M292.904 38.3143C291.443 39.4216 290.062 40.6288 288.768 41.9272C282.674 48.0215 279.588 54.8122 281.872 57.0986C284.157 59.3829 290.95 56.295 297.042 50.2029C298.34 48.9088 299.547 47.5262 300.655 46.065" stroke="black" stroke-opacity="0.32" stroke-width="1.71429" stroke-linecap="round" stroke-linejoin="round"/>
<path d="M300.654 46.0647C304.248 50.8347 305.712 55.3218 303.937 57.0961C301.651 59.3826 294.86 56.2947 288.766 50.2026C282.676 44.1061 279.59 37.3176 281.874 35.0311C283.649 33.259 288.136 34.7226 292.906 38.314" stroke="black" stroke-opacity="0.32" stroke-width="1.71429" stroke-linecap="round" stroke-linejoin="round"/>
<path d="M291.833 46.0653C291.833 46.3494 291.946 46.622 292.147 46.8229C292.348 47.0238 292.62 47.1367 292.904 47.1367C293.189 47.1367 293.461 47.0238 293.662 46.8229C293.863 46.622 293.976 46.3494 293.976 46.0653C293.976 45.7811 293.863 45.5086 293.662 45.3077C293.461 45.1067 293.189 44.9938 292.904 44.9938C292.62 44.9938 292.348 45.1067 292.147 45.3077C291.946 45.5086 291.833 45.7811 291.833 46.0653ZM297.212 36.7353C296.537 36.6174 296.537 35.651 297.212 35.5353C298.404 35.3287 299.508 34.7713 300.382 33.9342C301.256 33.0971 301.861 32.0184 302.119 30.836L302.157 30.6496C302.303 29.9853 303.25 29.981 303.4 30.6431L303.452 30.8596C303.721 32.0362 304.331 33.1071 305.206 33.9382C306.081 34.7692 307.183 35.3233 308.372 35.531C309.049 35.6488 309.049 36.6217 308.372 36.7374C307.183 36.9451 306.081 37.4992 305.206 38.3302C304.331 39.1613 303.721 40.2322 303.452 41.4088L303.4 41.6253C303.25 42.2896 302.303 42.2853 302.157 41.621L302.114 41.4346C301.856 40.2521 301.252 39.1734 300.378 38.3364C299.504 37.4993 298.4 36.9418 297.207 36.7353H297.212Z" stroke="black" stroke-opacity="0.32" stroke-width="1.71429" stroke-linecap="round" stroke-linejoin="round"/>
</g>
<path fill-rule="evenodd" clip-rule="evenodd" d="M418.916 17.6852C418.941 17.5277 419.015 17.3822 419.128 17.2697L434.245 2.1527C434.385 2.01209 434.576 1.93311 434.775 1.93311C434.974 1.93311 435.165 2.01209 435.305 2.1527L441.14 7.9877C441.28 8.12828 441.359 8.31869 441.359 8.5172C441.359 8.7157 441.28 8.90611 441.14 9.0467L426.02 24.1652C425.908 24.2775 425.762 24.351 425.605 24.3752L418.712 25.4342C418.596 25.452 418.477 25.4422 418.365 25.4056C418.253 25.3689 418.152 25.3064 418.068 25.2232C417.985 25.1399 417.923 25.0383 417.886 24.9264C417.849 24.8145 417.839 24.6956 417.857 24.5792L418.916 17.6852ZM420.362 18.1562L419.497 23.7962L425.135 22.9292L439.549 8.5172L434.774 3.7442L420.362 18.1562Z" fill="black" fill-opacity="0.32"/>
<path fill-rule="evenodd" clip-rule="evenodd" d="M436.209 12.2598L430.903 6.96483L431.964 5.90283L437.268 11.1978L436.209 12.2598Z" fill="black" fill-opacity="0.32"/>
<path d="M552.25 54C551.716 54 551.338 53.7625 551.113 53.2875C550.889 52.8125 550.943 52.3687 551.273 51.9562L558.5 43.1825V35.25H556.145V34H565.856V35.25H563.5V43.1825L570.725 51.9575C571.055 52.3692 571.109 52.8125 570.886 53.2875C570.663 53.7625 570.284 54 569.75 54H552.25ZM552.25 52.75H569.75L562.25 43.625V35.25H559.75V43.625L552.25 52.75Z" fill="black" fill-opacity="0.32"/>
<g clip-path="url(#clip1_824_339)">
<path d="M687.067 20.8564L687.677 20.4487C687.61 20.3484 687.519 20.2662 687.413 20.2094C687.306 20.1526 687.187 20.123 687.067 20.1231V20.8564ZM690 25.2535L689.39 25.6597C689.457 25.7602 689.548 25.8425 689.654 25.8995C689.76 25.9564 689.879 25.9862 690 25.9862C690.121 25.9862 690.24 25.9564 690.346 25.8995C690.452 25.8425 690.543 25.7602 690.61 25.6597L690 25.2535ZM692.933 20.8564V20.1231C692.813 20.123 692.694 20.1526 692.587 20.2094C692.481 20.2662 692.39 20.3484 692.323 20.4487L692.933 20.8564ZM686.457 21.2627L689.39 25.6597L690.61 24.8457L687.677 20.4487L686.457 21.2627ZM690.61 25.6597L693.543 21.2627L692.323 20.4487L689.39 24.8457L690.61 25.6597ZM692.933 21.5897H698.8V20.1231H692.933V21.5897ZM698.8 21.5897C700.016 21.5897 701 20.6071 701 19.3897H699.533C699.533 19.796 699.206 20.1231 698.8 20.1231V21.5897ZM701 19.3897V6.2H699.533V19.3912L701 19.3897ZM701 6.2C701 4.98267 700.016 4 698.8 4V5.46667C699.206 5.46667 699.533 5.79373 699.533 6.2H701ZM698.8 4H681.2V5.46667H698.8V4ZM681.2 4C679.984 4 679 4.98267 679 6.2H680.467C680.467 5.79373 680.794 5.46667 681.2 5.46667V4ZM679 6.2V19.3912H680.467V6.19853L679 6.2ZM679 19.3912C679 20.6071 679.984 21.5897 681.2 21.5897V20.1231C681.006 20.1231 680.819 20.0458 680.681 19.9083C680.544 19.7708 680.467 19.5842 680.467 19.3897L679 19.3912ZM681.2 21.5897H687.067V20.1231H681.2V21.5897ZM689.267 14.2667H690.733V12.8H689.267V14.2667ZM684.867 14.2667H686.333V12.8H684.867V14.2667ZM693.667 14.2667H695.133V12.8H693.667V14.2667Z" fill="black" fill-opacity="0.32"/>
</g>
<defs>
<clipPath id="clip0_824_339">
<rect width="30" height="30" fill="white" transform="translate(280 29)"/>
</clipPath>
<clipPath id="clip1_824_339">
<rect width="22" height="22" fill="white" transform="translate(679 4)"/>
</clipPath>
</defs>
</svg>
