<svg width="68" height="48" viewBox="0 0 68 48" fill="none" xmlns="http://www.w3.org/2000/svg">
<path d="M31.8664 14.3055C31.0987 14.308 30.3418 14.4843 29.6523 14.8217C27.7955 12.2808 24.3284 11.5365 21.5924 13.0913C18.8563 14.6461 17.7212 18.0056 18.9536 20.9012C19.1159 21.2818 19.4897 21.5289 19.9034 21.5287C20.0424 21.5292 20.18 21.501 20.3079 21.4462C20.5598 21.3389 20.7586 21.1359 20.861 20.882C20.9632 20.6281 20.9602 20.3438 20.8529 20.0919C20.6283 19.5683 20.5123 19.0042 20.5123 18.4343C20.5123 16.154 22.3608 14.3055 24.641 14.3055C26.2425 14.2976 27.7012 15.2256 28.3723 16.6796C28.3948 16.7132 28.4188 16.7456 28.4447 16.7766C28.4609 16.812 28.4792 16.8464 28.4993 16.8798C28.5179 16.9026 28.5448 16.9128 28.5654 16.9345C28.6139 16.9848 28.6674 17.0297 28.7254 17.0687C28.7769 17.1084 28.8323 17.1431 28.8906 17.172C28.9505 17.1971 29.0127 17.2164 29.0764 17.2298C29.1398 17.2465 29.2049 17.2564 29.2704 17.2596C29.4044 17.2586 29.5376 17.2363 29.6647 17.1937C29.6923 17.1886 29.7194 17.1821 29.7463 17.174C29.7797 17.1523 29.8118 17.1285 29.8423 17.1028C29.8795 17.0862 29.9155 17.0676 29.9507 17.0471C30.4927 16.6086 31.169 16.3695 31.8664 16.37C33.0733 16.3718 34.169 17.0749 34.6739 18.1711C34.9105 18.6898 35.5228 18.9186 36.0415 18.682C36.5603 18.4455 36.789 17.8331 36.5524 17.3144C35.712 15.4824 33.8819 14.3074 31.8664 14.3055Z" stroke="#868686" stroke-width="4" stroke-linecap="round" stroke-linejoin="round"/>
<path d="M54.6289 39.8073C57.4917 39.8073 59.8339 37.4253 59.8339 34.514V8.04751C59.8339 5.13619 57.4917 2.75421 54.6289 2.75421H12.9883C10.1255 2.75421 7.7832 5.13619 7.7832 8.04751V34.514C7.7832 37.4253 10.1255 39.8073 12.9883 39.8073H4.69544C3.52608 39.8073 2.57812 40.7552 2.57812 41.9246V42.9833C2.57812 44.1526 3.52608 45.1006 4.69544 45.1006H62.9217C64.0911 45.1006 65.039 44.1526 65.039 42.9833V41.9246C65.039 40.7552 64.0911 39.8073 62.9217 39.8073H54.6289ZM12.9883 10.1648C12.9883 8.99546 13.9362 8.04751 15.1056 8.04751H52.5116C53.6809 8.04751 54.6289 8.99546 54.6289 10.1648V32.3967C54.6289 33.566 53.6809 34.514 52.5116 34.514H15.1056C13.9362 34.514 12.9883 33.566 12.9883 32.3967V10.1648Z" stroke="#868686" stroke-width="4" stroke-linecap="round" stroke-linejoin="round"/>
</svg>
