<svg width="50" height="48" viewBox="0 0 50 48" fill="none" xmlns="http://www.w3.org/2000/svg">
<path d="M14.6481 12.7792V7.74886C14.6481 6.41473 15.1781 5.13524 16.1215 4.19186C17.0649 3.24849 18.3444 2.71851 19.6785 2.71851H29.7392C31.0733 2.71851 32.3528 3.24849 33.2962 4.19186C34.2396 5.13524 34.7696 6.41473 34.7696 7.74886V12.7792M24.7089 25.3551V25.3802M2.07227 27.8703C9.09358 31.4083 16.8465 33.2513 24.7089 33.2513C32.5712 33.2513 40.3241 31.4083 47.3454 27.8703M2.07227 17.8096C2.07227 16.4754 2.60225 15.1959 3.54562 14.2526C4.489 13.3092 5.76849 12.7792 7.10262 12.7792H42.3151C43.6492 12.7792 44.9287 13.3092 45.8721 14.2526C46.8155 15.1959 47.3454 16.4754 47.3454 17.8096V40.4462C47.3454 41.7803 46.8155 43.0598 45.8721 44.0032C44.9287 44.9465 43.6492 45.4765 42.3151 45.4765H7.10262C5.76849 45.4765 4.489 44.9465 3.54562 44.0032C2.60225 43.0598 2.07227 41.7803 2.07227 40.4462V17.8096Z" stroke="#868686" stroke-width="3.77" stroke-linecap="round" stroke-linejoin="round"/>
</svg>
