<svg width="40" height="41" viewBox="0 0 40 41" fill="none" xmlns="http://www.w3.org/2000/svg">
<path d="M20.0125 40.291C18.4186 40.2968 16.8869 39.6728 15.7509 38.5549L14.2897 37.0939C14.0118 36.8149 13.6814 36.5938 13.3175 36.4433C12.9536 36.2928 12.5635 36.216 12.1697 36.2173H10.1082C8.51157 36.2151 6.98101 35.5799 5.85211 34.451C4.72321 33.3221 4.08812 31.7917 4.0861 30.1953V28.1238C4.08314 27.3225 3.76742 26.5539 3.2062 25.9818L1.76661 24.5608C0.63891 23.4314 0.00382604 21.9018 1.72304e-05 20.3059C-0.00379158 18.7099 0.623995 17.1773 1.74629 16.0425L3.20748 14.5814C3.48847 14.3007 3.71094 13.9669 3.86198 13.5996C4.01302 13.2322 4.08963 12.8385 4.08738 12.4413V10.401C4.08991 8.8053 4.72533 7.27571 5.85428 6.14785C6.98323 5.01998 8.51353 4.38594 10.1094 4.38477H12.1691C12.9642 4.38125 13.726 4.06445 14.2891 3.50307L15.7287 2.06299C16.8577 0.931741 18.3894 0.294483 19.9877 0.29103C21.5861 0.287576 23.1205 0.918214 24.2544 2.04457L25.7156 3.50559C25.9931 3.78542 26.3234 4.00742 26.6873 4.15877C27.0512 4.31011 27.4415 4.38779 27.8357 4.38729H29.8953C31.4915 4.38863 33.022 5.02302 34.1509 6.15126C35.2799 7.2795 35.9152 8.80944 35.9174 10.4054V12.468C35.9168 12.8616 35.9945 13.2514 36.1458 13.6148C36.2972 13.9781 36.5193 14.3078 36.7992 14.5846L38.2388 16.0247C39.3599 17.1533 39.9924 18.6773 39.9999 20.2681C40.0074 21.8588 39.3893 23.3887 38.2788 24.5278L38.2388 24.5672L38.2185 24.5875L36.7973 26.0022C36.517 26.2799 36.2946 26.6105 36.1432 26.9748C35.9919 27.3392 35.9145 27.73 35.9155 28.1245V30.1826C35.914 31.7792 35.279 33.31 34.15 34.4391C33.0211 35.5682 31.4902 36.2033 29.8934 36.2052H27.8338C27.44 36.2038 27.0499 36.2805 26.686 36.4309C26.3221 36.5812 25.9916 36.8023 25.7137 37.0812L24.2722 38.5219C23.715 39.0844 23.0514 39.5305 22.3201 39.8343C21.5888 40.138 20.8044 40.2932 20.0125 40.291ZM25.1547 23.69C24.8085 23.688 24.4695 23.7887 24.1805 23.9793C23.8916 24.17 23.6657 24.442 23.5314 24.7611C23.397 25.0801 23.3604 25.4318 23.426 25.7717C23.4916 26.1115 23.6566 26.4243 23.9 26.6705C24.1434 26.9166 24.4543 27.0851 24.7935 27.1545C25.1327 27.2239 25.4848 27.1912 25.8054 27.0605C26.1259 26.9298 26.4005 26.707 26.5945 26.4202C26.7884 26.1335 26.8929 25.7957 26.8948 25.4496V25.4299C26.8913 24.9698 26.7071 24.5294 26.382 24.2038C26.0568 23.8782 25.6168 23.6935 25.1566 23.6893L25.1547 23.69ZM25.1445 13.3993C24.9158 13.3984 24.6892 13.4429 24.4777 13.5301C24.2663 13.6173 24.0742 13.7456 23.9127 13.9074L13.629 24.1886C13.3025 24.5182 13.1193 24.9634 13.1193 25.4273C13.1193 25.8912 13.3025 26.3364 13.629 26.666C13.7856 26.832 13.9747 26.9638 14.1846 27.0534C14.3945 27.1429 14.6206 27.1881 14.8488 27.1862C15.0802 27.1899 15.3099 27.1455 15.5234 27.056C15.7368 26.9665 15.9294 26.8337 16.0889 26.666L26.3745 16.3874C26.62 16.1431 26.7875 15.8316 26.8558 15.4921C26.9242 15.1526 26.8902 14.8005 26.7584 14.4803C26.6265 14.1601 26.4026 13.8863 26.115 13.6934C25.8273 13.5005 25.4889 13.3973 25.1426 13.3967L25.1445 13.3993ZM14.871 13.3993C14.5248 13.3971 14.1858 13.4977 13.8967 13.6883C13.6077 13.8788 13.3817 14.1508 13.2473 14.4698C13.1129 14.7888 13.0761 15.1404 13.1416 15.4803C13.2071 15.8203 13.3719 16.1331 13.6152 16.3793C13.8586 16.6256 14.1695 16.7941 14.5086 16.8637C14.8477 16.9332 15.1999 16.9006 15.5205 16.77C15.8411 16.6395 16.1158 16.4168 16.3098 16.1301C16.5038 15.8434 16.6085 15.5056 16.6105 15.1595V15.1373C16.6065 14.6775 16.4219 14.2376 16.0964 13.9127C15.771 13.5878 15.3309 13.4039 14.871 13.4005V13.3993Z" fill="#074226"/>
</svg>
